%TF.GenerationSoftware,KiCad,Pcbnew,8.0.6-8.0.6-0~ubuntu24.04.1*%
%TF.CreationDate,2024-10-29T13:24:51-04:00*%
%TF.ProjectId,girl_scouts_blinker,6769726c-5f73-4636-9f75-74735f626c69,rev?*%
%TF.SameCoordinates,Original*%
%TF.FileFunction,Soldermask,Top*%
%TF.FilePolarity,Negative*%
%FSLAX46Y46*%
G04 Gerber Fmt 4.6, Leading zero omitted, Abs format (unit mm)*
G04 Created by KiCad (PCBNEW 8.0.6-8.0.6-0~ubuntu24.04.1) date 2024-10-29 13:24:51*
%MOMM*%
%LPD*%
G01*
G04 APERTURE LIST*
%ADD10C,4.300000*%
%ADD11C,2.500000*%
%ADD12R,1.800000X1.800000*%
%ADD13C,1.800000*%
%ADD14R,1.700000X1.700000*%
%ADD15O,1.700000X1.700000*%
%ADD16C,1.600000*%
%ADD17R,2.200000X2.200000*%
%ADD18O,2.200000X2.200000*%
%ADD19R,1.600000X1.600000*%
%ADD20O,1.600000X1.600000*%
%ADD21C,1.397000*%
G04 APERTURE END LIST*
D10*
%TO.C,H4*%
X109220000Y-81280000D03*
%TD*%
%TO.C,H3*%
X48260000Y-81280000D03*
%TD*%
%TO.C,H2*%
X109220000Y-48260000D03*
%TD*%
%TO.C,H1*%
X48260000Y-48260000D03*
%TD*%
D11*
%TO.C,SW3*%
X63500000Y-78105000D03*
X68300000Y-78105000D03*
X73100000Y-78105000D03*
%TD*%
D12*
%TO.C,D3*%
X88341200Y-70199850D03*
D13*
X88341200Y-68040850D03*
X88341200Y-65881850D03*
X88341200Y-63722850D03*
%TD*%
D14*
%TO.C,BT1*%
X50165000Y-66120000D03*
D15*
X50165000Y-68660000D03*
%TD*%
D12*
%TO.C,D4*%
X101041200Y-70072850D03*
D13*
X101041200Y-67913850D03*
X101041200Y-65754850D03*
X101041200Y-63595850D03*
%TD*%
D16*
%TO.C,C2*%
X60960000Y-46990000D03*
X60960000Y-51990000D03*
%TD*%
D12*
%TO.C,D1*%
X74371200Y-70199850D03*
D13*
X74371200Y-68040850D03*
X74371200Y-65881850D03*
X74371200Y-63722850D03*
%TD*%
D17*
%TO.C,D2*%
X61595000Y-59770000D03*
D18*
X51435000Y-59770000D03*
%TD*%
D19*
%TO.C,U1*%
X67320000Y-53330000D03*
D20*
X69860000Y-53330000D03*
X72400000Y-53330000D03*
X74940000Y-53330000D03*
X74940000Y-45710000D03*
X72400000Y-45710000D03*
X69860000Y-45710000D03*
X67320000Y-45710000D03*
%TD*%
D21*
%TO.C,SW2*%
X101752400Y-76784200D03*
X101752400Y-81280000D03*
X95250000Y-81280000D03*
X95250000Y-76784200D03*
%TD*%
D16*
%TO.C,C1*%
X61595000Y-64850000D03*
X61595000Y-69850000D03*
%TD*%
D21*
%TO.C,SW1*%
X87782400Y-76784200D03*
X87782400Y-81280000D03*
X81280000Y-81280000D03*
X81280000Y-76784200D03*
%TD*%
M02*
