M48
; DRILL file {KiCad 8.0.6-8.0.6-0~ubuntu24.04.1} date 2024-10-29T13:24:40-0400
; FORMAT={-:-/ absolute / inch / decimal}
; #@! TF.CreationDate,2024-10-29T13:24:40-04:00
; #@! TF.GenerationSoftware,Kicad,Pcbnew,8.0.6-8.0.6-0~ubuntu24.04.1
; #@! TF.FileFunction,Plated,1,2,PTH
FMAT,2
INCH
; #@! TA.AperFunction,Plated,PTH,ViaDrill
T1C0.0118
; #@! TA.AperFunction,Plated,PTH,ComponentDrill
T2C0.0315
; #@! TA.AperFunction,Plated,PTH,ComponentDrill
T3C0.0354
; #@! TA.AperFunction,Plated,PTH,ComponentDrill
T4C0.0394
; #@! TA.AperFunction,Plated,PTH,ComponentDrill
T5C0.0420
; #@! TA.AperFunction,Plated,PTH,ComponentDrill
T6C0.0433
; #@! TA.AperFunction,Plated,PTH,ComponentDrill
T7C0.0709
%
G90
G05
T1
X3.85Y-1.875
T2
X2.4Y-1.85
X2.4Y-2.0469
X2.425Y-2.5531
X2.425Y-2.75
X2.6504Y-1.7996
X2.6504Y-2.0996
X2.7504Y-1.7996
X2.7504Y-2.0996
X2.8504Y-1.7996
X2.8504Y-2.0996
X2.9504Y-1.7996
X2.9504Y-2.0996
T3
X2.928Y-2.5088
X2.928Y-2.5938
X2.928Y-2.6788
X2.928Y-2.7638
X3.478Y-2.5088
X3.478Y-2.5938
X3.478Y-2.6788
X3.478Y-2.7638
X3.978Y-2.5038
X3.978Y-2.5888
X3.978Y-2.6738
X3.978Y-2.7588
T4
X1.975Y-2.6031
X1.975Y-2.7031
T5
X3.2Y-3.023
X3.2Y-3.2
X3.456Y-3.023
X3.456Y-3.2
X3.75Y-3.023
X3.75Y-3.2
X4.006Y-3.023
X4.006Y-3.2
T6
X2.025Y-2.3531
X2.425Y-2.3531
T7
X2.5Y-3.075
X2.689Y-3.075
X2.878Y-3.075
M30
