M48
; DRILL file {KiCad 8.0.6-8.0.6-0~ubuntu22.04.1} date 2024-11-09T10:11:18-0500
; FORMAT={-:-/ absolute / inch / decimal}
; #@! TF.CreationDate,2024-11-09T10:11:18-05:00
; #@! TF.GenerationSoftware,Kicad,Pcbnew,8.0.6-8.0.6-0~ubuntu22.04.1
; #@! TF.FileFunction,Plated,1,2,PTH
FMAT,2
INCH
; #@! TA.AperFunction,Plated,PTH,ViaDrill
T1C0.0118
; #@! TA.AperFunction,Plated,PTH,ComponentDrill
T2C0.0300
; #@! TA.AperFunction,Plated,PTH,ComponentDrill
T3C0.0315
; #@! TA.AperFunction,Plated,PTH,ComponentDrill
T4C0.0354
; #@! TA.AperFunction,Plated,PTH,ComponentDrill
T5C0.0394
; #@! TA.AperFunction,Plated,PTH,ComponentDrill
T6C0.0420
; #@! TA.AperFunction,Plated,PTH,ComponentDrill
T7C0.0433
; #@! TA.AperFunction,Plated,PTH,ComponentDrill
T8C0.0984
%
G90
G05
T1
X2.585Y-2.51
X3.235Y-2.885
T2
X2.4275Y-3.115
X2.585Y-3.115
X2.7425Y-3.115
T3
X2.25Y-1.85
X2.25Y-2.0469
X2.4804Y-1.8046
X2.4804Y-2.1046
X2.5804Y-1.8046
X2.5804Y-2.1046
X2.655Y-2.26
X2.6804Y-1.8046
X2.6804Y-2.1046
X2.7804Y-1.8046
X2.7804Y-2.1046
X3.055Y-2.26
X4.3Y-2.5266
X4.3Y-2.7234
T4
X2.928Y-2.5088
X2.928Y-2.5938
X2.928Y-2.6788
X2.928Y-2.7638
X3.478Y-2.5088
X3.478Y-2.5938
X3.478Y-2.6788
X3.478Y-2.7638
X3.978Y-2.5038
X3.978Y-2.5888
X3.978Y-2.6738
X3.978Y-2.7588
T5
X1.975Y-2.6031
X1.975Y-2.7031
X3.185Y-1.86
X3.185Y-1.96
X3.185Y-2.06
X3.285Y-1.86
X3.285Y-1.96
X3.285Y-2.06
T6
X3.2Y-3.023
X3.2Y-3.2
X3.456Y-3.023
X3.456Y-3.2
X3.75Y-3.023
X3.75Y-3.2
X4.006Y-3.023
X4.006Y-3.2
T7
X2.025Y-2.3531
X2.425Y-2.3531
T8
X2.27Y-3.115
X2.9Y-3.115
M30
