%TF.GenerationSoftware,KiCad,Pcbnew,8.0.6-8.0.6-0~ubuntu22.04.1*%
%TF.CreationDate,2024-11-09T10:11:16-05:00*%
%TF.ProjectId,girl_scouts_blinker,6769726c-5f73-4636-9f75-74735f626c69,rev?*%
%TF.SameCoordinates,Original*%
%TF.FileFunction,Soldermask,Top*%
%TF.FilePolarity,Negative*%
%FSLAX46Y46*%
G04 Gerber Fmt 4.6, Leading zero omitted, Abs format (unit mm)*
G04 Created by KiCad (PCBNEW 8.0.6-8.0.6-0~ubuntu22.04.1) date 2024-11-09 10:11:16*
%MOMM*%
%LPD*%
G01*
G04 APERTURE LIST*
%ADD10C,4.300000*%
%ADD11R,1.800000X1.800000*%
%ADD12C,1.800000*%
%ADD13R,1.700000X1.700000*%
%ADD14O,1.700000X1.700000*%
%ADD15C,1.600000*%
%ADD16R,2.200000X2.200000*%
%ADD17O,2.200000X2.200000*%
%ADD18O,1.600000X1.600000*%
%ADD19R,1.600000X1.600000*%
%ADD20C,1.397000*%
%ADD21C,1.524000*%
%ADD22C,3.500000*%
G04 APERTURE END LIST*
D10*
%TO.C,H4*%
X109220000Y-81280000D03*
%TD*%
D11*
%TO.C,D3*%
X88341200Y-70199850D03*
D12*
X88341200Y-68040850D03*
X88341200Y-65881850D03*
X88341200Y-63722850D03*
%TD*%
D10*
%TO.C,H2*%
X109220000Y-48260000D03*
%TD*%
D13*
%TO.C,J1*%
X80899000Y-47244000D03*
D14*
X83439000Y-47244000D03*
X80899000Y-49784000D03*
X83439000Y-49784000D03*
X80899000Y-52324000D03*
X83439000Y-52324000D03*
%TD*%
D13*
%TO.C,BT1*%
X50165000Y-66120000D03*
D14*
X50165000Y-68660000D03*
%TD*%
D11*
%TO.C,D4*%
X101041200Y-70072850D03*
D12*
X101041200Y-67913850D03*
X101041200Y-65754850D03*
X101041200Y-63595850D03*
%TD*%
D15*
%TO.C,C2*%
X57150000Y-46990000D03*
X57150000Y-51990000D03*
%TD*%
D11*
%TO.C,D1*%
X74371200Y-70199850D03*
D12*
X74371200Y-68040850D03*
X74371200Y-65881850D03*
X74371200Y-63722850D03*
%TD*%
D16*
%TO.C,D2*%
X61595000Y-59770000D03*
D17*
X51435000Y-59770000D03*
%TD*%
D15*
%TO.C,R1*%
X77597000Y-57404000D03*
D18*
X67437000Y-57404000D03*
%TD*%
D19*
%TO.C,U1*%
X63002000Y-53457000D03*
D18*
X65542000Y-53457000D03*
X68082000Y-53457000D03*
X70622000Y-53457000D03*
X70622000Y-45837000D03*
X68082000Y-45837000D03*
X65542000Y-45837000D03*
X63002000Y-45837000D03*
%TD*%
D10*
%TO.C,H1*%
X48260000Y-48260000D03*
%TD*%
D15*
%TO.C,C1*%
X109220000Y-64175000D03*
X109220000Y-69175000D03*
%TD*%
D10*
%TO.C,H3*%
X48260000Y-81280000D03*
%TD*%
D20*
%TO.C,SW2*%
X101752400Y-76784200D03*
X101752400Y-81280000D03*
X95250000Y-81280000D03*
X95250000Y-76784200D03*
%TD*%
D21*
%TO.C,SW3*%
X61659000Y-79121000D03*
X65659000Y-79121000D03*
X69659000Y-79121000D03*
D22*
X57659000Y-79121000D03*
X73659000Y-79121000D03*
%TD*%
D20*
%TO.C,SW1*%
X87782400Y-76784200D03*
X87782400Y-81280000D03*
X81280000Y-81280000D03*
X81280000Y-76784200D03*
%TD*%
M02*
