M48
<<<<<<< HEAD
; DRILL file {KiCad 8.0.6-8.0.6-0~ubuntu22.04.1} date 2024-11-09T10:11:18-0500
; FORMAT={-:-/ absolute / inch / decimal}
; #@! TF.CreationDate,2024-11-09T10:11:18-05:00
; #@! TF.GenerationSoftware,Kicad,Pcbnew,8.0.6-8.0.6-0~ubuntu22.04.1
=======
; DRILL file {KiCad 8.0.6-8.0.6-0~ubuntu24.04.1} date 2024-11-12T14:12:36-0500
; FORMAT={-:-/ absolute / inch / decimal}
; #@! TF.CreationDate,2024-11-12T14:12:36-05:00
; #@! TF.GenerationSoftware,Kicad,Pcbnew,8.0.6-8.0.6-0~ubuntu24.04.1
>>>>>>> 3aa30e9b2cf7abbcfde94d1017a9dae7777007e3
; #@! TF.FileFunction,Plated,1,2,PTH
FMAT,2
INCH
; #@! TA.AperFunction,Plated,PTH,ViaDrill
T1C0.0118
; #@! TA.AperFunction,Plated,PTH,ComponentDrill
<<<<<<< HEAD
T2C0.0300
; #@! TA.AperFunction,Plated,PTH,ComponentDrill
T3C0.0315
; #@! TA.AperFunction,Plated,PTH,ComponentDrill
T4C0.0354
; #@! TA.AperFunction,Plated,PTH,ComponentDrill
T5C0.0394
; #@! TA.AperFunction,Plated,PTH,ComponentDrill
T6C0.0420
; #@! TA.AperFunction,Plated,PTH,ComponentDrill
T7C0.0433
; #@! TA.AperFunction,Plated,PTH,ComponentDrill
T8C0.0984
=======
T2C0.0260
; #@! TA.AperFunction,Plated,PTH,ComponentDrill
T3C0.0300
; #@! TA.AperFunction,Plated,PTH,ComponentDrill
T4C0.0315
; #@! TA.AperFunction,Plated,PTH,ComponentDrill
T5C0.0354
; #@! TA.AperFunction,Plated,PTH,ComponentDrill
T6C0.0394
; #@! TA.AperFunction,Plated,PTH,ComponentDrill
T7C0.0433
; #@! TA.AperFunction,Plated,PTH,ComponentDrill
T8C0.0591
; #@! TA.AperFunction,Plated,PTH,ComponentDrill
T9C0.0984
>>>>>>> 3aa30e9b2cf7abbcfde94d1017a9dae7777007e3
%
G90
G05
T1
<<<<<<< HEAD
X2.585Y-2.51
X3.235Y-2.885
T2
X2.4275Y-3.115
X2.585Y-3.115
X2.7425Y-3.115
T3
X2.25Y-1.85
X2.25Y-2.0469
X2.4804Y-1.8046
X2.4804Y-2.1046
X2.5804Y-1.8046
X2.5804Y-2.1046
X2.655Y-2.26
X2.6804Y-1.8046
X2.6804Y-2.1046
X2.7804Y-1.8046
X2.7804Y-2.1046
X3.055Y-2.26
X4.3Y-2.5266
X4.3Y-2.7234
T4
X2.928Y-2.5088
X2.928Y-2.5938
X2.928Y-2.6788
X2.928Y-2.7638
X3.478Y-2.5088
X3.478Y-2.5938
X3.478Y-2.6788
X3.478Y-2.7638
X3.978Y-2.5038
X3.978Y-2.5888
X3.978Y-2.6738
X3.978Y-2.7588
T5
X1.975Y-2.6031
X1.975Y-2.7031
X3.185Y-1.86
X3.185Y-1.96
X3.185Y-2.06
X3.285Y-1.86
X3.285Y-1.96
X3.285Y-2.06
T6
X3.2Y-3.023
X3.2Y-3.2
X3.456Y-3.023
X3.456Y-3.2
X3.75Y-3.023
X3.75Y-3.2
X4.006Y-3.023
X4.006Y-3.2
T7
X2.025Y-2.3531
X2.425Y-2.3531
T8
X2.27Y-3.115
X2.9Y-3.115
=======
X2.755Y-2.44
X2.855Y-2.515
X4.11Y-2.525
X4.28Y-2.595
T3
X2.2Y-4.01
X2.2Y-4.1675
X2.2Y-4.325
T4
X2.64Y-3.235
X2.64Y-3.635
X2.6504Y-2.6746
X2.6504Y-2.9746
X2.7504Y-2.6746
X2.7504Y-2.9746
X2.8504Y-2.6746
X2.8504Y-2.9746
X2.9504Y-2.6746
X2.9504Y-2.9746
X3.175Y-2.7266
X3.175Y-2.9234
X4.39Y-3.2766
X4.39Y-3.4734
T5
X2.1Y-3.27
X2.1Y-3.355
X2.1Y-3.44
X2.1Y-3.525
X3.1Y-3.2562
X3.1Y-3.3412
X3.1Y-3.4262
X3.1Y-3.5112
X4.1Y-3.2562
X4.1Y-3.3412
X4.1Y-3.4262
X4.1Y-3.5112
T6
X4.275Y-2.725
X4.275Y-2.825
X4.275Y-2.925
X4.375Y-2.725
X4.375Y-2.825
X4.375Y-2.925
T7
X2.4634Y-2.75
X2.4634Y-2.85
X2.4634Y-2.95
T8
X2.7Y-4.075
X2.95Y-3.975
X3.5Y-4.075
X3.75Y-3.975
T9
X2.2Y-3.8526
X2.2Y-4.4825
T2
G00X2.0725Y-1.6252
M15
G01X2.0725Y-1.5762
M16
G05
G00X2.0725Y-2.137
M15
G01X2.0725Y-2.088
M16
G05
>>>>>>> 3aa30e9b2cf7abbcfde94d1017a9dae7777007e3
M30
