%TF.GenerationSoftware,KiCad,Pcbnew,8.0.6-8.0.6-0~ubuntu22.04.1*%
%TF.CreationDate,2024-11-09T10:11:16-05:00*%
%TF.ProjectId,girl_scouts_blinker,6769726c-5f73-4636-9f75-74735f626c69,rev?*%
%TF.SameCoordinates,Original*%
%TF.FileFunction,Copper,L1,Top*%
%TF.FilePolarity,Positive*%
%FSLAX46Y46*%
G04 Gerber Fmt 4.6, Leading zero omitted, Abs format (unit mm)*
G04 Created by KiCad (PCBNEW 8.0.6-8.0.6-0~ubuntu22.04.1) date 2024-11-09 10:11:16*
%MOMM*%
%LPD*%
G01*
G04 APERTURE LIST*
%TA.AperFunction,ComponentPad*%
%ADD10R,1.800000X1.800000*%
%TD*%
%TA.AperFunction,ComponentPad*%
%ADD11C,1.800000*%
%TD*%
%TA.AperFunction,ComponentPad*%
%ADD12R,1.700000X1.700000*%
%TD*%
%TA.AperFunction,ComponentPad*%
%ADD13O,1.700000X1.700000*%
%TD*%
%TA.AperFunction,ComponentPad*%
%ADD14C,1.600000*%
%TD*%
%TA.AperFunction,ComponentPad*%
%ADD15R,2.200000X2.200000*%
%TD*%
%TA.AperFunction,ComponentPad*%
%ADD16O,2.200000X2.200000*%
%TD*%
%TA.AperFunction,ComponentPad*%
%ADD17O,1.600000X1.600000*%
%TD*%
%TA.AperFunction,ComponentPad*%
%ADD18R,1.600000X1.600000*%
%TD*%
%TA.AperFunction,ComponentPad*%
%ADD19C,1.397000*%
%TD*%
%TA.AperFunction,ComponentPad*%
%ADD20C,1.524000*%
%TD*%
%TA.AperFunction,ComponentPad*%
%ADD21C,3.500000*%
%TD*%
%TA.AperFunction,ViaPad*%
%ADD22C,0.600000*%
%TD*%
%TA.AperFunction,Conductor*%
%ADD23C,1.270000*%
%TD*%
%TA.AperFunction,Conductor*%
%ADD24C,0.381000*%
%TD*%
G04 APERTURE END LIST*
D10*
%TO.P,D3,1,DOUT*%
%TO.N,Net-(D3-DOUT)*%
X88341200Y-70199850D03*
D11*
%TO.P,D3,2,GND*%
%TO.N,GND*%
X88341200Y-68040850D03*
%TO.P,D3,3,VDD*%
%TO.N,+5V*%
X88341200Y-65881850D03*
%TO.P,D3,4,DIN*%
%TO.N,Net-(D1-DOUT)*%
X88341200Y-63722850D03*
%TD*%
D12*
%TO.P,J1,1,MISO*%
%TO.N,/MISO*%
X80899000Y-47244000D03*
D13*
%TO.P,J1,2,VCC*%
%TO.N,+5V*%
X83439000Y-47244000D03*
%TO.P,J1,3,SCK*%
%TO.N,/SCK*%
X80899000Y-49784000D03*
%TO.P,J1,4,MOSI*%
%TO.N,/MOSI*%
X83439000Y-49784000D03*
%TO.P,J1,5,~{RST}*%
%TO.N,/nRST*%
X80899000Y-52324000D03*
%TO.P,J1,6,GND*%
%TO.N,GND*%
X83439000Y-52324000D03*
%TD*%
D12*
%TO.P,BT1,1,+*%
%TO.N,+6V*%
X50165000Y-66120000D03*
D13*
%TO.P,BT1,2,-*%
%TO.N,GND*%
X50165000Y-68660000D03*
%TD*%
D10*
%TO.P,D4,1,DOUT*%
%TO.N,unconnected-(D4-DOUT-Pad1)*%
X101041200Y-70072850D03*
D11*
%TO.P,D4,2,GND*%
%TO.N,GND*%
X101041200Y-67913850D03*
%TO.P,D4,3,VDD*%
%TO.N,+5V*%
X101041200Y-65754850D03*
%TO.P,D4,4,DIN*%
%TO.N,Net-(D3-DOUT)*%
X101041200Y-63595850D03*
%TD*%
D14*
%TO.P,C2,1*%
%TO.N,+5V*%
X57150000Y-46990000D03*
%TO.P,C2,2*%
%TO.N,GND*%
X57150000Y-51990000D03*
%TD*%
D10*
%TO.P,D1,1,DOUT*%
%TO.N,Net-(D1-DOUT)*%
X74371200Y-70199850D03*
D11*
%TO.P,D1,2,GND*%
%TO.N,GND*%
X74371200Y-68040850D03*
%TO.P,D1,3,VDD*%
%TO.N,+5V*%
X74371200Y-65881850D03*
%TO.P,D1,4,DIN*%
%TO.N,Net-(D1-DIN)*%
X74371200Y-63722850D03*
%TD*%
D15*
%TO.P,D2,1,K*%
%TO.N,+5V*%
X61595000Y-59770000D03*
D16*
%TO.P,D2,2,A*%
%TO.N,Net-(D2-A)*%
X51435000Y-59770000D03*
%TD*%
D14*
%TO.P,R1,1*%
%TO.N,+5V*%
X77597000Y-57404000D03*
D17*
%TO.P,R1,2*%
%TO.N,/nRST*%
X67437000Y-57404000D03*
%TD*%
D18*
%TO.P,U1,1,~{RESET}/PB5*%
%TO.N,/nRST*%
X63002000Y-53457000D03*
D17*
%TO.P,U1,2,XTAL1/PB3*%
%TO.N,Net-(D1-DIN)*%
X65542000Y-53457000D03*
%TO.P,U1,3,XTAL2/PB4*%
%TO.N,unconnected-(U1-XTAL2{slash}PB4-Pad3)*%
X68082000Y-53457000D03*
%TO.P,U1,4,GND*%
%TO.N,GND*%
X70622000Y-53457000D03*
%TO.P,U1,5,AREF/PB0*%
%TO.N,/MOSI*%
X70622000Y-45837000D03*
%TO.P,U1,6,PB1*%
%TO.N,/MISO*%
X68082000Y-45837000D03*
%TO.P,U1,7,PB2*%
%TO.N,/SCK*%
X65542000Y-45837000D03*
%TO.P,U1,8,VCC*%
%TO.N,+5V*%
X63002000Y-45837000D03*
%TD*%
D14*
%TO.P,C1,1*%
%TO.N,+5V*%
X109220000Y-64175000D03*
%TO.P,C1,2*%
%TO.N,GND*%
X109220000Y-69175000D03*
%TD*%
D19*
%TO.P,SW2,1,1*%
%TO.N,/MISO*%
X101752400Y-76784200D03*
%TO.P,SW2,2,2*%
%TO.N,GND*%
X101752400Y-81280000D03*
%TO.P,SW2,3*%
%TO.N,N/C*%
X95250000Y-81280000D03*
%TO.P,SW2,4*%
X95250000Y-76784200D03*
%TD*%
D20*
%TO.P,SW3,1,A*%
%TO.N,+6V*%
X61659000Y-79121000D03*
%TO.P,SW3,2,B*%
%TO.N,Net-(D2-A)*%
X65659000Y-79121000D03*
%TO.P,SW3,3*%
%TO.N,N/C*%
X69659000Y-79121000D03*
D21*
%TO.P,SW3,4*%
X57659000Y-79121000D03*
%TO.P,SW3,5*%
X73659000Y-79121000D03*
%TD*%
D19*
%TO.P,SW1,1,1*%
%TO.N,/MOSI*%
X87782400Y-76784200D03*
%TO.P,SW1,2,2*%
%TO.N,GND*%
X87782400Y-81280000D03*
%TO.P,SW1,3*%
%TO.N,N/C*%
X81280000Y-81280000D03*
%TO.P,SW1,4*%
X81280000Y-76784200D03*
%TD*%
D22*
%TO.N,Net-(D1-DIN)*%
X65659000Y-63754000D03*
%TO.N,/MISO*%
X82169000Y-73279000D03*
%TD*%
D23*
%TO.N,+6V*%
X50165000Y-66120000D02*
X50880000Y-66120000D01*
X61659000Y-76899000D02*
X61659000Y-79121000D01*
X50880000Y-66120000D02*
X61659000Y-76899000D01*
D24*
%TO.N,Net-(D1-DIN)*%
X65690150Y-63722850D02*
X74371200Y-63722850D01*
X65659000Y-63754000D02*
X65690150Y-63722850D01*
%TO.N,Net-(D1-DOUT)*%
X83470150Y-63722850D02*
X88341200Y-63722850D01*
X74371200Y-70199850D02*
X76993150Y-70199850D01*
X76993150Y-70199850D02*
X83470150Y-63722850D01*
D23*
%TO.N,Net-(D2-A)*%
X51435000Y-59770000D02*
X51435000Y-64135000D01*
X51435000Y-64135000D02*
X65659000Y-78359000D01*
X65659000Y-78359000D02*
X65659000Y-79121000D01*
D24*
%TO.N,Net-(D3-DOUT)*%
X91217150Y-70199850D02*
X97821150Y-63595850D01*
X88341200Y-70199850D02*
X91217150Y-70199850D01*
X97821150Y-63595850D02*
X101041200Y-63595850D01*
%TO.N,/MOSI*%
X77343000Y-44704000D02*
X86233000Y-44704000D01*
X86233000Y-44704000D02*
X86487000Y-44958000D01*
X70622000Y-45837000D02*
X76210000Y-45837000D01*
X76210000Y-45837000D02*
X77343000Y-44704000D01*
X86487000Y-44958000D02*
X86487000Y-46736000D01*
X86487000Y-46736000D02*
X83439000Y-49784000D01*
%TO.N,/MISO*%
X82169000Y-73279000D02*
X98247200Y-73279000D01*
X98247200Y-73279000D02*
X101752400Y-76784200D01*
X69489000Y-47244000D02*
X80899000Y-47244000D01*
X68082000Y-45837000D02*
X69489000Y-47244000D01*
%TO.N,/SCK*%
X69489000Y-49784000D02*
X80899000Y-49784000D01*
X65542000Y-45837000D02*
X69489000Y-49784000D01*
%TO.N,/nRST*%
X63002000Y-53457000D02*
X63002000Y-55255000D01*
X72644000Y-57404000D02*
X67437000Y-57404000D01*
X80899000Y-52324000D02*
X77724000Y-52324000D01*
X65151000Y-57404000D02*
X67437000Y-57404000D01*
X63002000Y-55255000D02*
X65151000Y-57404000D01*
X77724000Y-52324000D02*
X72644000Y-57404000D01*
%TD*%
%TA.AperFunction,Conductor*%
%TO.N,GND*%
G36*
X113742539Y-43700185D02*
G01*
X113788294Y-43752989D01*
X113799500Y-43804500D01*
X113799500Y-85735500D01*
X113779815Y-85802539D01*
X113727011Y-85848294D01*
X113675500Y-85859500D01*
X43804500Y-85859500D01*
X43737461Y-85839815D01*
X43691706Y-85787011D01*
X43680500Y-85735500D01*
X43680500Y-81145186D01*
X45859500Y-81145186D01*
X45859500Y-81414813D01*
X45889686Y-81682719D01*
X45889688Y-81682731D01*
X45949684Y-81945594D01*
X45949687Y-81945602D01*
X46038734Y-82200082D01*
X46155714Y-82442994D01*
X46155716Y-82442997D01*
X46299162Y-82671289D01*
X46467266Y-82882085D01*
X46657915Y-83072734D01*
X46868711Y-83240838D01*
X47097003Y-83384284D01*
X47339921Y-83501267D01*
X47531049Y-83568145D01*
X47594397Y-83590312D01*
X47594405Y-83590315D01*
X47594408Y-83590315D01*
X47594409Y-83590316D01*
X47857268Y-83650312D01*
X48125187Y-83680499D01*
X48125188Y-83680500D01*
X48125191Y-83680500D01*
X48394812Y-83680500D01*
X48394812Y-83680499D01*
X48662732Y-83650312D01*
X48925591Y-83590316D01*
X49180079Y-83501267D01*
X49422997Y-83384284D01*
X49651289Y-83240838D01*
X49862085Y-83072734D01*
X50052734Y-82882085D01*
X50220838Y-82671289D01*
X50364284Y-82442997D01*
X50481267Y-82200079D01*
X50570316Y-81945591D01*
X50630312Y-81682732D01*
X50660500Y-81414809D01*
X50660500Y-81280000D01*
X80322389Y-81280000D01*
X80340789Y-81466823D01*
X80395283Y-81646463D01*
X80483772Y-81812014D01*
X80483777Y-81812021D01*
X80602866Y-81957133D01*
X80702689Y-82039055D01*
X80747980Y-82076224D01*
X80747983Y-82076225D01*
X80747985Y-82076227D01*
X80913536Y-82164716D01*
X80913538Y-82164717D01*
X81093179Y-82219211D01*
X81280000Y-82237611D01*
X81466821Y-82219211D01*
X81646462Y-82164717D01*
X81812020Y-82076224D01*
X81957133Y-81957133D01*
X82076224Y-81812020D01*
X82164717Y-81646462D01*
X82219211Y-81466821D01*
X82237611Y-81280000D01*
X82237611Y-81279999D01*
X86570731Y-81279999D01*
X86570731Y-81280000D01*
X86591361Y-81502639D01*
X86652553Y-81717708D01*
X86752218Y-81917862D01*
X86843739Y-82039055D01*
X87326183Y-81556610D01*
X87355574Y-81607515D01*
X87454885Y-81706826D01*
X87505788Y-81736215D01*
X87022317Y-82219685D01*
X87052209Y-82246935D01*
X87242307Y-82364638D01*
X87242314Y-82364642D01*
X87450808Y-82445412D01*
X87670603Y-82486500D01*
X87894197Y-82486500D01*
X88113991Y-82445412D01*
X88322485Y-82364642D01*
X88322492Y-82364638D01*
X88512587Y-82246937D01*
X88512592Y-82246933D01*
X88542481Y-82219685D01*
X88059011Y-81736215D01*
X88109915Y-81706826D01*
X88209226Y-81607515D01*
X88238615Y-81556611D01*
X88721059Y-82039055D01*
X88812581Y-81917862D01*
X88912246Y-81717708D01*
X88973438Y-81502639D01*
X88994069Y-81280000D01*
X94292389Y-81280000D01*
X94310789Y-81466823D01*
X94365283Y-81646463D01*
X94453772Y-81812014D01*
X94453777Y-81812021D01*
X94572866Y-81957133D01*
X94672689Y-82039055D01*
X94717980Y-82076224D01*
X94717983Y-82076225D01*
X94717985Y-82076227D01*
X94883536Y-82164716D01*
X94883538Y-82164717D01*
X95063179Y-82219211D01*
X95250000Y-82237611D01*
X95436821Y-82219211D01*
X95616462Y-82164717D01*
X95782020Y-82076224D01*
X95927133Y-81957133D01*
X96046224Y-81812020D01*
X96134717Y-81646462D01*
X96189211Y-81466821D01*
X96207611Y-81280000D01*
X96207611Y-81279999D01*
X100540731Y-81279999D01*
X100540731Y-81280000D01*
X100561361Y-81502639D01*
X100622553Y-81717708D01*
X100722218Y-81917862D01*
X100813739Y-82039055D01*
X101296183Y-81556610D01*
X101325574Y-81607515D01*
X101424885Y-81706826D01*
X101475788Y-81736215D01*
X100992317Y-82219685D01*
X101022209Y-82246935D01*
X101212307Y-82364638D01*
X101212314Y-82364642D01*
X101420808Y-82445412D01*
X101640603Y-82486500D01*
X101864197Y-82486500D01*
X102083991Y-82445412D01*
X102292485Y-82364642D01*
X102292492Y-82364638D01*
X102482587Y-82246937D01*
X102482592Y-82246933D01*
X102512481Y-82219685D01*
X102029011Y-81736215D01*
X102079915Y-81706826D01*
X102179226Y-81607515D01*
X102208615Y-81556611D01*
X102691059Y-82039055D01*
X102782581Y-81917862D01*
X102882246Y-81717708D01*
X102943438Y-81502639D01*
X102964069Y-81280000D01*
X102964069Y-81279999D01*
X102951576Y-81145186D01*
X106819500Y-81145186D01*
X106819500Y-81414813D01*
X106849686Y-81682719D01*
X106849688Y-81682731D01*
X106909684Y-81945594D01*
X106909687Y-81945602D01*
X106998734Y-82200082D01*
X107115714Y-82442994D01*
X107115716Y-82442997D01*
X107259162Y-82671289D01*
X107427266Y-82882085D01*
X107617915Y-83072734D01*
X107828711Y-83240838D01*
X108057003Y-83384284D01*
X108299921Y-83501267D01*
X108491049Y-83568145D01*
X108554397Y-83590312D01*
X108554405Y-83590315D01*
X108554408Y-83590315D01*
X108554409Y-83590316D01*
X108817268Y-83650312D01*
X109085187Y-83680499D01*
X109085188Y-83680500D01*
X109085191Y-83680500D01*
X109354812Y-83680500D01*
X109354812Y-83680499D01*
X109622732Y-83650312D01*
X109885591Y-83590316D01*
X110140079Y-83501267D01*
X110382997Y-83384284D01*
X110611289Y-83240838D01*
X110822085Y-83072734D01*
X111012734Y-82882085D01*
X111180838Y-82671289D01*
X111324284Y-82442997D01*
X111441267Y-82200079D01*
X111530316Y-81945591D01*
X111590312Y-81682732D01*
X111620500Y-81414809D01*
X111620500Y-81145191D01*
X111590312Y-80877268D01*
X111530316Y-80614409D01*
X111441267Y-80359921D01*
X111324284Y-80117003D01*
X111180838Y-79888711D01*
X111012734Y-79677915D01*
X110822085Y-79487266D01*
X110611289Y-79319162D01*
X110382997Y-79175716D01*
X110382994Y-79175714D01*
X110140082Y-79058734D01*
X109885602Y-78969687D01*
X109885594Y-78969684D01*
X109675496Y-78921731D01*
X109622732Y-78909688D01*
X109622728Y-78909687D01*
X109622719Y-78909686D01*
X109354813Y-78879500D01*
X109354809Y-78879500D01*
X109085191Y-78879500D01*
X109085186Y-78879500D01*
X108817280Y-78909686D01*
X108817268Y-78909688D01*
X108554405Y-78969684D01*
X108554397Y-78969687D01*
X108299917Y-79058734D01*
X108057005Y-79175714D01*
X107828712Y-79319161D01*
X107617915Y-79487265D01*
X107427265Y-79677915D01*
X107259161Y-79888712D01*
X107115714Y-80117005D01*
X106998734Y-80359917D01*
X106909687Y-80614397D01*
X106909684Y-80614405D01*
X106849688Y-80877268D01*
X106849686Y-80877280D01*
X106819500Y-81145186D01*
X102951576Y-81145186D01*
X102943438Y-81057360D01*
X102882246Y-80842291D01*
X102782581Y-80642137D01*
X102691059Y-80520943D01*
X102208615Y-81003388D01*
X102179226Y-80952485D01*
X102079915Y-80853174D01*
X102029011Y-80823784D01*
X102512481Y-80340313D01*
X102482590Y-80313064D01*
X102292492Y-80195361D01*
X102292485Y-80195357D01*
X102083991Y-80114587D01*
X101864197Y-80073500D01*
X101640603Y-80073500D01*
X101420808Y-80114587D01*
X101212314Y-80195357D01*
X101212312Y-80195358D01*
X101022201Y-80313070D01*
X100992318Y-80340312D01*
X100992318Y-80340313D01*
X101475789Y-80823784D01*
X101424885Y-80853174D01*
X101325574Y-80952485D01*
X101296184Y-81003388D01*
X100813739Y-80520943D01*
X100813738Y-80520943D01*
X100722219Y-80642134D01*
X100622553Y-80842291D01*
X100561361Y-81057360D01*
X100540731Y-81279999D01*
X96207611Y-81279999D01*
X96189211Y-81093179D01*
X96134717Y-80913538D01*
X96096635Y-80842291D01*
X96046227Y-80747985D01*
X96046225Y-80747983D01*
X96046224Y-80747980D01*
X96010005Y-80703847D01*
X95927133Y-80602866D01*
X95782021Y-80483777D01*
X95782014Y-80483772D01*
X95616463Y-80395283D01*
X95436823Y-80340789D01*
X95250000Y-80322389D01*
X95063176Y-80340789D01*
X94883536Y-80395283D01*
X94717985Y-80483772D01*
X94717978Y-80483777D01*
X94572866Y-80602866D01*
X94453777Y-80747978D01*
X94453772Y-80747985D01*
X94365283Y-80913536D01*
X94310789Y-81093176D01*
X94292389Y-81280000D01*
X88994069Y-81280000D01*
X88994069Y-81279999D01*
X88973438Y-81057360D01*
X88912246Y-80842291D01*
X88812581Y-80642137D01*
X88721059Y-80520943D01*
X88238615Y-81003388D01*
X88209226Y-80952485D01*
X88109915Y-80853174D01*
X88059011Y-80823784D01*
X88542481Y-80340313D01*
X88512590Y-80313064D01*
X88322492Y-80195361D01*
X88322485Y-80195357D01*
X88113991Y-80114587D01*
X87894197Y-80073500D01*
X87670603Y-80073500D01*
X87450808Y-80114587D01*
X87242314Y-80195357D01*
X87242312Y-80195358D01*
X87052201Y-80313070D01*
X87022318Y-80340312D01*
X87022318Y-80340313D01*
X87505789Y-80823784D01*
X87454885Y-80853174D01*
X87355574Y-80952485D01*
X87326184Y-81003388D01*
X86843739Y-80520943D01*
X86843738Y-80520943D01*
X86752219Y-80642134D01*
X86652553Y-80842291D01*
X86591361Y-81057360D01*
X86570731Y-81279999D01*
X82237611Y-81279999D01*
X82219211Y-81093179D01*
X82164717Y-80913538D01*
X82126635Y-80842291D01*
X82076227Y-80747985D01*
X82076225Y-80747983D01*
X82076224Y-80747980D01*
X82040005Y-80703847D01*
X81957133Y-80602866D01*
X81812021Y-80483777D01*
X81812014Y-80483772D01*
X81646463Y-80395283D01*
X81466823Y-80340789D01*
X81280000Y-80322389D01*
X81093176Y-80340789D01*
X80913536Y-80395283D01*
X80747985Y-80483772D01*
X80747978Y-80483777D01*
X80602866Y-80602866D01*
X80483777Y-80747978D01*
X80483772Y-80747985D01*
X80395283Y-80913536D01*
X80340789Y-81093176D01*
X80322389Y-81280000D01*
X50660500Y-81280000D01*
X50660500Y-81145191D01*
X50630312Y-80877268D01*
X50570316Y-80614409D01*
X50481267Y-80359921D01*
X50364284Y-80117003D01*
X50220838Y-79888711D01*
X50052734Y-79677915D01*
X49862085Y-79487266D01*
X49651289Y-79319162D01*
X49422997Y-79175716D01*
X49422994Y-79175714D01*
X49309375Y-79120998D01*
X55649380Y-79120998D01*
X55649380Y-79121001D01*
X55669835Y-79407004D01*
X55730782Y-79687168D01*
X55730784Y-79687175D01*
X55731267Y-79688469D01*
X55830985Y-79955827D01*
X55830987Y-79955831D01*
X55968396Y-80207477D01*
X55968397Y-80207478D01*
X55968400Y-80207483D01*
X56140231Y-80437021D01*
X56140235Y-80437025D01*
X56140240Y-80437031D01*
X56342968Y-80639759D01*
X56342974Y-80639764D01*
X56342979Y-80639769D01*
X56572517Y-80811600D01*
X56572521Y-80811602D01*
X56572522Y-80811603D01*
X56824168Y-80949012D01*
X56824172Y-80949014D01*
X56824174Y-80949015D01*
X57092825Y-81049216D01*
X57207283Y-81074115D01*
X57372995Y-81110164D01*
X57372997Y-81110164D01*
X57373001Y-81110165D01*
X57627156Y-81128342D01*
X57658999Y-81130620D01*
X57659000Y-81130620D01*
X57659001Y-81130620D01*
X57687653Y-81128570D01*
X57944999Y-81110165D01*
X58225175Y-81049216D01*
X58493826Y-80949015D01*
X58745483Y-80811600D01*
X58975021Y-80639769D01*
X59177769Y-80437021D01*
X59349600Y-80207483D01*
X59487015Y-79955826D01*
X59587216Y-79687175D01*
X59648165Y-79406999D01*
X59668620Y-79121000D01*
X59648165Y-78835001D01*
X59587216Y-78554825D01*
X59487015Y-78286174D01*
X59479121Y-78271718D01*
X59349603Y-78034522D01*
X59349602Y-78034521D01*
X59349600Y-78034517D01*
X59177769Y-77804979D01*
X59177764Y-77804974D01*
X59177759Y-77804968D01*
X58975031Y-77602240D01*
X58975025Y-77602235D01*
X58975021Y-77602231D01*
X58745483Y-77430400D01*
X58745478Y-77430397D01*
X58745477Y-77430396D01*
X58493831Y-77292987D01*
X58493827Y-77292985D01*
X58327969Y-77231124D01*
X58225175Y-77192784D01*
X58225171Y-77192783D01*
X58225168Y-77192782D01*
X57945004Y-77131835D01*
X57659001Y-77111380D01*
X57658999Y-77111380D01*
X57372995Y-77131835D01*
X57092831Y-77192782D01*
X57092826Y-77192783D01*
X57092825Y-77192784D01*
X57027874Y-77217009D01*
X56824172Y-77292985D01*
X56824168Y-77292987D01*
X56572522Y-77430396D01*
X56572521Y-77430397D01*
X56342980Y-77602230D01*
X56342968Y-77602240D01*
X56140240Y-77804968D01*
X56140230Y-77804980D01*
X55968397Y-78034521D01*
X55968396Y-78034522D01*
X55830987Y-78286168D01*
X55830985Y-78286172D01*
X55730782Y-78554831D01*
X55669835Y-78834995D01*
X55649380Y-79120998D01*
X49309375Y-79120998D01*
X49180082Y-79058734D01*
X48925602Y-78969687D01*
X48925594Y-78969684D01*
X48715496Y-78921731D01*
X48662732Y-78909688D01*
X48662728Y-78909687D01*
X48662719Y-78909686D01*
X48394813Y-78879500D01*
X48394809Y-78879500D01*
X48125191Y-78879500D01*
X48125186Y-78879500D01*
X47857280Y-78909686D01*
X47857268Y-78909688D01*
X47594405Y-78969684D01*
X47594397Y-78969687D01*
X47339917Y-79058734D01*
X47097005Y-79175714D01*
X46868712Y-79319161D01*
X46657915Y-79487265D01*
X46467265Y-79677915D01*
X46299161Y-79888712D01*
X46155714Y-80117005D01*
X46038734Y-80359917D01*
X45949687Y-80614397D01*
X45949684Y-80614405D01*
X45889688Y-80877268D01*
X45889686Y-80877280D01*
X45859500Y-81145186D01*
X43680500Y-81145186D01*
X43680500Y-68533000D01*
X48812870Y-68533000D01*
X49681392Y-68533000D01*
X49665000Y-68594174D01*
X49665000Y-68725826D01*
X49681392Y-68787000D01*
X48812870Y-68787000D01*
X48820931Y-68884287D01*
X48876178Y-69102453D01*
X48966582Y-69308553D01*
X49089673Y-69496956D01*
X49089676Y-69496960D01*
X49242101Y-69662537D01*
X49419701Y-69800769D01*
X49617626Y-69907881D01*
X49617635Y-69907884D01*
X49830485Y-69980956D01*
X50037999Y-70015584D01*
X50038000Y-70015583D01*
X50038000Y-69143608D01*
X50099174Y-69160000D01*
X50230826Y-69160000D01*
X50292000Y-69143608D01*
X50292000Y-70015584D01*
X50499514Y-69980956D01*
X50712364Y-69907884D01*
X50712373Y-69907881D01*
X50910298Y-69800769D01*
X51087898Y-69662537D01*
X51240323Y-69496960D01*
X51240326Y-69496956D01*
X51363417Y-69308553D01*
X51453821Y-69102453D01*
X51509068Y-68884287D01*
X51517130Y-68787000D01*
X50648608Y-68787000D01*
X50665000Y-68725826D01*
X50665000Y-68594174D01*
X50648608Y-68533000D01*
X51517129Y-68533000D01*
X51509068Y-68435712D01*
X51474244Y-68298195D01*
X51476869Y-68228375D01*
X51516825Y-68171057D01*
X51581427Y-68144441D01*
X51650163Y-68156976D01*
X51682131Y-68180074D01*
X60733181Y-77231124D01*
X60766666Y-77292447D01*
X60769500Y-77318805D01*
X60769500Y-78597720D01*
X60754858Y-78656173D01*
X60715333Y-78730118D01*
X60657208Y-78921728D01*
X60637582Y-79121000D01*
X60657208Y-79320271D01*
X60715333Y-79511881D01*
X60809718Y-79688463D01*
X60809720Y-79688465D01*
X60809722Y-79688469D01*
X60870724Y-79762801D01*
X60936747Y-79843252D01*
X61002770Y-79897434D01*
X61091531Y-79970278D01*
X61091534Y-79970280D01*
X61091536Y-79970281D01*
X61268118Y-80064666D01*
X61268120Y-80064667D01*
X61459731Y-80122792D01*
X61659000Y-80142418D01*
X61858269Y-80122792D01*
X62049880Y-80064667D01*
X62226469Y-79970278D01*
X62381252Y-79843252D01*
X62508278Y-79688469D01*
X62602667Y-79511880D01*
X62660792Y-79320269D01*
X62680418Y-79121000D01*
X62660792Y-78921731D01*
X62602667Y-78730120D01*
X62563142Y-78656173D01*
X62548500Y-78597720D01*
X62548500Y-76805805D01*
X62568185Y-76738766D01*
X62620989Y-76693011D01*
X62690147Y-76683067D01*
X62753703Y-76712092D01*
X62760181Y-76718124D01*
X64676008Y-78633951D01*
X64709493Y-78695274D01*
X64706988Y-78757627D01*
X64657207Y-78921732D01*
X64637582Y-79121000D01*
X64657208Y-79320271D01*
X64715333Y-79511881D01*
X64809718Y-79688463D01*
X64809720Y-79688465D01*
X64809722Y-79688469D01*
X64870724Y-79762801D01*
X64936747Y-79843252D01*
X65002770Y-79897434D01*
X65091531Y-79970278D01*
X65091534Y-79970280D01*
X65091536Y-79970281D01*
X65268118Y-80064666D01*
X65268120Y-80064667D01*
X65459731Y-80122792D01*
X65659000Y-80142418D01*
X65858269Y-80122792D01*
X66049880Y-80064667D01*
X66226469Y-79970278D01*
X66381252Y-79843252D01*
X66508278Y-79688469D01*
X66602667Y-79511880D01*
X66660792Y-79320269D01*
X66680418Y-79121000D01*
X68637582Y-79121000D01*
X68657208Y-79320271D01*
X68715333Y-79511881D01*
X68809718Y-79688463D01*
X68809720Y-79688465D01*
X68809722Y-79688469D01*
X68870724Y-79762801D01*
X68936747Y-79843252D01*
X69002770Y-79897434D01*
X69091531Y-79970278D01*
X69091534Y-79970280D01*
X69091536Y-79970281D01*
X69268118Y-80064666D01*
X69268120Y-80064667D01*
X69459731Y-80122792D01*
X69659000Y-80142418D01*
X69858269Y-80122792D01*
X70049880Y-80064667D01*
X70226469Y-79970278D01*
X70381252Y-79843252D01*
X70508278Y-79688469D01*
X70602667Y-79511880D01*
X70660792Y-79320269D01*
X70680418Y-79121000D01*
X70680418Y-79120998D01*
X71649380Y-79120998D01*
X71649380Y-79121001D01*
X71669835Y-79407004D01*
X71730782Y-79687168D01*
X71730784Y-79687175D01*
X71731267Y-79688469D01*
X71830985Y-79955827D01*
X71830987Y-79955831D01*
X71968396Y-80207477D01*
X71968397Y-80207478D01*
X71968400Y-80207483D01*
X72140231Y-80437021D01*
X72140235Y-80437025D01*
X72140240Y-80437031D01*
X72342968Y-80639759D01*
X72342974Y-80639764D01*
X72342979Y-80639769D01*
X72572517Y-80811600D01*
X72572521Y-80811602D01*
X72572522Y-80811603D01*
X72824168Y-80949012D01*
X72824172Y-80949014D01*
X72824174Y-80949015D01*
X73092825Y-81049216D01*
X73207283Y-81074115D01*
X73372995Y-81110164D01*
X73372997Y-81110164D01*
X73373001Y-81110165D01*
X73627156Y-81128342D01*
X73658999Y-81130620D01*
X73659000Y-81130620D01*
X73659001Y-81130620D01*
X73687653Y-81128570D01*
X73944999Y-81110165D01*
X74225175Y-81049216D01*
X74493826Y-80949015D01*
X74745483Y-80811600D01*
X74975021Y-80639769D01*
X75177769Y-80437021D01*
X75349600Y-80207483D01*
X75487015Y-79955826D01*
X75587216Y-79687175D01*
X75648165Y-79406999D01*
X75668620Y-79121000D01*
X75648165Y-78835001D01*
X75587216Y-78554825D01*
X75487015Y-78286174D01*
X75479121Y-78271718D01*
X75349603Y-78034522D01*
X75349602Y-78034521D01*
X75349600Y-78034517D01*
X75177769Y-77804979D01*
X75177764Y-77804974D01*
X75177759Y-77804968D01*
X74975031Y-77602240D01*
X74975025Y-77602235D01*
X74975021Y-77602231D01*
X74745483Y-77430400D01*
X74745478Y-77430397D01*
X74745477Y-77430396D01*
X74493831Y-77292987D01*
X74493827Y-77292985D01*
X74327969Y-77231124D01*
X74225175Y-77192784D01*
X74225171Y-77192783D01*
X74225168Y-77192782D01*
X73945004Y-77131835D01*
X73659001Y-77111380D01*
X73658999Y-77111380D01*
X73372995Y-77131835D01*
X73092831Y-77192782D01*
X73092826Y-77192783D01*
X73092825Y-77192784D01*
X73027874Y-77217009D01*
X72824172Y-77292985D01*
X72824168Y-77292987D01*
X72572522Y-77430396D01*
X72572521Y-77430397D01*
X72342980Y-77602230D01*
X72342968Y-77602240D01*
X72140240Y-77804968D01*
X72140230Y-77804980D01*
X71968397Y-78034521D01*
X71968396Y-78034522D01*
X71830987Y-78286168D01*
X71830985Y-78286172D01*
X71730782Y-78554831D01*
X71669835Y-78834995D01*
X71649380Y-79120998D01*
X70680418Y-79120998D01*
X70660792Y-78921731D01*
X70602667Y-78730120D01*
X70602666Y-78730118D01*
X70508281Y-78553536D01*
X70508280Y-78553534D01*
X70508278Y-78553531D01*
X70435434Y-78464770D01*
X70381252Y-78398747D01*
X70300801Y-78332724D01*
X70226469Y-78271722D01*
X70226465Y-78271720D01*
X70226463Y-78271718D01*
X70049881Y-78177333D01*
X69858271Y-78119208D01*
X69659000Y-78099582D01*
X69459728Y-78119208D01*
X69268118Y-78177333D01*
X69091536Y-78271718D01*
X68936747Y-78398747D01*
X68809718Y-78553536D01*
X68715333Y-78730118D01*
X68657208Y-78921728D01*
X68637582Y-79121000D01*
X66680418Y-79121000D01*
X66660792Y-78921731D01*
X66602667Y-78730120D01*
X66563142Y-78656173D01*
X66548500Y-78597720D01*
X66548500Y-78271391D01*
X66548499Y-78271387D01*
X66514317Y-78099542D01*
X66487385Y-78034522D01*
X66447268Y-77937670D01*
X66447261Y-77937657D01*
X66349921Y-77791978D01*
X66299753Y-77741810D01*
X66226023Y-77668080D01*
X65342143Y-76784200D01*
X80322389Y-76784200D01*
X80340789Y-76971023D01*
X80395283Y-77150663D01*
X80483772Y-77316214D01*
X80483775Y-77316218D01*
X80483776Y-77316220D01*
X80501885Y-77338286D01*
X80602866Y-77461333D01*
X80703847Y-77544205D01*
X80747980Y-77580424D01*
X80747983Y-77580425D01*
X80747985Y-77580427D01*
X80911972Y-77668080D01*
X80913538Y-77668917D01*
X81093179Y-77723411D01*
X81280000Y-77741811D01*
X81466821Y-77723411D01*
X81646462Y-77668917D01*
X81812020Y-77580424D01*
X81957133Y-77461333D01*
X82076224Y-77316220D01*
X82164717Y-77150662D01*
X82219211Y-76971021D01*
X82237611Y-76784200D01*
X86824789Y-76784200D01*
X86843189Y-76971023D01*
X86897683Y-77150663D01*
X86986172Y-77316214D01*
X86986175Y-77316218D01*
X86986176Y-77316220D01*
X87004285Y-77338286D01*
X87105266Y-77461333D01*
X87206247Y-77544205D01*
X87250380Y-77580424D01*
X87250383Y-77580425D01*
X87250385Y-77580427D01*
X87414372Y-77668080D01*
X87415938Y-77668917D01*
X87595579Y-77723411D01*
X87782400Y-77741811D01*
X87969221Y-77723411D01*
X88148862Y-77668917D01*
X88314420Y-77580424D01*
X88459533Y-77461333D01*
X88578624Y-77316220D01*
X88667117Y-77150662D01*
X88721611Y-76971021D01*
X88740011Y-76784200D01*
X94292389Y-76784200D01*
X94310789Y-76971023D01*
X94365283Y-77150663D01*
X94453772Y-77316214D01*
X94453775Y-77316218D01*
X94453776Y-77316220D01*
X94471885Y-77338286D01*
X94572866Y-77461333D01*
X94673847Y-77544205D01*
X94717980Y-77580424D01*
X94717983Y-77580425D01*
X94717985Y-77580427D01*
X94881972Y-77668080D01*
X94883538Y-77668917D01*
X95063179Y-77723411D01*
X95250000Y-77741811D01*
X95436821Y-77723411D01*
X95616462Y-77668917D01*
X95782020Y-77580424D01*
X95927133Y-77461333D01*
X96046224Y-77316220D01*
X96134717Y-77150662D01*
X96189211Y-76971021D01*
X96207611Y-76784200D01*
X96189211Y-76597379D01*
X96134717Y-76417738D01*
X96046224Y-76252180D01*
X96010005Y-76208047D01*
X95927133Y-76107066D01*
X95782021Y-75987977D01*
X95782014Y-75987972D01*
X95616463Y-75899483D01*
X95436823Y-75844989D01*
X95250000Y-75826589D01*
X95063176Y-75844989D01*
X94883536Y-75899483D01*
X94717985Y-75987972D01*
X94717978Y-75987977D01*
X94572866Y-76107066D01*
X94453777Y-76252178D01*
X94453772Y-76252185D01*
X94365283Y-76417736D01*
X94310789Y-76597376D01*
X94292389Y-76784200D01*
X88740011Y-76784200D01*
X88721611Y-76597379D01*
X88667117Y-76417738D01*
X88578624Y-76252180D01*
X88542405Y-76208047D01*
X88459533Y-76107066D01*
X88314421Y-75987977D01*
X88314414Y-75987972D01*
X88148863Y-75899483D01*
X87969223Y-75844989D01*
X87782400Y-75826589D01*
X87595576Y-75844989D01*
X87415936Y-75899483D01*
X87250385Y-75987972D01*
X87250378Y-75987977D01*
X87105266Y-76107066D01*
X86986177Y-76252178D01*
X86986172Y-76252185D01*
X86897683Y-76417736D01*
X86843189Y-76597376D01*
X86824789Y-76784200D01*
X82237611Y-76784200D01*
X82219211Y-76597379D01*
X82164717Y-76417738D01*
X82076224Y-76252180D01*
X82040005Y-76208047D01*
X81957133Y-76107066D01*
X81812021Y-75987977D01*
X81812014Y-75987972D01*
X81646463Y-75899483D01*
X81466823Y-75844989D01*
X81280000Y-75826589D01*
X81093176Y-75844989D01*
X80913536Y-75899483D01*
X80747985Y-75987972D01*
X80747978Y-75987977D01*
X80602866Y-76107066D01*
X80483777Y-76252178D01*
X80483772Y-76252185D01*
X80395283Y-76417736D01*
X80340789Y-76597376D01*
X80322389Y-76784200D01*
X65342143Y-76784200D01*
X61836941Y-73278998D01*
X81609715Y-73278998D01*
X81609715Y-73279001D01*
X81628771Y-73423752D01*
X81628773Y-73423757D01*
X81684642Y-73558638D01*
X81684645Y-73558644D01*
X81773525Y-73674473D01*
X81773526Y-73674474D01*
X81889355Y-73763354D01*
X81889361Y-73763357D01*
X81956801Y-73791291D01*
X82024246Y-73819228D01*
X82096623Y-73828756D01*
X82168999Y-73838285D01*
X82169000Y-73838285D01*
X82169001Y-73838285D01*
X82217251Y-73831932D01*
X82313754Y-73819228D01*
X82448643Y-73763355D01*
X82461132Y-73753771D01*
X82466538Y-73749624D01*
X82531708Y-73724430D01*
X82542024Y-73724000D01*
X98011513Y-73724000D01*
X98078552Y-73743685D01*
X98099194Y-73760319D01*
X100789277Y-76450402D01*
X100822762Y-76511725D01*
X100820257Y-76574075D01*
X100813190Y-76597373D01*
X100813188Y-76597379D01*
X100794789Y-76784200D01*
X100813189Y-76971023D01*
X100867683Y-77150663D01*
X100956172Y-77316214D01*
X100956175Y-77316218D01*
X100956176Y-77316220D01*
X100974285Y-77338286D01*
X101075266Y-77461333D01*
X101176247Y-77544205D01*
X101220380Y-77580424D01*
X101220383Y-77580425D01*
X101220385Y-77580427D01*
X101384372Y-77668080D01*
X101385938Y-77668917D01*
X101565579Y-77723411D01*
X101752400Y-77741811D01*
X101939221Y-77723411D01*
X102118862Y-77668917D01*
X102284420Y-77580424D01*
X102429533Y-77461333D01*
X102548624Y-77316220D01*
X102637117Y-77150662D01*
X102691611Y-76971021D01*
X102710011Y-76784200D01*
X102691611Y-76597379D01*
X102637117Y-76417738D01*
X102548624Y-76252180D01*
X102512405Y-76208047D01*
X102429533Y-76107066D01*
X102284421Y-75987977D01*
X102284414Y-75987972D01*
X102118863Y-75899483D01*
X101939223Y-75844989D01*
X101752400Y-75826589D01*
X101565579Y-75844988D01*
X101565573Y-75844990D01*
X101542275Y-75852057D01*
X101472408Y-75852679D01*
X101418602Y-75821077D01*
X98520438Y-72922913D01*
X98520437Y-72922912D01*
X98520436Y-72922911D01*
X98418966Y-72864327D01*
X98418965Y-72864326D01*
X98390669Y-72856744D01*
X98362374Y-72849163D01*
X98362371Y-72849162D01*
X98305786Y-72834000D01*
X98305785Y-72834000D01*
X82542024Y-72834000D01*
X82474985Y-72814315D01*
X82466538Y-72808376D01*
X82448643Y-72794645D01*
X82448638Y-72794642D01*
X82313757Y-72738773D01*
X82313752Y-72738771D01*
X82169001Y-72719715D01*
X82168999Y-72719715D01*
X82024247Y-72738771D01*
X82024245Y-72738772D01*
X81889361Y-72794643D01*
X81889358Y-72794644D01*
X81889358Y-72794645D01*
X81863724Y-72814315D01*
X81773526Y-72883526D01*
X81684643Y-72999361D01*
X81628772Y-73134245D01*
X81628771Y-73134247D01*
X81609715Y-73278998D01*
X61836941Y-73278998D01*
X52360819Y-63802876D01*
X52334130Y-63753998D01*
X65099715Y-63753998D01*
X65099715Y-63754001D01*
X65118771Y-63898752D01*
X65118773Y-63898757D01*
X65174642Y-64033638D01*
X65174645Y-64033644D01*
X65263525Y-64149473D01*
X65263526Y-64149474D01*
X65379355Y-64238354D01*
X65379361Y-64238357D01*
X65446801Y-64266291D01*
X65514246Y-64294228D01*
X65586623Y-64303756D01*
X65658999Y-64313285D01*
X65659000Y-64313285D01*
X65659001Y-64313285D01*
X65707251Y-64306932D01*
X65803754Y-64294228D01*
X65938643Y-64238355D01*
X65997131Y-64193474D01*
X66062300Y-64168280D01*
X66072618Y-64167850D01*
X73226298Y-64167850D01*
X73293337Y-64187535D01*
X73337296Y-64236575D01*
X73385419Y-64333220D01*
X73514359Y-64503964D01*
X73672478Y-64648108D01*
X73741643Y-64690933D01*
X73751317Y-64696923D01*
X73797952Y-64748951D01*
X73809056Y-64817933D01*
X73781103Y-64881967D01*
X73751317Y-64907777D01*
X73672482Y-64956589D01*
X73672480Y-64956590D01*
X73672478Y-64956592D01*
X73529959Y-65086515D01*
X73514358Y-65100737D01*
X73385419Y-65271479D01*
X73290049Y-65463008D01*
X73290046Y-65463014D01*
X73231496Y-65668799D01*
X73231495Y-65668802D01*
X73211754Y-65881849D01*
X73211754Y-65881850D01*
X73231495Y-66094897D01*
X73231496Y-66094900D01*
X73290046Y-66300685D01*
X73290049Y-66300691D01*
X73385419Y-66492220D01*
X73514360Y-66662966D01*
X73559816Y-66704404D01*
X73596098Y-66764115D01*
X73594337Y-66833963D01*
X73555094Y-66891770D01*
X73552441Y-66893894D01*
X73468885Y-66958928D01*
X73468885Y-66958929D01*
X74155642Y-67645686D01*
X74094894Y-67680760D01*
X74011110Y-67764544D01*
X73976036Y-67825292D01*
X73288653Y-67137909D01*
X73288652Y-67137909D01*
X73256280Y-67173076D01*
X73128656Y-67368419D01*
X73034924Y-67582105D01*
X72977643Y-67808302D01*
X72977641Y-67808314D01*
X72958374Y-68040844D01*
X72958374Y-68040855D01*
X72977641Y-68273385D01*
X72977643Y-68273397D01*
X73034924Y-68499594D01*
X73128656Y-68713280D01*
X73256280Y-68908623D01*
X73290341Y-68945624D01*
X73321263Y-69008279D01*
X73313403Y-69077705D01*
X73294321Y-69106091D01*
X73294501Y-69106211D01*
X73231466Y-69200549D01*
X73231464Y-69200553D01*
X73216700Y-69274778D01*
X73216700Y-71124913D01*
X73231466Y-71199151D01*
X73287715Y-71283334D01*
X73321434Y-71305864D01*
X73371899Y-71339584D01*
X73371902Y-71339584D01*
X73371903Y-71339585D01*
X73396866Y-71344550D01*
X73446133Y-71354350D01*
X75296266Y-71354349D01*
X75370501Y-71339584D01*
X75454684Y-71283334D01*
X75510934Y-71199151D01*
X75525700Y-71124917D01*
X75525700Y-70768850D01*
X75545385Y-70701811D01*
X75598189Y-70656056D01*
X75649700Y-70644850D01*
X77051734Y-70644850D01*
X77051736Y-70644850D01*
X77144212Y-70620071D01*
X77164914Y-70614524D01*
X77266386Y-70555939D01*
X77349239Y-70473086D01*
X83618156Y-64204169D01*
X83679479Y-64170684D01*
X83705837Y-64167850D01*
X87196298Y-64167850D01*
X87263337Y-64187535D01*
X87307296Y-64236575D01*
X87355419Y-64333220D01*
X87484359Y-64503964D01*
X87642478Y-64648108D01*
X87711643Y-64690933D01*
X87721317Y-64696923D01*
X87767952Y-64748951D01*
X87779056Y-64817933D01*
X87751103Y-64881967D01*
X87721317Y-64907777D01*
X87642482Y-64956589D01*
X87642480Y-64956590D01*
X87642478Y-64956592D01*
X87499959Y-65086515D01*
X87484358Y-65100737D01*
X87355419Y-65271479D01*
X87260049Y-65463008D01*
X87260046Y-65463014D01*
X87201496Y-65668799D01*
X87201495Y-65668802D01*
X87181754Y-65881849D01*
X87181754Y-65881850D01*
X87201495Y-66094897D01*
X87201496Y-66094900D01*
X87260046Y-66300685D01*
X87260049Y-66300691D01*
X87355419Y-66492220D01*
X87484360Y-66662966D01*
X87529816Y-66704404D01*
X87566098Y-66764115D01*
X87564337Y-66833963D01*
X87525094Y-66891770D01*
X87522441Y-66893894D01*
X87438885Y-66958928D01*
X87438885Y-66958929D01*
X88125642Y-67645686D01*
X88064894Y-67680760D01*
X87981110Y-67764544D01*
X87946036Y-67825292D01*
X87258653Y-67137909D01*
X87258652Y-67137909D01*
X87226280Y-67173076D01*
X87098656Y-67368419D01*
X87004924Y-67582105D01*
X86947643Y-67808302D01*
X86947641Y-67808314D01*
X86928374Y-68040844D01*
X86928374Y-68040855D01*
X86947641Y-68273385D01*
X86947643Y-68273397D01*
X87004924Y-68499594D01*
X87098656Y-68713280D01*
X87226280Y-68908623D01*
X87260341Y-68945624D01*
X87291263Y-69008279D01*
X87283403Y-69077705D01*
X87264321Y-69106091D01*
X87264501Y-69106211D01*
X87201466Y-69200549D01*
X87201464Y-69200553D01*
X87186700Y-69274778D01*
X87186700Y-71124913D01*
X87201466Y-71199151D01*
X87257715Y-71283334D01*
X87291434Y-71305864D01*
X87341899Y-71339584D01*
X87341902Y-71339584D01*
X87341903Y-71339585D01*
X87366866Y-71344550D01*
X87416133Y-71354350D01*
X89266266Y-71354349D01*
X89340501Y-71339584D01*
X89424684Y-71283334D01*
X89480934Y-71199151D01*
X89495700Y-71124917D01*
X89495700Y-70768850D01*
X89515385Y-70701811D01*
X89568189Y-70656056D01*
X89619700Y-70644850D01*
X91275734Y-70644850D01*
X91275736Y-70644850D01*
X91368212Y-70620071D01*
X91388914Y-70614524D01*
X91490386Y-70555939D01*
X91573239Y-70473086D01*
X97969156Y-64077169D01*
X98030479Y-64043684D01*
X98056837Y-64040850D01*
X99896298Y-64040850D01*
X99963337Y-64060535D01*
X100007296Y-64109575D01*
X100055419Y-64206220D01*
X100184359Y-64376964D01*
X100342478Y-64521108D01*
X100399362Y-64556329D01*
X100421317Y-64569923D01*
X100467952Y-64621951D01*
X100479056Y-64690933D01*
X100451103Y-64754967D01*
X100421317Y-64780777D01*
X100342482Y-64829589D01*
X100342480Y-64829590D01*
X100342478Y-64829592D01*
X100203165Y-64956592D01*
X100184358Y-64973737D01*
X100055419Y-65144479D01*
X99960049Y-65336008D01*
X99960046Y-65336014D01*
X99901496Y-65541799D01*
X99901495Y-65541802D01*
X99881754Y-65754849D01*
X99881754Y-65754850D01*
X99901495Y-65967897D01*
X99901496Y-65967900D01*
X99960046Y-66173685D01*
X99960049Y-66173691D01*
X100055419Y-66365220D01*
X100184360Y-66535966D01*
X100229816Y-66577404D01*
X100266098Y-66637115D01*
X100264337Y-66706963D01*
X100225094Y-66764770D01*
X100222441Y-66766894D01*
X100138885Y-66831928D01*
X100138885Y-66831929D01*
X100825642Y-67518686D01*
X100764894Y-67553760D01*
X100681110Y-67637544D01*
X100646036Y-67698292D01*
X99958653Y-67010909D01*
X99958652Y-67010909D01*
X99926280Y-67046076D01*
X99798656Y-67241419D01*
X99704924Y-67455105D01*
X99647643Y-67681302D01*
X99647641Y-67681314D01*
X99628374Y-67913844D01*
X99628374Y-67913855D01*
X99647641Y-68146385D01*
X99647643Y-68146397D01*
X99704924Y-68372594D01*
X99798656Y-68586280D01*
X99926280Y-68781623D01*
X99960341Y-68818624D01*
X99991263Y-68881279D01*
X99983403Y-68950705D01*
X99964321Y-68979091D01*
X99964501Y-68979211D01*
X99901466Y-69073549D01*
X99901464Y-69073553D01*
X99886700Y-69147778D01*
X99886700Y-70997913D01*
X99901466Y-71072151D01*
X99957715Y-71156334D01*
X99991434Y-71178864D01*
X100041899Y-71212584D01*
X100041902Y-71212584D01*
X100041903Y-71212585D01*
X100066866Y-71217550D01*
X100116133Y-71227350D01*
X101966266Y-71227349D01*
X102040501Y-71212584D01*
X102124684Y-71156334D01*
X102180934Y-71072151D01*
X102195700Y-70997917D01*
X102195699Y-69174997D01*
X107907004Y-69174997D01*
X107907004Y-69175002D01*
X107926950Y-69402993D01*
X107926952Y-69403004D01*
X107986184Y-69624063D01*
X107986188Y-69624072D01*
X108082912Y-69831498D01*
X108082914Y-69831502D01*
X108206867Y-70008526D01*
X108206868Y-70008526D01*
X108861439Y-69353955D01*
X108899920Y-69420606D01*
X108974394Y-69495080D01*
X109041044Y-69533560D01*
X108386472Y-70188130D01*
X108563502Y-70312087D01*
X108770927Y-70408811D01*
X108770936Y-70408815D01*
X108991995Y-70468047D01*
X108992006Y-70468049D01*
X109219998Y-70487996D01*
X109220002Y-70487996D01*
X109447993Y-70468049D01*
X109448004Y-70468047D01*
X109669063Y-70408815D01*
X109669072Y-70408811D01*
X109876495Y-70312089D01*
X110053526Y-70188130D01*
X109398955Y-69533560D01*
X109465606Y-69495080D01*
X109540080Y-69420606D01*
X109578560Y-69353955D01*
X110233130Y-70008526D01*
X110357089Y-69831495D01*
X110453811Y-69624072D01*
X110453815Y-69624063D01*
X110513047Y-69403004D01*
X110513049Y-69402993D01*
X110532996Y-69175002D01*
X110532996Y-69174997D01*
X110513049Y-68947006D01*
X110513047Y-68946995D01*
X110453815Y-68725936D01*
X110453811Y-68725927D01*
X110357087Y-68518502D01*
X110233129Y-68341472D01*
X109578559Y-68996043D01*
X109540080Y-68929394D01*
X109465606Y-68854920D01*
X109398955Y-68816439D01*
X110053526Y-68161868D01*
X110053526Y-68161867D01*
X109876502Y-68037914D01*
X109876498Y-68037912D01*
X109669072Y-67941188D01*
X109669063Y-67941184D01*
X109448004Y-67881952D01*
X109447993Y-67881950D01*
X109220002Y-67862004D01*
X109219998Y-67862004D01*
X108992006Y-67881950D01*
X108991995Y-67881952D01*
X108770936Y-67941184D01*
X108770927Y-67941188D01*
X108563503Y-68037911D01*
X108563501Y-68037912D01*
X108386473Y-68161868D01*
X108386472Y-68161868D01*
X109041044Y-68816439D01*
X108974394Y-68854920D01*
X108899920Y-68929394D01*
X108861439Y-68996043D01*
X108206868Y-68341472D01*
X108206868Y-68341473D01*
X108082912Y-68518501D01*
X108082911Y-68518503D01*
X107986188Y-68725927D01*
X107986184Y-68725936D01*
X107926952Y-68946995D01*
X107926950Y-68947006D01*
X107907004Y-69174997D01*
X102195699Y-69174997D01*
X102195699Y-69147784D01*
X102180934Y-69073549D01*
X102145558Y-69020606D01*
X102117899Y-68979211D01*
X102119114Y-68978398D01*
X102092122Y-68928965D01*
X102097106Y-68859273D01*
X102122059Y-68818623D01*
X102156120Y-68781623D01*
X102283743Y-68586280D01*
X102377475Y-68372594D01*
X102434756Y-68146397D01*
X102434758Y-68146385D01*
X102454026Y-67913855D01*
X102454026Y-67913844D01*
X102434758Y-67681314D01*
X102434756Y-67681302D01*
X102377475Y-67455105D01*
X102283744Y-67241422D01*
X102156112Y-67046068D01*
X102156111Y-67046065D01*
X102123747Y-67010909D01*
X102123745Y-67010909D01*
X101436362Y-67698291D01*
X101401290Y-67637544D01*
X101317506Y-67553760D01*
X101256757Y-67518686D01*
X101943513Y-66831929D01*
X101859957Y-66766894D01*
X101819144Y-66710184D01*
X101815471Y-66640411D01*
X101850102Y-66579727D01*
X101852528Y-66577453D01*
X101898041Y-66535964D01*
X102026981Y-66365220D01*
X102122351Y-66173690D01*
X102122351Y-66173687D01*
X102122353Y-66173685D01*
X102180903Y-65967900D01*
X102180904Y-65967897D01*
X102200646Y-65754850D01*
X102200646Y-65754849D01*
X102180904Y-65541802D01*
X102180903Y-65541799D01*
X102122353Y-65336014D01*
X102122350Y-65336008D01*
X102120222Y-65331735D01*
X102026981Y-65144480D01*
X101898041Y-64973736D01*
X101739922Y-64829592D01*
X101739916Y-64829588D01*
X101739913Y-64829586D01*
X101661083Y-64780777D01*
X101614447Y-64728750D01*
X101603343Y-64659768D01*
X101631296Y-64595733D01*
X101661083Y-64569923D01*
X101683038Y-64556329D01*
X101739922Y-64521108D01*
X101898041Y-64376964D01*
X102026981Y-64206220D01*
X102042527Y-64175000D01*
X108160398Y-64175000D01*
X108180757Y-64381716D01*
X108241056Y-64580496D01*
X108338969Y-64763677D01*
X108338974Y-64763684D01*
X108470747Y-64924252D01*
X108551797Y-64990767D01*
X108631317Y-65056027D01*
X108631320Y-65056028D01*
X108631322Y-65056030D01*
X108814503Y-65153943D01*
X108814505Y-65153943D01*
X108814508Y-65153945D01*
X109013282Y-65214242D01*
X109220000Y-65234602D01*
X109426718Y-65214242D01*
X109625492Y-65153945D01*
X109808683Y-65056027D01*
X109969252Y-64924252D01*
X110101027Y-64763683D01*
X110176785Y-64621951D01*
X110198943Y-64580496D01*
X110198943Y-64580495D01*
X110198945Y-64580492D01*
X110259242Y-64381718D01*
X110279602Y-64175000D01*
X110259242Y-63968282D01*
X110198945Y-63769508D01*
X110198943Y-63769505D01*
X110198943Y-63769503D01*
X110101030Y-63586322D01*
X110101028Y-63586320D01*
X110101027Y-63586317D01*
X110038231Y-63509799D01*
X109969252Y-63425747D01*
X109808684Y-63293974D01*
X109808677Y-63293969D01*
X109625496Y-63196056D01*
X109426716Y-63135757D01*
X109220000Y-63115398D01*
X109013283Y-63135757D01*
X108814503Y-63196056D01*
X108631322Y-63293969D01*
X108631315Y-63293974D01*
X108470747Y-63425747D01*
X108338974Y-63586315D01*
X108338969Y-63586322D01*
X108241056Y-63769503D01*
X108180757Y-63968283D01*
X108160398Y-64175000D01*
X102042527Y-64175000D01*
X102122351Y-64014690D01*
X102122351Y-64014687D01*
X102122353Y-64014685D01*
X102180903Y-63808900D01*
X102180904Y-63808897D01*
X102184555Y-63769503D01*
X102200646Y-63595850D01*
X102199762Y-63586315D01*
X102180904Y-63382802D01*
X102180903Y-63382799D01*
X102176340Y-63366763D01*
X102172400Y-63352915D01*
X102122353Y-63177014D01*
X102122350Y-63177008D01*
X102101810Y-63135758D01*
X102026981Y-62985480D01*
X101898041Y-62814736D01*
X101739922Y-62670592D01*
X101739916Y-62670588D01*
X101739913Y-62670586D01*
X101558013Y-62557958D01*
X101558007Y-62557956D01*
X101358497Y-62480665D01*
X101148180Y-62441350D01*
X100934220Y-62441350D01*
X100723903Y-62480665D01*
X100597733Y-62529543D01*
X100524392Y-62557956D01*
X100524386Y-62557958D01*
X100342486Y-62670586D01*
X100342483Y-62670588D01*
X100342479Y-62670590D01*
X100342478Y-62670592D01*
X100184359Y-62814736D01*
X100055419Y-62985480D01*
X100007296Y-63082123D01*
X99959796Y-63133358D01*
X99896298Y-63150850D01*
X97762564Y-63150850D01*
X97670087Y-63175629D01*
X97670086Y-63175628D01*
X97649388Y-63181175D01*
X97649383Y-63181177D01*
X97547917Y-63239759D01*
X97547911Y-63239763D01*
X91069144Y-69718531D01*
X91007821Y-69752016D01*
X90981463Y-69754850D01*
X89619699Y-69754850D01*
X89552660Y-69735165D01*
X89506905Y-69682361D01*
X89495699Y-69630850D01*
X89495699Y-69274786D01*
X89495699Y-69274784D01*
X89480934Y-69200549D01*
X89453840Y-69160000D01*
X89417899Y-69106211D01*
X89419114Y-69105398D01*
X89392122Y-69055965D01*
X89397106Y-68986273D01*
X89422059Y-68945623D01*
X89456120Y-68908623D01*
X89583743Y-68713280D01*
X89677475Y-68499594D01*
X89734756Y-68273397D01*
X89734758Y-68273385D01*
X89754026Y-68040855D01*
X89754026Y-68040844D01*
X89734758Y-67808314D01*
X89734756Y-67808302D01*
X89677475Y-67582105D01*
X89583744Y-67368422D01*
X89456112Y-67173068D01*
X89456111Y-67173065D01*
X89423747Y-67137909D01*
X89423745Y-67137909D01*
X88736362Y-67825291D01*
X88701290Y-67764544D01*
X88617506Y-67680760D01*
X88556757Y-67645686D01*
X89243513Y-66958929D01*
X89159957Y-66893894D01*
X89119144Y-66837184D01*
X89115471Y-66767411D01*
X89150102Y-66706727D01*
X89152528Y-66704453D01*
X89198041Y-66662964D01*
X89326981Y-66492220D01*
X89422351Y-66300690D01*
X89422351Y-66300687D01*
X89422353Y-66300685D01*
X89480903Y-66094900D01*
X89480904Y-66094897D01*
X89500646Y-65881850D01*
X89500646Y-65881849D01*
X89480904Y-65668802D01*
X89480903Y-65668799D01*
X89422353Y-65463014D01*
X89422350Y-65463008D01*
X89350417Y-65318547D01*
X89326981Y-65271480D01*
X89198041Y-65100736D01*
X89039922Y-64956592D01*
X89039916Y-64956588D01*
X89039913Y-64956586D01*
X88961083Y-64907777D01*
X88914447Y-64855750D01*
X88903343Y-64786768D01*
X88931296Y-64722733D01*
X88961083Y-64696923D01*
X88970757Y-64690933D01*
X89039922Y-64648108D01*
X89198041Y-64503964D01*
X89326981Y-64333220D01*
X89422351Y-64141690D01*
X89422351Y-64141687D01*
X89422353Y-64141685D01*
X89458487Y-64014685D01*
X89480904Y-63935898D01*
X89500646Y-63722850D01*
X89480904Y-63509802D01*
X89456989Y-63425748D01*
X89422353Y-63304014D01*
X89422350Y-63304008D01*
X89390360Y-63239763D01*
X89326981Y-63112480D01*
X89198041Y-62941736D01*
X89039922Y-62797592D01*
X89039916Y-62797588D01*
X89039913Y-62797586D01*
X88858013Y-62684958D01*
X88858007Y-62684956D01*
X88658497Y-62607665D01*
X88448180Y-62568350D01*
X88234220Y-62568350D01*
X88023903Y-62607665D01*
X87897733Y-62656543D01*
X87824392Y-62684956D01*
X87824386Y-62684958D01*
X87642486Y-62797586D01*
X87642483Y-62797588D01*
X87642479Y-62797590D01*
X87642478Y-62797592D01*
X87484359Y-62941736D01*
X87355419Y-63112480D01*
X87307296Y-63209123D01*
X87259796Y-63260358D01*
X87196298Y-63277850D01*
X83411562Y-63277850D01*
X83354975Y-63293012D01*
X83354975Y-63293013D01*
X83298386Y-63308176D01*
X83298385Y-63308176D01*
X83298383Y-63308177D01*
X83196914Y-63366761D01*
X83196911Y-63366763D01*
X76845144Y-69718531D01*
X76783821Y-69752016D01*
X76757463Y-69754850D01*
X75649699Y-69754850D01*
X75582660Y-69735165D01*
X75536905Y-69682361D01*
X75525699Y-69630850D01*
X75525699Y-69274786D01*
X75525699Y-69274784D01*
X75510934Y-69200549D01*
X75483840Y-69160000D01*
X75447899Y-69106211D01*
X75449114Y-69105398D01*
X75422122Y-69055965D01*
X75427106Y-68986273D01*
X75452059Y-68945623D01*
X75486120Y-68908623D01*
X75613743Y-68713280D01*
X75707475Y-68499594D01*
X75764756Y-68273397D01*
X75764758Y-68273385D01*
X75784026Y-68040855D01*
X75784026Y-68040844D01*
X75764758Y-67808314D01*
X75764756Y-67808302D01*
X75707475Y-67582105D01*
X75613744Y-67368422D01*
X75486112Y-67173068D01*
X75486111Y-67173065D01*
X75453747Y-67137909D01*
X75453745Y-67137909D01*
X74766362Y-67825291D01*
X74731290Y-67764544D01*
X74647506Y-67680760D01*
X74586757Y-67645686D01*
X75273513Y-66958929D01*
X75189957Y-66893894D01*
X75149144Y-66837184D01*
X75145471Y-66767411D01*
X75180102Y-66706727D01*
X75182528Y-66704453D01*
X75228041Y-66662964D01*
X75356981Y-66492220D01*
X75452351Y-66300690D01*
X75452351Y-66300687D01*
X75452353Y-66300685D01*
X75510903Y-66094900D01*
X75510904Y-66094897D01*
X75530646Y-65881850D01*
X75530646Y-65881849D01*
X75510904Y-65668802D01*
X75510903Y-65668799D01*
X75452353Y-65463014D01*
X75452350Y-65463008D01*
X75380417Y-65318547D01*
X75356981Y-65271480D01*
X75228041Y-65100736D01*
X75069922Y-64956592D01*
X75069916Y-64956588D01*
X75069913Y-64956586D01*
X74991083Y-64907777D01*
X74944447Y-64855750D01*
X74933343Y-64786768D01*
X74961296Y-64722733D01*
X74991083Y-64696923D01*
X75000757Y-64690933D01*
X75069922Y-64648108D01*
X75228041Y-64503964D01*
X75356981Y-64333220D01*
X75452351Y-64141690D01*
X75452351Y-64141687D01*
X75452353Y-64141685D01*
X75488487Y-64014685D01*
X75510904Y-63935898D01*
X75530646Y-63722850D01*
X75510904Y-63509802D01*
X75486989Y-63425748D01*
X75452353Y-63304014D01*
X75452350Y-63304008D01*
X75420360Y-63239763D01*
X75356981Y-63112480D01*
X75228041Y-62941736D01*
X75069922Y-62797592D01*
X75069916Y-62797588D01*
X75069913Y-62797586D01*
X74888013Y-62684958D01*
X74888007Y-62684956D01*
X74688497Y-62607665D01*
X74478180Y-62568350D01*
X74264220Y-62568350D01*
X74053903Y-62607665D01*
X73927733Y-62656543D01*
X73854392Y-62684956D01*
X73854386Y-62684958D01*
X73672486Y-62797586D01*
X73672483Y-62797588D01*
X73672479Y-62797590D01*
X73672478Y-62797592D01*
X73514359Y-62941736D01*
X73385419Y-63112480D01*
X73337296Y-63209123D01*
X73289796Y-63260358D01*
X73226298Y-63277850D01*
X65983118Y-63277850D01*
X65935666Y-63268411D01*
X65803757Y-63213773D01*
X65803752Y-63213771D01*
X65659001Y-63194715D01*
X65658999Y-63194715D01*
X65514247Y-63213771D01*
X65514245Y-63213772D01*
X65379361Y-63269643D01*
X65379358Y-63269644D01*
X65379358Y-63269645D01*
X65329142Y-63308177D01*
X65263526Y-63358526D01*
X65174643Y-63474361D01*
X65118772Y-63609245D01*
X65118771Y-63609247D01*
X65099715Y-63753998D01*
X52334130Y-63753998D01*
X52327334Y-63741553D01*
X52324500Y-63715195D01*
X52324500Y-60852036D01*
X52344185Y-60784997D01*
X52357264Y-60768060D01*
X52507554Y-60604802D01*
X52630330Y-60416880D01*
X52720500Y-60211313D01*
X52775605Y-59993707D01*
X52794142Y-59770000D01*
X52775605Y-59546293D01*
X52720500Y-59328687D01*
X52630330Y-59123120D01*
X52507554Y-58935198D01*
X52355522Y-58770047D01*
X52355517Y-58770043D01*
X52355515Y-58770041D01*
X52194770Y-58644928D01*
X60240500Y-58644928D01*
X60240500Y-60895063D01*
X60255266Y-60969301D01*
X60311515Y-61053484D01*
X60345234Y-61076014D01*
X60395699Y-61109734D01*
X60395702Y-61109734D01*
X60395703Y-61109735D01*
X60420666Y-61114700D01*
X60469933Y-61124500D01*
X62720066Y-61124499D01*
X62794301Y-61109734D01*
X62878484Y-61053484D01*
X62934734Y-60969301D01*
X62949500Y-60895067D01*
X62949499Y-58644934D01*
X62934734Y-58570699D01*
X62904420Y-58525331D01*
X62878484Y-58486515D01*
X62827497Y-58452447D01*
X62794301Y-58430266D01*
X62794299Y-58430265D01*
X62794296Y-58430264D01*
X62720069Y-58415500D01*
X60469936Y-58415500D01*
X60395698Y-58430266D01*
X60311515Y-58486515D01*
X60255266Y-58570699D01*
X60255264Y-58570703D01*
X60240500Y-58644928D01*
X52194770Y-58644928D01*
X52178388Y-58632177D01*
X52178382Y-58632173D01*
X51980962Y-58525334D01*
X51980953Y-58525331D01*
X51768652Y-58452447D01*
X51547237Y-58415500D01*
X51322763Y-58415500D01*
X51101347Y-58452447D01*
X50889046Y-58525331D01*
X50889037Y-58525334D01*
X50691617Y-58632173D01*
X50691611Y-58632177D01*
X50514484Y-58770041D01*
X50514481Y-58770044D01*
X50362447Y-58935196D01*
X50362444Y-58935200D01*
X50239670Y-59123118D01*
X50149499Y-59328688D01*
X50094394Y-59546296D01*
X50075858Y-59769994D01*
X50075858Y-59770005D01*
X50094394Y-59993703D01*
X50149499Y-60211311D01*
X50239670Y-60416881D01*
X50362444Y-60604799D01*
X50362446Y-60604802D01*
X50512731Y-60768055D01*
X50543652Y-60830707D01*
X50545500Y-60852036D01*
X50545500Y-64222612D01*
X50579681Y-64394450D01*
X50579684Y-64394462D01*
X50646731Y-64556329D01*
X50646738Y-64556342D01*
X50744079Y-64702022D01*
X50744082Y-64702026D01*
X50845875Y-64803819D01*
X50879360Y-64865142D01*
X50874376Y-64934834D01*
X50832504Y-64990767D01*
X50767040Y-65015184D01*
X50758194Y-65015500D01*
X49289936Y-65015500D01*
X49215698Y-65030266D01*
X49131515Y-65086515D01*
X49075266Y-65170699D01*
X49075264Y-65170703D01*
X49060500Y-65244928D01*
X49060500Y-66995063D01*
X49075266Y-67069301D01*
X49131515Y-67153484D01*
X49160821Y-67173065D01*
X49215699Y-67209734D01*
X49215702Y-67209734D01*
X49215703Y-67209735D01*
X49240666Y-67214700D01*
X49289933Y-67224500D01*
X49474651Y-67224499D01*
X49541689Y-67244183D01*
X49587444Y-67296987D01*
X49597388Y-67366145D01*
X49568363Y-67429701D01*
X49533668Y-67457553D01*
X49419709Y-67519225D01*
X49419702Y-67519229D01*
X49242101Y-67657462D01*
X49089676Y-67823039D01*
X49089673Y-67823043D01*
X48966582Y-68011446D01*
X48876178Y-68217546D01*
X48820931Y-68435712D01*
X48812870Y-68533000D01*
X43680500Y-68533000D01*
X43680500Y-51989997D01*
X55837004Y-51989997D01*
X55837004Y-51990002D01*
X55856950Y-52217993D01*
X55856952Y-52218004D01*
X55916184Y-52439063D01*
X55916188Y-52439072D01*
X56012912Y-52646498D01*
X56012914Y-52646502D01*
X56136867Y-52823526D01*
X56136868Y-52823526D01*
X56791439Y-52168955D01*
X56829920Y-52235606D01*
X56904394Y-52310080D01*
X56971044Y-52348560D01*
X56316472Y-53003130D01*
X56493502Y-53127087D01*
X56700927Y-53223811D01*
X56700936Y-53223815D01*
X56921995Y-53283047D01*
X56922006Y-53283049D01*
X57149998Y-53302996D01*
X57150002Y-53302996D01*
X57377993Y-53283049D01*
X57378004Y-53283047D01*
X57599063Y-53223815D01*
X57599072Y-53223811D01*
X57806495Y-53127089D01*
X57983526Y-53003130D01*
X57328955Y-52348560D01*
X57395606Y-52310080D01*
X57470080Y-52235606D01*
X57508560Y-52168955D01*
X58163130Y-52823526D01*
X58287089Y-52646495D01*
X58293882Y-52631928D01*
X61947500Y-52631928D01*
X61947500Y-54282063D01*
X61962266Y-54356301D01*
X62018515Y-54440484D01*
X62051930Y-54462811D01*
X62102699Y-54496734D01*
X62102702Y-54496734D01*
X62102703Y-54496735D01*
X62127666Y-54501700D01*
X62176933Y-54511500D01*
X62433001Y-54511499D01*
X62500039Y-54531183D01*
X62545794Y-54583987D01*
X62557000Y-54635499D01*
X62557000Y-55313585D01*
X62587326Y-55426764D01*
X62645911Y-55528236D01*
X62645912Y-55528237D01*
X64794911Y-57677236D01*
X64877764Y-57760089D01*
X64979236Y-57818674D01*
X65035825Y-57833837D01*
X65092414Y-57849000D01*
X65092415Y-57849000D01*
X66404850Y-57849000D01*
X66471889Y-57868685D01*
X66514208Y-57914547D01*
X66555971Y-57992681D01*
X66555974Y-57992684D01*
X66687747Y-58153252D01*
X66799483Y-58244950D01*
X66848317Y-58285027D01*
X66848320Y-58285028D01*
X66848322Y-58285030D01*
X67031503Y-58382943D01*
X67031505Y-58382943D01*
X67031508Y-58382945D01*
X67230282Y-58443242D01*
X67437000Y-58463602D01*
X67643718Y-58443242D01*
X67842492Y-58382945D01*
X68025683Y-58285027D01*
X68186252Y-58153252D01*
X68318027Y-57992683D01*
X68322865Y-57983630D01*
X68359792Y-57914547D01*
X68408754Y-57864702D01*
X68469150Y-57849000D01*
X72702585Y-57849000D01*
X72702586Y-57849000D01*
X72759174Y-57833837D01*
X72815764Y-57818674D01*
X72917236Y-57760089D01*
X73000089Y-57677236D01*
X73273325Y-57404000D01*
X76537398Y-57404000D01*
X76557757Y-57610716D01*
X76618056Y-57809496D01*
X76715969Y-57992677D01*
X76715974Y-57992684D01*
X76847747Y-58153252D01*
X76959483Y-58244950D01*
X77008317Y-58285027D01*
X77008320Y-58285028D01*
X77008322Y-58285030D01*
X77191503Y-58382943D01*
X77191505Y-58382943D01*
X77191508Y-58382945D01*
X77390282Y-58443242D01*
X77597000Y-58463602D01*
X77803718Y-58443242D01*
X78002492Y-58382945D01*
X78185683Y-58285027D01*
X78346252Y-58153252D01*
X78478027Y-57992683D01*
X78546435Y-57864702D01*
X78575943Y-57809496D01*
X78575943Y-57809495D01*
X78575945Y-57809492D01*
X78636242Y-57610718D01*
X78656602Y-57404000D01*
X78636242Y-57197282D01*
X78575945Y-56998508D01*
X78575943Y-56998505D01*
X78575943Y-56998503D01*
X78478030Y-56815322D01*
X78478028Y-56815320D01*
X78478027Y-56815317D01*
X78437950Y-56766483D01*
X78346252Y-56654747D01*
X78185684Y-56522974D01*
X78185677Y-56522969D01*
X78002496Y-56425056D01*
X77803716Y-56364757D01*
X77597000Y-56344398D01*
X77390283Y-56364757D01*
X77191503Y-56425056D01*
X77008322Y-56522969D01*
X77008315Y-56522974D01*
X76847747Y-56654747D01*
X76715974Y-56815315D01*
X76715969Y-56815322D01*
X76618056Y-56998503D01*
X76557757Y-57197283D01*
X76537398Y-57404000D01*
X73273325Y-57404000D01*
X77872006Y-52805319D01*
X77933329Y-52771834D01*
X77959687Y-52769000D01*
X79809953Y-52769000D01*
X79876992Y-52788685D01*
X79920953Y-52837729D01*
X79955906Y-52907925D01*
X79955913Y-52907937D01*
X80079269Y-53071287D01*
X80230537Y-53209185D01*
X80230539Y-53209187D01*
X80404569Y-53316942D01*
X80404575Y-53316945D01*
X80429335Y-53326537D01*
X80595444Y-53390888D01*
X80796653Y-53428500D01*
X80796656Y-53428500D01*
X81001344Y-53428500D01*
X81001347Y-53428500D01*
X81202556Y-53390888D01*
X81393427Y-53316944D01*
X81567462Y-53209186D01*
X81718732Y-53071285D01*
X81842088Y-52907935D01*
X81921127Y-52749202D01*
X81968630Y-52697966D01*
X82036293Y-52680545D01*
X82102633Y-52702471D01*
X82146588Y-52756782D01*
X82149407Y-52764208D01*
X82150177Y-52766452D01*
X82240582Y-52972553D01*
X82363673Y-53160956D01*
X82363676Y-53160960D01*
X82516101Y-53326537D01*
X82693701Y-53464769D01*
X82891626Y-53571881D01*
X82891635Y-53571884D01*
X83104485Y-53644956D01*
X83311999Y-53679584D01*
X83312000Y-53679583D01*
X83312000Y-52807608D01*
X83373174Y-52824000D01*
X83504826Y-52824000D01*
X83566000Y-52807608D01*
X83566000Y-53679584D01*
X83773514Y-53644956D01*
X83986364Y-53571884D01*
X83986373Y-53571881D01*
X84184298Y-53464769D01*
X84361898Y-53326537D01*
X84514323Y-53160960D01*
X84514326Y-53160956D01*
X84637417Y-52972553D01*
X84727821Y-52766453D01*
X84783068Y-52548287D01*
X84791130Y-52451000D01*
X83922608Y-52451000D01*
X83939000Y-52389826D01*
X83939000Y-52258174D01*
X83922608Y-52197000D01*
X84791129Y-52197000D01*
X84783068Y-52099712D01*
X84727821Y-51881546D01*
X84637417Y-51675446D01*
X84514326Y-51487043D01*
X84514323Y-51487039D01*
X84361898Y-51321462D01*
X84184298Y-51183230D01*
X83986373Y-51076118D01*
X83986364Y-51076115D01*
X83870016Y-51036172D01*
X83813000Y-50995786D01*
X83786870Y-50930987D01*
X83799922Y-50862347D01*
X83848011Y-50811659D01*
X83865480Y-50803266D01*
X83933427Y-50776944D01*
X84107462Y-50669186D01*
X84258732Y-50531285D01*
X84382088Y-50367935D01*
X84473328Y-50184701D01*
X84529345Y-49987821D01*
X84548232Y-49784000D01*
X84529345Y-49580179D01*
X84492316Y-49450035D01*
X84492902Y-49380170D01*
X84523899Y-49328424D01*
X85727138Y-48125186D01*
X106819500Y-48125186D01*
X106819500Y-48394813D01*
X106849686Y-48662719D01*
X106849688Y-48662731D01*
X106909684Y-48925594D01*
X106909687Y-48925602D01*
X106998734Y-49180082D01*
X107115714Y-49422994D01*
X107115716Y-49422997D01*
X107259162Y-49651289D01*
X107427266Y-49862085D01*
X107617915Y-50052734D01*
X107828711Y-50220838D01*
X107951082Y-50297729D01*
X108057005Y-50364285D01*
X108137975Y-50403278D01*
X108299921Y-50481267D01*
X108491049Y-50548145D01*
X108554397Y-50570312D01*
X108554405Y-50570315D01*
X108554408Y-50570315D01*
X108554409Y-50570316D01*
X108817268Y-50630312D01*
X109085187Y-50660499D01*
X109085188Y-50660500D01*
X109085191Y-50660500D01*
X109354812Y-50660500D01*
X109354812Y-50660499D01*
X109622732Y-50630312D01*
X109885591Y-50570316D01*
X110140079Y-50481267D01*
X110382997Y-50364284D01*
X110611289Y-50220838D01*
X110822085Y-50052734D01*
X111012734Y-49862085D01*
X111180838Y-49651289D01*
X111324284Y-49422997D01*
X111441267Y-49180079D01*
X111530316Y-48925591D01*
X111590312Y-48662732D01*
X111620500Y-48394809D01*
X111620500Y-48125191D01*
X111590312Y-47857268D01*
X111530316Y-47594409D01*
X111441267Y-47339921D01*
X111324284Y-47097003D01*
X111180838Y-46868711D01*
X111012734Y-46657915D01*
X110822085Y-46467266D01*
X110611289Y-46299162D01*
X110382997Y-46155716D01*
X110382994Y-46155714D01*
X110140082Y-46038734D01*
X109885602Y-45949687D01*
X109885594Y-45949684D01*
X109688446Y-45904687D01*
X109622732Y-45889688D01*
X109622728Y-45889687D01*
X109622719Y-45889686D01*
X109354813Y-45859500D01*
X109354809Y-45859500D01*
X109085191Y-45859500D01*
X109085186Y-45859500D01*
X108817280Y-45889686D01*
X108817268Y-45889688D01*
X108554405Y-45949684D01*
X108554397Y-45949687D01*
X108299917Y-46038734D01*
X108057005Y-46155714D01*
X107828712Y-46299161D01*
X107617915Y-46467265D01*
X107427265Y-46657915D01*
X107259161Y-46868712D01*
X107115714Y-47097005D01*
X106998734Y-47339917D01*
X106909687Y-47594397D01*
X106909684Y-47594405D01*
X106849688Y-47857268D01*
X106849686Y-47857280D01*
X106819500Y-48125186D01*
X85727138Y-48125186D01*
X86843088Y-47009237D01*
X86843089Y-47009236D01*
X86901674Y-46907764D01*
X86932000Y-46794585D01*
X86932000Y-44899415D01*
X86901674Y-44786236D01*
X86843089Y-44684764D01*
X86760236Y-44601911D01*
X86506237Y-44347912D01*
X86506236Y-44347911D01*
X86404766Y-44289327D01*
X86404765Y-44289326D01*
X86376469Y-44281744D01*
X86348174Y-44274163D01*
X86348171Y-44274162D01*
X86291586Y-44259000D01*
X86291585Y-44259000D01*
X77401586Y-44259000D01*
X77284414Y-44259000D01*
X77284412Y-44259000D01*
X77227825Y-44274162D01*
X77227825Y-44274163D01*
X77171236Y-44289326D01*
X77171235Y-44289326D01*
X77171233Y-44289327D01*
X77069764Y-44347911D01*
X77069761Y-44347913D01*
X76061994Y-45355681D01*
X76000671Y-45389166D01*
X75974313Y-45392000D01*
X71654150Y-45392000D01*
X71587111Y-45372315D01*
X71544792Y-45326453D01*
X71503028Y-45248318D01*
X71503025Y-45248315D01*
X71371252Y-45087747D01*
X71210684Y-44955974D01*
X71210677Y-44955969D01*
X71027496Y-44858056D01*
X70828716Y-44797757D01*
X70622000Y-44777398D01*
X70415283Y-44797757D01*
X70216503Y-44858056D01*
X70033322Y-44955969D01*
X70033315Y-44955974D01*
X69872747Y-45087747D01*
X69740974Y-45248315D01*
X69740969Y-45248322D01*
X69643056Y-45431503D01*
X69582757Y-45630283D01*
X69562398Y-45837000D01*
X69582757Y-46043716D01*
X69643056Y-46242496D01*
X69740969Y-46425677D01*
X69740974Y-46425684D01*
X69872749Y-46586254D01*
X69873814Y-46587319D01*
X69874193Y-46588014D01*
X69876612Y-46590961D01*
X69876053Y-46591419D01*
X69907299Y-46648642D01*
X69902315Y-46718334D01*
X69860443Y-46774267D01*
X69794979Y-46798684D01*
X69786133Y-46799000D01*
X69724687Y-46799000D01*
X69657648Y-46779315D01*
X69637006Y-46762681D01*
X69126502Y-46252177D01*
X69093017Y-46190854D01*
X69095522Y-46128501D01*
X69121242Y-46043718D01*
X69141602Y-45837000D01*
X69121242Y-45630282D01*
X69060945Y-45431508D01*
X69060943Y-45431505D01*
X69060943Y-45431503D01*
X68963030Y-45248322D01*
X68963028Y-45248320D01*
X68963027Y-45248317D01*
X68881520Y-45149000D01*
X68831252Y-45087747D01*
X68670684Y-44955974D01*
X68670677Y-44955969D01*
X68487496Y-44858056D01*
X68288716Y-44797757D01*
X68082000Y-44777398D01*
X67875283Y-44797757D01*
X67676503Y-44858056D01*
X67493322Y-44955969D01*
X67493315Y-44955974D01*
X67332747Y-45087747D01*
X67200974Y-45248315D01*
X67200969Y-45248322D01*
X67103056Y-45431503D01*
X67042757Y-45630283D01*
X67022398Y-45837000D01*
X67042757Y-46043716D01*
X67103056Y-46242496D01*
X67200969Y-46425677D01*
X67200974Y-46425684D01*
X67332747Y-46586252D01*
X67422690Y-46660065D01*
X67493317Y-46718027D01*
X67493320Y-46718028D01*
X67493322Y-46718030D01*
X67676503Y-46815943D01*
X67676505Y-46815943D01*
X67676508Y-46815945D01*
X67875282Y-46876242D01*
X68082000Y-46896602D01*
X68288718Y-46876242D01*
X68373500Y-46850522D01*
X68443366Y-46849898D01*
X68497177Y-46881502D01*
X69132911Y-47517236D01*
X69215764Y-47600089D01*
X69249122Y-47619348D01*
X69317236Y-47658674D01*
X69430414Y-47689000D01*
X69430415Y-47689000D01*
X79670501Y-47689000D01*
X79737540Y-47708685D01*
X79783295Y-47761489D01*
X79794501Y-47813000D01*
X79794501Y-48119066D01*
X79803448Y-48164050D01*
X79809266Y-48193301D01*
X79865515Y-48277484D01*
X79899234Y-48300014D01*
X79949699Y-48333734D01*
X79949702Y-48333734D01*
X79949703Y-48333735D01*
X79974666Y-48338700D01*
X80023933Y-48348500D01*
X81774066Y-48348499D01*
X81848301Y-48333734D01*
X81932484Y-48277484D01*
X81988734Y-48193301D01*
X82003500Y-48119067D01*
X82003499Y-47243999D01*
X82329768Y-47243999D01*
X82329768Y-47244000D01*
X82348654Y-47447816D01*
X82348654Y-47447818D01*
X82348655Y-47447821D01*
X82404672Y-47644701D01*
X82404673Y-47644704D01*
X82495912Y-47827935D01*
X82619269Y-47991287D01*
X82770537Y-48129185D01*
X82770539Y-48129187D01*
X82944569Y-48236942D01*
X82944575Y-48236945D01*
X82956519Y-48241572D01*
X83135444Y-48310888D01*
X83336653Y-48348500D01*
X83336656Y-48348500D01*
X83541344Y-48348500D01*
X83541347Y-48348500D01*
X83742556Y-48310888D01*
X83933427Y-48236944D01*
X84107462Y-48129186D01*
X84180882Y-48062254D01*
X84243685Y-48031637D01*
X84254940Y-48032966D01*
X84265465Y-47984588D01*
X84275343Y-47969288D01*
X84275604Y-47968943D01*
X84382088Y-47827935D01*
X84473328Y-47644701D01*
X84529345Y-47447821D01*
X84548232Y-47244000D01*
X84529345Y-47040179D01*
X84473328Y-46843299D01*
X84382088Y-46660065D01*
X84300236Y-46551675D01*
X84258730Y-46496712D01*
X84107462Y-46358814D01*
X84107460Y-46358812D01*
X83933430Y-46251057D01*
X83933424Y-46251054D01*
X83778028Y-46190854D01*
X83742556Y-46177112D01*
X83541347Y-46139500D01*
X83336653Y-46139500D01*
X83135444Y-46177112D01*
X83135441Y-46177112D01*
X83135441Y-46177113D01*
X82944575Y-46251054D01*
X82944569Y-46251057D01*
X82770539Y-46358812D01*
X82770537Y-46358814D01*
X82619269Y-46496712D01*
X82495912Y-46660064D01*
X82404673Y-46843295D01*
X82348654Y-47040183D01*
X82329768Y-47243999D01*
X82003499Y-47243999D01*
X82003499Y-46368934D01*
X81988734Y-46294699D01*
X81970068Y-46266765D01*
X81932484Y-46210515D01*
X81882019Y-46176796D01*
X81848301Y-46154266D01*
X81848299Y-46154265D01*
X81848296Y-46154264D01*
X81774069Y-46139500D01*
X80023936Y-46139500D01*
X79949698Y-46154266D01*
X79865515Y-46210515D01*
X79809266Y-46294699D01*
X79809264Y-46294703D01*
X79794500Y-46368928D01*
X79794500Y-46675000D01*
X79774815Y-46742039D01*
X79722011Y-46787794D01*
X79670500Y-46799000D01*
X71457867Y-46799000D01*
X71390828Y-46779315D01*
X71345073Y-46726511D01*
X71335129Y-46657353D01*
X71364154Y-46593797D01*
X71370186Y-46587319D01*
X71371250Y-46586254D01*
X71372687Y-46584503D01*
X71503027Y-46425683D01*
X71533360Y-46368934D01*
X71544792Y-46347547D01*
X71593754Y-46297702D01*
X71654150Y-46282000D01*
X76268585Y-46282000D01*
X76268586Y-46282000D01*
X76325174Y-46266837D01*
X76381764Y-46251674D01*
X76483236Y-46193089D01*
X76566089Y-46110236D01*
X77491006Y-45185319D01*
X77552329Y-45151834D01*
X77578687Y-45149000D01*
X85918000Y-45149000D01*
X85985039Y-45168685D01*
X86030794Y-45221489D01*
X86042000Y-45273000D01*
X86042000Y-46500312D01*
X86022315Y-46567351D01*
X86005681Y-46587993D01*
X84461978Y-48131696D01*
X84400655Y-48165181D01*
X84384841Y-48164050D01*
X84370392Y-48218280D01*
X84352101Y-48241572D01*
X83896277Y-48697396D01*
X83834954Y-48730881D01*
X83765262Y-48725897D01*
X83763805Y-48725343D01*
X83742560Y-48717113D01*
X83742557Y-48717112D01*
X83742556Y-48717112D01*
X83541347Y-48679500D01*
X83336653Y-48679500D01*
X83135444Y-48717112D01*
X83135441Y-48717112D01*
X83135441Y-48717113D01*
X82944575Y-48791054D01*
X82944569Y-48791057D01*
X82770539Y-48898812D01*
X82770537Y-48898814D01*
X82619269Y-49036712D01*
X82495912Y-49200064D01*
X82404673Y-49383295D01*
X82348654Y-49580183D01*
X82329768Y-49783999D01*
X82329768Y-49784000D01*
X82348654Y-49987816D01*
X82348654Y-49987818D01*
X82348655Y-49987821D01*
X82391978Y-50140086D01*
X82404673Y-50184704D01*
X82495912Y-50367935D01*
X82619269Y-50531287D01*
X82770537Y-50669185D01*
X82770539Y-50669187D01*
X82944569Y-50776942D01*
X82944571Y-50776943D01*
X82944573Y-50776944D01*
X82944576Y-50776945D01*
X82944578Y-50776946D01*
X83012513Y-50803264D01*
X83067915Y-50845837D01*
X83091506Y-50911603D01*
X83075795Y-50979684D01*
X83025772Y-51028463D01*
X83007984Y-51036172D01*
X82891632Y-51076116D01*
X82891626Y-51076118D01*
X82693701Y-51183230D01*
X82516101Y-51321462D01*
X82363676Y-51487039D01*
X82363673Y-51487043D01*
X82240582Y-51675446D01*
X82150175Y-51881553D01*
X82149405Y-51883796D01*
X82148844Y-51884587D01*
X82148118Y-51886243D01*
X82147777Y-51886093D01*
X82109015Y-51940809D01*
X82044213Y-51966934D01*
X81975574Y-51953877D01*
X81924890Y-51905784D01*
X81921127Y-51898796D01*
X81877108Y-51810395D01*
X81842088Y-51740065D01*
X81749349Y-51617259D01*
X81718730Y-51576712D01*
X81567462Y-51438814D01*
X81567460Y-51438812D01*
X81393430Y-51331057D01*
X81393424Y-51331054D01*
X81242993Y-51272777D01*
X81202556Y-51257112D01*
X81001347Y-51219500D01*
X80796653Y-51219500D01*
X80595444Y-51257112D01*
X80595441Y-51257112D01*
X80595441Y-51257113D01*
X80404575Y-51331054D01*
X80404569Y-51331057D01*
X80230539Y-51438812D01*
X80230537Y-51438814D01*
X80079269Y-51576712D01*
X79955913Y-51740062D01*
X79955906Y-51740074D01*
X79920953Y-51810271D01*
X79873451Y-51861508D01*
X79809953Y-51879000D01*
X77665412Y-51879000D01*
X77608825Y-51894162D01*
X77608825Y-51894163D01*
X77552236Y-51909326D01*
X77552235Y-51909326D01*
X77552233Y-51909327D01*
X77450764Y-51967911D01*
X77450761Y-51967913D01*
X72495994Y-56922681D01*
X72434671Y-56956166D01*
X72408313Y-56959000D01*
X68469150Y-56959000D01*
X68402111Y-56939315D01*
X68359792Y-56893453D01*
X68318028Y-56815318D01*
X68318025Y-56815315D01*
X68186252Y-56654747D01*
X68025684Y-56522974D01*
X68025677Y-56522969D01*
X67842496Y-56425056D01*
X67643716Y-56364757D01*
X67437000Y-56344398D01*
X67230283Y-56364757D01*
X67031503Y-56425056D01*
X66848322Y-56522969D01*
X66848315Y-56522974D01*
X66687747Y-56654747D01*
X66555974Y-56815315D01*
X66555971Y-56815318D01*
X66514208Y-56893453D01*
X66465246Y-56943298D01*
X66404850Y-56959000D01*
X65386687Y-56959000D01*
X65319648Y-56939315D01*
X65299006Y-56922681D01*
X63483319Y-55106994D01*
X63449834Y-55045671D01*
X63447000Y-55019313D01*
X63447000Y-54635499D01*
X63466685Y-54568460D01*
X63519489Y-54522705D01*
X63571000Y-54511499D01*
X63827064Y-54511499D01*
X63827066Y-54511499D01*
X63901301Y-54496734D01*
X63985484Y-54440484D01*
X64041734Y-54356301D01*
X64056500Y-54282067D01*
X64056499Y-53457000D01*
X64482398Y-53457000D01*
X64502757Y-53663716D01*
X64563056Y-53862496D01*
X64660969Y-54045677D01*
X64660974Y-54045684D01*
X64792747Y-54206252D01*
X64885124Y-54282063D01*
X64953317Y-54338027D01*
X64953320Y-54338028D01*
X64953322Y-54338030D01*
X65136503Y-54435943D01*
X65136505Y-54435943D01*
X65136508Y-54435945D01*
X65335282Y-54496242D01*
X65542000Y-54516602D01*
X65748718Y-54496242D01*
X65947492Y-54435945D01*
X66130683Y-54338027D01*
X66291252Y-54206252D01*
X66423027Y-54045683D01*
X66520945Y-53862492D01*
X66581242Y-53663718D01*
X66601602Y-53457000D01*
X67022398Y-53457000D01*
X67042757Y-53663716D01*
X67103056Y-53862496D01*
X67200969Y-54045677D01*
X67200974Y-54045684D01*
X67332747Y-54206252D01*
X67425124Y-54282063D01*
X67493317Y-54338027D01*
X67493320Y-54338028D01*
X67493322Y-54338030D01*
X67676503Y-54435943D01*
X67676505Y-54435943D01*
X67676508Y-54435945D01*
X67875282Y-54496242D01*
X68082000Y-54516602D01*
X68288718Y-54496242D01*
X68487492Y-54435945D01*
X68670683Y-54338027D01*
X68831252Y-54206252D01*
X68963027Y-54045683D01*
X69060945Y-53862492D01*
X69102454Y-53725651D01*
X69140750Y-53667215D01*
X69204562Y-53638758D01*
X69273629Y-53649317D01*
X69326023Y-53695541D01*
X69340889Y-53729554D01*
X69388185Y-53906065D01*
X69388188Y-53906072D01*
X69484912Y-54113498D01*
X69484914Y-54113502D01*
X69616183Y-54300972D01*
X69616188Y-54300979D01*
X69778020Y-54462811D01*
X69778027Y-54462816D01*
X69965497Y-54594085D01*
X69965501Y-54594087D01*
X70172927Y-54690811D01*
X70172936Y-54690815D01*
X70394000Y-54750048D01*
X70495000Y-54758884D01*
X70495000Y-53837081D01*
X70569339Y-53857000D01*
X70674661Y-53857000D01*
X70749000Y-53837081D01*
X70749000Y-54758884D01*
X70849997Y-54750048D01*
X70850001Y-54750048D01*
X71071063Y-54690815D01*
X71071072Y-54690811D01*
X71278498Y-54594087D01*
X71278502Y-54594085D01*
X71465972Y-54462816D01*
X71465979Y-54462811D01*
X71627811Y-54300979D01*
X71627816Y-54300972D01*
X71759085Y-54113502D01*
X71759087Y-54113498D01*
X71855811Y-53906072D01*
X71855815Y-53906063D01*
X71915048Y-53685001D01*
X71915048Y-53684997D01*
X71923885Y-53584000D01*
X71002081Y-53584000D01*
X71022000Y-53509661D01*
X71022000Y-53404339D01*
X71002081Y-53330000D01*
X71923884Y-53330000D01*
X71915048Y-53229002D01*
X71915048Y-53228998D01*
X71855815Y-53007936D01*
X71855811Y-53007927D01*
X71759087Y-52800501D01*
X71759085Y-52800497D01*
X71627816Y-52613027D01*
X71627811Y-52613020D01*
X71465979Y-52451188D01*
X71465972Y-52451183D01*
X71278502Y-52319914D01*
X71278498Y-52319912D01*
X71071072Y-52223188D01*
X71071063Y-52223184D01*
X70850004Y-52163952D01*
X70849994Y-52163950D01*
X70749000Y-52155113D01*
X70749000Y-53076918D01*
X70674661Y-53057000D01*
X70569339Y-53057000D01*
X70495000Y-53076918D01*
X70495000Y-52155114D01*
X70494999Y-52155113D01*
X70394005Y-52163950D01*
X70393995Y-52163952D01*
X70172936Y-52223184D01*
X70172927Y-52223188D01*
X69965501Y-52319912D01*
X69965497Y-52319914D01*
X69778027Y-52451183D01*
X69778020Y-52451188D01*
X69616188Y-52613020D01*
X69616183Y-52613027D01*
X69484914Y-52800497D01*
X69484912Y-52800501D01*
X69388188Y-53007927D01*
X69388185Y-53007934D01*
X69340889Y-53184445D01*
X69304524Y-53244105D01*
X69241677Y-53274634D01*
X69172301Y-53266339D01*
X69118423Y-53221854D01*
X69102455Y-53188352D01*
X69060945Y-53051508D01*
X69011986Y-52959912D01*
X68963030Y-52868322D01*
X68963028Y-52868320D01*
X68963027Y-52868317D01*
X68879429Y-52766452D01*
X68831252Y-52707747D01*
X68670684Y-52575974D01*
X68670677Y-52575969D01*
X68487496Y-52478056D01*
X68288716Y-52417757D01*
X68082000Y-52397398D01*
X67875283Y-52417757D01*
X67676503Y-52478056D01*
X67493322Y-52575969D01*
X67493315Y-52575974D01*
X67332747Y-52707747D01*
X67200974Y-52868315D01*
X67200969Y-52868322D01*
X67103056Y-53051503D01*
X67042757Y-53250283D01*
X67022398Y-53457000D01*
X66601602Y-53457000D01*
X66581242Y-53250282D01*
X66520945Y-53051508D01*
X66520943Y-53051505D01*
X66520943Y-53051503D01*
X66423030Y-52868322D01*
X66423028Y-52868320D01*
X66423027Y-52868317D01*
X66339429Y-52766452D01*
X66291252Y-52707747D01*
X66130684Y-52575974D01*
X66130677Y-52575969D01*
X65947496Y-52478056D01*
X65748716Y-52417757D01*
X65542000Y-52397398D01*
X65335283Y-52417757D01*
X65136503Y-52478056D01*
X64953322Y-52575969D01*
X64953315Y-52575974D01*
X64792747Y-52707747D01*
X64660974Y-52868315D01*
X64660969Y-52868322D01*
X64563056Y-53051503D01*
X64502757Y-53250283D01*
X64482398Y-53457000D01*
X64056499Y-53457000D01*
X64056499Y-52631934D01*
X64041734Y-52557699D01*
X63988518Y-52478056D01*
X63985484Y-52473515D01*
X63933922Y-52439063D01*
X63901301Y-52417266D01*
X63901299Y-52417265D01*
X63901296Y-52417264D01*
X63827069Y-52402500D01*
X62176936Y-52402500D01*
X62102698Y-52417266D01*
X62018515Y-52473515D01*
X61962266Y-52557699D01*
X61962264Y-52557703D01*
X61947500Y-52631928D01*
X58293882Y-52631928D01*
X58383811Y-52439072D01*
X58383815Y-52439063D01*
X58443047Y-52218004D01*
X58443049Y-52217993D01*
X58462996Y-51990002D01*
X58462996Y-51989997D01*
X58443049Y-51762006D01*
X58443047Y-51761995D01*
X58383815Y-51540936D01*
X58383811Y-51540927D01*
X58287087Y-51333502D01*
X58163129Y-51156472D01*
X57508559Y-51811043D01*
X57470080Y-51744394D01*
X57395606Y-51669920D01*
X57328955Y-51631439D01*
X57983526Y-50976868D01*
X57983526Y-50976867D01*
X57806502Y-50852914D01*
X57806498Y-50852912D01*
X57599072Y-50756188D01*
X57599063Y-50756184D01*
X57378004Y-50696952D01*
X57377993Y-50696950D01*
X57150002Y-50677004D01*
X57149998Y-50677004D01*
X56922006Y-50696950D01*
X56921995Y-50696952D01*
X56700936Y-50756184D01*
X56700927Y-50756188D01*
X56493503Y-50852911D01*
X56493501Y-50852912D01*
X56316473Y-50976868D01*
X56316472Y-50976868D01*
X56971044Y-51631439D01*
X56904394Y-51669920D01*
X56829920Y-51744394D01*
X56791439Y-51811043D01*
X56136868Y-51156472D01*
X56136868Y-51156473D01*
X56012912Y-51333501D01*
X56012911Y-51333503D01*
X55916188Y-51540927D01*
X55916184Y-51540936D01*
X55856952Y-51761995D01*
X55856950Y-51762006D01*
X55837004Y-51989997D01*
X43680500Y-51989997D01*
X43680500Y-48125186D01*
X45859500Y-48125186D01*
X45859500Y-48394813D01*
X45889686Y-48662719D01*
X45889688Y-48662731D01*
X45949684Y-48925594D01*
X45949687Y-48925602D01*
X46038734Y-49180082D01*
X46155714Y-49422994D01*
X46155716Y-49422997D01*
X46299162Y-49651289D01*
X46467266Y-49862085D01*
X46657915Y-50052734D01*
X46868711Y-50220838D01*
X46991082Y-50297729D01*
X47097005Y-50364285D01*
X47177975Y-50403278D01*
X47339921Y-50481267D01*
X47531049Y-50548145D01*
X47594397Y-50570312D01*
X47594405Y-50570315D01*
X47594408Y-50570315D01*
X47594409Y-50570316D01*
X47857268Y-50630312D01*
X48125187Y-50660499D01*
X48125188Y-50660500D01*
X48125191Y-50660500D01*
X48394812Y-50660500D01*
X48394812Y-50660499D01*
X48662732Y-50630312D01*
X48925591Y-50570316D01*
X49180079Y-50481267D01*
X49422997Y-50364284D01*
X49651289Y-50220838D01*
X49862085Y-50052734D01*
X50052734Y-49862085D01*
X50220838Y-49651289D01*
X50364284Y-49422997D01*
X50481267Y-49180079D01*
X50570316Y-48925591D01*
X50630312Y-48662732D01*
X50660500Y-48394809D01*
X50660500Y-48125191D01*
X50630312Y-47857268D01*
X50570316Y-47594409D01*
X50481267Y-47339921D01*
X50364284Y-47097003D01*
X50297049Y-46990000D01*
X56090398Y-46990000D01*
X56110757Y-47196716D01*
X56171056Y-47395496D01*
X56268969Y-47578677D01*
X56268974Y-47578684D01*
X56400747Y-47739252D01*
X56508809Y-47827935D01*
X56561317Y-47871027D01*
X56561320Y-47871028D01*
X56561322Y-47871030D01*
X56744503Y-47968943D01*
X56744505Y-47968943D01*
X56744508Y-47968945D01*
X56943282Y-48029242D01*
X57150000Y-48049602D01*
X57356718Y-48029242D01*
X57555492Y-47968945D01*
X57738683Y-47871027D01*
X57899252Y-47739252D01*
X58031027Y-47578683D01*
X58089777Y-47468768D01*
X58128943Y-47395496D01*
X58128943Y-47395495D01*
X58128945Y-47395492D01*
X58189242Y-47196718D01*
X58209602Y-46990000D01*
X58189242Y-46783282D01*
X58128945Y-46584508D01*
X58128943Y-46584505D01*
X58128943Y-46584503D01*
X58031030Y-46401322D01*
X58031028Y-46401320D01*
X58031027Y-46401317D01*
X57943532Y-46294703D01*
X57899252Y-46240747D01*
X57738684Y-46108974D01*
X57738677Y-46108969D01*
X57555496Y-46011056D01*
X57356716Y-45950757D01*
X57150000Y-45930398D01*
X56943283Y-45950757D01*
X56744503Y-46011056D01*
X56561322Y-46108969D01*
X56561315Y-46108974D01*
X56400747Y-46240747D01*
X56268974Y-46401315D01*
X56268969Y-46401322D01*
X56171056Y-46584503D01*
X56110757Y-46783283D01*
X56090398Y-46990000D01*
X50297049Y-46990000D01*
X50220838Y-46868711D01*
X50052734Y-46657915D01*
X49862085Y-46467266D01*
X49651289Y-46299162D01*
X49422997Y-46155716D01*
X49422994Y-46155714D01*
X49180082Y-46038734D01*
X48925602Y-45949687D01*
X48925594Y-45949684D01*
X48728446Y-45904687D01*
X48662732Y-45889688D01*
X48662728Y-45889687D01*
X48662719Y-45889686D01*
X48394813Y-45859500D01*
X48394809Y-45859500D01*
X48125191Y-45859500D01*
X48125186Y-45859500D01*
X47857280Y-45889686D01*
X47857268Y-45889688D01*
X47594405Y-45949684D01*
X47594397Y-45949687D01*
X47339917Y-46038734D01*
X47097005Y-46155714D01*
X46868712Y-46299161D01*
X46657915Y-46467265D01*
X46467265Y-46657915D01*
X46299161Y-46868712D01*
X46155714Y-47097005D01*
X46038734Y-47339917D01*
X45949687Y-47594397D01*
X45949684Y-47594405D01*
X45889688Y-47857268D01*
X45889686Y-47857280D01*
X45859500Y-48125186D01*
X43680500Y-48125186D01*
X43680500Y-45837000D01*
X61942398Y-45837000D01*
X61962757Y-46043716D01*
X62023056Y-46242496D01*
X62120969Y-46425677D01*
X62120974Y-46425684D01*
X62252747Y-46586252D01*
X62342690Y-46660065D01*
X62413317Y-46718027D01*
X62413320Y-46718028D01*
X62413322Y-46718030D01*
X62596503Y-46815943D01*
X62596505Y-46815943D01*
X62596508Y-46815945D01*
X62795282Y-46876242D01*
X63002000Y-46896602D01*
X63208718Y-46876242D01*
X63407492Y-46815945D01*
X63447456Y-46794584D01*
X63485466Y-46774267D01*
X63590683Y-46718027D01*
X63751252Y-46586252D01*
X63883027Y-46425683D01*
X63953040Y-46294698D01*
X63980943Y-46242496D01*
X63980943Y-46242495D01*
X63980945Y-46242492D01*
X64041242Y-46043718D01*
X64061602Y-45837000D01*
X64482398Y-45837000D01*
X64502757Y-46043716D01*
X64563056Y-46242496D01*
X64660969Y-46425677D01*
X64660974Y-46425684D01*
X64792747Y-46586252D01*
X64882690Y-46660065D01*
X64953317Y-46718027D01*
X64953320Y-46718028D01*
X64953322Y-46718030D01*
X65136503Y-46815943D01*
X65136505Y-46815943D01*
X65136508Y-46815945D01*
X65335282Y-46876242D01*
X65542000Y-46896602D01*
X65748718Y-46876242D01*
X65833500Y-46850522D01*
X65903366Y-46849898D01*
X65957177Y-46881502D01*
X69132911Y-50057236D01*
X69215764Y-50140089D01*
X69317236Y-50198674D01*
X69373825Y-50213837D01*
X69430414Y-50229000D01*
X69430415Y-50229000D01*
X79809953Y-50229000D01*
X79876992Y-50248685D01*
X79920953Y-50297729D01*
X79955906Y-50367925D01*
X79955913Y-50367937D01*
X80079269Y-50531287D01*
X80230537Y-50669185D01*
X80230539Y-50669187D01*
X80404569Y-50776942D01*
X80404575Y-50776945D01*
X80404578Y-50776946D01*
X80595444Y-50850888D01*
X80796653Y-50888500D01*
X80796656Y-50888500D01*
X81001344Y-50888500D01*
X81001347Y-50888500D01*
X81202556Y-50850888D01*
X81393427Y-50776944D01*
X81567462Y-50669186D01*
X81718732Y-50531285D01*
X81842088Y-50367935D01*
X81933328Y-50184701D01*
X81989345Y-49987821D01*
X82008232Y-49784000D01*
X81989345Y-49580179D01*
X81933328Y-49383299D01*
X81842088Y-49200065D01*
X81718732Y-49036715D01*
X81718730Y-49036712D01*
X81567462Y-48898814D01*
X81567460Y-48898812D01*
X81393430Y-48791057D01*
X81393424Y-48791054D01*
X81238098Y-48730881D01*
X81202556Y-48717112D01*
X81001347Y-48679500D01*
X80796653Y-48679500D01*
X80595444Y-48717112D01*
X80595441Y-48717112D01*
X80595441Y-48717113D01*
X80404575Y-48791054D01*
X80404569Y-48791057D01*
X80230539Y-48898812D01*
X80230537Y-48898814D01*
X80079269Y-49036712D01*
X79955913Y-49200062D01*
X79955906Y-49200074D01*
X79920953Y-49270271D01*
X79873451Y-49321508D01*
X79809953Y-49339000D01*
X69724687Y-49339000D01*
X69657648Y-49319315D01*
X69637006Y-49302681D01*
X66586502Y-46252177D01*
X66553017Y-46190854D01*
X66555522Y-46128501D01*
X66581242Y-46043718D01*
X66601602Y-45837000D01*
X66581242Y-45630282D01*
X66520945Y-45431508D01*
X66520943Y-45431505D01*
X66520943Y-45431503D01*
X66423030Y-45248322D01*
X66423028Y-45248320D01*
X66423027Y-45248317D01*
X66341520Y-45149000D01*
X66291252Y-45087747D01*
X66130684Y-44955974D01*
X66130677Y-44955969D01*
X65947496Y-44858056D01*
X65748716Y-44797757D01*
X65542000Y-44777398D01*
X65335283Y-44797757D01*
X65136503Y-44858056D01*
X64953322Y-44955969D01*
X64953315Y-44955974D01*
X64792747Y-45087747D01*
X64660974Y-45248315D01*
X64660969Y-45248322D01*
X64563056Y-45431503D01*
X64502757Y-45630283D01*
X64482398Y-45837000D01*
X64061602Y-45837000D01*
X64041242Y-45630282D01*
X63980945Y-45431508D01*
X63980943Y-45431505D01*
X63980943Y-45431503D01*
X63883030Y-45248322D01*
X63883028Y-45248320D01*
X63883027Y-45248317D01*
X63801520Y-45149000D01*
X63751252Y-45087747D01*
X63590684Y-44955974D01*
X63590677Y-44955969D01*
X63407496Y-44858056D01*
X63208716Y-44797757D01*
X63002000Y-44777398D01*
X62795283Y-44797757D01*
X62596503Y-44858056D01*
X62413322Y-44955969D01*
X62413315Y-44955974D01*
X62252747Y-45087747D01*
X62120974Y-45248315D01*
X62120969Y-45248322D01*
X62023056Y-45431503D01*
X61962757Y-45630283D01*
X61942398Y-45837000D01*
X43680500Y-45837000D01*
X43680500Y-43804500D01*
X43700185Y-43737461D01*
X43752989Y-43691706D01*
X43804500Y-43680500D01*
X113675500Y-43680500D01*
X113742539Y-43700185D01*
G37*
%TD.AperFunction*%
%TD*%
M02*
