%TF.GenerationSoftware,KiCad,Pcbnew,8.0.6-8.0.6-0~ubuntu24.04.1*%
%TF.CreationDate,2024-11-12T14:12:33-05:00*%
%TF.ProjectId,girl_scouts_blinker,6769726c-5f73-4636-9f75-74735f626c69,rev?*%
%TF.SameCoordinates,Original*%
%TF.FileFunction,Copper,L2,Bot*%
%TF.FilePolarity,Positive*%
%FSLAX46Y46*%
G04 Gerber Fmt 4.6, Leading zero omitted, Abs format (unit mm)*
G04 Created by KiCad (PCBNEW 8.0.6-8.0.6-0~ubuntu24.04.1) date 2024-11-12 14:12:33*
%MOMM*%
%LPD*%
G01*
G04 APERTURE LIST*
G04 Aperture macros list*
%AMRoundRect*
0 Rectangle with rounded corners*
0 $1 Rounding radius*
0 $2 $3 $4 $5 $6 $7 $8 $9 X,Y pos of 4 corners*
0 Add a 4 corners polygon primitive as box body*
4,1,4,$2,$3,$4,$5,$6,$7,$8,$9,$2,$3,0*
0 Add four circle primitives for the rounded corners*
1,1,$1+$1,$2,$3*
1,1,$1+$1,$4,$5*
1,1,$1+$1,$6,$7*
1,1,$1+$1,$8,$9*
0 Add four rect primitives between the rounded corners*
20,1,$1+$1,$2,$3,$4,$5,0*
20,1,$1+$1,$4,$5,$6,$7,0*
20,1,$1+$1,$6,$7,$8,$9,0*
20,1,$1+$1,$8,$9,$2,$3,0*%
G04 Aperture macros list end*
%TA.AperFunction,ComponentPad*%
%ADD10C,2.200000*%
%TD*%
%TA.AperFunction,ComponentPad*%
%ADD11R,1.800000X1.800000*%
%TD*%
%TA.AperFunction,ComponentPad*%
%ADD12C,1.800000*%
%TD*%
%TA.AperFunction,ComponentPad*%
%ADD13R,1.700000X1.700000*%
%TD*%
%TA.AperFunction,ComponentPad*%
%ADD14O,1.700000X1.700000*%
%TD*%
%TA.AperFunction,ComponentPad*%
%ADD15C,1.600000*%
%TD*%
%TA.AperFunction,ComponentPad*%
%ADD16O,1.600000X1.600000*%
%TD*%
%TA.AperFunction,ComponentPad*%
%ADD17R,1.600000X1.600000*%
%TD*%
%TA.AperFunction,ComponentPad*%
%ADD18C,1.524000*%
%TD*%
%TA.AperFunction,ComponentPad*%
%ADD19C,3.500000*%
%TD*%
%TA.AperFunction,ComponentPad*%
%ADD20R,2.000000X1.905000*%
%TD*%
%TA.AperFunction,ComponentPad*%
%ADD21O,2.000000X1.905000*%
%TD*%
%TA.AperFunction,ComponentPad*%
%ADD22RoundRect,0.635000X0.127000X-0.508000X0.127000X0.508000X-0.127000X0.508000X-0.127000X-0.508000X0*%
%TD*%
%TA.AperFunction,ViaPad*%
%ADD23C,0.600000*%
%TD*%
%TA.AperFunction,Conductor*%
%ADD24C,0.381000*%
%TD*%
G04 APERTURE END LIST*
D10*
%TO.P,SW2,1,1*%
%TO.N,/MISO*%
X74930000Y-100965000D03*
%TO.P,SW2,2,2*%
%TO.N,GND*%
X68580000Y-103505000D03*
%TD*%
%TO.P,SW1,1,1*%
%TO.N,/MOSI*%
X95250000Y-100965000D03*
%TO.P,SW1,2,2*%
%TO.N,GND*%
X88900000Y-103505000D03*
%TD*%
D11*
%TO.P,D3,1,DOUT*%
%TO.N,Net-(D3-DOUT)*%
X78740000Y-89185150D03*
D12*
%TO.P,D3,2,GND*%
%TO.N,GND*%
X78740000Y-87026150D03*
%TO.P,D3,3,VDD*%
%TO.N,+5V*%
X78740000Y-84867150D03*
%TO.P,D3,4,DIN*%
%TO.N,Net-(D1-DOUT)*%
X78740000Y-82708150D03*
%TD*%
D11*
%TO.P,D4,1,DOUT*%
%TO.N,unconnected-(D4-DOUT-Pad1)*%
X104140000Y-89185150D03*
D12*
%TO.P,D4,2,GND*%
%TO.N,GND*%
X104140000Y-87026150D03*
%TO.P,D4,3,VDD*%
%TO.N,+5V*%
X104140000Y-84867150D03*
%TO.P,D4,4,DIN*%
%TO.N,Net-(D3-DOUT)*%
X104140000Y-82708150D03*
%TD*%
D11*
%TO.P,D1,1,DOUT*%
%TO.N,Net-(D1-DOUT)*%
X53340000Y-89535000D03*
D12*
%TO.P,D1,2,GND*%
%TO.N,GND*%
X53340000Y-87376000D03*
%TO.P,D1,3,VDD*%
%TO.N,+5V*%
X53340000Y-85217000D03*
%TO.P,D1,4,DIN*%
%TO.N,Net-(D1-DIN)*%
X53340000Y-83058000D03*
%TD*%
D13*
%TO.P,J1,1,MISO*%
%TO.N,/MISO*%
X108585000Y-69215000D03*
D14*
%TO.P,J1,2,VCC*%
%TO.N,+5V*%
X111125000Y-69215000D03*
%TO.P,J1,3,SCK*%
%TO.N,/SCK*%
X108585000Y-71755000D03*
%TO.P,J1,4,MOSI*%
%TO.N,/MOSI*%
X111125000Y-71755000D03*
%TO.P,J1,5,~{RST}*%
%TO.N,/nRST*%
X108585000Y-74295000D03*
%TO.P,J1,6,GND*%
%TO.N,GND*%
X111125000Y-74295000D03*
%TD*%
D15*
%TO.P,C2,1*%
%TO.N,+5V*%
X80645000Y-69255000D03*
%TO.P,C2,2*%
%TO.N,GND*%
X80645000Y-74255000D03*
%TD*%
%TO.P,R1,1*%
%TO.N,+5V*%
X67056000Y-92329000D03*
D16*
%TO.P,R1,2*%
%TO.N,/nRST*%
X67056000Y-82169000D03*
%TD*%
D17*
%TO.P,U1,1,~{RESET}/PB5*%
%TO.N,/nRST*%
X67320000Y-75555000D03*
D16*
%TO.P,U1,2,XTAL1/PB3*%
%TO.N,Net-(D1-DIN)*%
X69860000Y-75555000D03*
%TO.P,U1,3,XTAL2/PB4*%
%TO.N,unconnected-(U1-XTAL2{slash}PB4-Pad3)*%
X72400000Y-75555000D03*
%TO.P,U1,4,GND*%
%TO.N,GND*%
X74940000Y-75555000D03*
%TO.P,U1,5,AREF/PB0*%
%TO.N,/MOSI*%
X74940000Y-67935000D03*
%TO.P,U1,6,PB1*%
%TO.N,/MISO*%
X72400000Y-67935000D03*
%TO.P,U1,7,PB2*%
%TO.N,/SCK*%
X69860000Y-67935000D03*
%TO.P,U1,8,VCC*%
%TO.N,+5V*%
X67320000Y-67935000D03*
%TD*%
D18*
%TO.P,SW3,1,A*%
%TO.N,+6V*%
X55880000Y-101855000D03*
%TO.P,SW3,2,B*%
%TO.N,Net-(SW3-B)*%
X55880000Y-105855000D03*
%TO.P,SW3,3*%
%TO.N,N/C*%
X55880000Y-109855000D03*
D19*
%TO.P,SW3,4*%
X55880000Y-97855000D03*
%TO.P,SW3,5*%
X55880000Y-113855000D03*
%TD*%
D20*
%TO.P,U2,1,VI*%
%TO.N,Net-(SW3-B)*%
X62570000Y-74930000D03*
D21*
%TO.P,U2,2,GND*%
%TO.N,GND*%
X62570000Y-72390000D03*
%TO.P,U2,3,VO*%
%TO.N,+5V*%
X62570000Y-69850000D03*
%TD*%
D15*
%TO.P,C1,1*%
%TO.N,+5V*%
X111506000Y-83225000D03*
%TO.P,C1,2*%
%TO.N,GND*%
X111506000Y-88225000D03*
%TD*%
D22*
%TO.P,B1,1*%
%TO.N,+6V*%
X52641500Y-53657500D03*
%TO.P,B1,2*%
%TO.N,GND*%
X52641500Y-40657500D03*
%TD*%
D23*
%TO.N,/MISO*%
X108712000Y-65913000D03*
X72517000Y-63881000D03*
%TO.N,/SCK*%
X69977000Y-61976000D03*
X104394000Y-64135000D03*
%TD*%
D24*
%TO.N,/MISO*%
X108585000Y-66040000D02*
X108712000Y-65913000D01*
X103378000Y-66040000D02*
X108585000Y-66040000D01*
X72517000Y-63881000D02*
X101219000Y-63881000D01*
X101219000Y-63881000D02*
X103378000Y-66040000D01*
%TO.N,/SCK*%
X69977000Y-61976000D02*
X102235000Y-61976000D01*
X102235000Y-61976000D02*
X104394000Y-64135000D01*
%TO.N,/nRST*%
X67320000Y-75555000D02*
X69810500Y-73064500D01*
X69810500Y-73064500D02*
X107354500Y-73064500D01*
X107354500Y-73064500D02*
X108585000Y-74295000D01*
%TO.N,Net-(D3-DOUT)*%
X78740000Y-89185150D02*
X97663000Y-89185150D01*
X97663000Y-89185150D02*
X104140000Y-82708150D01*
%TO.N,Net-(D1-DOUT)*%
X53340000Y-89535000D02*
X71913150Y-89535000D01*
X71913150Y-89535000D02*
X78740000Y-82708150D01*
%TO.N,Net-(D1-DIN)*%
X53340000Y-83058000D02*
X62357000Y-83058000D01*
X62357000Y-83058000D02*
X69860000Y-75555000D01*
%TO.N,/MOSI*%
X74940000Y-67935000D02*
X77460500Y-70455500D01*
X77460500Y-70455500D02*
X109825500Y-70455500D01*
X109825500Y-70455500D02*
X111125000Y-71755000D01*
%TD*%
%TA.AperFunction,Conductor*%
%TO.N,+5V*%
G36*
X115647539Y-29095185D02*
G01*
X115693294Y-29147989D01*
X115704500Y-29199500D01*
X115704500Y-116850500D01*
X115684815Y-116917539D01*
X115632011Y-116963294D01*
X115580500Y-116974500D01*
X40629500Y-116974500D01*
X40562461Y-116954815D01*
X40516706Y-116902011D01*
X40505500Y-116850500D01*
X40505500Y-112260186D01*
X42684500Y-112260186D01*
X42684500Y-112529813D01*
X42714686Y-112797719D01*
X42714688Y-112797731D01*
X42774684Y-113060594D01*
X42774687Y-113060602D01*
X42863734Y-113315082D01*
X42980714Y-113557994D01*
X42980716Y-113557997D01*
X43124162Y-113786289D01*
X43292266Y-113997085D01*
X43482915Y-114187734D01*
X43693711Y-114355838D01*
X43922003Y-114499284D01*
X44164921Y-114616267D01*
X44356049Y-114683145D01*
X44419397Y-114705312D01*
X44419405Y-114705315D01*
X44419408Y-114705315D01*
X44419409Y-114705316D01*
X44682268Y-114765312D01*
X44950187Y-114795499D01*
X44950188Y-114795500D01*
X44950191Y-114795500D01*
X45219812Y-114795500D01*
X45219812Y-114795499D01*
X45487732Y-114765312D01*
X45750591Y-114705316D01*
X46005079Y-114616267D01*
X46247997Y-114499284D01*
X46476289Y-114355838D01*
X46687085Y-114187734D01*
X46877734Y-113997085D01*
X46991049Y-113854992D01*
X53624671Y-113854992D01*
X53624671Y-113855007D01*
X53643964Y-114149363D01*
X53643965Y-114149373D01*
X53643966Y-114149380D01*
X53643968Y-114149390D01*
X53701518Y-114438716D01*
X53701521Y-114438730D01*
X53796349Y-114718080D01*
X53926825Y-114982660D01*
X53926829Y-114982667D01*
X54090725Y-115227955D01*
X54285241Y-115449758D01*
X54507043Y-115644273D01*
X54752335Y-115808172D01*
X55016923Y-115938652D01*
X55296278Y-116033481D01*
X55585620Y-116091034D01*
X55613888Y-116092886D01*
X55879993Y-116110329D01*
X55880000Y-116110329D01*
X55880007Y-116110329D01*
X56115675Y-116094881D01*
X56174380Y-116091034D01*
X56463722Y-116033481D01*
X56743077Y-115938652D01*
X57007665Y-115808172D01*
X57252957Y-115644273D01*
X57474758Y-115449758D01*
X57669273Y-115227957D01*
X57833172Y-114982665D01*
X57963652Y-114718077D01*
X58058481Y-114438722D01*
X58116034Y-114149380D01*
X58135329Y-113855000D01*
X58135329Y-113854992D01*
X58116035Y-113560636D01*
X58116034Y-113560620D01*
X58058481Y-113271278D01*
X57963652Y-112991923D01*
X57833172Y-112727336D01*
X57669273Y-112482043D01*
X57626655Y-112433447D01*
X57474758Y-112260241D01*
X57474695Y-112260186D01*
X108724500Y-112260186D01*
X108724500Y-112529813D01*
X108754686Y-112797719D01*
X108754688Y-112797731D01*
X108814684Y-113060594D01*
X108814687Y-113060602D01*
X108903734Y-113315082D01*
X109020714Y-113557994D01*
X109020716Y-113557997D01*
X109164162Y-113786289D01*
X109332266Y-113997085D01*
X109522915Y-114187734D01*
X109733711Y-114355838D01*
X109962003Y-114499284D01*
X110204921Y-114616267D01*
X110396049Y-114683145D01*
X110459397Y-114705312D01*
X110459405Y-114705315D01*
X110459408Y-114705315D01*
X110459409Y-114705316D01*
X110722268Y-114765312D01*
X110990187Y-114795499D01*
X110990188Y-114795500D01*
X110990191Y-114795500D01*
X111259812Y-114795500D01*
X111259812Y-114795499D01*
X111527732Y-114765312D01*
X111790591Y-114705316D01*
X112045079Y-114616267D01*
X112287997Y-114499284D01*
X112516289Y-114355838D01*
X112727085Y-114187734D01*
X112917734Y-113997085D01*
X113085838Y-113786289D01*
X113229284Y-113557997D01*
X113346267Y-113315079D01*
X113435316Y-113060591D01*
X113495312Y-112797732D01*
X113525500Y-112529809D01*
X113525500Y-112260191D01*
X113495312Y-111992268D01*
X113435316Y-111729409D01*
X113346267Y-111474921D01*
X113229284Y-111232003D01*
X113085838Y-111003711D01*
X112917734Y-110792915D01*
X112727085Y-110602266D01*
X112516289Y-110434162D01*
X112287997Y-110290716D01*
X112287994Y-110290714D01*
X112045082Y-110173734D01*
X111790602Y-110084687D01*
X111790594Y-110084684D01*
X111593446Y-110039687D01*
X111527732Y-110024688D01*
X111527728Y-110024687D01*
X111527719Y-110024686D01*
X111259813Y-109994500D01*
X111259809Y-109994500D01*
X110990191Y-109994500D01*
X110990186Y-109994500D01*
X110722280Y-110024686D01*
X110722268Y-110024688D01*
X110459405Y-110084684D01*
X110459397Y-110084687D01*
X110204917Y-110173734D01*
X109962005Y-110290714D01*
X109733712Y-110434161D01*
X109522915Y-110602265D01*
X109332265Y-110792915D01*
X109164161Y-111003712D01*
X109020714Y-111232005D01*
X108903734Y-111474917D01*
X108814687Y-111729397D01*
X108814684Y-111729405D01*
X108754688Y-111992268D01*
X108754686Y-111992280D01*
X108724500Y-112260186D01*
X57474695Y-112260186D01*
X57252955Y-112065725D01*
X57007667Y-111901829D01*
X57007660Y-111901825D01*
X56743080Y-111771349D01*
X56463730Y-111676521D01*
X56463724Y-111676519D01*
X56463722Y-111676519D01*
X56174380Y-111618966D01*
X56174373Y-111618965D01*
X56174363Y-111618964D01*
X55880007Y-111599671D01*
X55879993Y-111599671D01*
X55585636Y-111618964D01*
X55585624Y-111618965D01*
X55585620Y-111618966D01*
X55585612Y-111618967D01*
X55585609Y-111618968D01*
X55296283Y-111676518D01*
X55296269Y-111676521D01*
X55016919Y-111771349D01*
X54752334Y-111901828D01*
X54507041Y-112065728D01*
X54285241Y-112260241D01*
X54090728Y-112482041D01*
X53926828Y-112727334D01*
X53796349Y-112991919D01*
X53701521Y-113271269D01*
X53701518Y-113271283D01*
X53643968Y-113560609D01*
X53643964Y-113560636D01*
X53624671Y-113854992D01*
X46991049Y-113854992D01*
X47045838Y-113786289D01*
X47189284Y-113557997D01*
X47306267Y-113315079D01*
X47395316Y-113060591D01*
X47455312Y-112797732D01*
X47485500Y-112529809D01*
X47485500Y-112260191D01*
X47455312Y-111992268D01*
X47395316Y-111729409D01*
X47306267Y-111474921D01*
X47189284Y-111232003D01*
X47045838Y-111003711D01*
X46877734Y-110792915D01*
X46687085Y-110602266D01*
X46476289Y-110434162D01*
X46247997Y-110290716D01*
X46247994Y-110290714D01*
X46005082Y-110173734D01*
X45750602Y-110084687D01*
X45750594Y-110084684D01*
X45553446Y-110039687D01*
X45487732Y-110024688D01*
X45487728Y-110024687D01*
X45487719Y-110024686D01*
X45219813Y-109994500D01*
X45219809Y-109994500D01*
X44950191Y-109994500D01*
X44950186Y-109994500D01*
X44682280Y-110024686D01*
X44682268Y-110024688D01*
X44419405Y-110084684D01*
X44419397Y-110084687D01*
X44164917Y-110173734D01*
X43922005Y-110290714D01*
X43693712Y-110434161D01*
X43482915Y-110602265D01*
X43292265Y-110792915D01*
X43124161Y-111003712D01*
X42980714Y-111232005D01*
X42863734Y-111474917D01*
X42774687Y-111729397D01*
X42774684Y-111729405D01*
X42714688Y-111992268D01*
X42714686Y-111992280D01*
X42684500Y-112260186D01*
X40505500Y-112260186D01*
X40505500Y-109854997D01*
X54612677Y-109854997D01*
X54612677Y-109855002D01*
X54631929Y-110075062D01*
X54631930Y-110075070D01*
X54689104Y-110288445D01*
X54689105Y-110288447D01*
X54689106Y-110288450D01*
X54690162Y-110290714D01*
X54782466Y-110488662D01*
X54782468Y-110488666D01*
X54909170Y-110669615D01*
X54909175Y-110669621D01*
X55065378Y-110825824D01*
X55065384Y-110825829D01*
X55246333Y-110952531D01*
X55246335Y-110952532D01*
X55246338Y-110952534D01*
X55446550Y-111045894D01*
X55659932Y-111103070D01*
X55817123Y-111116822D01*
X55879998Y-111122323D01*
X55880000Y-111122323D01*
X55880002Y-111122323D01*
X55935017Y-111117509D01*
X56100068Y-111103070D01*
X56313450Y-111045894D01*
X56513662Y-110952534D01*
X56694620Y-110825826D01*
X56850826Y-110669620D01*
X56977534Y-110488662D01*
X57070894Y-110288450D01*
X57128070Y-110075068D01*
X57147323Y-109855000D01*
X57128070Y-109634932D01*
X57070894Y-109421550D01*
X56977534Y-109221339D01*
X56850826Y-109040380D01*
X56694620Y-108884174D01*
X56694616Y-108884171D01*
X56694615Y-108884170D01*
X56513666Y-108757468D01*
X56513662Y-108757466D01*
X56513660Y-108757465D01*
X56313450Y-108664106D01*
X56313447Y-108664105D01*
X56313445Y-108664104D01*
X56100070Y-108606930D01*
X56100062Y-108606929D01*
X55880002Y-108587677D01*
X55879998Y-108587677D01*
X55659937Y-108606929D01*
X55659929Y-108606930D01*
X55446554Y-108664104D01*
X55446548Y-108664107D01*
X55246340Y-108757465D01*
X55246338Y-108757466D01*
X55065377Y-108884175D01*
X54909175Y-109040377D01*
X54782466Y-109221338D01*
X54782465Y-109221340D01*
X54689107Y-109421548D01*
X54689104Y-109421554D01*
X54631930Y-109634929D01*
X54631929Y-109634937D01*
X54612677Y-109854997D01*
X40505500Y-109854997D01*
X40505500Y-105854997D01*
X54612677Y-105854997D01*
X54612677Y-105855002D01*
X54631929Y-106075062D01*
X54631930Y-106075070D01*
X54689104Y-106288445D01*
X54689105Y-106288447D01*
X54689106Y-106288450D01*
X54772572Y-106467445D01*
X54782466Y-106488662D01*
X54782468Y-106488666D01*
X54909170Y-106669615D01*
X54909175Y-106669621D01*
X55065378Y-106825824D01*
X55065384Y-106825829D01*
X55246333Y-106952531D01*
X55246335Y-106952532D01*
X55246338Y-106952534D01*
X55446550Y-107045894D01*
X55659932Y-107103070D01*
X55817123Y-107116822D01*
X55879998Y-107122323D01*
X55880000Y-107122323D01*
X55880002Y-107122323D01*
X55935017Y-107117509D01*
X56100068Y-107103070D01*
X56313450Y-107045894D01*
X56513662Y-106952534D01*
X56694620Y-106825826D01*
X56850826Y-106669620D01*
X56977534Y-106488662D01*
X57070894Y-106288450D01*
X57128070Y-106075068D01*
X57138278Y-105958389D01*
X66209500Y-105958389D01*
X66209500Y-106131610D01*
X66236597Y-106302697D01*
X66290128Y-106467447D01*
X66300940Y-106488666D01*
X66368768Y-106621788D01*
X66470586Y-106761928D01*
X66593072Y-106884414D01*
X66733212Y-106986232D01*
X66887555Y-107064873D01*
X67052299Y-107118402D01*
X67223389Y-107145500D01*
X67223390Y-107145500D01*
X67396610Y-107145500D01*
X67396611Y-107145500D01*
X67567701Y-107118402D01*
X67732445Y-107064873D01*
X67886788Y-106986232D01*
X68026928Y-106884414D01*
X68149414Y-106761928D01*
X68251232Y-106621788D01*
X68329873Y-106467445D01*
X68383402Y-106302701D01*
X68410500Y-106131611D01*
X68410500Y-105958389D01*
X68400854Y-105897486D01*
X70139500Y-105897486D01*
X70139500Y-106192513D01*
X70171571Y-106436113D01*
X70178007Y-106484993D01*
X70252212Y-106761930D01*
X70254361Y-106769951D01*
X70254364Y-106769961D01*
X70367254Y-107042500D01*
X70367258Y-107042510D01*
X70514761Y-107297993D01*
X70694352Y-107532040D01*
X70694358Y-107532047D01*
X70902952Y-107740641D01*
X70902959Y-107740647D01*
X71137006Y-107920238D01*
X71392489Y-108067741D01*
X71392490Y-108067741D01*
X71392493Y-108067743D01*
X71665048Y-108180639D01*
X71950007Y-108256993D01*
X72242494Y-108295500D01*
X72242501Y-108295500D01*
X72537499Y-108295500D01*
X72537506Y-108295500D01*
X72829993Y-108256993D01*
X73114952Y-108180639D01*
X73387507Y-108067743D01*
X73642994Y-107920238D01*
X73877042Y-107740646D01*
X74085646Y-107532042D01*
X74265238Y-107297994D01*
X74412743Y-107042507D01*
X74525639Y-106769952D01*
X74601993Y-106484993D01*
X74640500Y-106192506D01*
X74640500Y-105958389D01*
X76369500Y-105958389D01*
X76369500Y-106131610D01*
X76396597Y-106302697D01*
X76450128Y-106467447D01*
X76460940Y-106488666D01*
X76528768Y-106621788D01*
X76630586Y-106761928D01*
X76753072Y-106884414D01*
X76893212Y-106986232D01*
X77047555Y-107064873D01*
X77212299Y-107118402D01*
X77383389Y-107145500D01*
X77383390Y-107145500D01*
X77556610Y-107145500D01*
X77556611Y-107145500D01*
X77727701Y-107118402D01*
X77892445Y-107064873D01*
X78046788Y-106986232D01*
X78186928Y-106884414D01*
X78309414Y-106761928D01*
X78411232Y-106621788D01*
X78489873Y-106467445D01*
X78543402Y-106302701D01*
X78570500Y-106131611D01*
X78570500Y-105958389D01*
X86529500Y-105958389D01*
X86529500Y-106131610D01*
X86556597Y-106302697D01*
X86610128Y-106467447D01*
X86620940Y-106488666D01*
X86688768Y-106621788D01*
X86790586Y-106761928D01*
X86913072Y-106884414D01*
X87053212Y-106986232D01*
X87207555Y-107064873D01*
X87372299Y-107118402D01*
X87543389Y-107145500D01*
X87543390Y-107145500D01*
X87716610Y-107145500D01*
X87716611Y-107145500D01*
X87887701Y-107118402D01*
X88052445Y-107064873D01*
X88206788Y-106986232D01*
X88346928Y-106884414D01*
X88469414Y-106761928D01*
X88571232Y-106621788D01*
X88649873Y-106467445D01*
X88703402Y-106302701D01*
X88730500Y-106131611D01*
X88730500Y-105958389D01*
X88720854Y-105897486D01*
X90459500Y-105897486D01*
X90459500Y-106192513D01*
X90491571Y-106436113D01*
X90498007Y-106484993D01*
X90572212Y-106761930D01*
X90574361Y-106769951D01*
X90574364Y-106769961D01*
X90687254Y-107042500D01*
X90687258Y-107042510D01*
X90834761Y-107297993D01*
X91014352Y-107532040D01*
X91014358Y-107532047D01*
X91222952Y-107740641D01*
X91222959Y-107740647D01*
X91457006Y-107920238D01*
X91712489Y-108067741D01*
X91712490Y-108067741D01*
X91712493Y-108067743D01*
X91985048Y-108180639D01*
X92270007Y-108256993D01*
X92562494Y-108295500D01*
X92562501Y-108295500D01*
X92857499Y-108295500D01*
X92857506Y-108295500D01*
X93149993Y-108256993D01*
X93434952Y-108180639D01*
X93707507Y-108067743D01*
X93962994Y-107920238D01*
X94197042Y-107740646D01*
X94405646Y-107532042D01*
X94585238Y-107297994D01*
X94732743Y-107042507D01*
X94845639Y-106769952D01*
X94921993Y-106484993D01*
X94960500Y-106192506D01*
X94960500Y-105958389D01*
X96689500Y-105958389D01*
X96689500Y-106131610D01*
X96716597Y-106302697D01*
X96770128Y-106467447D01*
X96780940Y-106488666D01*
X96848768Y-106621788D01*
X96950586Y-106761928D01*
X97073072Y-106884414D01*
X97213212Y-106986232D01*
X97367555Y-107064873D01*
X97532299Y-107118402D01*
X97703389Y-107145500D01*
X97703390Y-107145500D01*
X97876610Y-107145500D01*
X97876611Y-107145500D01*
X98047701Y-107118402D01*
X98212445Y-107064873D01*
X98366788Y-106986232D01*
X98506928Y-106884414D01*
X98629414Y-106761928D01*
X98731232Y-106621788D01*
X98809873Y-106467445D01*
X98863402Y-106302701D01*
X98890500Y-106131611D01*
X98890500Y-105958389D01*
X98863402Y-105787299D01*
X98809873Y-105622555D01*
X98731232Y-105468212D01*
X98629414Y-105328072D01*
X98506928Y-105205586D01*
X98366788Y-105103768D01*
X98212445Y-105025127D01*
X98047701Y-104971598D01*
X98047699Y-104971597D01*
X98047698Y-104971597D01*
X97916271Y-104950781D01*
X97876611Y-104944500D01*
X97703389Y-104944500D01*
X97663728Y-104950781D01*
X97532302Y-104971597D01*
X97367552Y-105025128D01*
X97213211Y-105103768D01*
X97133256Y-105161859D01*
X97073072Y-105205586D01*
X97073070Y-105205588D01*
X97073069Y-105205588D01*
X96950588Y-105328069D01*
X96950588Y-105328070D01*
X96950586Y-105328072D01*
X96906859Y-105388256D01*
X96848768Y-105468211D01*
X96770128Y-105622552D01*
X96716597Y-105787302D01*
X96689500Y-105958389D01*
X94960500Y-105958389D01*
X94960500Y-105897494D01*
X94921993Y-105605007D01*
X94845639Y-105320048D01*
X94732743Y-105047493D01*
X94728636Y-105040380D01*
X94585238Y-104792006D01*
X94405647Y-104557959D01*
X94405641Y-104557952D01*
X94197047Y-104349358D01*
X94197040Y-104349352D01*
X93962993Y-104169761D01*
X93707510Y-104022258D01*
X93707500Y-104022254D01*
X93434961Y-103909364D01*
X93434954Y-103909362D01*
X93434952Y-103909361D01*
X93149993Y-103833007D01*
X93101113Y-103826571D01*
X92857513Y-103794500D01*
X92857506Y-103794500D01*
X92562494Y-103794500D01*
X92562486Y-103794500D01*
X92284085Y-103831153D01*
X92270007Y-103833007D01*
X91985048Y-103909361D01*
X91985038Y-103909364D01*
X91712499Y-104022254D01*
X91712489Y-104022258D01*
X91457006Y-104169761D01*
X91222959Y-104349352D01*
X91222952Y-104349358D01*
X91014358Y-104557952D01*
X91014352Y-104557959D01*
X90834761Y-104792006D01*
X90687258Y-105047489D01*
X90687254Y-105047499D01*
X90574364Y-105320038D01*
X90574361Y-105320048D01*
X90498008Y-105605004D01*
X90498006Y-105605015D01*
X90459500Y-105897486D01*
X88720854Y-105897486D01*
X88703402Y-105787299D01*
X88649873Y-105622555D01*
X88571232Y-105468212D01*
X88469414Y-105328072D01*
X88411232Y-105269890D01*
X88377747Y-105208567D01*
X88382731Y-105138875D01*
X88424603Y-105082942D01*
X88490067Y-105058525D01*
X88527856Y-105061634D01*
X88648852Y-105090683D01*
X88900000Y-105110449D01*
X89151148Y-105090683D01*
X89396111Y-105031873D01*
X89628859Y-104935466D01*
X89843659Y-104803836D01*
X90035224Y-104640224D01*
X90198836Y-104448659D01*
X90330466Y-104233859D01*
X90426873Y-104001111D01*
X90485683Y-103756148D01*
X90505449Y-103505000D01*
X90485683Y-103253852D01*
X90426873Y-103008889D01*
X90403529Y-102952531D01*
X90330466Y-102776140D01*
X90198839Y-102561346D01*
X90198838Y-102561343D01*
X90139505Y-102491873D01*
X90035224Y-102369776D01*
X89908571Y-102261604D01*
X89843656Y-102206161D01*
X89843653Y-102206160D01*
X89628859Y-102074533D01*
X89396110Y-101978126D01*
X89151151Y-101919317D01*
X88900000Y-101899551D01*
X88648848Y-101919317D01*
X88403889Y-101978126D01*
X88171140Y-102074533D01*
X87956346Y-102206160D01*
X87956343Y-102206161D01*
X87764776Y-102369776D01*
X87601161Y-102561343D01*
X87601160Y-102561346D01*
X87469533Y-102776140D01*
X87373126Y-103008889D01*
X87314317Y-103253848D01*
X87294551Y-103505000D01*
X87314317Y-103756151D01*
X87373126Y-104001110D01*
X87469533Y-104233859D01*
X87601160Y-104448653D01*
X87601161Y-104448656D01*
X87601164Y-104448659D01*
X87764776Y-104640224D01*
X87878783Y-104737595D01*
X87916976Y-104796102D01*
X87917474Y-104865970D01*
X87880121Y-104925016D01*
X87816774Y-104954494D01*
X87778854Y-104954358D01*
X87716611Y-104944500D01*
X87543389Y-104944500D01*
X87503728Y-104950781D01*
X87372302Y-104971597D01*
X87207552Y-105025128D01*
X87053211Y-105103768D01*
X86973256Y-105161859D01*
X86913072Y-105205586D01*
X86913070Y-105205588D01*
X86913069Y-105205588D01*
X86790588Y-105328069D01*
X86790588Y-105328070D01*
X86790586Y-105328072D01*
X86746859Y-105388256D01*
X86688768Y-105468211D01*
X86610128Y-105622552D01*
X86556597Y-105787302D01*
X86529500Y-105958389D01*
X78570500Y-105958389D01*
X78543402Y-105787299D01*
X78489873Y-105622555D01*
X78411232Y-105468212D01*
X78309414Y-105328072D01*
X78186928Y-105205586D01*
X78046788Y-105103768D01*
X77892445Y-105025127D01*
X77727701Y-104971598D01*
X77727699Y-104971597D01*
X77727698Y-104971597D01*
X77596271Y-104950781D01*
X77556611Y-104944500D01*
X77383389Y-104944500D01*
X77343728Y-104950781D01*
X77212302Y-104971597D01*
X77047552Y-105025128D01*
X76893211Y-105103768D01*
X76813256Y-105161859D01*
X76753072Y-105205586D01*
X76753070Y-105205588D01*
X76753069Y-105205588D01*
X76630588Y-105328069D01*
X76630588Y-105328070D01*
X76630586Y-105328072D01*
X76586859Y-105388256D01*
X76528768Y-105468211D01*
X76450128Y-105622552D01*
X76396597Y-105787302D01*
X76369500Y-105958389D01*
X74640500Y-105958389D01*
X74640500Y-105897494D01*
X74601993Y-105605007D01*
X74525639Y-105320048D01*
X74412743Y-105047493D01*
X74408636Y-105040380D01*
X74265238Y-104792006D01*
X74085647Y-104557959D01*
X74085641Y-104557952D01*
X73877047Y-104349358D01*
X73877040Y-104349352D01*
X73642993Y-104169761D01*
X73387510Y-104022258D01*
X73387500Y-104022254D01*
X73114961Y-103909364D01*
X73114954Y-103909362D01*
X73114952Y-103909361D01*
X72829993Y-103833007D01*
X72781113Y-103826571D01*
X72537513Y-103794500D01*
X72537506Y-103794500D01*
X72242494Y-103794500D01*
X72242486Y-103794500D01*
X71964085Y-103831153D01*
X71950007Y-103833007D01*
X71665048Y-103909361D01*
X71665038Y-103909364D01*
X71392499Y-104022254D01*
X71392489Y-104022258D01*
X71137006Y-104169761D01*
X70902959Y-104349352D01*
X70902952Y-104349358D01*
X70694358Y-104557952D01*
X70694352Y-104557959D01*
X70514761Y-104792006D01*
X70367258Y-105047489D01*
X70367254Y-105047499D01*
X70254364Y-105320038D01*
X70254361Y-105320048D01*
X70178008Y-105605004D01*
X70178006Y-105605015D01*
X70139500Y-105897486D01*
X68400854Y-105897486D01*
X68383402Y-105787299D01*
X68329873Y-105622555D01*
X68251232Y-105468212D01*
X68149414Y-105328072D01*
X68091232Y-105269890D01*
X68057747Y-105208567D01*
X68062731Y-105138875D01*
X68104603Y-105082942D01*
X68170067Y-105058525D01*
X68207856Y-105061634D01*
X68328852Y-105090683D01*
X68580000Y-105110449D01*
X68831148Y-105090683D01*
X69076111Y-105031873D01*
X69308859Y-104935466D01*
X69523659Y-104803836D01*
X69715224Y-104640224D01*
X69878836Y-104448659D01*
X70010466Y-104233859D01*
X70106873Y-104001111D01*
X70165683Y-103756148D01*
X70185449Y-103505000D01*
X70165683Y-103253852D01*
X70106873Y-103008889D01*
X70083529Y-102952531D01*
X70010466Y-102776140D01*
X69878839Y-102561346D01*
X69878838Y-102561343D01*
X69819505Y-102491873D01*
X69715224Y-102369776D01*
X69588571Y-102261604D01*
X69523656Y-102206161D01*
X69523653Y-102206160D01*
X69308859Y-102074533D01*
X69076110Y-101978126D01*
X68831151Y-101919317D01*
X68580000Y-101899551D01*
X68328848Y-101919317D01*
X68083889Y-101978126D01*
X67851140Y-102074533D01*
X67636346Y-102206160D01*
X67636343Y-102206161D01*
X67444776Y-102369776D01*
X67281161Y-102561343D01*
X67281160Y-102561346D01*
X67149533Y-102776140D01*
X67053126Y-103008889D01*
X66994317Y-103253848D01*
X66974551Y-103505000D01*
X66994317Y-103756151D01*
X67053126Y-104001110D01*
X67149533Y-104233859D01*
X67281160Y-104448653D01*
X67281161Y-104448656D01*
X67281164Y-104448659D01*
X67444776Y-104640224D01*
X67558783Y-104737595D01*
X67596976Y-104796102D01*
X67597474Y-104865970D01*
X67560121Y-104925016D01*
X67496774Y-104954494D01*
X67458854Y-104954358D01*
X67396611Y-104944500D01*
X67223389Y-104944500D01*
X67183728Y-104950781D01*
X67052302Y-104971597D01*
X66887552Y-105025128D01*
X66733211Y-105103768D01*
X66653256Y-105161859D01*
X66593072Y-105205586D01*
X66593070Y-105205588D01*
X66593069Y-105205588D01*
X66470588Y-105328069D01*
X66470588Y-105328070D01*
X66470586Y-105328072D01*
X66426859Y-105388256D01*
X66368768Y-105468211D01*
X66290128Y-105622552D01*
X66236597Y-105787302D01*
X66209500Y-105958389D01*
X57138278Y-105958389D01*
X57147323Y-105855000D01*
X57128070Y-105634932D01*
X57070894Y-105421550D01*
X56977534Y-105221339D01*
X56899888Y-105110448D01*
X56850827Y-105040381D01*
X56782043Y-104971597D01*
X56694620Y-104884174D01*
X56694616Y-104884171D01*
X56694615Y-104884170D01*
X56513666Y-104757468D01*
X56513662Y-104757466D01*
X56471048Y-104737595D01*
X56313450Y-104664106D01*
X56313447Y-104664105D01*
X56313445Y-104664104D01*
X56100070Y-104606930D01*
X56100062Y-104606929D01*
X55880002Y-104587677D01*
X55879998Y-104587677D01*
X55659937Y-104606929D01*
X55659929Y-104606930D01*
X55446554Y-104664104D01*
X55446548Y-104664107D01*
X55246340Y-104757465D01*
X55246338Y-104757466D01*
X55065377Y-104884175D01*
X54909175Y-105040377D01*
X54782466Y-105221338D01*
X54782465Y-105221340D01*
X54689107Y-105421548D01*
X54689104Y-105421554D01*
X54631930Y-105634929D01*
X54631929Y-105634937D01*
X54612677Y-105854997D01*
X40505500Y-105854997D01*
X40505500Y-101854997D01*
X54612677Y-101854997D01*
X54612677Y-101855002D01*
X54631929Y-102075062D01*
X54631930Y-102075070D01*
X54689104Y-102288445D01*
X54689105Y-102288447D01*
X54689106Y-102288450D01*
X54727029Y-102369776D01*
X54782466Y-102488662D01*
X54782468Y-102488666D01*
X54909170Y-102669615D01*
X54909175Y-102669621D01*
X55065378Y-102825824D01*
X55065384Y-102825829D01*
X55246333Y-102952531D01*
X55246335Y-102952532D01*
X55246338Y-102952534D01*
X55446550Y-103045894D01*
X55659932Y-103103070D01*
X55817123Y-103116822D01*
X55879998Y-103122323D01*
X55880000Y-103122323D01*
X55880002Y-103122323D01*
X55935017Y-103117509D01*
X56100068Y-103103070D01*
X56313450Y-103045894D01*
X56513662Y-102952534D01*
X56694620Y-102825826D01*
X56850826Y-102669620D01*
X56977534Y-102488662D01*
X57070894Y-102288450D01*
X57128070Y-102075068D01*
X57147323Y-101855000D01*
X57128070Y-101634932D01*
X57070894Y-101421550D01*
X56977534Y-101221339D01*
X56850826Y-101040380D01*
X56775446Y-100965000D01*
X73324551Y-100965000D01*
X73344317Y-101216151D01*
X73403126Y-101461110D01*
X73499533Y-101693859D01*
X73631160Y-101908653D01*
X73631161Y-101908656D01*
X73686604Y-101973571D01*
X73794776Y-102100224D01*
X73918811Y-102206160D01*
X73986343Y-102263838D01*
X73986346Y-102263839D01*
X74201140Y-102395466D01*
X74426137Y-102488662D01*
X74433889Y-102491873D01*
X74678852Y-102550683D01*
X74930000Y-102570449D01*
X75181148Y-102550683D01*
X75426111Y-102491873D01*
X75658859Y-102395466D01*
X75873659Y-102263836D01*
X76065224Y-102100224D01*
X76228836Y-101908659D01*
X76360466Y-101693859D01*
X76456873Y-101461111D01*
X76515683Y-101216148D01*
X76535449Y-100965000D01*
X93644551Y-100965000D01*
X93664317Y-101216151D01*
X93723126Y-101461110D01*
X93819533Y-101693859D01*
X93951160Y-101908653D01*
X93951161Y-101908656D01*
X94006604Y-101973571D01*
X94114776Y-102100224D01*
X94238811Y-102206160D01*
X94306343Y-102263838D01*
X94306346Y-102263839D01*
X94521140Y-102395466D01*
X94746137Y-102488662D01*
X94753889Y-102491873D01*
X94998852Y-102550683D01*
X95250000Y-102570449D01*
X95501148Y-102550683D01*
X95746111Y-102491873D01*
X95978859Y-102395466D01*
X96193659Y-102263836D01*
X96385224Y-102100224D01*
X96548836Y-101908659D01*
X96680466Y-101693859D01*
X96776873Y-101461111D01*
X96835683Y-101216148D01*
X96855449Y-100965000D01*
X96835683Y-100713852D01*
X96776873Y-100468889D01*
X96680466Y-100236141D01*
X96680466Y-100236140D01*
X96548839Y-100021346D01*
X96548838Y-100021343D01*
X96478211Y-99938650D01*
X96385224Y-99829776D01*
X96258571Y-99721604D01*
X96193656Y-99666161D01*
X96193653Y-99666160D01*
X95978859Y-99534533D01*
X95746110Y-99438126D01*
X95501151Y-99379317D01*
X95250000Y-99359551D01*
X94998848Y-99379317D01*
X94753889Y-99438126D01*
X94521140Y-99534533D01*
X94306346Y-99666160D01*
X94306343Y-99666161D01*
X94114776Y-99829776D01*
X93951161Y-100021343D01*
X93951160Y-100021346D01*
X93819533Y-100236140D01*
X93723126Y-100468889D01*
X93664317Y-100713848D01*
X93644551Y-100965000D01*
X76535449Y-100965000D01*
X76515683Y-100713852D01*
X76456873Y-100468889D01*
X76360466Y-100236141D01*
X76360466Y-100236140D01*
X76228839Y-100021346D01*
X76228838Y-100021343D01*
X76158211Y-99938650D01*
X76065224Y-99829776D01*
X75938571Y-99721604D01*
X75873656Y-99666161D01*
X75873653Y-99666160D01*
X75658859Y-99534533D01*
X75426110Y-99438126D01*
X75181151Y-99379317D01*
X74930000Y-99359551D01*
X74678848Y-99379317D01*
X74433889Y-99438126D01*
X74201140Y-99534533D01*
X73986346Y-99666160D01*
X73986343Y-99666161D01*
X73794776Y-99829776D01*
X73631161Y-100021343D01*
X73631160Y-100021346D01*
X73499533Y-100236140D01*
X73403126Y-100468889D01*
X73344317Y-100713848D01*
X73324551Y-100965000D01*
X56775446Y-100965000D01*
X56694620Y-100884174D01*
X56694616Y-100884171D01*
X56694615Y-100884170D01*
X56513666Y-100757468D01*
X56513662Y-100757466D01*
X56420131Y-100713852D01*
X56313450Y-100664106D01*
X56313447Y-100664105D01*
X56313445Y-100664104D01*
X56100070Y-100606930D01*
X56100062Y-100606929D01*
X55880002Y-100587677D01*
X55879998Y-100587677D01*
X55659937Y-100606929D01*
X55659929Y-100606930D01*
X55446554Y-100664104D01*
X55446548Y-100664107D01*
X55246340Y-100757465D01*
X55246338Y-100757466D01*
X55065377Y-100884175D01*
X54909175Y-101040377D01*
X54782466Y-101221338D01*
X54782465Y-101221340D01*
X54689107Y-101421548D01*
X54689104Y-101421554D01*
X54631930Y-101634929D01*
X54631929Y-101634937D01*
X54612677Y-101854997D01*
X40505500Y-101854997D01*
X40505500Y-97854992D01*
X53624671Y-97854992D01*
X53624671Y-97855007D01*
X53643964Y-98149363D01*
X53643965Y-98149373D01*
X53643966Y-98149380D01*
X53643968Y-98149390D01*
X53701518Y-98438716D01*
X53701521Y-98438730D01*
X53796349Y-98718080D01*
X53926825Y-98982660D01*
X53926829Y-98982667D01*
X54090725Y-99227955D01*
X54285241Y-99449758D01*
X54507044Y-99644274D01*
X54539805Y-99666164D01*
X54752335Y-99808172D01*
X55016923Y-99938652D01*
X55296278Y-100033481D01*
X55585620Y-100091034D01*
X55613888Y-100092886D01*
X55879993Y-100110329D01*
X55880000Y-100110329D01*
X55880007Y-100110329D01*
X56115675Y-100094881D01*
X56174380Y-100091034D01*
X56463722Y-100033481D01*
X56743077Y-99938652D01*
X57007665Y-99808172D01*
X57252957Y-99644273D01*
X57474758Y-99449758D01*
X57669273Y-99227957D01*
X57833172Y-98982665D01*
X57963652Y-98718077D01*
X58058481Y-98438722D01*
X58116034Y-98149380D01*
X58135329Y-97855000D01*
X58135329Y-97854992D01*
X58116035Y-97560636D01*
X58116034Y-97560620D01*
X58058481Y-97271278D01*
X57963652Y-96991923D01*
X57833172Y-96727336D01*
X57669273Y-96482043D01*
X57626655Y-96433447D01*
X57474758Y-96260241D01*
X57252955Y-96065725D01*
X57007667Y-95901829D01*
X57007660Y-95901825D01*
X56743080Y-95771349D01*
X56463730Y-95676521D01*
X56463724Y-95676519D01*
X56463722Y-95676519D01*
X56174380Y-95618966D01*
X56174373Y-95618965D01*
X56174363Y-95618964D01*
X55880007Y-95599671D01*
X55879993Y-95599671D01*
X55585636Y-95618964D01*
X55585624Y-95618965D01*
X55585620Y-95618966D01*
X55585612Y-95618967D01*
X55585609Y-95618968D01*
X55296283Y-95676518D01*
X55296269Y-95676521D01*
X55016919Y-95771349D01*
X54752334Y-95901828D01*
X54507041Y-96065728D01*
X54285241Y-96260241D01*
X54090728Y-96482041D01*
X53926828Y-96727334D01*
X53796349Y-96991919D01*
X53701521Y-97271269D01*
X53701518Y-97271283D01*
X53643968Y-97560609D01*
X53643964Y-97560636D01*
X53624671Y-97854992D01*
X40505500Y-97854992D01*
X40505500Y-92328997D01*
X65751034Y-92328997D01*
X65751034Y-92329002D01*
X65770858Y-92555599D01*
X65770860Y-92555610D01*
X65829730Y-92775317D01*
X65829735Y-92775331D01*
X65925863Y-92981478D01*
X65976974Y-93054472D01*
X66656000Y-92375446D01*
X66656000Y-92381661D01*
X66683259Y-92483394D01*
X66735920Y-92574606D01*
X66810394Y-92649080D01*
X66901606Y-92701741D01*
X67003339Y-92729000D01*
X67009553Y-92729000D01*
X66330526Y-93408025D01*
X66403513Y-93459132D01*
X66403521Y-93459136D01*
X66609668Y-93555264D01*
X66609682Y-93555269D01*
X66829389Y-93614139D01*
X66829400Y-93614141D01*
X67055998Y-93633966D01*
X67056002Y-93633966D01*
X67282599Y-93614141D01*
X67282610Y-93614139D01*
X67502317Y-93555269D01*
X67502331Y-93555264D01*
X67708478Y-93459136D01*
X67781471Y-93408024D01*
X67102447Y-92729000D01*
X67108661Y-92729000D01*
X67210394Y-92701741D01*
X67301606Y-92649080D01*
X67376080Y-92574606D01*
X67428741Y-92483394D01*
X67456000Y-92381661D01*
X67456000Y-92375447D01*
X68135024Y-93054471D01*
X68186136Y-92981478D01*
X68282264Y-92775331D01*
X68282269Y-92775317D01*
X68341139Y-92555610D01*
X68341141Y-92555599D01*
X68360966Y-92329002D01*
X68360966Y-92328997D01*
X68341141Y-92102400D01*
X68341139Y-92102389D01*
X68282269Y-91882682D01*
X68282264Y-91882668D01*
X68186136Y-91676521D01*
X68186132Y-91676513D01*
X68135025Y-91603526D01*
X67456000Y-92282551D01*
X67456000Y-92276339D01*
X67428741Y-92174606D01*
X67376080Y-92083394D01*
X67301606Y-92008920D01*
X67210394Y-91956259D01*
X67108661Y-91929000D01*
X67102448Y-91929000D01*
X67781472Y-91249974D01*
X67708478Y-91198863D01*
X67502331Y-91102735D01*
X67502317Y-91102730D01*
X67282610Y-91043860D01*
X67282599Y-91043858D01*
X67056002Y-91024034D01*
X67055998Y-91024034D01*
X66829400Y-91043858D01*
X66829389Y-91043860D01*
X66609682Y-91102730D01*
X66609673Y-91102734D01*
X66403516Y-91198866D01*
X66403512Y-91198868D01*
X66330526Y-91249973D01*
X66330526Y-91249974D01*
X67009553Y-91929000D01*
X67003339Y-91929000D01*
X66901606Y-91956259D01*
X66810394Y-92008920D01*
X66735920Y-92083394D01*
X66683259Y-92174606D01*
X66656000Y-92276339D01*
X66656000Y-92282552D01*
X65976974Y-91603526D01*
X65976973Y-91603526D01*
X65925868Y-91676512D01*
X65925866Y-91676516D01*
X65829734Y-91882673D01*
X65829730Y-91882682D01*
X65770860Y-92102389D01*
X65770858Y-92102400D01*
X65751034Y-92328997D01*
X40505500Y-92328997D01*
X40505500Y-83057993D01*
X51934700Y-83057993D01*
X51934700Y-83058006D01*
X51953864Y-83289297D01*
X51953866Y-83289308D01*
X52010842Y-83514300D01*
X52104075Y-83726848D01*
X52231016Y-83921147D01*
X52231018Y-83921149D01*
X52231021Y-83921153D01*
X52388216Y-84091913D01*
X52388219Y-84091915D01*
X52388222Y-84091918D01*
X52571365Y-84234464D01*
X52571371Y-84234468D01*
X52571374Y-84234470D01*
X52775497Y-84344936D01*
X52775500Y-84344937D01*
X52818401Y-84359665D01*
X52865819Y-84389265D01*
X53251415Y-84774861D01*
X53166306Y-84797667D01*
X53063694Y-84856910D01*
X52979910Y-84940694D01*
X52920667Y-85043306D01*
X52897861Y-85128415D01*
X52188811Y-84419365D01*
X52104516Y-84548390D01*
X52011317Y-84760864D01*
X51954361Y-84985781D01*
X51935202Y-85216994D01*
X51935202Y-85217005D01*
X51954361Y-85448218D01*
X52011317Y-85673135D01*
X52104515Y-85885606D01*
X52188812Y-86014633D01*
X52897861Y-85305584D01*
X52920667Y-85390694D01*
X52979910Y-85493306D01*
X53063694Y-85577090D01*
X53166306Y-85636333D01*
X53251414Y-85659137D01*
X52865818Y-86044734D01*
X52818402Y-86074334D01*
X52775498Y-86089063D01*
X52775495Y-86089064D01*
X52571371Y-86199531D01*
X52571365Y-86199535D01*
X52388222Y-86342081D01*
X52388219Y-86342084D01*
X52231016Y-86512852D01*
X52104075Y-86707151D01*
X52010842Y-86919699D01*
X51953866Y-87144691D01*
X51953864Y-87144702D01*
X51934700Y-87375993D01*
X51934700Y-87376006D01*
X51953864Y-87607297D01*
X51953866Y-87607308D01*
X52010842Y-87832300D01*
X52104075Y-88044848D01*
X52135408Y-88092807D01*
X52155596Y-88159697D01*
X52136415Y-88226882D01*
X52105911Y-88259894D01*
X52082452Y-88277455D01*
X51996206Y-88392664D01*
X51996202Y-88392671D01*
X51945908Y-88527517D01*
X51939501Y-88587116D01*
X51939501Y-88587123D01*
X51939500Y-88587135D01*
X51939500Y-90482870D01*
X51939501Y-90482876D01*
X51945908Y-90542483D01*
X51996202Y-90677328D01*
X51996206Y-90677335D01*
X52082452Y-90792544D01*
X52082455Y-90792547D01*
X52197664Y-90878793D01*
X52197671Y-90878797D01*
X52332517Y-90929091D01*
X52332516Y-90929091D01*
X52339444Y-90929835D01*
X52392127Y-90935500D01*
X54287872Y-90935499D01*
X54347483Y-90929091D01*
X54482331Y-90878796D01*
X54597546Y-90792546D01*
X54683796Y-90677331D01*
X54734091Y-90542483D01*
X54740500Y-90482873D01*
X54740500Y-90350000D01*
X54760185Y-90282961D01*
X54812989Y-90237206D01*
X54864500Y-90226000D01*
X71981210Y-90226000D01*
X72071020Y-90208134D01*
X72114707Y-90199445D01*
X72240461Y-90147356D01*
X72261912Y-90133023D01*
X72353637Y-90071735D01*
X77194521Y-85230849D01*
X77255841Y-85197366D01*
X77325533Y-85202350D01*
X77381466Y-85244222D01*
X77402404Y-85288091D01*
X77411314Y-85323276D01*
X77411317Y-85323284D01*
X77504515Y-85535756D01*
X77588812Y-85664782D01*
X78297861Y-84955733D01*
X78320667Y-85040844D01*
X78379910Y-85143456D01*
X78463694Y-85227240D01*
X78566306Y-85286483D01*
X78651414Y-85309287D01*
X78265818Y-85694884D01*
X78218402Y-85724484D01*
X78175498Y-85739213D01*
X78175495Y-85739214D01*
X77971371Y-85849681D01*
X77971365Y-85849685D01*
X77788222Y-85992231D01*
X77788219Y-85992234D01*
X77631016Y-86163002D01*
X77504075Y-86357301D01*
X77410842Y-86569849D01*
X77353866Y-86794841D01*
X77353864Y-86794852D01*
X77334700Y-87026143D01*
X77334700Y-87026156D01*
X77353864Y-87257447D01*
X77353866Y-87257458D01*
X77410842Y-87482450D01*
X77504075Y-87694998D01*
X77535408Y-87742957D01*
X77555596Y-87809847D01*
X77536415Y-87877032D01*
X77505911Y-87910044D01*
X77482452Y-87927605D01*
X77396206Y-88042814D01*
X77396202Y-88042821D01*
X77345908Y-88177667D01*
X77339501Y-88237266D01*
X77339501Y-88237273D01*
X77339500Y-88237285D01*
X77339500Y-90133020D01*
X77339501Y-90133024D01*
X77345908Y-90192633D01*
X77396202Y-90327478D01*
X77396206Y-90327485D01*
X77482452Y-90442694D01*
X77482455Y-90442697D01*
X77597664Y-90528943D01*
X77597671Y-90528947D01*
X77732517Y-90579241D01*
X77732516Y-90579241D01*
X77739444Y-90579985D01*
X77792127Y-90585650D01*
X79687872Y-90585649D01*
X79747483Y-90579241D01*
X79882331Y-90528946D01*
X79997546Y-90442696D01*
X80083796Y-90327481D01*
X80134091Y-90192633D01*
X80140500Y-90133023D01*
X80140500Y-90000150D01*
X80160185Y-89933111D01*
X80212989Y-89887356D01*
X80264500Y-89876150D01*
X97731060Y-89876150D01*
X97820870Y-89858284D01*
X97864557Y-89849595D01*
X97990311Y-89797506D01*
X97998021Y-89792353D01*
X97999963Y-89791057D01*
X98034783Y-89767790D01*
X98103487Y-89721885D01*
X102594520Y-85230850D01*
X102655841Y-85197367D01*
X102725533Y-85202351D01*
X102781466Y-85244223D01*
X102802404Y-85288091D01*
X102811315Y-85323278D01*
X102811317Y-85323284D01*
X102904515Y-85535756D01*
X102988812Y-85664782D01*
X103697861Y-84955733D01*
X103720667Y-85040844D01*
X103779910Y-85143456D01*
X103863694Y-85227240D01*
X103966306Y-85286483D01*
X104051414Y-85309287D01*
X103665818Y-85694884D01*
X103618402Y-85724484D01*
X103575498Y-85739213D01*
X103575495Y-85739214D01*
X103371371Y-85849681D01*
X103371365Y-85849685D01*
X103188222Y-85992231D01*
X103188219Y-85992234D01*
X103031016Y-86163002D01*
X102904075Y-86357301D01*
X102810842Y-86569849D01*
X102753866Y-86794841D01*
X102753864Y-86794852D01*
X102734700Y-87026143D01*
X102734700Y-87026156D01*
X102753864Y-87257447D01*
X102753866Y-87257458D01*
X102810842Y-87482450D01*
X102904075Y-87694998D01*
X102935408Y-87742957D01*
X102955596Y-87809847D01*
X102936415Y-87877032D01*
X102905911Y-87910044D01*
X102882452Y-87927605D01*
X102796206Y-88042814D01*
X102796202Y-88042821D01*
X102745908Y-88177667D01*
X102739501Y-88237266D01*
X102739501Y-88237273D01*
X102739500Y-88237285D01*
X102739500Y-90133020D01*
X102739501Y-90133024D01*
X102745908Y-90192633D01*
X102796202Y-90327478D01*
X102796206Y-90327485D01*
X102882452Y-90442694D01*
X102882455Y-90442697D01*
X102997664Y-90528943D01*
X102997671Y-90528947D01*
X103132517Y-90579241D01*
X103132516Y-90579241D01*
X103139444Y-90579985D01*
X103192127Y-90585650D01*
X105087872Y-90585649D01*
X105147483Y-90579241D01*
X105282331Y-90528946D01*
X105397546Y-90442696D01*
X105483796Y-90327481D01*
X105534091Y-90192633D01*
X105540500Y-90133023D01*
X105540499Y-88237278D01*
X105539179Y-88224998D01*
X110200532Y-88224998D01*
X110200532Y-88225001D01*
X110220364Y-88451686D01*
X110220366Y-88451697D01*
X110279258Y-88671488D01*
X110279261Y-88671497D01*
X110375431Y-88877732D01*
X110375432Y-88877734D01*
X110505954Y-89064141D01*
X110666858Y-89225045D01*
X110666861Y-89225047D01*
X110853266Y-89355568D01*
X111059504Y-89451739D01*
X111279308Y-89510635D01*
X111441230Y-89524801D01*
X111505998Y-89530468D01*
X111506000Y-89530468D01*
X111506002Y-89530468D01*
X111562673Y-89525509D01*
X111732692Y-89510635D01*
X111952496Y-89451739D01*
X112158734Y-89355568D01*
X112345139Y-89225047D01*
X112506047Y-89064139D01*
X112636568Y-88877734D01*
X112732739Y-88671496D01*
X112791635Y-88451692D01*
X112811468Y-88225000D01*
X112791635Y-87998308D01*
X112732739Y-87778504D01*
X112636568Y-87572266D01*
X112506047Y-87385861D01*
X112506045Y-87385858D01*
X112345141Y-87224954D01*
X112158734Y-87094432D01*
X112158732Y-87094431D01*
X111952497Y-86998261D01*
X111952488Y-86998258D01*
X111732697Y-86939366D01*
X111732693Y-86939365D01*
X111732692Y-86939365D01*
X111732691Y-86939364D01*
X111732686Y-86939364D01*
X111506002Y-86919532D01*
X111505998Y-86919532D01*
X111279313Y-86939364D01*
X111279302Y-86939366D01*
X111059511Y-86998258D01*
X111059502Y-86998261D01*
X110853267Y-87094431D01*
X110853265Y-87094432D01*
X110666858Y-87224954D01*
X110505954Y-87385858D01*
X110375432Y-87572265D01*
X110375431Y-87572267D01*
X110279261Y-87778502D01*
X110279258Y-87778511D01*
X110220366Y-87998302D01*
X110220364Y-87998313D01*
X110200532Y-88224998D01*
X105539179Y-88224998D01*
X105534091Y-88177667D01*
X105517903Y-88134266D01*
X105483797Y-88042821D01*
X105483793Y-88042814D01*
X105397547Y-87927605D01*
X105397546Y-87927604D01*
X105374087Y-87910042D01*
X105332217Y-87854108D01*
X105327234Y-87784416D01*
X105344593Y-87742954D01*
X105375923Y-87695001D01*
X105469157Y-87482450D01*
X105493618Y-87385858D01*
X105526134Y-87257455D01*
X105535477Y-87144702D01*
X105545300Y-87026156D01*
X105545300Y-87026143D01*
X105526135Y-86794852D01*
X105526133Y-86794841D01*
X105469157Y-86569849D01*
X105375924Y-86357301D01*
X105248983Y-86163002D01*
X105248980Y-86162999D01*
X105248979Y-86162997D01*
X105091784Y-85992237D01*
X105091779Y-85992233D01*
X105091777Y-85992231D01*
X104908634Y-85849685D01*
X104908628Y-85849681D01*
X104704504Y-85739214D01*
X104704495Y-85739210D01*
X104661598Y-85724484D01*
X104614180Y-85694884D01*
X104228585Y-85309287D01*
X104313694Y-85286483D01*
X104416306Y-85227240D01*
X104500090Y-85143456D01*
X104559333Y-85040844D01*
X104582138Y-84955735D01*
X105291186Y-85664783D01*
X105375482Y-85535761D01*
X105468682Y-85323285D01*
X105525638Y-85098368D01*
X105544798Y-84867155D01*
X105544798Y-84867144D01*
X105525638Y-84635931D01*
X105468682Y-84411014D01*
X105375484Y-84198543D01*
X105291186Y-84069515D01*
X104582137Y-84778564D01*
X104559333Y-84693456D01*
X104500090Y-84590844D01*
X104416306Y-84507060D01*
X104313694Y-84447817D01*
X104228583Y-84425011D01*
X104614178Y-84039415D01*
X104661595Y-84009816D01*
X104704503Y-83995086D01*
X104908626Y-83884620D01*
X105091784Y-83742063D01*
X105248979Y-83571303D01*
X105375924Y-83376999D01*
X105442599Y-83224997D01*
X110201034Y-83224997D01*
X110201034Y-83225002D01*
X110220858Y-83451599D01*
X110220860Y-83451610D01*
X110279730Y-83671317D01*
X110279735Y-83671331D01*
X110375863Y-83877478D01*
X110426974Y-83950472D01*
X111106000Y-83271446D01*
X111106000Y-83277661D01*
X111133259Y-83379394D01*
X111185920Y-83470606D01*
X111260394Y-83545080D01*
X111351606Y-83597741D01*
X111453339Y-83625000D01*
X111459553Y-83625000D01*
X110780526Y-84304025D01*
X110853513Y-84355132D01*
X110853521Y-84355136D01*
X111059668Y-84451264D01*
X111059682Y-84451269D01*
X111279389Y-84510139D01*
X111279400Y-84510141D01*
X111505998Y-84529966D01*
X111506002Y-84529966D01*
X111732599Y-84510141D01*
X111732610Y-84510139D01*
X111952317Y-84451269D01*
X111952331Y-84451264D01*
X112158478Y-84355136D01*
X112231471Y-84304024D01*
X111552447Y-83625000D01*
X111558661Y-83625000D01*
X111660394Y-83597741D01*
X111751606Y-83545080D01*
X111826080Y-83470606D01*
X111878741Y-83379394D01*
X111906000Y-83277661D01*
X111906000Y-83271447D01*
X112585024Y-83950471D01*
X112636136Y-83877478D01*
X112732264Y-83671331D01*
X112732269Y-83671317D01*
X112791139Y-83451610D01*
X112791141Y-83451599D01*
X112810966Y-83225002D01*
X112810966Y-83224997D01*
X112791141Y-82998400D01*
X112791139Y-82998389D01*
X112732269Y-82778682D01*
X112732264Y-82778668D01*
X112636136Y-82572521D01*
X112636132Y-82572513D01*
X112585025Y-82499526D01*
X111906000Y-83178551D01*
X111906000Y-83172339D01*
X111878741Y-83070606D01*
X111826080Y-82979394D01*
X111751606Y-82904920D01*
X111660394Y-82852259D01*
X111558661Y-82825000D01*
X111552448Y-82825000D01*
X112231472Y-82145974D01*
X112158478Y-82094863D01*
X111952331Y-81998735D01*
X111952317Y-81998730D01*
X111732610Y-81939860D01*
X111732599Y-81939858D01*
X111506002Y-81920034D01*
X111505998Y-81920034D01*
X111279400Y-81939858D01*
X111279389Y-81939860D01*
X111059682Y-81998730D01*
X111059673Y-81998734D01*
X110853516Y-82094866D01*
X110853512Y-82094868D01*
X110780526Y-82145973D01*
X110780526Y-82145974D01*
X111459553Y-82825000D01*
X111453339Y-82825000D01*
X111351606Y-82852259D01*
X111260394Y-82904920D01*
X111185920Y-82979394D01*
X111133259Y-83070606D01*
X111106000Y-83172339D01*
X111106000Y-83178552D01*
X110426974Y-82499526D01*
X110426973Y-82499526D01*
X110375868Y-82572512D01*
X110375866Y-82572516D01*
X110279734Y-82778673D01*
X110279730Y-82778682D01*
X110220860Y-82998389D01*
X110220858Y-82998400D01*
X110201034Y-83224997D01*
X105442599Y-83224997D01*
X105469157Y-83164450D01*
X105526134Y-82939455D01*
X105528996Y-82904920D01*
X105545300Y-82708156D01*
X105545300Y-82708143D01*
X105526135Y-82476852D01*
X105526133Y-82476841D01*
X105469157Y-82251849D01*
X105375924Y-82039301D01*
X105248983Y-81845002D01*
X105248980Y-81844999D01*
X105248979Y-81844997D01*
X105091784Y-81674237D01*
X105091779Y-81674233D01*
X105091777Y-81674231D01*
X104908634Y-81531685D01*
X104908628Y-81531681D01*
X104704504Y-81421214D01*
X104704495Y-81421211D01*
X104484984Y-81345852D01*
X104313282Y-81317200D01*
X104256049Y-81307650D01*
X104023951Y-81307650D01*
X103978164Y-81315290D01*
X103795015Y-81345852D01*
X103575504Y-81421211D01*
X103575495Y-81421214D01*
X103371371Y-81531681D01*
X103371365Y-81531685D01*
X103188222Y-81674231D01*
X103188219Y-81674234D01*
X103031016Y-81845002D01*
X102904075Y-82039301D01*
X102810842Y-82251849D01*
X102753866Y-82476841D01*
X102753864Y-82476852D01*
X102734700Y-82708143D01*
X102734700Y-82708156D01*
X102753865Y-82939450D01*
X102753865Y-82939453D01*
X102753866Y-82939455D01*
X102771259Y-83008139D01*
X102772458Y-83012871D01*
X102769833Y-83082692D01*
X102739933Y-83130993D01*
X97413097Y-88457831D01*
X97351774Y-88491316D01*
X97325416Y-88494150D01*
X80264499Y-88494150D01*
X80197460Y-88474465D01*
X80151705Y-88421661D01*
X80140499Y-88370150D01*
X80140499Y-88237279D01*
X80140498Y-88237273D01*
X80140497Y-88237266D01*
X80134091Y-88177667D01*
X80117903Y-88134266D01*
X80083797Y-88042821D01*
X80083793Y-88042814D01*
X79997547Y-87927605D01*
X79997546Y-87927604D01*
X79974087Y-87910042D01*
X79932217Y-87854108D01*
X79927234Y-87784416D01*
X79944593Y-87742954D01*
X79975923Y-87695001D01*
X80069157Y-87482450D01*
X80093618Y-87385858D01*
X80126134Y-87257455D01*
X80135477Y-87144702D01*
X80145300Y-87026156D01*
X80145300Y-87026143D01*
X80126135Y-86794852D01*
X80126133Y-86794841D01*
X80069157Y-86569849D01*
X79975924Y-86357301D01*
X79848983Y-86163002D01*
X79848980Y-86162999D01*
X79848979Y-86162997D01*
X79691784Y-85992237D01*
X79691779Y-85992233D01*
X79691777Y-85992231D01*
X79508634Y-85849685D01*
X79508628Y-85849681D01*
X79304504Y-85739214D01*
X79304495Y-85739210D01*
X79261598Y-85724484D01*
X79214180Y-85694884D01*
X78828585Y-85309287D01*
X78913694Y-85286483D01*
X79016306Y-85227240D01*
X79100090Y-85143456D01*
X79159333Y-85040844D01*
X79182138Y-84955735D01*
X79891186Y-85664783D01*
X79975482Y-85535761D01*
X80068682Y-85323285D01*
X80125638Y-85098368D01*
X80144798Y-84867155D01*
X80144798Y-84867144D01*
X80125638Y-84635931D01*
X80068682Y-84411014D01*
X79975484Y-84198543D01*
X79891186Y-84069515D01*
X79182137Y-84778564D01*
X79159333Y-84693456D01*
X79100090Y-84590844D01*
X79016306Y-84507060D01*
X78913694Y-84447817D01*
X78828583Y-84425011D01*
X79214178Y-84039415D01*
X79261595Y-84009816D01*
X79304503Y-83995086D01*
X79508626Y-83884620D01*
X79691784Y-83742063D01*
X79848979Y-83571303D01*
X79975924Y-83376999D01*
X80069157Y-83164450D01*
X80126134Y-82939455D01*
X80128996Y-82904920D01*
X80145300Y-82708156D01*
X80145300Y-82708143D01*
X80126135Y-82476852D01*
X80126133Y-82476841D01*
X80069157Y-82251849D01*
X79975924Y-82039301D01*
X79848983Y-81845002D01*
X79848980Y-81844999D01*
X79848979Y-81844997D01*
X79691784Y-81674237D01*
X79691779Y-81674233D01*
X79691777Y-81674231D01*
X79508634Y-81531685D01*
X79508628Y-81531681D01*
X79304504Y-81421214D01*
X79304495Y-81421211D01*
X79084984Y-81345852D01*
X78913282Y-81317200D01*
X78856049Y-81307650D01*
X78623951Y-81307650D01*
X78578164Y-81315290D01*
X78395015Y-81345852D01*
X78175504Y-81421211D01*
X78175495Y-81421214D01*
X77971371Y-81531681D01*
X77971365Y-81531685D01*
X77788222Y-81674231D01*
X77788219Y-81674234D01*
X77631016Y-81845002D01*
X77504075Y-82039301D01*
X77410842Y-82251849D01*
X77353866Y-82476841D01*
X77353864Y-82476852D01*
X77334700Y-82708143D01*
X77334700Y-82708156D01*
X77353865Y-82939451D01*
X77372458Y-83012873D01*
X77369833Y-83082693D01*
X77339933Y-83130994D01*
X71663247Y-88807681D01*
X71601924Y-88841166D01*
X71575566Y-88844000D01*
X54864499Y-88844000D01*
X54797460Y-88824315D01*
X54751705Y-88771511D01*
X54740499Y-88720000D01*
X54740499Y-88587129D01*
X54740498Y-88587123D01*
X54740497Y-88587116D01*
X54734091Y-88527517D01*
X54694609Y-88421661D01*
X54683797Y-88392671D01*
X54683793Y-88392664D01*
X54597547Y-88277455D01*
X54597546Y-88277454D01*
X54574087Y-88259892D01*
X54532217Y-88203958D01*
X54527234Y-88134266D01*
X54544593Y-88092804D01*
X54575923Y-88044851D01*
X54576814Y-88042821D01*
X54669157Y-87832300D01*
X54726134Y-87607305D01*
X54726135Y-87607297D01*
X54745300Y-87376006D01*
X54745300Y-87375993D01*
X54726135Y-87144702D01*
X54726133Y-87144691D01*
X54669157Y-86919699D01*
X54575924Y-86707151D01*
X54448983Y-86512852D01*
X54448980Y-86512849D01*
X54448979Y-86512847D01*
X54291784Y-86342087D01*
X54291779Y-86342083D01*
X54291777Y-86342081D01*
X54108634Y-86199535D01*
X54108628Y-86199531D01*
X53904504Y-86089064D01*
X53904495Y-86089060D01*
X53861598Y-86074334D01*
X53814180Y-86044734D01*
X53428585Y-85659137D01*
X53513694Y-85636333D01*
X53616306Y-85577090D01*
X53700090Y-85493306D01*
X53759333Y-85390694D01*
X53782138Y-85305585D01*
X54491186Y-86014633D01*
X54575482Y-85885611D01*
X54668682Y-85673135D01*
X54725638Y-85448218D01*
X54744798Y-85217005D01*
X54744798Y-85216994D01*
X54725638Y-84985781D01*
X54668682Y-84760864D01*
X54575484Y-84548393D01*
X54491186Y-84419365D01*
X53782137Y-85128414D01*
X53759333Y-85043306D01*
X53700090Y-84940694D01*
X53616306Y-84856910D01*
X53513694Y-84797667D01*
X53428584Y-84774861D01*
X53814179Y-84389265D01*
X53861595Y-84359666D01*
X53904503Y-84344936D01*
X54108626Y-84234470D01*
X54291784Y-84091913D01*
X54448979Y-83921153D01*
X54524749Y-83805177D01*
X54577896Y-83759822D01*
X54628558Y-83749000D01*
X62425060Y-83749000D01*
X62514870Y-83731134D01*
X62558557Y-83722445D01*
X62684311Y-83670356D01*
X62701830Y-83658650D01*
X62797487Y-83594735D01*
X64223224Y-82168998D01*
X65750532Y-82168998D01*
X65750532Y-82169001D01*
X65770364Y-82395686D01*
X65770366Y-82395697D01*
X65829258Y-82615488D01*
X65829261Y-82615497D01*
X65925431Y-82821732D01*
X65925432Y-82821734D01*
X66055954Y-83008141D01*
X66216858Y-83169045D01*
X66263693Y-83201839D01*
X66403266Y-83299568D01*
X66609504Y-83395739D01*
X66829308Y-83454635D01*
X66991230Y-83468801D01*
X67055998Y-83474468D01*
X67056000Y-83474468D01*
X67056002Y-83474468D01*
X67112673Y-83469509D01*
X67282692Y-83454635D01*
X67502496Y-83395739D01*
X67708734Y-83299568D01*
X67895139Y-83169047D01*
X68056047Y-83008139D01*
X68186568Y-82821734D01*
X68282739Y-82615496D01*
X68341635Y-82395692D01*
X68361468Y-82169000D01*
X68359453Y-82145974D01*
X68348789Y-82024081D01*
X68341635Y-81942308D01*
X68282739Y-81722504D01*
X68186568Y-81516266D01*
X68056047Y-81329861D01*
X68056045Y-81329858D01*
X67895141Y-81168954D01*
X67708734Y-81038432D01*
X67708732Y-81038431D01*
X67502497Y-80942261D01*
X67502488Y-80942258D01*
X67282697Y-80883366D01*
X67282693Y-80883365D01*
X67282692Y-80883365D01*
X67282691Y-80883364D01*
X67282686Y-80883364D01*
X67056002Y-80863532D01*
X67055998Y-80863532D01*
X66829313Y-80883364D01*
X66829302Y-80883366D01*
X66609511Y-80942258D01*
X66609502Y-80942261D01*
X66403267Y-81038431D01*
X66403265Y-81038432D01*
X66216858Y-81168954D01*
X66055954Y-81329858D01*
X65925432Y-81516265D01*
X65925431Y-81516267D01*
X65829261Y-81722502D01*
X65829258Y-81722511D01*
X65770366Y-81942302D01*
X65770364Y-81942313D01*
X65750532Y-82168998D01*
X64223224Y-82168998D01*
X69518235Y-76873985D01*
X69579556Y-76840502D01*
X69627622Y-76841687D01*
X69627974Y-76839694D01*
X69633298Y-76840632D01*
X69633308Y-76840635D01*
X69795230Y-76854801D01*
X69859998Y-76860468D01*
X69860000Y-76860468D01*
X69860002Y-76860468D01*
X69916807Y-76855498D01*
X70086692Y-76840635D01*
X70306496Y-76781739D01*
X70512734Y-76685568D01*
X70699139Y-76555047D01*
X70860047Y-76394139D01*
X70990568Y-76207734D01*
X71017618Y-76149724D01*
X71063790Y-76097285D01*
X71130983Y-76078133D01*
X71197865Y-76098348D01*
X71242382Y-76149725D01*
X71269429Y-76207728D01*
X71269432Y-76207734D01*
X71399954Y-76394141D01*
X71560858Y-76555045D01*
X71560861Y-76555047D01*
X71747266Y-76685568D01*
X71953504Y-76781739D01*
X72173308Y-76840635D01*
X72335230Y-76854801D01*
X72399998Y-76860468D01*
X72400000Y-76860468D01*
X72400002Y-76860468D01*
X72456807Y-76855498D01*
X72626692Y-76840635D01*
X72846496Y-76781739D01*
X73052734Y-76685568D01*
X73239139Y-76555047D01*
X73400047Y-76394139D01*
X73530568Y-76207734D01*
X73557618Y-76149724D01*
X73603790Y-76097285D01*
X73670983Y-76078133D01*
X73737865Y-76098348D01*
X73782382Y-76149725D01*
X73809429Y-76207728D01*
X73809432Y-76207734D01*
X73939954Y-76394141D01*
X74100858Y-76555045D01*
X74100861Y-76555047D01*
X74287266Y-76685568D01*
X74493504Y-76781739D01*
X74713308Y-76840635D01*
X74875230Y-76854801D01*
X74939998Y-76860468D01*
X74940000Y-76860468D01*
X74940002Y-76860468D01*
X74996807Y-76855498D01*
X75166692Y-76840635D01*
X75386496Y-76781739D01*
X75592734Y-76685568D01*
X75779139Y-76555047D01*
X75940047Y-76394139D01*
X76070568Y-76207734D01*
X76166739Y-76001496D01*
X76225635Y-75781692D01*
X76242634Y-75587384D01*
X76245468Y-75555001D01*
X76245468Y-75554998D01*
X76237947Y-75469032D01*
X76225635Y-75328308D01*
X76166739Y-75108504D01*
X76070568Y-74902266D01*
X75940047Y-74715861D01*
X75940045Y-74715858D01*
X75779141Y-74554954D01*
X75592734Y-74424432D01*
X75592732Y-74424431D01*
X75386497Y-74328261D01*
X75386488Y-74328258D01*
X75166697Y-74269366D01*
X75166693Y-74269365D01*
X75166692Y-74269365D01*
X75166691Y-74269364D01*
X75166686Y-74269364D01*
X74940002Y-74249532D01*
X74939998Y-74249532D01*
X74713313Y-74269364D01*
X74713302Y-74269366D01*
X74493511Y-74328258D01*
X74493502Y-74328261D01*
X74287267Y-74424431D01*
X74287265Y-74424432D01*
X74100858Y-74554954D01*
X73939954Y-74715858D01*
X73809432Y-74902265D01*
X73809431Y-74902267D01*
X73782382Y-74960275D01*
X73736209Y-75012714D01*
X73669016Y-75031866D01*
X73602135Y-75011650D01*
X73557618Y-74960275D01*
X73543511Y-74930023D01*
X73530568Y-74902266D01*
X73400047Y-74715861D01*
X73400045Y-74715858D01*
X73239141Y-74554954D01*
X73052734Y-74424432D01*
X73052732Y-74424431D01*
X72846497Y-74328261D01*
X72846488Y-74328258D01*
X72626697Y-74269366D01*
X72626693Y-74269365D01*
X72626692Y-74269365D01*
X72626691Y-74269364D01*
X72626686Y-74269364D01*
X72400002Y-74249532D01*
X72399998Y-74249532D01*
X72173313Y-74269364D01*
X72173302Y-74269366D01*
X71953511Y-74328258D01*
X71953502Y-74328261D01*
X71747267Y-74424431D01*
X71747265Y-74424432D01*
X71560858Y-74554954D01*
X71399954Y-74715858D01*
X71269432Y-74902265D01*
X71269431Y-74902267D01*
X71242382Y-74960275D01*
X71196209Y-75012714D01*
X71129016Y-75031866D01*
X71062135Y-75011650D01*
X71017618Y-74960275D01*
X71003511Y-74930023D01*
X70990568Y-74902266D01*
X70860047Y-74715861D01*
X70860045Y-74715858D01*
X70699141Y-74554954D01*
X70512734Y-74424432D01*
X70512732Y-74424431D01*
X70306497Y-74328261D01*
X70306488Y-74328258D01*
X70086697Y-74269366D01*
X70086687Y-74269364D01*
X69888295Y-74252007D01*
X69823227Y-74226554D01*
X69782248Y-74169963D01*
X69778370Y-74100201D01*
X69811422Y-74040798D01*
X69867463Y-73984758D01*
X70060402Y-73791819D01*
X70121725Y-73758334D01*
X70148083Y-73755500D01*
X79270863Y-73755500D01*
X79337902Y-73775185D01*
X79383657Y-73827989D01*
X79393601Y-73897147D01*
X79390638Y-73911593D01*
X79359366Y-74028302D01*
X79359364Y-74028313D01*
X79339532Y-74254998D01*
X79339532Y-74255001D01*
X79359364Y-74481686D01*
X79359366Y-74481697D01*
X79418258Y-74701488D01*
X79418261Y-74701497D01*
X79514431Y-74907732D01*
X79514432Y-74907734D01*
X79644954Y-75094141D01*
X79805858Y-75255045D01*
X79805861Y-75255047D01*
X79992266Y-75385568D01*
X80198504Y-75481739D01*
X80418308Y-75540635D01*
X80580230Y-75554801D01*
X80644998Y-75560468D01*
X80645000Y-75560468D01*
X80645002Y-75560468D01*
X80707522Y-75554998D01*
X80871692Y-75540635D01*
X81091496Y-75481739D01*
X81297734Y-75385568D01*
X81484139Y-75255047D01*
X81645047Y-75094139D01*
X81775568Y-74907734D01*
X81871739Y-74701496D01*
X81930635Y-74481692D01*
X81950468Y-74255000D01*
X81950424Y-74254501D01*
X81933371Y-74059584D01*
X81930635Y-74028308D01*
X81917308Y-73978573D01*
X81899362Y-73911593D01*
X81901025Y-73841743D01*
X81940188Y-73783881D01*
X82004417Y-73756377D01*
X82019137Y-73755500D01*
X107016916Y-73755500D01*
X107083955Y-73775185D01*
X107104597Y-73791819D01*
X107225187Y-73912409D01*
X107258672Y-73973732D01*
X107257281Y-74032182D01*
X107249939Y-74059584D01*
X107249936Y-74059597D01*
X107229341Y-74294999D01*
X107229341Y-74295000D01*
X107249936Y-74530403D01*
X107249938Y-74530413D01*
X107311094Y-74758655D01*
X107311096Y-74758659D01*
X107311097Y-74758663D01*
X107405703Y-74961546D01*
X107410965Y-74972830D01*
X107410967Y-74972834D01*
X107495908Y-75094141D01*
X107546505Y-75166401D01*
X107713599Y-75333495D01*
X107787967Y-75385568D01*
X107907165Y-75469032D01*
X107907167Y-75469033D01*
X107907170Y-75469035D01*
X108121337Y-75568903D01*
X108349592Y-75630063D01*
X108537918Y-75646539D01*
X108584999Y-75650659D01*
X108585000Y-75650659D01*
X108585001Y-75650659D01*
X108624234Y-75647226D01*
X108820408Y-75630063D01*
X109048663Y-75568903D01*
X109262830Y-75469035D01*
X109456401Y-75333495D01*
X109623495Y-75166401D01*
X109753425Y-74980842D01*
X109808002Y-74937217D01*
X109877500Y-74930023D01*
X109939855Y-74961546D01*
X109956575Y-74980842D01*
X110086500Y-75166395D01*
X110086505Y-75166401D01*
X110253599Y-75333495D01*
X110327967Y-75385568D01*
X110447165Y-75469032D01*
X110447167Y-75469033D01*
X110447170Y-75469035D01*
X110661337Y-75568903D01*
X110889592Y-75630063D01*
X111077918Y-75646539D01*
X111124999Y-75650659D01*
X111125000Y-75650659D01*
X111125001Y-75650659D01*
X111164234Y-75647226D01*
X111360408Y-75630063D01*
X111588663Y-75568903D01*
X111802830Y-75469035D01*
X111996401Y-75333495D01*
X112163495Y-75166401D01*
X112299035Y-74972830D01*
X112398903Y-74758663D01*
X112460063Y-74530408D01*
X112480659Y-74295000D01*
X112460063Y-74059592D01*
X112398903Y-73831337D01*
X112299035Y-73617171D01*
X112293425Y-73609158D01*
X112163494Y-73423597D01*
X111996402Y-73256506D01*
X111996396Y-73256501D01*
X111810842Y-73126575D01*
X111767217Y-73071998D01*
X111760023Y-73002500D01*
X111791546Y-72940145D01*
X111810842Y-72923425D01*
X111833026Y-72907891D01*
X111996401Y-72793495D01*
X112163495Y-72626401D01*
X112299035Y-72432830D01*
X112398903Y-72218663D01*
X112460063Y-71990408D01*
X112480659Y-71755000D01*
X112460063Y-71519592D01*
X112398903Y-71291337D01*
X112299035Y-71077171D01*
X112297306Y-71074701D01*
X112163494Y-70883597D01*
X111996402Y-70716506D01*
X111996401Y-70716505D01*
X111810405Y-70586269D01*
X111766781Y-70531692D01*
X111759588Y-70462193D01*
X111791110Y-70399839D01*
X111810405Y-70383119D01*
X111996082Y-70253105D01*
X112163105Y-70086082D01*
X112298600Y-69892578D01*
X112398429Y-69678492D01*
X112398432Y-69678486D01*
X112455636Y-69465000D01*
X111558012Y-69465000D01*
X111590925Y-69407993D01*
X111625000Y-69280826D01*
X111625000Y-69149174D01*
X111590925Y-69022007D01*
X111558012Y-68965000D01*
X112455636Y-68965000D01*
X112455635Y-68964999D01*
X112398432Y-68751513D01*
X112398429Y-68751507D01*
X112298600Y-68537422D01*
X112298599Y-68537420D01*
X112163113Y-68343926D01*
X112163108Y-68343920D01*
X111996082Y-68176894D01*
X111802578Y-68041399D01*
X111588492Y-67941570D01*
X111588486Y-67941567D01*
X111375000Y-67884364D01*
X111375000Y-68781988D01*
X111317993Y-68749075D01*
X111190826Y-68715000D01*
X111059174Y-68715000D01*
X110932007Y-68749075D01*
X110875000Y-68781988D01*
X110875000Y-67884364D01*
X110874999Y-67884364D01*
X110661513Y-67941567D01*
X110661507Y-67941570D01*
X110447422Y-68041399D01*
X110447420Y-68041400D01*
X110253926Y-68176886D01*
X110131865Y-68298947D01*
X110070542Y-68332431D01*
X110000850Y-68327447D01*
X109944917Y-68285575D01*
X109928002Y-68254598D01*
X109878797Y-68122671D01*
X109878793Y-68122664D01*
X109792547Y-68007455D01*
X109792544Y-68007452D01*
X109677335Y-67921206D01*
X109677328Y-67921202D01*
X109542482Y-67870908D01*
X109542483Y-67870908D01*
X109482883Y-67864501D01*
X109482881Y-67864500D01*
X109482873Y-67864500D01*
X109482864Y-67864500D01*
X107687129Y-67864500D01*
X107687123Y-67864501D01*
X107627516Y-67870908D01*
X107492671Y-67921202D01*
X107492664Y-67921206D01*
X107377455Y-68007452D01*
X107377452Y-68007455D01*
X107291206Y-68122664D01*
X107291202Y-68122671D01*
X107240908Y-68257517D01*
X107235509Y-68307741D01*
X107234500Y-68317127D01*
X107234500Y-69028400D01*
X107234501Y-69640500D01*
X107214816Y-69707539D01*
X107162013Y-69753294D01*
X107110501Y-69764500D01*
X82015940Y-69764500D01*
X81948901Y-69744815D01*
X81903146Y-69692011D01*
X81893202Y-69622853D01*
X81896165Y-69608407D01*
X81930139Y-69481610D01*
X81930141Y-69481599D01*
X81949966Y-69255002D01*
X81949966Y-69254997D01*
X81930141Y-69028400D01*
X81930139Y-69028389D01*
X81871269Y-68808682D01*
X81871264Y-68808668D01*
X81775136Y-68602521D01*
X81775132Y-68602513D01*
X81724025Y-68529526D01*
X81045000Y-69208551D01*
X81045000Y-69202339D01*
X81017741Y-69100606D01*
X80965080Y-69009394D01*
X80890606Y-68934920D01*
X80799394Y-68882259D01*
X80697661Y-68855000D01*
X80691448Y-68855000D01*
X81370472Y-68175974D01*
X81297478Y-68124863D01*
X81091331Y-68028735D01*
X81091317Y-68028730D01*
X80871610Y-67969860D01*
X80871599Y-67969858D01*
X80645002Y-67950034D01*
X80644998Y-67950034D01*
X80418400Y-67969858D01*
X80418389Y-67969860D01*
X80198682Y-68028730D01*
X80198673Y-68028734D01*
X79992516Y-68124866D01*
X79992512Y-68124868D01*
X79919526Y-68175973D01*
X79919526Y-68175974D01*
X80598553Y-68855000D01*
X80592339Y-68855000D01*
X80490606Y-68882259D01*
X80399394Y-68934920D01*
X80324920Y-69009394D01*
X80272259Y-69100606D01*
X80245000Y-69202339D01*
X80245000Y-69208552D01*
X79565974Y-68529526D01*
X79565973Y-68529526D01*
X79514868Y-68602512D01*
X79514866Y-68602516D01*
X79418734Y-68808673D01*
X79418730Y-68808682D01*
X79359860Y-69028389D01*
X79359858Y-69028400D01*
X79340034Y-69254997D01*
X79340034Y-69255002D01*
X79359858Y-69481599D01*
X79359860Y-69481610D01*
X79393835Y-69608407D01*
X79392172Y-69678257D01*
X79353009Y-69736119D01*
X79288781Y-69763623D01*
X79274060Y-69764500D01*
X77798084Y-69764500D01*
X77731045Y-69744815D01*
X77710403Y-69728181D01*
X76258988Y-68276766D01*
X76225503Y-68215443D01*
X76226669Y-68167377D01*
X76224694Y-68167029D01*
X76225631Y-68161704D01*
X76225635Y-68161692D01*
X76244893Y-67941570D01*
X76245468Y-67935001D01*
X76245468Y-67934998D01*
X76225635Y-67708313D01*
X76225635Y-67708308D01*
X76166739Y-67488504D01*
X76070568Y-67282266D01*
X75940047Y-67095861D01*
X75940045Y-67095858D01*
X75779141Y-66934954D01*
X75592734Y-66804432D01*
X75592732Y-66804431D01*
X75386497Y-66708261D01*
X75386488Y-66708258D01*
X75166697Y-66649366D01*
X75166693Y-66649365D01*
X75166692Y-66649365D01*
X75166691Y-66649364D01*
X75166686Y-66649364D01*
X74940002Y-66629532D01*
X74939998Y-66629532D01*
X74713313Y-66649364D01*
X74713302Y-66649366D01*
X74493511Y-66708258D01*
X74493502Y-66708261D01*
X74287267Y-66804431D01*
X74287265Y-66804432D01*
X74100858Y-66934954D01*
X73939954Y-67095858D01*
X73809432Y-67282265D01*
X73809431Y-67282267D01*
X73782382Y-67340275D01*
X73736209Y-67392714D01*
X73669016Y-67411866D01*
X73602135Y-67391650D01*
X73557618Y-67340275D01*
X73530686Y-67282520D01*
X73530568Y-67282266D01*
X73400047Y-67095861D01*
X73400045Y-67095858D01*
X73239141Y-66934954D01*
X73052734Y-66804432D01*
X73052732Y-66804431D01*
X72846497Y-66708261D01*
X72846488Y-66708258D01*
X72626697Y-66649366D01*
X72626693Y-66649365D01*
X72626692Y-66649365D01*
X72626691Y-66649364D01*
X72626686Y-66649364D01*
X72400002Y-66629532D01*
X72399998Y-66629532D01*
X72173313Y-66649364D01*
X72173302Y-66649366D01*
X71953511Y-66708258D01*
X71953502Y-66708261D01*
X71747267Y-66804431D01*
X71747265Y-66804432D01*
X71560858Y-66934954D01*
X71399954Y-67095858D01*
X71269432Y-67282265D01*
X71269431Y-67282267D01*
X71242382Y-67340275D01*
X71196209Y-67392714D01*
X71129016Y-67411866D01*
X71062135Y-67391650D01*
X71017618Y-67340275D01*
X70990686Y-67282520D01*
X70990568Y-67282266D01*
X70860047Y-67095861D01*
X70860045Y-67095858D01*
X70699141Y-66934954D01*
X70512734Y-66804432D01*
X70512732Y-66804431D01*
X70306497Y-66708261D01*
X70306488Y-66708258D01*
X70086697Y-66649366D01*
X70086693Y-66649365D01*
X70086692Y-66649365D01*
X70086691Y-66649364D01*
X70086686Y-66649364D01*
X69860002Y-66629532D01*
X69859998Y-66629532D01*
X69633313Y-66649364D01*
X69633302Y-66649366D01*
X69413511Y-66708258D01*
X69413502Y-66708261D01*
X69207267Y-66804431D01*
X69207265Y-66804432D01*
X69020858Y-66934954D01*
X68859954Y-67095858D01*
X68729433Y-67282264D01*
X68729432Y-67282266D01*
X68729315Y-67282518D01*
X68702106Y-67340867D01*
X68655933Y-67393306D01*
X68588739Y-67412457D01*
X68521858Y-67392241D01*
X68477342Y-67340865D01*
X68450135Y-67282520D01*
X68450134Y-67282518D01*
X68319657Y-67096179D01*
X68158820Y-66935342D01*
X67972482Y-66804865D01*
X67766328Y-66708734D01*
X67570000Y-66656127D01*
X67570000Y-67619314D01*
X67565606Y-67614920D01*
X67474394Y-67562259D01*
X67372661Y-67535000D01*
X67267339Y-67535000D01*
X67165606Y-67562259D01*
X67074394Y-67614920D01*
X67070000Y-67619314D01*
X67070000Y-66656127D01*
X66873671Y-66708734D01*
X66667517Y-66804865D01*
X66481179Y-66935342D01*
X66320342Y-67096179D01*
X66189865Y-67282517D01*
X66093734Y-67488673D01*
X66093730Y-67488682D01*
X66041127Y-67684999D01*
X66041128Y-67685000D01*
X67004314Y-67685000D01*
X66999920Y-67689394D01*
X66947259Y-67780606D01*
X66920000Y-67882339D01*
X66920000Y-67987661D01*
X66947259Y-68089394D01*
X66999920Y-68180606D01*
X67004314Y-68185000D01*
X66041128Y-68185000D01*
X66093730Y-68381317D01*
X66093734Y-68381326D01*
X66189865Y-68587482D01*
X66320342Y-68773820D01*
X66481179Y-68934657D01*
X66667517Y-69065134D01*
X66873673Y-69161265D01*
X66873682Y-69161269D01*
X67069999Y-69213872D01*
X67070000Y-69213871D01*
X67070000Y-68250686D01*
X67074394Y-68255080D01*
X67165606Y-68307741D01*
X67267339Y-68335000D01*
X67372661Y-68335000D01*
X67474394Y-68307741D01*
X67565606Y-68255080D01*
X67570000Y-68250686D01*
X67570000Y-69213872D01*
X67766317Y-69161269D01*
X67766326Y-69161265D01*
X67972482Y-69065134D01*
X68158820Y-68934657D01*
X68319657Y-68773820D01*
X68450132Y-68587484D01*
X68477341Y-68529134D01*
X68523513Y-68476695D01*
X68590707Y-68457542D01*
X68657588Y-68477757D01*
X68702106Y-68529133D01*
X68729431Y-68587732D01*
X68729432Y-68587734D01*
X68859954Y-68774141D01*
X69020858Y-68935045D01*
X69020861Y-68935047D01*
X69207266Y-69065568D01*
X69413504Y-69161739D01*
X69633308Y-69220635D01*
X69795230Y-69234801D01*
X69859998Y-69240468D01*
X69860000Y-69240468D01*
X69860002Y-69240468D01*
X69916673Y-69235509D01*
X70086692Y-69220635D01*
X70306496Y-69161739D01*
X70512734Y-69065568D01*
X70699139Y-68935047D01*
X70860047Y-68774139D01*
X70990568Y-68587734D01*
X71017618Y-68529724D01*
X71063790Y-68477285D01*
X71130983Y-68458133D01*
X71197865Y-68478348D01*
X71242382Y-68529725D01*
X71269429Y-68587728D01*
X71269432Y-68587734D01*
X71399954Y-68774141D01*
X71560858Y-68935045D01*
X71560861Y-68935047D01*
X71747266Y-69065568D01*
X71953504Y-69161739D01*
X72173308Y-69220635D01*
X72335230Y-69234801D01*
X72399998Y-69240468D01*
X72400000Y-69240468D01*
X72400002Y-69240468D01*
X72456673Y-69235509D01*
X72626692Y-69220635D01*
X72846496Y-69161739D01*
X73052734Y-69065568D01*
X73239139Y-68935047D01*
X73400047Y-68774139D01*
X73530568Y-68587734D01*
X73557618Y-68529724D01*
X73603790Y-68477285D01*
X73670983Y-68458133D01*
X73737865Y-68478348D01*
X73782382Y-68529725D01*
X73809429Y-68587728D01*
X73809432Y-68587734D01*
X73939954Y-68774141D01*
X74100858Y-68935045D01*
X74100861Y-68935047D01*
X74287266Y-69065568D01*
X74493504Y-69161739D01*
X74713308Y-69220635D01*
X74875230Y-69234801D01*
X74939998Y-69240468D01*
X74940000Y-69240468D01*
X74940002Y-69240468D01*
X74971421Y-69237719D01*
X75166692Y-69220635D01*
X75166704Y-69220631D01*
X75172029Y-69219694D01*
X75172464Y-69222166D01*
X75231732Y-69223522D01*
X75281766Y-69253988D01*
X77020007Y-70992230D01*
X77020014Y-70992236D01*
X77133187Y-71067855D01*
X77133190Y-71067857D01*
X77258938Y-71119943D01*
X77258943Y-71119945D01*
X77258947Y-71119945D01*
X77258948Y-71119946D01*
X77392439Y-71146500D01*
X77392442Y-71146500D01*
X107188306Y-71146500D01*
X107255345Y-71166185D01*
X107301100Y-71218989D01*
X107311044Y-71288147D01*
X107308081Y-71302593D01*
X107249938Y-71519586D01*
X107249936Y-71519596D01*
X107229341Y-71754999D01*
X107229341Y-71755000D01*
X107249936Y-71990403D01*
X107249938Y-71990413D01*
X107310760Y-72217407D01*
X107309097Y-72287257D01*
X107269934Y-72345119D01*
X107205706Y-72372623D01*
X107190985Y-72373500D01*
X69742440Y-72373500D01*
X69608948Y-72400053D01*
X69608938Y-72400056D01*
X69483195Y-72452140D01*
X69483182Y-72452147D01*
X69370014Y-72527764D01*
X69370010Y-72527767D01*
X67679596Y-74218181D01*
X67618273Y-74251666D01*
X67591915Y-74254500D01*
X66472129Y-74254500D01*
X66472123Y-74254501D01*
X66412516Y-74260908D01*
X66277671Y-74311202D01*
X66277664Y-74311206D01*
X66162455Y-74397452D01*
X66162452Y-74397455D01*
X66076206Y-74512664D01*
X66076202Y-74512671D01*
X66025908Y-74647517D01*
X66019501Y-74707116D01*
X66019500Y-74707135D01*
X66019500Y-76402870D01*
X66019501Y-76402876D01*
X66025908Y-76462483D01*
X66076202Y-76597328D01*
X66076206Y-76597335D01*
X66162452Y-76712544D01*
X66162455Y-76712547D01*
X66277664Y-76798793D01*
X66277671Y-76798797D01*
X66412517Y-76849091D01*
X66412516Y-76849091D01*
X66419444Y-76849835D01*
X66472127Y-76855500D01*
X67282915Y-76855499D01*
X67349954Y-76875183D01*
X67395709Y-76927987D01*
X67405653Y-76997146D01*
X67376628Y-77060702D01*
X67370596Y-77067180D01*
X62107097Y-82330681D01*
X62045774Y-82364166D01*
X62019416Y-82367000D01*
X54628558Y-82367000D01*
X54561519Y-82347315D01*
X54524749Y-82310822D01*
X54448981Y-82194850D01*
X54448980Y-82194849D01*
X54448979Y-82194847D01*
X54291784Y-82024087D01*
X54291779Y-82024083D01*
X54291777Y-82024081D01*
X54108634Y-81881535D01*
X54108628Y-81881531D01*
X53904504Y-81771064D01*
X53904495Y-81771061D01*
X53684984Y-81695702D01*
X53513282Y-81667050D01*
X53456049Y-81657500D01*
X53223951Y-81657500D01*
X53178164Y-81665140D01*
X52995015Y-81695702D01*
X52775504Y-81771061D01*
X52775495Y-81771064D01*
X52571371Y-81881531D01*
X52571365Y-81881535D01*
X52388222Y-82024081D01*
X52388219Y-82024084D01*
X52231016Y-82194852D01*
X52104075Y-82389151D01*
X52010842Y-82601699D01*
X51953866Y-82826691D01*
X51953864Y-82826702D01*
X51934700Y-83057993D01*
X40505500Y-83057993D01*
X40505500Y-72389992D01*
X43654671Y-72389992D01*
X43654671Y-72390007D01*
X43673964Y-72684363D01*
X43673965Y-72684373D01*
X43673966Y-72684380D01*
X43721514Y-72923425D01*
X43731518Y-72973716D01*
X43731521Y-72973730D01*
X43826349Y-73253080D01*
X43956825Y-73517660D01*
X43956829Y-73517667D01*
X44120725Y-73762955D01*
X44315241Y-73984758D01*
X44537044Y-74179274D01*
X44760015Y-74328258D01*
X44782335Y-74343172D01*
X45046923Y-74473652D01*
X45326278Y-74568481D01*
X45615620Y-74626034D01*
X45643888Y-74627886D01*
X45909993Y-74645329D01*
X45910000Y-74645329D01*
X45910007Y-74645329D01*
X46145675Y-74629881D01*
X46204380Y-74626034D01*
X46493722Y-74568481D01*
X46773077Y-74473652D01*
X47037665Y-74343172D01*
X47282957Y-74179273D01*
X47504758Y-73984758D01*
X47699273Y-73762957D01*
X47863172Y-73517665D01*
X47993652Y-73253077D01*
X48088481Y-72973722D01*
X48146034Y-72684380D01*
X48156299Y-72527765D01*
X48165329Y-72390007D01*
X48165329Y-72389992D01*
X48157834Y-72275646D01*
X61069500Y-72275646D01*
X61069500Y-72504353D01*
X61105278Y-72730246D01*
X61105278Y-72730249D01*
X61175950Y-72947755D01*
X61226773Y-73047500D01*
X61279783Y-73151538D01*
X61412525Y-73334242D01*
X61436005Y-73400046D01*
X61420180Y-73468100D01*
X61370074Y-73516795D01*
X61355541Y-73523308D01*
X61327670Y-73533703D01*
X61327664Y-73533706D01*
X61212455Y-73619952D01*
X61212452Y-73619955D01*
X61126206Y-73735164D01*
X61126202Y-73735171D01*
X61075908Y-73870017D01*
X61071439Y-73911593D01*
X61069501Y-73929623D01*
X61069500Y-73929635D01*
X61069500Y-75930370D01*
X61069501Y-75930376D01*
X61075908Y-75989983D01*
X61126202Y-76124828D01*
X61126206Y-76124835D01*
X61212452Y-76240044D01*
X61212455Y-76240047D01*
X61327664Y-76326293D01*
X61327671Y-76326297D01*
X61462517Y-76376591D01*
X61462516Y-76376591D01*
X61469444Y-76377335D01*
X61522127Y-76383000D01*
X63617872Y-76382999D01*
X63677483Y-76376591D01*
X63812331Y-76326296D01*
X63927546Y-76240046D01*
X64013796Y-76124831D01*
X64064091Y-75989983D01*
X64070500Y-75930373D01*
X64070499Y-73929628D01*
X64064091Y-73870017D01*
X64053545Y-73841743D01*
X64013797Y-73735171D01*
X64013793Y-73735164D01*
X63927547Y-73619955D01*
X63927544Y-73619952D01*
X63812335Y-73533706D01*
X63812328Y-73533702D01*
X63784459Y-73523308D01*
X63728525Y-73481437D01*
X63704108Y-73415973D01*
X63718960Y-73347700D01*
X63727460Y-73334260D01*
X63860217Y-73151538D01*
X63964048Y-72947758D01*
X64034722Y-72730245D01*
X64070500Y-72504354D01*
X64070500Y-72275646D01*
X64034722Y-72049755D01*
X64034721Y-72049751D01*
X64034721Y-72049750D01*
X63964049Y-71832244D01*
X63860216Y-71628461D01*
X63725786Y-71443434D01*
X63564066Y-71281714D01*
X63479134Y-71220007D01*
X63436470Y-71164678D01*
X63430491Y-71095064D01*
X63463097Y-71033269D01*
X63479137Y-71019371D01*
X63563739Y-70957905D01*
X63725402Y-70796242D01*
X63859788Y-70611276D01*
X63963582Y-70407570D01*
X64034234Y-70190128D01*
X64048509Y-70100000D01*
X63060748Y-70100000D01*
X63082518Y-70062292D01*
X63120000Y-69922409D01*
X63120000Y-69777591D01*
X63082518Y-69637708D01*
X63060748Y-69600000D01*
X64048509Y-69600000D01*
X64034234Y-69509871D01*
X63963582Y-69292429D01*
X63859788Y-69088723D01*
X63725402Y-68903757D01*
X63563742Y-68742097D01*
X63378776Y-68607711D01*
X63175068Y-68503917D01*
X62957625Y-68433265D01*
X62957626Y-68433265D01*
X62820000Y-68411467D01*
X62820000Y-69359252D01*
X62782292Y-69337482D01*
X62642409Y-69300000D01*
X62497591Y-69300000D01*
X62357708Y-69337482D01*
X62320000Y-69359252D01*
X62320000Y-68411467D01*
X62182374Y-68433265D01*
X61964931Y-68503917D01*
X61761223Y-68607711D01*
X61576257Y-68742097D01*
X61414597Y-68903757D01*
X61280211Y-69088723D01*
X61176417Y-69292429D01*
X61105765Y-69509871D01*
X61091491Y-69600000D01*
X62079252Y-69600000D01*
X62057482Y-69637708D01*
X62020000Y-69777591D01*
X62020000Y-69922409D01*
X62057482Y-70062292D01*
X62079252Y-70100000D01*
X61091491Y-70100000D01*
X61105765Y-70190128D01*
X61176417Y-70407570D01*
X61280211Y-70611276D01*
X61414597Y-70796242D01*
X61576257Y-70957902D01*
X61576263Y-70957907D01*
X61660863Y-71019372D01*
X61703529Y-71074701D01*
X61709508Y-71144315D01*
X61676903Y-71206110D01*
X61660864Y-71220007D01*
X61575940Y-71281709D01*
X61575931Y-71281716D01*
X61414216Y-71443431D01*
X61414216Y-71443432D01*
X61414214Y-71443434D01*
X61358886Y-71519586D01*
X61279783Y-71628461D01*
X61175950Y-71832244D01*
X61105278Y-72049750D01*
X61105278Y-72049753D01*
X61069500Y-72275646D01*
X48157834Y-72275646D01*
X48146035Y-72095636D01*
X48146034Y-72095620D01*
X48088481Y-71806278D01*
X47993652Y-71526923D01*
X47863172Y-71262336D01*
X47834889Y-71220008D01*
X47768030Y-71119946D01*
X47699273Y-71017043D01*
X47629077Y-70937000D01*
X47504758Y-70795241D01*
X47282955Y-70600725D01*
X47037667Y-70436829D01*
X47037660Y-70436825D01*
X46773080Y-70306349D01*
X46493730Y-70211521D01*
X46493724Y-70211519D01*
X46493722Y-70211519D01*
X46204380Y-70153966D01*
X46204373Y-70153965D01*
X46204363Y-70153964D01*
X45910007Y-70134671D01*
X45909993Y-70134671D01*
X45615636Y-70153964D01*
X45615624Y-70153965D01*
X45615620Y-70153966D01*
X45615612Y-70153967D01*
X45615609Y-70153968D01*
X45326283Y-70211518D01*
X45326269Y-70211521D01*
X45046919Y-70306349D01*
X44782334Y-70436828D01*
X44537041Y-70600728D01*
X44315241Y-70795241D01*
X44120728Y-71017041D01*
X43956828Y-71262334D01*
X43826349Y-71526919D01*
X43731521Y-71806269D01*
X43731518Y-71806283D01*
X43673968Y-72095609D01*
X43673964Y-72095636D01*
X43654671Y-72389992D01*
X40505500Y-72389992D01*
X40505500Y-63880996D01*
X71711435Y-63880996D01*
X71711435Y-63881003D01*
X71731630Y-64060249D01*
X71731631Y-64060254D01*
X71791211Y-64230523D01*
X71843426Y-64313622D01*
X71887184Y-64383262D01*
X72014738Y-64510816D01*
X72105080Y-64567582D01*
X72142359Y-64591006D01*
X72167478Y-64606789D01*
X72254565Y-64637262D01*
X72337745Y-64666368D01*
X72337750Y-64666369D01*
X72516996Y-64686565D01*
X72517000Y-64686565D01*
X72517004Y-64686565D01*
X72696249Y-64666369D01*
X72696252Y-64666368D01*
X72696255Y-64666368D01*
X72866522Y-64606789D01*
X72890560Y-64591685D01*
X72891641Y-64591006D01*
X72957613Y-64572000D01*
X100881416Y-64572000D01*
X100948455Y-64591685D01*
X100969097Y-64608319D01*
X102937507Y-66576730D01*
X102937514Y-66576736D01*
X103046213Y-66649366D01*
X103046218Y-66649369D01*
X103050683Y-66652352D01*
X103050689Y-66652356D01*
X103176443Y-66704445D01*
X103176447Y-66704445D01*
X103176448Y-66704446D01*
X103309939Y-66731000D01*
X103309942Y-66731000D01*
X108653057Y-66731000D01*
X108653058Y-66731000D01*
X108715149Y-66718648D01*
X108725389Y-66717055D01*
X108891255Y-66698368D01*
X109061522Y-66638789D01*
X109214262Y-66542816D01*
X109341816Y-66415262D01*
X109437789Y-66262522D01*
X109497368Y-66092255D01*
X109517565Y-65913000D01*
X109497368Y-65733745D01*
X109437789Y-65563478D01*
X109341816Y-65410738D01*
X109214262Y-65283184D01*
X109061523Y-65187211D01*
X108891254Y-65127631D01*
X108891249Y-65127630D01*
X108712004Y-65107435D01*
X108711996Y-65107435D01*
X108532750Y-65127630D01*
X108532745Y-65127631D01*
X108362476Y-65187211D01*
X108209737Y-65283184D01*
X108180241Y-65312681D01*
X108118918Y-65346166D01*
X108092560Y-65349000D01*
X103715584Y-65349000D01*
X103648545Y-65329315D01*
X103627903Y-65312681D01*
X101659492Y-63344269D01*
X101659485Y-63344263D01*
X101546312Y-63268644D01*
X101546309Y-63268642D01*
X101420561Y-63216556D01*
X101420551Y-63216553D01*
X101287060Y-63190000D01*
X101287058Y-63190000D01*
X72957613Y-63190000D01*
X72891641Y-63170994D01*
X72866523Y-63155211D01*
X72696254Y-63095631D01*
X72696249Y-63095630D01*
X72517004Y-63075435D01*
X72516996Y-63075435D01*
X72337750Y-63095630D01*
X72337745Y-63095631D01*
X72167476Y-63155211D01*
X72014737Y-63251184D01*
X71887184Y-63378737D01*
X71791211Y-63531476D01*
X71731631Y-63701745D01*
X71731630Y-63701750D01*
X71711435Y-63880996D01*
X40505500Y-63880996D01*
X40505500Y-61975996D01*
X69171435Y-61975996D01*
X69171435Y-61976003D01*
X69191630Y-62155249D01*
X69191631Y-62155254D01*
X69251211Y-62325523D01*
X69347184Y-62478262D01*
X69474738Y-62605816D01*
X69565080Y-62662582D01*
X69602359Y-62686006D01*
X69627478Y-62701789D01*
X69797745Y-62761368D01*
X69797750Y-62761369D01*
X69976996Y-62781565D01*
X69977000Y-62781565D01*
X69977004Y-62781565D01*
X70156249Y-62761369D01*
X70156252Y-62761368D01*
X70156255Y-62761368D01*
X70326522Y-62701789D01*
X70350560Y-62686685D01*
X70351641Y-62686006D01*
X70417613Y-62667000D01*
X101897416Y-62667000D01*
X101964455Y-62686685D01*
X101985097Y-62703319D01*
X103595400Y-64313622D01*
X103624760Y-64360348D01*
X103668210Y-64484520D01*
X103668212Y-64484524D01*
X103745998Y-64608319D01*
X103764184Y-64637262D01*
X103891738Y-64764816D01*
X104044478Y-64860789D01*
X104214745Y-64920368D01*
X104214750Y-64920369D01*
X104393996Y-64940565D01*
X104394000Y-64940565D01*
X104394004Y-64940565D01*
X104573249Y-64920369D01*
X104573252Y-64920368D01*
X104573255Y-64920368D01*
X104743522Y-64860789D01*
X104896262Y-64764816D01*
X105023816Y-64637262D01*
X105119789Y-64484522D01*
X105179368Y-64314255D01*
X105179369Y-64314249D01*
X105199565Y-64135003D01*
X105199565Y-64134996D01*
X105179369Y-63955750D01*
X105179368Y-63955745D01*
X105153215Y-63881003D01*
X105119789Y-63785478D01*
X105023816Y-63632738D01*
X104896262Y-63505184D01*
X104743522Y-63409211D01*
X104743520Y-63409210D01*
X104619348Y-63365760D01*
X104572622Y-63336400D01*
X102675492Y-61439269D01*
X102675485Y-61439263D01*
X102562312Y-61363644D01*
X102562309Y-61363642D01*
X102436561Y-61311556D01*
X102436551Y-61311553D01*
X102303060Y-61285000D01*
X102303058Y-61285000D01*
X70417613Y-61285000D01*
X70351641Y-61265994D01*
X70326523Y-61250211D01*
X70156254Y-61190631D01*
X70156249Y-61190630D01*
X69977004Y-61170435D01*
X69976996Y-61170435D01*
X69797750Y-61190630D01*
X69797745Y-61190631D01*
X69627476Y-61250211D01*
X69474737Y-61346184D01*
X69347184Y-61473737D01*
X69251211Y-61626476D01*
X69191631Y-61796745D01*
X69191630Y-61796750D01*
X69171435Y-61975996D01*
X40505500Y-61975996D01*
X40505500Y-58287628D01*
X63414600Y-58287628D01*
X63414600Y-58526971D01*
X63452039Y-58763351D01*
X63525998Y-58990974D01*
X63634654Y-59204219D01*
X63775321Y-59397832D01*
X63775325Y-59397837D01*
X63944562Y-59567074D01*
X63944567Y-59567078D01*
X64039928Y-59636361D01*
X64138184Y-59707748D01*
X64274061Y-59776981D01*
X64351425Y-59816401D01*
X64351427Y-59816401D01*
X64351430Y-59816403D01*
X64579049Y-59890361D01*
X64700835Y-59909649D01*
X64815429Y-59927800D01*
X64815434Y-59927800D01*
X65054771Y-59927800D01*
X65159235Y-59911253D01*
X65291151Y-59890361D01*
X65518770Y-59816403D01*
X65732016Y-59707748D01*
X65925639Y-59567073D01*
X66094873Y-59397839D01*
X66235548Y-59204216D01*
X66344203Y-58990970D01*
X66418161Y-58763351D01*
X66439053Y-58631435D01*
X66455600Y-58526971D01*
X66455600Y-58287628D01*
X66435744Y-58162270D01*
X66418161Y-58051249D01*
X66412436Y-58033628D01*
X90287800Y-58033628D01*
X90287800Y-58272971D01*
X90325239Y-58509351D01*
X90399198Y-58736974D01*
X90507854Y-58950219D01*
X90648521Y-59143832D01*
X90648525Y-59143837D01*
X90817762Y-59313074D01*
X90817767Y-59313078D01*
X90986647Y-59435776D01*
X91011384Y-59453748D01*
X91147261Y-59522981D01*
X91224625Y-59562401D01*
X91224627Y-59562401D01*
X91224630Y-59562403D01*
X91452249Y-59636361D01*
X91574035Y-59655649D01*
X91688629Y-59673800D01*
X91688634Y-59673800D01*
X91927971Y-59673800D01*
X92032435Y-59657253D01*
X92164351Y-59636361D01*
X92391970Y-59562403D01*
X92605216Y-59453748D01*
X92798839Y-59313073D01*
X92968073Y-59143839D01*
X93108748Y-58950216D01*
X93217403Y-58736970D01*
X93291361Y-58509351D01*
X93312253Y-58377435D01*
X93328800Y-58272971D01*
X93328800Y-58033628D01*
X93295538Y-57823625D01*
X93291361Y-57797249D01*
X93217403Y-57569630D01*
X93217401Y-57569627D01*
X93217401Y-57569625D01*
X93177981Y-57492261D01*
X93108748Y-57356384D01*
X93029655Y-57247521D01*
X92968078Y-57162767D01*
X92968074Y-57162762D01*
X92798837Y-56993525D01*
X92798832Y-56993521D01*
X92605219Y-56852854D01*
X92605218Y-56852853D01*
X92605216Y-56852852D01*
X92538624Y-56818921D01*
X92391974Y-56744198D01*
X92164351Y-56670239D01*
X91927971Y-56632800D01*
X91927966Y-56632800D01*
X91688634Y-56632800D01*
X91688629Y-56632800D01*
X91452248Y-56670239D01*
X91224625Y-56744198D01*
X91011380Y-56852854D01*
X90817767Y-56993521D01*
X90817762Y-56993525D01*
X90648525Y-57162762D01*
X90648521Y-57162767D01*
X90507854Y-57356380D01*
X90399198Y-57569625D01*
X90325239Y-57797248D01*
X90287800Y-58033628D01*
X66412436Y-58033628D01*
X66344203Y-57823630D01*
X66344201Y-57823627D01*
X66344201Y-57823625D01*
X66304781Y-57746261D01*
X66235548Y-57610384D01*
X66205935Y-57569625D01*
X66094878Y-57416767D01*
X66094874Y-57416762D01*
X65925637Y-57247525D01*
X65925632Y-57247521D01*
X65732019Y-57106854D01*
X65732018Y-57106853D01*
X65732016Y-57106852D01*
X65665424Y-57072921D01*
X65518774Y-56998198D01*
X65291151Y-56924239D01*
X65054771Y-56886800D01*
X65054766Y-56886800D01*
X64815434Y-56886800D01*
X64815429Y-56886800D01*
X64579048Y-56924239D01*
X64351425Y-56998198D01*
X64138180Y-57106854D01*
X63944567Y-57247521D01*
X63944562Y-57247525D01*
X63775325Y-57416762D01*
X63775321Y-57416767D01*
X63634654Y-57610380D01*
X63525998Y-57823625D01*
X63452039Y-58051248D01*
X63414600Y-58287628D01*
X40505500Y-58287628D01*
X40505500Y-53062796D01*
X51379000Y-53062796D01*
X51379000Y-54252204D01*
X51381902Y-54300919D01*
X51381902Y-54300923D01*
X51381903Y-54300924D01*
X51427995Y-54512809D01*
X51428000Y-54512825D01*
X51513357Y-54712153D01*
X51513360Y-54712158D01*
X51513362Y-54712163D01*
X51513365Y-54712168D01*
X51513366Y-54712169D01*
X51634912Y-54891752D01*
X51788247Y-55045087D01*
X51788250Y-55045089D01*
X51967837Y-55166638D01*
X51967844Y-55166641D01*
X51967846Y-55166642D01*
X52167174Y-55251999D01*
X52167181Y-55252001D01*
X52167183Y-55252002D01*
X52167184Y-55252002D01*
X52167190Y-55252004D01*
X52253468Y-55270772D01*
X52379081Y-55298098D01*
X52427796Y-55301000D01*
X52427808Y-55301000D01*
X52855192Y-55301000D01*
X52855204Y-55301000D01*
X52903919Y-55298098D01*
X53068859Y-55262217D01*
X53115809Y-55252004D01*
X53115811Y-55252003D01*
X53115817Y-55252002D01*
X53115821Y-55252000D01*
X53115825Y-55251999D01*
X53235698Y-55200666D01*
X53315163Y-55166638D01*
X53494750Y-55045089D01*
X53648089Y-54891750D01*
X53769638Y-54712163D01*
X53855002Y-54512817D01*
X53901098Y-54300919D01*
X53904000Y-54252204D01*
X53904000Y-53062796D01*
X53901098Y-53014081D01*
X53855002Y-52802183D01*
X53855001Y-52802181D01*
X53854999Y-52802174D01*
X53769642Y-52602846D01*
X53769641Y-52602844D01*
X53769638Y-52602837D01*
X53648089Y-52423250D01*
X53648087Y-52423247D01*
X53494752Y-52269912D01*
X53315169Y-52148366D01*
X53315168Y-52148365D01*
X53315163Y-52148362D01*
X53315158Y-52148360D01*
X53315153Y-52148357D01*
X53115825Y-52063000D01*
X53115809Y-52062995D01*
X52903924Y-52016903D01*
X52903923Y-52016902D01*
X52903919Y-52016902D01*
X52855204Y-52014000D01*
X52427796Y-52014000D01*
X52379081Y-52016902D01*
X52379076Y-52016902D01*
X52379075Y-52016903D01*
X52167190Y-52062995D01*
X52167174Y-52063000D01*
X51967846Y-52148357D01*
X51967830Y-52148366D01*
X51788247Y-52269912D01*
X51634912Y-52423247D01*
X51513366Y-52602830D01*
X51513357Y-52602846D01*
X51428000Y-52802174D01*
X51427995Y-52802190D01*
X51381903Y-53014075D01*
X51381902Y-53014081D01*
X51379000Y-53062796D01*
X40505500Y-53062796D01*
X40505500Y-40062796D01*
X51379000Y-40062796D01*
X51379000Y-41252204D01*
X51381902Y-41300919D01*
X51381902Y-41300923D01*
X51381903Y-41300924D01*
X51427995Y-41512809D01*
X51428000Y-41512825D01*
X51513357Y-41712153D01*
X51513360Y-41712158D01*
X51513362Y-41712163D01*
X51513365Y-41712168D01*
X51513366Y-41712169D01*
X51634912Y-41891752D01*
X51788247Y-42045087D01*
X51788250Y-42045089D01*
X51967837Y-42166638D01*
X51967844Y-42166641D01*
X51967846Y-42166642D01*
X52167174Y-42251999D01*
X52167181Y-42252001D01*
X52167183Y-42252002D01*
X52167184Y-42252002D01*
X52167190Y-42252004D01*
X52253468Y-42270772D01*
X52379081Y-42298098D01*
X52427796Y-42301000D01*
X52427808Y-42301000D01*
X52855192Y-42301000D01*
X52855204Y-42301000D01*
X52903919Y-42298098D01*
X53068859Y-42262217D01*
X53115809Y-42252004D01*
X53115811Y-42252003D01*
X53115817Y-42252002D01*
X53115821Y-42252000D01*
X53115825Y-42251999D01*
X53235698Y-42200666D01*
X53315163Y-42166638D01*
X53494750Y-42045089D01*
X53648089Y-41891750D01*
X53769638Y-41712163D01*
X53855002Y-41512817D01*
X53901098Y-41300919D01*
X53904000Y-41252204D01*
X53904000Y-40062796D01*
X53901098Y-40014081D01*
X53855002Y-39802183D01*
X53855001Y-39802181D01*
X53854999Y-39802174D01*
X53769642Y-39602846D01*
X53769641Y-39602844D01*
X53769638Y-39602837D01*
X53648089Y-39423250D01*
X53648087Y-39423247D01*
X53494752Y-39269912D01*
X53315169Y-39148366D01*
X53315168Y-39148365D01*
X53315163Y-39148362D01*
X53315158Y-39148360D01*
X53315153Y-39148357D01*
X53115825Y-39063000D01*
X53115809Y-39062995D01*
X52903924Y-39016903D01*
X52903923Y-39016902D01*
X52903919Y-39016902D01*
X52855204Y-39014000D01*
X52427796Y-39014000D01*
X52379081Y-39016902D01*
X52379076Y-39016902D01*
X52379075Y-39016903D01*
X52167190Y-39062995D01*
X52167174Y-39063000D01*
X51967846Y-39148357D01*
X51967830Y-39148366D01*
X51788247Y-39269912D01*
X51634912Y-39423247D01*
X51513366Y-39602830D01*
X51513357Y-39602846D01*
X51428000Y-39802174D01*
X51427995Y-39802190D01*
X51381903Y-40014075D01*
X51381902Y-40014081D01*
X51379000Y-40062796D01*
X40505500Y-40062796D01*
X40505500Y-33520186D01*
X42684500Y-33520186D01*
X42684500Y-33789813D01*
X42714686Y-34057719D01*
X42714688Y-34057731D01*
X42774684Y-34320594D01*
X42774687Y-34320602D01*
X42863734Y-34575082D01*
X42980714Y-34817994D01*
X42980716Y-34817997D01*
X43124162Y-35046289D01*
X43292266Y-35257085D01*
X43482915Y-35447734D01*
X43693711Y-35615838D01*
X43922003Y-35759284D01*
X44164921Y-35876267D01*
X44356049Y-35943145D01*
X44419397Y-35965312D01*
X44419405Y-35965315D01*
X44419408Y-35965315D01*
X44419409Y-35965316D01*
X44682268Y-36025312D01*
X44950187Y-36055499D01*
X44950188Y-36055500D01*
X44950191Y-36055500D01*
X45219812Y-36055500D01*
X45219812Y-36055499D01*
X45487732Y-36025312D01*
X45750591Y-35965316D01*
X46005079Y-35876267D01*
X46198277Y-35783228D01*
X76902000Y-35783228D01*
X76902000Y-36022571D01*
X76939439Y-36258951D01*
X77013398Y-36486574D01*
X77122054Y-36699819D01*
X77262721Y-36893432D01*
X77262725Y-36893437D01*
X77431962Y-37062674D01*
X77431967Y-37062678D01*
X77600847Y-37185376D01*
X77625584Y-37203348D01*
X77761461Y-37272581D01*
X77838825Y-37312001D01*
X77838827Y-37312001D01*
X77838830Y-37312003D01*
X78066449Y-37385961D01*
X78188235Y-37405249D01*
X78302829Y-37423400D01*
X78302834Y-37423400D01*
X78542171Y-37423400D01*
X78646635Y-37406853D01*
X78778551Y-37385961D01*
X79006170Y-37312003D01*
X79219416Y-37203348D01*
X79413039Y-37062673D01*
X79582273Y-36893439D01*
X79722948Y-36699816D01*
X79831603Y-36486570D01*
X79905561Y-36258951D01*
X79937784Y-36055500D01*
X79943000Y-36022571D01*
X79943000Y-35783228D01*
X79923144Y-35657870D01*
X79905561Y-35546849D01*
X79831603Y-35319230D01*
X79831601Y-35319227D01*
X79831601Y-35319225D01*
X79792181Y-35241861D01*
X79722948Y-35105984D01*
X79679576Y-35046287D01*
X79582278Y-34912367D01*
X79582274Y-34912362D01*
X79413037Y-34743125D01*
X79413032Y-34743121D01*
X79219419Y-34602454D01*
X79219418Y-34602453D01*
X79219416Y-34602452D01*
X79152824Y-34568521D01*
X79006174Y-34493798D01*
X78778551Y-34419839D01*
X78542171Y-34382400D01*
X78542166Y-34382400D01*
X78302834Y-34382400D01*
X78302829Y-34382400D01*
X78066448Y-34419839D01*
X77838825Y-34493798D01*
X77625580Y-34602454D01*
X77431967Y-34743121D01*
X77431962Y-34743125D01*
X77262725Y-34912362D01*
X77262721Y-34912367D01*
X77122054Y-35105980D01*
X77013398Y-35319225D01*
X76939439Y-35546848D01*
X76902000Y-35783228D01*
X46198277Y-35783228D01*
X46247997Y-35759284D01*
X46476289Y-35615838D01*
X46687085Y-35447734D01*
X46877734Y-35257085D01*
X47045838Y-35046289D01*
X47189284Y-34817997D01*
X47306267Y-34575079D01*
X47395316Y-34320591D01*
X47455312Y-34057732D01*
X47485500Y-33789809D01*
X47485500Y-33520191D01*
X47485499Y-33520186D01*
X108724500Y-33520186D01*
X108724500Y-33789813D01*
X108754686Y-34057719D01*
X108754688Y-34057731D01*
X108814684Y-34320594D01*
X108814687Y-34320602D01*
X108903734Y-34575082D01*
X109020714Y-34817994D01*
X109020716Y-34817997D01*
X109164162Y-35046289D01*
X109332266Y-35257085D01*
X109522915Y-35447734D01*
X109733711Y-35615838D01*
X109962003Y-35759284D01*
X110204921Y-35876267D01*
X110396049Y-35943145D01*
X110459397Y-35965312D01*
X110459405Y-35965315D01*
X110459408Y-35965315D01*
X110459409Y-35965316D01*
X110722268Y-36025312D01*
X110990187Y-36055499D01*
X110990188Y-36055500D01*
X110990191Y-36055500D01*
X111259812Y-36055500D01*
X111259812Y-36055499D01*
X111527732Y-36025312D01*
X111790591Y-35965316D01*
X112045079Y-35876267D01*
X112287997Y-35759284D01*
X112516289Y-35615838D01*
X112727085Y-35447734D01*
X112917734Y-35257085D01*
X113085838Y-35046289D01*
X113229284Y-34817997D01*
X113346267Y-34575079D01*
X113435316Y-34320591D01*
X113495312Y-34057732D01*
X113525500Y-33789809D01*
X113525500Y-33520191D01*
X113495312Y-33252268D01*
X113435316Y-32989409D01*
X113346267Y-32734921D01*
X113229284Y-32492003D01*
X113085838Y-32263711D01*
X112917734Y-32052915D01*
X112727085Y-31862266D01*
X112516289Y-31694162D01*
X112287997Y-31550716D01*
X112287994Y-31550714D01*
X112045082Y-31433734D01*
X111790602Y-31344687D01*
X111790594Y-31344684D01*
X111593446Y-31299687D01*
X111527732Y-31284688D01*
X111527728Y-31284687D01*
X111527719Y-31284686D01*
X111259813Y-31254500D01*
X111259809Y-31254500D01*
X110990191Y-31254500D01*
X110990186Y-31254500D01*
X110722280Y-31284686D01*
X110722268Y-31284688D01*
X110459405Y-31344684D01*
X110459397Y-31344687D01*
X110204917Y-31433734D01*
X109962005Y-31550714D01*
X109733712Y-31694161D01*
X109522915Y-31862265D01*
X109332265Y-32052915D01*
X109164161Y-32263712D01*
X109020714Y-32492005D01*
X108903734Y-32734917D01*
X108814687Y-32989397D01*
X108814684Y-32989405D01*
X108754688Y-33252268D01*
X108754686Y-33252280D01*
X108724500Y-33520186D01*
X47485499Y-33520186D01*
X47455312Y-33252268D01*
X47395316Y-32989409D01*
X47306267Y-32734921D01*
X47189284Y-32492003D01*
X47045838Y-32263711D01*
X46877734Y-32052915D01*
X46687085Y-31862266D01*
X46476289Y-31694162D01*
X46247997Y-31550716D01*
X46247994Y-31550714D01*
X46005082Y-31433734D01*
X45750602Y-31344687D01*
X45750594Y-31344684D01*
X45553446Y-31299687D01*
X45487732Y-31284688D01*
X45487728Y-31284687D01*
X45487719Y-31284686D01*
X45219813Y-31254500D01*
X45219809Y-31254500D01*
X44950191Y-31254500D01*
X44950186Y-31254500D01*
X44682280Y-31284686D01*
X44682268Y-31284688D01*
X44419405Y-31344684D01*
X44419397Y-31344687D01*
X44164917Y-31433734D01*
X43922005Y-31550714D01*
X43693712Y-31694161D01*
X43482915Y-31862265D01*
X43292265Y-32052915D01*
X43124161Y-32263712D01*
X42980714Y-32492005D01*
X42863734Y-32734917D01*
X42774687Y-32989397D01*
X42774684Y-32989405D01*
X42714688Y-33252268D01*
X42714686Y-33252280D01*
X42684500Y-33520186D01*
X40505500Y-33520186D01*
X40505500Y-29199500D01*
X40525185Y-29132461D01*
X40577989Y-29086706D01*
X40629500Y-29075500D01*
X115580500Y-29075500D01*
X115647539Y-29095185D01*
G37*
%TD.AperFunction*%
%TD*%
M02*
