%TF.GenerationSoftware,KiCad,Pcbnew,8.0.6-8.0.6-0~ubuntu22.04.1*%
%TF.CreationDate,2024-11-09T10:11:16-05:00*%
%TF.ProjectId,girl_scouts_blinker,6769726c-5f73-4636-9f75-74735f626c69,rev?*%
%TF.SameCoordinates,Original*%
%TF.FileFunction,Copper,L2,Bot*%
%TF.FilePolarity,Positive*%
%FSLAX46Y46*%
G04 Gerber Fmt 4.6, Leading zero omitted, Abs format (unit mm)*
G04 Created by KiCad (PCBNEW 8.0.6-8.0.6-0~ubuntu22.04.1) date 2024-11-09 10:11:16*
%MOMM*%
%LPD*%
G01*
G04 APERTURE LIST*
%TA.AperFunction,ComponentPad*%
%ADD10R,1.800000X1.800000*%
%TD*%
%TA.AperFunction,ComponentPad*%
%ADD11C,1.800000*%
%TD*%
%TA.AperFunction,ComponentPad*%
%ADD12R,1.700000X1.700000*%
%TD*%
%TA.AperFunction,ComponentPad*%
%ADD13O,1.700000X1.700000*%
%TD*%
%TA.AperFunction,ComponentPad*%
%ADD14C,1.600000*%
%TD*%
%TA.AperFunction,ComponentPad*%
%ADD15R,2.200000X2.200000*%
%TD*%
%TA.AperFunction,ComponentPad*%
%ADD16O,2.200000X2.200000*%
%TD*%
%TA.AperFunction,ComponentPad*%
%ADD17O,1.600000X1.600000*%
%TD*%
%TA.AperFunction,ComponentPad*%
%ADD18R,1.600000X1.600000*%
%TD*%
%TA.AperFunction,ComponentPad*%
%ADD19C,1.397000*%
%TD*%
%TA.AperFunction,ComponentPad*%
%ADD20C,1.524000*%
%TD*%
%TA.AperFunction,ComponentPad*%
%ADD21C,3.500000*%
%TD*%
%TA.AperFunction,ViaPad*%
%ADD22C,0.600000*%
%TD*%
%TA.AperFunction,Conductor*%
%ADD23C,0.381000*%
%TD*%
G04 APERTURE END LIST*
D10*
%TO.P,D3,1,DOUT*%
%TO.N,Net-(D3-DOUT)*%
X88341200Y-70199850D03*
D11*
%TO.P,D3,2,GND*%
%TO.N,GND*%
X88341200Y-68040850D03*
%TO.P,D3,3,VDD*%
%TO.N,+5V*%
X88341200Y-65881850D03*
%TO.P,D3,4,DIN*%
%TO.N,Net-(D1-DOUT)*%
X88341200Y-63722850D03*
%TD*%
D12*
%TO.P,J1,1,MISO*%
%TO.N,/MISO*%
X80899000Y-47244000D03*
D13*
%TO.P,J1,2,VCC*%
%TO.N,+5V*%
X83439000Y-47244000D03*
%TO.P,J1,3,SCK*%
%TO.N,/SCK*%
X80899000Y-49784000D03*
%TO.P,J1,4,MOSI*%
%TO.N,/MOSI*%
X83439000Y-49784000D03*
%TO.P,J1,5,~{RST}*%
%TO.N,/nRST*%
X80899000Y-52324000D03*
%TO.P,J1,6,GND*%
%TO.N,GND*%
X83439000Y-52324000D03*
%TD*%
D12*
%TO.P,BT1,1,+*%
%TO.N,+6V*%
X50165000Y-66120000D03*
D13*
%TO.P,BT1,2,-*%
%TO.N,GND*%
X50165000Y-68660000D03*
%TD*%
D10*
%TO.P,D4,1,DOUT*%
%TO.N,unconnected-(D4-DOUT-Pad1)*%
X101041200Y-70072850D03*
D11*
%TO.P,D4,2,GND*%
%TO.N,GND*%
X101041200Y-67913850D03*
%TO.P,D4,3,VDD*%
%TO.N,+5V*%
X101041200Y-65754850D03*
%TO.P,D4,4,DIN*%
%TO.N,Net-(D3-DOUT)*%
X101041200Y-63595850D03*
%TD*%
D14*
%TO.P,C2,1*%
%TO.N,+5V*%
X57150000Y-46990000D03*
%TO.P,C2,2*%
%TO.N,GND*%
X57150000Y-51990000D03*
%TD*%
D10*
%TO.P,D1,1,DOUT*%
%TO.N,Net-(D1-DOUT)*%
X74371200Y-70199850D03*
D11*
%TO.P,D1,2,GND*%
%TO.N,GND*%
X74371200Y-68040850D03*
%TO.P,D1,3,VDD*%
%TO.N,+5V*%
X74371200Y-65881850D03*
%TO.P,D1,4,DIN*%
%TO.N,Net-(D1-DIN)*%
X74371200Y-63722850D03*
%TD*%
D15*
%TO.P,D2,1,K*%
%TO.N,+5V*%
X61595000Y-59770000D03*
D16*
%TO.P,D2,2,A*%
%TO.N,Net-(D2-A)*%
X51435000Y-59770000D03*
%TD*%
D14*
%TO.P,R1,1*%
%TO.N,+5V*%
X77597000Y-57404000D03*
D17*
%TO.P,R1,2*%
%TO.N,/nRST*%
X67437000Y-57404000D03*
%TD*%
D18*
%TO.P,U1,1,~{RESET}/PB5*%
%TO.N,/nRST*%
X63002000Y-53457000D03*
D17*
%TO.P,U1,2,XTAL1/PB3*%
%TO.N,Net-(D1-DIN)*%
X65542000Y-53457000D03*
%TO.P,U1,3,XTAL2/PB4*%
%TO.N,unconnected-(U1-XTAL2{slash}PB4-Pad3)*%
X68082000Y-53457000D03*
%TO.P,U1,4,GND*%
%TO.N,GND*%
X70622000Y-53457000D03*
%TO.P,U1,5,AREF/PB0*%
%TO.N,/MOSI*%
X70622000Y-45837000D03*
%TO.P,U1,6,PB1*%
%TO.N,/MISO*%
X68082000Y-45837000D03*
%TO.P,U1,7,PB2*%
%TO.N,/SCK*%
X65542000Y-45837000D03*
%TO.P,U1,8,VCC*%
%TO.N,+5V*%
X63002000Y-45837000D03*
%TD*%
D14*
%TO.P,C1,1*%
%TO.N,+5V*%
X109220000Y-64175000D03*
%TO.P,C1,2*%
%TO.N,GND*%
X109220000Y-69175000D03*
%TD*%
D19*
%TO.P,SW2,1,1*%
%TO.N,/MISO*%
X101752400Y-76784200D03*
%TO.P,SW2,2,2*%
%TO.N,GND*%
X101752400Y-81280000D03*
%TO.P,SW2,3*%
%TO.N,N/C*%
X95250000Y-81280000D03*
%TO.P,SW2,4*%
X95250000Y-76784200D03*
%TD*%
D20*
%TO.P,SW3,1,A*%
%TO.N,+6V*%
X61659000Y-79121000D03*
%TO.P,SW3,2,B*%
%TO.N,Net-(D2-A)*%
X65659000Y-79121000D03*
%TO.P,SW3,3*%
%TO.N,N/C*%
X69659000Y-79121000D03*
D21*
%TO.P,SW3,4*%
X57659000Y-79121000D03*
%TO.P,SW3,5*%
X73659000Y-79121000D03*
%TD*%
D19*
%TO.P,SW1,1,1*%
%TO.N,/MOSI*%
X87782400Y-76784200D03*
%TO.P,SW1,2,2*%
%TO.N,GND*%
X87782400Y-81280000D03*
%TO.P,SW1,3*%
%TO.N,N/C*%
X81280000Y-81280000D03*
%TO.P,SW1,4*%
X81280000Y-76784200D03*
%TD*%
D22*
%TO.N,Net-(D1-DIN)*%
X65659000Y-63754000D03*
%TO.N,/MISO*%
X82169000Y-73279000D03*
%TD*%
D23*
%TO.N,Net-(D1-DIN)*%
X65542000Y-53457000D02*
X65542000Y-63637000D01*
X65542000Y-63637000D02*
X65659000Y-63754000D01*
%TO.N,/MOSI*%
X85979000Y-74980800D02*
X87782400Y-76784200D01*
X85979000Y-52324000D02*
X85979000Y-74980800D01*
X83439000Y-49784000D02*
X85979000Y-52324000D01*
%TO.N,/MISO*%
X82139500Y-48484500D02*
X82139500Y-73249500D01*
X80899000Y-47244000D02*
X82139500Y-48484500D01*
X82139500Y-73249500D02*
X82169000Y-73279000D01*
%TD*%
%TA.AperFunction,Conductor*%
%TO.N,+5V*%
G36*
X113742539Y-43700185D02*
G01*
X113788294Y-43752989D01*
X113799500Y-43804500D01*
X113799500Y-85735500D01*
X113779815Y-85802539D01*
X113727011Y-85848294D01*
X113675500Y-85859500D01*
X43804500Y-85859500D01*
X43737461Y-85839815D01*
X43691706Y-85787011D01*
X43680500Y-85735500D01*
X43680500Y-81145186D01*
X45859500Y-81145186D01*
X45859500Y-81414813D01*
X45889686Y-81682719D01*
X45889688Y-81682731D01*
X45949684Y-81945594D01*
X45949687Y-81945602D01*
X46038734Y-82200082D01*
X46155714Y-82442994D01*
X46155716Y-82442997D01*
X46299162Y-82671289D01*
X46467266Y-82882085D01*
X46657915Y-83072734D01*
X46868711Y-83240838D01*
X47097003Y-83384284D01*
X47339921Y-83501267D01*
X47531049Y-83568145D01*
X47594397Y-83590312D01*
X47594405Y-83590315D01*
X47594408Y-83590315D01*
X47594409Y-83590316D01*
X47857268Y-83650312D01*
X48125187Y-83680499D01*
X48125188Y-83680500D01*
X48125191Y-83680500D01*
X48394812Y-83680500D01*
X48394812Y-83680499D01*
X48662732Y-83650312D01*
X48925591Y-83590316D01*
X49180079Y-83501267D01*
X49422997Y-83384284D01*
X49651289Y-83240838D01*
X49862085Y-83072734D01*
X50052734Y-82882085D01*
X50220838Y-82671289D01*
X50364284Y-82442997D01*
X50481267Y-82200079D01*
X50570316Y-81945591D01*
X50630312Y-81682732D01*
X50660500Y-81414809D01*
X50660500Y-81145191D01*
X50630312Y-80877268D01*
X50570316Y-80614409D01*
X50481267Y-80359921D01*
X50364284Y-80117003D01*
X50220838Y-79888711D01*
X50052734Y-79677915D01*
X49862085Y-79487266D01*
X49651289Y-79319162D01*
X49422997Y-79175716D01*
X49422994Y-79175714D01*
X49309362Y-79120992D01*
X55403671Y-79120992D01*
X55403671Y-79121007D01*
X55422964Y-79415363D01*
X55422965Y-79415373D01*
X55422966Y-79415380D01*
X55450628Y-79554450D01*
X55480518Y-79704716D01*
X55480521Y-79704730D01*
X55575349Y-79984080D01*
X55705825Y-80248660D01*
X55705829Y-80248667D01*
X55869725Y-80493955D01*
X56064241Y-80715758D01*
X56211619Y-80845005D01*
X56286043Y-80910273D01*
X56531335Y-81074172D01*
X56795923Y-81204652D01*
X57075278Y-81299481D01*
X57364620Y-81357034D01*
X57392888Y-81358886D01*
X57658993Y-81376329D01*
X57659000Y-81376329D01*
X57659007Y-81376329D01*
X57894675Y-81360881D01*
X57953380Y-81357034D01*
X58242722Y-81299481D01*
X58522077Y-81204652D01*
X58786665Y-81074172D01*
X59031957Y-80910273D01*
X59253758Y-80715758D01*
X59448273Y-80493957D01*
X59612172Y-80248665D01*
X59742652Y-79984077D01*
X59837481Y-79704722D01*
X59895034Y-79415380D01*
X59914329Y-79121000D01*
X59914329Y-79120997D01*
X60391677Y-79120997D01*
X60391677Y-79121002D01*
X60410929Y-79341062D01*
X60410930Y-79341070D01*
X60468104Y-79554445D01*
X60468105Y-79554447D01*
X60468106Y-79554450D01*
X60561466Y-79754662D01*
X60561468Y-79754666D01*
X60688170Y-79935615D01*
X60688175Y-79935621D01*
X60844378Y-80091824D01*
X60844384Y-80091829D01*
X61025333Y-80218531D01*
X61025335Y-80218532D01*
X61025338Y-80218534D01*
X61225550Y-80311894D01*
X61438932Y-80369070D01*
X61596123Y-80382822D01*
X61658998Y-80388323D01*
X61659000Y-80388323D01*
X61659002Y-80388323D01*
X61714017Y-80383509D01*
X61879068Y-80369070D01*
X62092450Y-80311894D01*
X62292662Y-80218534D01*
X62473620Y-80091826D01*
X62629826Y-79935620D01*
X62756534Y-79754662D01*
X62849894Y-79554450D01*
X62907070Y-79341068D01*
X62921536Y-79175714D01*
X62926323Y-79121002D01*
X62926323Y-79120997D01*
X64391677Y-79120997D01*
X64391677Y-79121002D01*
X64410929Y-79341062D01*
X64410930Y-79341070D01*
X64468104Y-79554445D01*
X64468105Y-79554447D01*
X64468106Y-79554450D01*
X64561466Y-79754662D01*
X64561468Y-79754666D01*
X64688170Y-79935615D01*
X64688175Y-79935621D01*
X64844378Y-80091824D01*
X64844384Y-80091829D01*
X65025333Y-80218531D01*
X65025335Y-80218532D01*
X65025338Y-80218534D01*
X65225550Y-80311894D01*
X65438932Y-80369070D01*
X65596123Y-80382822D01*
X65658998Y-80388323D01*
X65659000Y-80388323D01*
X65659002Y-80388323D01*
X65714017Y-80383509D01*
X65879068Y-80369070D01*
X66092450Y-80311894D01*
X66292662Y-80218534D01*
X66473620Y-80091826D01*
X66629826Y-79935620D01*
X66756534Y-79754662D01*
X66849894Y-79554450D01*
X66907070Y-79341068D01*
X66921536Y-79175714D01*
X66926323Y-79121002D01*
X66926323Y-79120997D01*
X68391677Y-79120997D01*
X68391677Y-79121002D01*
X68410929Y-79341062D01*
X68410930Y-79341070D01*
X68468104Y-79554445D01*
X68468105Y-79554447D01*
X68468106Y-79554450D01*
X68561466Y-79754662D01*
X68561468Y-79754666D01*
X68688170Y-79935615D01*
X68688175Y-79935621D01*
X68844378Y-80091824D01*
X68844384Y-80091829D01*
X69025333Y-80218531D01*
X69025335Y-80218532D01*
X69025338Y-80218534D01*
X69225550Y-80311894D01*
X69438932Y-80369070D01*
X69596123Y-80382822D01*
X69658998Y-80388323D01*
X69659000Y-80388323D01*
X69659002Y-80388323D01*
X69714017Y-80383509D01*
X69879068Y-80369070D01*
X70092450Y-80311894D01*
X70292662Y-80218534D01*
X70473620Y-80091826D01*
X70629826Y-79935620D01*
X70756534Y-79754662D01*
X70849894Y-79554450D01*
X70907070Y-79341068D01*
X70921536Y-79175714D01*
X70926323Y-79121002D01*
X70926323Y-79120997D01*
X70926323Y-79120992D01*
X71403671Y-79120992D01*
X71403671Y-79121007D01*
X71422964Y-79415363D01*
X71422965Y-79415373D01*
X71422966Y-79415380D01*
X71450628Y-79554450D01*
X71480518Y-79704716D01*
X71480521Y-79704730D01*
X71575349Y-79984080D01*
X71705825Y-80248660D01*
X71705829Y-80248667D01*
X71869725Y-80493955D01*
X72064241Y-80715758D01*
X72211619Y-80845005D01*
X72286043Y-80910273D01*
X72531335Y-81074172D01*
X72795923Y-81204652D01*
X73075278Y-81299481D01*
X73364620Y-81357034D01*
X73392888Y-81358886D01*
X73658993Y-81376329D01*
X73659000Y-81376329D01*
X73659007Y-81376329D01*
X73894675Y-81360881D01*
X73953380Y-81357034D01*
X74242722Y-81299481D01*
X74300114Y-81279999D01*
X80075863Y-81279999D01*
X80075863Y-81280000D01*
X80096365Y-81501259D01*
X80096366Y-81501261D01*
X80157174Y-81714979D01*
X80157180Y-81714994D01*
X80256222Y-81913896D01*
X80390133Y-82091224D01*
X80554344Y-82240921D01*
X80554346Y-82240923D01*
X80743266Y-82357897D01*
X80743272Y-82357900D01*
X80772206Y-82369109D01*
X80950472Y-82438170D01*
X81168896Y-82479000D01*
X81168899Y-82479000D01*
X81391101Y-82479000D01*
X81391104Y-82479000D01*
X81609528Y-82438170D01*
X81816730Y-82357899D01*
X82005655Y-82240922D01*
X82169868Y-82091222D01*
X82303778Y-81913896D01*
X82402824Y-81714984D01*
X82463634Y-81501260D01*
X82484137Y-81280000D01*
X82484137Y-81279999D01*
X86578263Y-81279999D01*
X86578263Y-81280000D01*
X86598765Y-81501259D01*
X86598766Y-81501261D01*
X86659574Y-81714979D01*
X86659580Y-81714994D01*
X86758622Y-81913896D01*
X86892533Y-82091224D01*
X87056744Y-82240921D01*
X87056746Y-82240923D01*
X87245666Y-82357897D01*
X87245672Y-82357900D01*
X87274606Y-82369109D01*
X87452872Y-82438170D01*
X87671296Y-82479000D01*
X87671299Y-82479000D01*
X87893501Y-82479000D01*
X87893504Y-82479000D01*
X88111928Y-82438170D01*
X88319130Y-82357899D01*
X88508055Y-82240922D01*
X88672268Y-82091222D01*
X88806178Y-81913896D01*
X88905224Y-81714984D01*
X88966034Y-81501260D01*
X88986537Y-81280000D01*
X88986537Y-81279999D01*
X94045863Y-81279999D01*
X94045863Y-81280000D01*
X94066365Y-81501259D01*
X94066366Y-81501261D01*
X94127174Y-81714979D01*
X94127180Y-81714994D01*
X94226222Y-81913896D01*
X94360133Y-82091224D01*
X94524344Y-82240921D01*
X94524346Y-82240923D01*
X94713266Y-82357897D01*
X94713272Y-82357900D01*
X94742206Y-82369109D01*
X94920472Y-82438170D01*
X95138896Y-82479000D01*
X95138899Y-82479000D01*
X95361101Y-82479000D01*
X95361104Y-82479000D01*
X95579528Y-82438170D01*
X95786730Y-82357899D01*
X95975655Y-82240922D01*
X96139868Y-82091222D01*
X96273778Y-81913896D01*
X96372824Y-81714984D01*
X96433634Y-81501260D01*
X96454137Y-81280000D01*
X96454137Y-81279999D01*
X100548263Y-81279999D01*
X100548263Y-81280000D01*
X100568765Y-81501259D01*
X100568766Y-81501261D01*
X100629574Y-81714979D01*
X100629580Y-81714994D01*
X100728622Y-81913896D01*
X100862533Y-82091224D01*
X101026744Y-82240921D01*
X101026746Y-82240923D01*
X101215666Y-82357897D01*
X101215672Y-82357900D01*
X101244606Y-82369109D01*
X101422872Y-82438170D01*
X101641296Y-82479000D01*
X101641299Y-82479000D01*
X101863501Y-82479000D01*
X101863504Y-82479000D01*
X102081928Y-82438170D01*
X102289130Y-82357899D01*
X102478055Y-82240922D01*
X102642268Y-82091222D01*
X102776178Y-81913896D01*
X102875224Y-81714984D01*
X102936034Y-81501260D01*
X102956537Y-81280000D01*
X102944044Y-81145186D01*
X106819500Y-81145186D01*
X106819500Y-81414813D01*
X106849686Y-81682719D01*
X106849688Y-81682731D01*
X106909684Y-81945594D01*
X106909687Y-81945602D01*
X106998734Y-82200082D01*
X107115714Y-82442994D01*
X107115716Y-82442997D01*
X107259162Y-82671289D01*
X107427266Y-82882085D01*
X107617915Y-83072734D01*
X107828711Y-83240838D01*
X108057003Y-83384284D01*
X108299921Y-83501267D01*
X108491049Y-83568145D01*
X108554397Y-83590312D01*
X108554405Y-83590315D01*
X108554408Y-83590315D01*
X108554409Y-83590316D01*
X108817268Y-83650312D01*
X109085187Y-83680499D01*
X109085188Y-83680500D01*
X109085191Y-83680500D01*
X109354812Y-83680500D01*
X109354812Y-83680499D01*
X109622732Y-83650312D01*
X109885591Y-83590316D01*
X110140079Y-83501267D01*
X110382997Y-83384284D01*
X110611289Y-83240838D01*
X110822085Y-83072734D01*
X111012734Y-82882085D01*
X111180838Y-82671289D01*
X111324284Y-82442997D01*
X111441267Y-82200079D01*
X111530316Y-81945591D01*
X111590312Y-81682732D01*
X111620500Y-81414809D01*
X111620500Y-81145191D01*
X111590312Y-80877268D01*
X111530316Y-80614409D01*
X111441267Y-80359921D01*
X111324284Y-80117003D01*
X111180838Y-79888711D01*
X111012734Y-79677915D01*
X110822085Y-79487266D01*
X110611289Y-79319162D01*
X110382997Y-79175716D01*
X110382994Y-79175714D01*
X110140082Y-79058734D01*
X109885602Y-78969687D01*
X109885594Y-78969684D01*
X109688446Y-78924687D01*
X109622732Y-78909688D01*
X109622728Y-78909687D01*
X109622719Y-78909686D01*
X109354813Y-78879500D01*
X109354809Y-78879500D01*
X109085191Y-78879500D01*
X109085186Y-78879500D01*
X108817280Y-78909686D01*
X108817268Y-78909688D01*
X108554405Y-78969684D01*
X108554397Y-78969687D01*
X108299917Y-79058734D01*
X108057005Y-79175714D01*
X107828712Y-79319161D01*
X107617915Y-79487265D01*
X107427265Y-79677915D01*
X107259161Y-79888712D01*
X107115714Y-80117005D01*
X106998734Y-80359917D01*
X106909687Y-80614397D01*
X106909684Y-80614405D01*
X106849688Y-80877268D01*
X106849686Y-80877280D01*
X106819500Y-81145186D01*
X102944044Y-81145186D01*
X102936034Y-81058740D01*
X102936033Y-81058738D01*
X102893791Y-80910274D01*
X102875224Y-80845016D01*
X102776178Y-80646104D01*
X102642268Y-80468778D01*
X102642266Y-80468775D01*
X102478055Y-80319078D01*
X102478053Y-80319076D01*
X102289133Y-80202102D01*
X102289127Y-80202099D01*
X102181480Y-80160397D01*
X102081928Y-80121830D01*
X101863504Y-80081000D01*
X101641296Y-80081000D01*
X101422872Y-80121830D01*
X101373095Y-80141113D01*
X101215672Y-80202099D01*
X101215666Y-80202102D01*
X101026746Y-80319076D01*
X101026744Y-80319078D01*
X100862533Y-80468775D01*
X100728622Y-80646103D01*
X100629580Y-80845005D01*
X100629574Y-80845020D01*
X100568766Y-81058738D01*
X100568765Y-81058740D01*
X100548263Y-81279999D01*
X96454137Y-81279999D01*
X96441644Y-81145186D01*
X96433634Y-81058740D01*
X96433633Y-81058738D01*
X96391391Y-80910274D01*
X96372824Y-80845016D01*
X96273778Y-80646104D01*
X96139868Y-80468778D01*
X96139866Y-80468775D01*
X95975655Y-80319078D01*
X95975653Y-80319076D01*
X95786733Y-80202102D01*
X95786727Y-80202099D01*
X95679080Y-80160397D01*
X95579528Y-80121830D01*
X95361104Y-80081000D01*
X95138896Y-80081000D01*
X94920472Y-80121830D01*
X94870695Y-80141113D01*
X94713272Y-80202099D01*
X94713266Y-80202102D01*
X94524346Y-80319076D01*
X94524344Y-80319078D01*
X94360133Y-80468775D01*
X94226222Y-80646103D01*
X94127180Y-80845005D01*
X94127174Y-80845020D01*
X94066366Y-81058738D01*
X94066365Y-81058740D01*
X94045863Y-81279999D01*
X88986537Y-81279999D01*
X88974044Y-81145186D01*
X88966034Y-81058740D01*
X88966033Y-81058738D01*
X88923791Y-80910274D01*
X88905224Y-80845016D01*
X88806178Y-80646104D01*
X88672268Y-80468778D01*
X88672266Y-80468775D01*
X88508055Y-80319078D01*
X88508053Y-80319076D01*
X88319133Y-80202102D01*
X88319127Y-80202099D01*
X88211480Y-80160397D01*
X88111928Y-80121830D01*
X87893504Y-80081000D01*
X87671296Y-80081000D01*
X87452872Y-80121830D01*
X87403095Y-80141113D01*
X87245672Y-80202099D01*
X87245666Y-80202102D01*
X87056746Y-80319076D01*
X87056744Y-80319078D01*
X86892533Y-80468775D01*
X86758622Y-80646103D01*
X86659580Y-80845005D01*
X86659574Y-80845020D01*
X86598766Y-81058738D01*
X86598765Y-81058740D01*
X86578263Y-81279999D01*
X82484137Y-81279999D01*
X82471644Y-81145186D01*
X82463634Y-81058740D01*
X82463633Y-81058738D01*
X82421391Y-80910274D01*
X82402824Y-80845016D01*
X82303778Y-80646104D01*
X82169868Y-80468778D01*
X82169866Y-80468775D01*
X82005655Y-80319078D01*
X82005653Y-80319076D01*
X81816733Y-80202102D01*
X81816727Y-80202099D01*
X81709080Y-80160397D01*
X81609528Y-80121830D01*
X81391104Y-80081000D01*
X81168896Y-80081000D01*
X80950472Y-80121830D01*
X80900695Y-80141113D01*
X80743272Y-80202099D01*
X80743266Y-80202102D01*
X80554346Y-80319076D01*
X80554344Y-80319078D01*
X80390133Y-80468775D01*
X80256222Y-80646103D01*
X80157180Y-80845005D01*
X80157174Y-80845020D01*
X80096366Y-81058738D01*
X80096365Y-81058740D01*
X80075863Y-81279999D01*
X74300114Y-81279999D01*
X74522077Y-81204652D01*
X74786665Y-81074172D01*
X75031957Y-80910273D01*
X75253758Y-80715758D01*
X75448273Y-80493957D01*
X75612172Y-80248665D01*
X75742652Y-79984077D01*
X75837481Y-79704722D01*
X75895034Y-79415380D01*
X75914329Y-79121000D01*
X75914329Y-79120997D01*
X75914329Y-79120992D01*
X75895035Y-78826636D01*
X75895034Y-78826620D01*
X75837481Y-78537278D01*
X75742652Y-78257923D01*
X75612172Y-77993336D01*
X75605399Y-77983200D01*
X75557042Y-77910829D01*
X75448273Y-77748043D01*
X75405655Y-77699447D01*
X75253758Y-77526241D01*
X75031955Y-77331725D01*
X74786667Y-77167829D01*
X74786660Y-77167825D01*
X74522080Y-77037349D01*
X74242730Y-76942521D01*
X74242724Y-76942519D01*
X74242722Y-76942519D01*
X73953380Y-76884966D01*
X73953373Y-76884965D01*
X73953363Y-76884964D01*
X73659007Y-76865671D01*
X73658993Y-76865671D01*
X73364636Y-76884964D01*
X73364624Y-76884965D01*
X73364620Y-76884966D01*
X73364612Y-76884967D01*
X73364609Y-76884968D01*
X73075283Y-76942518D01*
X73075269Y-76942521D01*
X72795919Y-77037349D01*
X72531334Y-77167828D01*
X72286041Y-77331728D01*
X72064241Y-77526241D01*
X71869728Y-77748041D01*
X71705828Y-77993334D01*
X71575349Y-78257919D01*
X71480521Y-78537269D01*
X71480518Y-78537283D01*
X71422968Y-78826609D01*
X71422964Y-78826636D01*
X71403671Y-79120992D01*
X70926323Y-79120992D01*
X70907836Y-78909688D01*
X70907070Y-78900932D01*
X70849894Y-78687550D01*
X70756534Y-78487339D01*
X70629826Y-78306380D01*
X70473620Y-78150174D01*
X70473616Y-78150171D01*
X70473615Y-78150170D01*
X70292666Y-78023468D01*
X70292662Y-78023466D01*
X70292660Y-78023465D01*
X70092450Y-77930106D01*
X70092447Y-77930105D01*
X70092445Y-77930104D01*
X69879070Y-77872930D01*
X69879062Y-77872929D01*
X69659002Y-77853677D01*
X69658998Y-77853677D01*
X69438937Y-77872929D01*
X69438929Y-77872930D01*
X69225554Y-77930104D01*
X69225548Y-77930107D01*
X69025340Y-78023465D01*
X69025338Y-78023466D01*
X68844377Y-78150175D01*
X68688175Y-78306377D01*
X68561466Y-78487338D01*
X68561465Y-78487340D01*
X68468107Y-78687548D01*
X68468104Y-78687554D01*
X68410930Y-78900929D01*
X68410929Y-78900937D01*
X68391677Y-79120997D01*
X66926323Y-79120997D01*
X66907836Y-78909688D01*
X66907070Y-78900932D01*
X66849894Y-78687550D01*
X66756534Y-78487339D01*
X66629826Y-78306380D01*
X66473620Y-78150174D01*
X66473616Y-78150171D01*
X66473615Y-78150170D01*
X66292666Y-78023468D01*
X66292662Y-78023466D01*
X66292660Y-78023465D01*
X66092450Y-77930106D01*
X66092447Y-77930105D01*
X66092445Y-77930104D01*
X65879070Y-77872930D01*
X65879062Y-77872929D01*
X65659002Y-77853677D01*
X65658998Y-77853677D01*
X65438937Y-77872929D01*
X65438929Y-77872930D01*
X65225554Y-77930104D01*
X65225548Y-77930107D01*
X65025340Y-78023465D01*
X65025338Y-78023466D01*
X64844377Y-78150175D01*
X64688175Y-78306377D01*
X64561466Y-78487338D01*
X64561465Y-78487340D01*
X64468107Y-78687548D01*
X64468104Y-78687554D01*
X64410930Y-78900929D01*
X64410929Y-78900937D01*
X64391677Y-79120997D01*
X62926323Y-79120997D01*
X62907836Y-78909688D01*
X62907070Y-78900932D01*
X62849894Y-78687550D01*
X62756534Y-78487339D01*
X62629826Y-78306380D01*
X62473620Y-78150174D01*
X62473616Y-78150171D01*
X62473615Y-78150170D01*
X62292666Y-78023468D01*
X62292662Y-78023466D01*
X62292660Y-78023465D01*
X62092450Y-77930106D01*
X62092447Y-77930105D01*
X62092445Y-77930104D01*
X61879070Y-77872930D01*
X61879062Y-77872929D01*
X61659002Y-77853677D01*
X61658998Y-77853677D01*
X61438937Y-77872929D01*
X61438929Y-77872930D01*
X61225554Y-77930104D01*
X61225548Y-77930107D01*
X61025340Y-78023465D01*
X61025338Y-78023466D01*
X60844377Y-78150175D01*
X60688175Y-78306377D01*
X60561466Y-78487338D01*
X60561465Y-78487340D01*
X60468107Y-78687548D01*
X60468104Y-78687554D01*
X60410930Y-78900929D01*
X60410929Y-78900937D01*
X60391677Y-79120997D01*
X59914329Y-79120997D01*
X59914329Y-79120992D01*
X59895035Y-78826636D01*
X59895034Y-78826620D01*
X59837481Y-78537278D01*
X59742652Y-78257923D01*
X59612172Y-77993336D01*
X59605399Y-77983200D01*
X59557042Y-77910829D01*
X59448273Y-77748043D01*
X59405655Y-77699447D01*
X59253758Y-77526241D01*
X59031955Y-77331725D01*
X58786667Y-77167829D01*
X58786660Y-77167825D01*
X58522080Y-77037349D01*
X58242730Y-76942521D01*
X58242724Y-76942519D01*
X58242722Y-76942519D01*
X57953380Y-76884966D01*
X57953373Y-76884965D01*
X57953363Y-76884964D01*
X57659007Y-76865671D01*
X57658993Y-76865671D01*
X57364636Y-76884964D01*
X57364624Y-76884965D01*
X57364620Y-76884966D01*
X57364612Y-76884967D01*
X57364609Y-76884968D01*
X57075283Y-76942518D01*
X57075269Y-76942521D01*
X56795919Y-77037349D01*
X56531334Y-77167828D01*
X56286041Y-77331728D01*
X56064241Y-77526241D01*
X55869728Y-77748041D01*
X55705828Y-77993334D01*
X55575349Y-78257919D01*
X55480521Y-78537269D01*
X55480518Y-78537283D01*
X55422968Y-78826609D01*
X55422964Y-78826636D01*
X55403671Y-79120992D01*
X49309362Y-79120992D01*
X49180082Y-79058734D01*
X48925602Y-78969687D01*
X48925594Y-78969684D01*
X48728446Y-78924687D01*
X48662732Y-78909688D01*
X48662728Y-78909687D01*
X48662719Y-78909686D01*
X48394813Y-78879500D01*
X48394809Y-78879500D01*
X48125191Y-78879500D01*
X48125186Y-78879500D01*
X47857280Y-78909686D01*
X47857268Y-78909688D01*
X47594405Y-78969684D01*
X47594397Y-78969687D01*
X47339917Y-79058734D01*
X47097005Y-79175714D01*
X46868712Y-79319161D01*
X46657915Y-79487265D01*
X46467265Y-79677915D01*
X46299161Y-79888712D01*
X46155714Y-80117005D01*
X46038734Y-80359917D01*
X45949687Y-80614397D01*
X45949684Y-80614405D01*
X45889688Y-80877268D01*
X45889686Y-80877280D01*
X45859500Y-81145186D01*
X43680500Y-81145186D01*
X43680500Y-76784199D01*
X80075863Y-76784199D01*
X80075863Y-76784200D01*
X80096365Y-77005459D01*
X80096366Y-77005461D01*
X80157174Y-77219179D01*
X80157180Y-77219194D01*
X80256222Y-77418096D01*
X80390133Y-77595424D01*
X80554344Y-77745121D01*
X80554346Y-77745123D01*
X80743266Y-77862097D01*
X80743272Y-77862100D01*
X80771225Y-77872929D01*
X80950472Y-77942370D01*
X81168896Y-77983200D01*
X81168899Y-77983200D01*
X81391101Y-77983200D01*
X81391104Y-77983200D01*
X81609528Y-77942370D01*
X81816730Y-77862099D01*
X82005655Y-77745122D01*
X82169868Y-77595422D01*
X82303778Y-77418096D01*
X82402824Y-77219184D01*
X82463634Y-77005460D01*
X82484137Y-76784200D01*
X82463634Y-76562940D01*
X82402824Y-76349216D01*
X82303778Y-76150304D01*
X82169868Y-75972978D01*
X82169866Y-75972975D01*
X82005655Y-75823278D01*
X82005653Y-75823276D01*
X81816733Y-75706302D01*
X81816727Y-75706299D01*
X81709080Y-75664597D01*
X81609528Y-75626030D01*
X81391104Y-75585200D01*
X81168896Y-75585200D01*
X80950472Y-75626030D01*
X80900695Y-75645313D01*
X80743272Y-75706299D01*
X80743266Y-75706302D01*
X80554346Y-75823276D01*
X80554344Y-75823278D01*
X80390133Y-75972975D01*
X80256222Y-76150303D01*
X80157180Y-76349205D01*
X80157174Y-76349220D01*
X80096366Y-76562938D01*
X80096365Y-76562940D01*
X80075863Y-76784199D01*
X43680500Y-76784199D01*
X43680500Y-68659999D01*
X48809341Y-68659999D01*
X48809341Y-68660000D01*
X48829936Y-68895403D01*
X48829938Y-68895413D01*
X48891094Y-69123655D01*
X48891096Y-69123659D01*
X48891097Y-69123663D01*
X48950932Y-69251979D01*
X48990965Y-69337830D01*
X48990967Y-69337834D01*
X49035685Y-69401697D01*
X49126505Y-69531401D01*
X49293599Y-69698495D01*
X49390384Y-69766265D01*
X49487165Y-69834032D01*
X49487167Y-69834033D01*
X49487170Y-69834035D01*
X49701337Y-69933903D01*
X49929592Y-69995063D01*
X50117918Y-70011539D01*
X50164999Y-70015659D01*
X50165000Y-70015659D01*
X50165001Y-70015659D01*
X50204234Y-70012226D01*
X50400408Y-69995063D01*
X50628663Y-69933903D01*
X50842830Y-69834035D01*
X51036401Y-69698495D01*
X51203495Y-69531401D01*
X51339035Y-69337830D01*
X51438903Y-69123663D01*
X51500063Y-68895408D01*
X51520659Y-68660000D01*
X51518091Y-68630654D01*
X51513896Y-68582698D01*
X51500063Y-68424592D01*
X51438903Y-68196337D01*
X51339035Y-67982171D01*
X51291196Y-67913850D01*
X51203496Y-67788600D01*
X51203495Y-67788599D01*
X51081567Y-67666671D01*
X51048084Y-67605351D01*
X51053068Y-67535659D01*
X51094939Y-67479725D01*
X51125915Y-67462810D01*
X51257331Y-67413796D01*
X51372546Y-67327546D01*
X51458796Y-67212331D01*
X51509091Y-67077483D01*
X51515500Y-67017873D01*
X51515499Y-65222128D01*
X51509091Y-65162517D01*
X51480234Y-65085148D01*
X51458797Y-65027671D01*
X51458793Y-65027664D01*
X51372547Y-64912455D01*
X51372544Y-64912452D01*
X51257335Y-64826206D01*
X51257328Y-64826202D01*
X51122482Y-64775908D01*
X51122483Y-64775908D01*
X51062883Y-64769501D01*
X51062881Y-64769500D01*
X51062873Y-64769500D01*
X51062864Y-64769500D01*
X49267129Y-64769500D01*
X49267123Y-64769501D01*
X49207516Y-64775908D01*
X49072671Y-64826202D01*
X49072664Y-64826206D01*
X48957455Y-64912452D01*
X48957452Y-64912455D01*
X48871206Y-65027664D01*
X48871202Y-65027671D01*
X48820908Y-65162517D01*
X48815455Y-65213240D01*
X48814501Y-65222123D01*
X48814500Y-65222135D01*
X48814500Y-67017870D01*
X48814501Y-67017876D01*
X48820908Y-67077483D01*
X48871202Y-67212328D01*
X48871206Y-67212335D01*
X48957452Y-67327544D01*
X48957455Y-67327547D01*
X49072664Y-67413793D01*
X49072671Y-67413797D01*
X49204081Y-67462810D01*
X49260015Y-67504681D01*
X49284432Y-67570145D01*
X49269580Y-67638418D01*
X49248430Y-67666673D01*
X49126503Y-67788600D01*
X48990965Y-67982169D01*
X48990964Y-67982171D01*
X48891098Y-68196335D01*
X48891094Y-68196344D01*
X48829938Y-68424586D01*
X48829936Y-68424596D01*
X48809341Y-68659999D01*
X43680500Y-68659999D01*
X43680500Y-59770000D01*
X49829551Y-59770000D01*
X49849317Y-60021151D01*
X49908126Y-60266110D01*
X50004533Y-60498859D01*
X50136160Y-60713653D01*
X50136161Y-60713656D01*
X50136164Y-60713659D01*
X50299776Y-60905224D01*
X50384259Y-60977379D01*
X50491343Y-61068838D01*
X50491346Y-61068839D01*
X50706140Y-61200466D01*
X50938889Y-61296873D01*
X51183852Y-61355683D01*
X51435000Y-61375449D01*
X51686148Y-61355683D01*
X51931111Y-61296873D01*
X52163859Y-61200466D01*
X52378659Y-61068836D01*
X52570224Y-60905224D01*
X52733836Y-60713659D01*
X52865466Y-60498859D01*
X52961873Y-60266111D01*
X53020683Y-60021148D01*
X53040449Y-59770000D01*
X53020683Y-59518852D01*
X52961873Y-59273889D01*
X52865466Y-59041141D01*
X52865466Y-59041140D01*
X52733839Y-58826346D01*
X52733838Y-58826343D01*
X52633588Y-58708966D01*
X52570224Y-58634776D01*
X52555447Y-58622155D01*
X59995000Y-58622155D01*
X59995000Y-59520000D01*
X61104252Y-59520000D01*
X61082482Y-59557708D01*
X61045000Y-59697591D01*
X61045000Y-59842409D01*
X61082482Y-59982292D01*
X61104252Y-60020000D01*
X59995000Y-60020000D01*
X59995000Y-60917844D01*
X60001401Y-60977372D01*
X60001403Y-60977379D01*
X60051645Y-61112086D01*
X60051649Y-61112093D01*
X60137809Y-61227187D01*
X60137812Y-61227190D01*
X60252906Y-61313350D01*
X60252913Y-61313354D01*
X60387620Y-61363596D01*
X60387627Y-61363598D01*
X60447155Y-61369999D01*
X60447172Y-61370000D01*
X61345000Y-61370000D01*
X61345000Y-60260747D01*
X61382708Y-60282518D01*
X61522591Y-60320000D01*
X61667409Y-60320000D01*
X61807292Y-60282518D01*
X61845000Y-60260747D01*
X61845000Y-61370000D01*
X62742828Y-61370000D01*
X62742844Y-61369999D01*
X62802372Y-61363598D01*
X62802379Y-61363596D01*
X62937086Y-61313354D01*
X62937093Y-61313350D01*
X63052187Y-61227190D01*
X63052190Y-61227187D01*
X63138350Y-61112093D01*
X63138354Y-61112086D01*
X63188596Y-60977379D01*
X63188598Y-60977372D01*
X63194999Y-60917844D01*
X63195000Y-60917827D01*
X63195000Y-60020000D01*
X62085748Y-60020000D01*
X62107518Y-59982292D01*
X62145000Y-59842409D01*
X62145000Y-59697591D01*
X62107518Y-59557708D01*
X62085748Y-59520000D01*
X63195000Y-59520000D01*
X63195000Y-58622172D01*
X63194999Y-58622155D01*
X63188598Y-58562627D01*
X63188596Y-58562620D01*
X63138354Y-58427913D01*
X63138350Y-58427906D01*
X63052190Y-58312812D01*
X63052187Y-58312809D01*
X62937093Y-58226649D01*
X62937086Y-58226645D01*
X62802379Y-58176403D01*
X62802372Y-58176401D01*
X62742844Y-58170000D01*
X61845000Y-58170000D01*
X61845000Y-59279252D01*
X61807292Y-59257482D01*
X61667409Y-59220000D01*
X61522591Y-59220000D01*
X61382708Y-59257482D01*
X61345000Y-59279252D01*
X61345000Y-58170000D01*
X60447155Y-58170000D01*
X60387627Y-58176401D01*
X60387620Y-58176403D01*
X60252913Y-58226645D01*
X60252906Y-58226649D01*
X60137812Y-58312809D01*
X60137809Y-58312812D01*
X60051649Y-58427906D01*
X60051645Y-58427913D01*
X60001403Y-58562620D01*
X60001401Y-58562627D01*
X59995000Y-58622155D01*
X52555447Y-58622155D01*
X52443571Y-58526604D01*
X52378656Y-58471161D01*
X52378653Y-58471160D01*
X52163859Y-58339533D01*
X51931110Y-58243126D01*
X51686151Y-58184317D01*
X51435000Y-58164551D01*
X51183848Y-58184317D01*
X50938889Y-58243126D01*
X50706140Y-58339533D01*
X50491346Y-58471160D01*
X50491343Y-58471161D01*
X50299776Y-58634776D01*
X50136161Y-58826343D01*
X50136160Y-58826346D01*
X50004533Y-59041140D01*
X49908126Y-59273889D01*
X49849317Y-59518848D01*
X49829551Y-59770000D01*
X43680500Y-59770000D01*
X43680500Y-51989998D01*
X55844532Y-51989998D01*
X55844532Y-51990001D01*
X55864364Y-52216686D01*
X55864366Y-52216697D01*
X55923258Y-52436488D01*
X55923261Y-52436497D01*
X56019431Y-52642732D01*
X56019432Y-52642734D01*
X56149954Y-52829141D01*
X56310858Y-52990045D01*
X56310861Y-52990047D01*
X56497266Y-53120568D01*
X56703504Y-53216739D01*
X56923308Y-53275635D01*
X57085230Y-53289801D01*
X57149998Y-53295468D01*
X57150000Y-53295468D01*
X57150002Y-53295468D01*
X57206673Y-53290509D01*
X57376692Y-53275635D01*
X57596496Y-53216739D01*
X57802734Y-53120568D01*
X57989139Y-52990047D01*
X58150047Y-52829139D01*
X58280568Y-52642734D01*
X58296236Y-52609135D01*
X61701500Y-52609135D01*
X61701500Y-54304870D01*
X61701501Y-54304876D01*
X61707908Y-54364483D01*
X61758202Y-54499328D01*
X61758206Y-54499335D01*
X61844452Y-54614544D01*
X61844455Y-54614547D01*
X61959664Y-54700793D01*
X61959671Y-54700797D01*
X62094517Y-54751091D01*
X62094516Y-54751091D01*
X62101444Y-54751835D01*
X62154127Y-54757500D01*
X63849872Y-54757499D01*
X63909483Y-54751091D01*
X64044331Y-54700796D01*
X64159546Y-54614546D01*
X64245796Y-54499331D01*
X64296091Y-54364483D01*
X64299862Y-54329401D01*
X64326599Y-54264855D01*
X64383990Y-54225006D01*
X64453816Y-54222511D01*
X64513905Y-54258163D01*
X64524726Y-54271536D01*
X64541956Y-54296143D01*
X64702857Y-54457044D01*
X64702860Y-54457046D01*
X64702861Y-54457047D01*
X64798123Y-54523749D01*
X64841748Y-54578325D01*
X64851000Y-54625324D01*
X64851000Y-63705056D01*
X64852314Y-63711664D01*
X64853917Y-63749720D01*
X64853436Y-63753996D01*
X64853435Y-63754001D01*
X64853435Y-63754004D01*
X64873630Y-63933249D01*
X64873631Y-63933254D01*
X64933211Y-64103523D01*
X64978125Y-64175002D01*
X65029184Y-64256262D01*
X65156738Y-64383816D01*
X65309478Y-64479789D01*
X65448838Y-64528553D01*
X65479745Y-64539368D01*
X65479750Y-64539369D01*
X65658996Y-64559565D01*
X65659000Y-64559565D01*
X65659004Y-64559565D01*
X65838249Y-64539369D01*
X65838252Y-64539368D01*
X65838255Y-64539368D01*
X66008522Y-64479789D01*
X66161262Y-64383816D01*
X66288816Y-64256262D01*
X66384789Y-64103522D01*
X66444368Y-63933255D01*
X66456322Y-63827158D01*
X66464565Y-63754003D01*
X66464565Y-63753996D01*
X66461055Y-63722843D01*
X72965900Y-63722843D01*
X72965900Y-63722856D01*
X72985064Y-63954147D01*
X72985066Y-63954158D01*
X73042042Y-64179150D01*
X73135275Y-64391698D01*
X73262216Y-64585997D01*
X73262219Y-64586001D01*
X73262221Y-64586003D01*
X73419416Y-64756763D01*
X73419419Y-64756765D01*
X73419422Y-64756768D01*
X73602565Y-64899314D01*
X73602571Y-64899318D01*
X73602574Y-64899320D01*
X73806697Y-65009786D01*
X73806700Y-65009787D01*
X73849601Y-65024515D01*
X73897019Y-65054115D01*
X74282615Y-65439711D01*
X74197506Y-65462517D01*
X74094894Y-65521760D01*
X74011110Y-65605544D01*
X73951867Y-65708156D01*
X73929061Y-65793265D01*
X73220011Y-65084215D01*
X73135716Y-65213240D01*
X73042517Y-65425714D01*
X72985561Y-65650631D01*
X72966402Y-65881844D01*
X72966402Y-65881855D01*
X72985561Y-66113068D01*
X73042517Y-66337985D01*
X73135715Y-66550456D01*
X73220012Y-66679483D01*
X73929061Y-65970434D01*
X73951867Y-66055544D01*
X74011110Y-66158156D01*
X74094894Y-66241940D01*
X74197506Y-66301183D01*
X74282614Y-66323987D01*
X73897018Y-66709584D01*
X73849602Y-66739184D01*
X73806698Y-66753913D01*
X73806695Y-66753914D01*
X73602571Y-66864381D01*
X73602565Y-66864385D01*
X73419422Y-67006931D01*
X73419419Y-67006934D01*
X73262216Y-67177702D01*
X73135275Y-67372001D01*
X73042042Y-67584549D01*
X72985066Y-67809541D01*
X72985064Y-67809552D01*
X72965900Y-68040843D01*
X72965900Y-68040856D01*
X72985064Y-68272147D01*
X72985066Y-68272158D01*
X73042042Y-68497150D01*
X73135275Y-68709698D01*
X73166608Y-68757657D01*
X73186796Y-68824547D01*
X73167615Y-68891732D01*
X73137111Y-68924744D01*
X73113652Y-68942305D01*
X73027406Y-69057514D01*
X73027402Y-69057521D01*
X72977108Y-69192367D01*
X72970701Y-69251966D01*
X72970701Y-69251973D01*
X72970700Y-69251985D01*
X72970700Y-71147720D01*
X72970701Y-71147726D01*
X72977108Y-71207333D01*
X73027402Y-71342178D01*
X73027406Y-71342185D01*
X73113652Y-71457394D01*
X73113655Y-71457397D01*
X73228864Y-71543643D01*
X73228871Y-71543647D01*
X73363717Y-71593941D01*
X73363716Y-71593941D01*
X73370644Y-71594685D01*
X73423327Y-71600350D01*
X75319072Y-71600349D01*
X75378683Y-71593941D01*
X75513531Y-71543646D01*
X75628746Y-71457396D01*
X75714996Y-71342181D01*
X75765291Y-71207333D01*
X75771700Y-71147723D01*
X75771699Y-69251978D01*
X75765291Y-69192367D01*
X75739666Y-69123664D01*
X75714997Y-69057521D01*
X75714993Y-69057514D01*
X75628747Y-68942305D01*
X75628746Y-68942304D01*
X75605287Y-68924742D01*
X75563417Y-68868808D01*
X75558434Y-68799116D01*
X75575793Y-68757654D01*
X75607123Y-68709701D01*
X75628925Y-68659999D01*
X75700357Y-68497150D01*
X75757334Y-68272155D01*
X75763616Y-68196344D01*
X75776500Y-68040856D01*
X75776500Y-68040843D01*
X75757335Y-67809552D01*
X75757333Y-67809541D01*
X75700357Y-67584549D01*
X75607124Y-67372001D01*
X75480183Y-67177702D01*
X75480180Y-67177699D01*
X75480179Y-67177697D01*
X75322984Y-67006937D01*
X75322979Y-67006933D01*
X75322977Y-67006931D01*
X75139834Y-66864385D01*
X75139828Y-66864381D01*
X74935704Y-66753914D01*
X74935695Y-66753910D01*
X74892798Y-66739184D01*
X74845380Y-66709584D01*
X74459785Y-66323987D01*
X74544894Y-66301183D01*
X74647506Y-66241940D01*
X74731290Y-66158156D01*
X74790533Y-66055544D01*
X74813338Y-65970435D01*
X75522386Y-66679483D01*
X75606682Y-66550461D01*
X75699882Y-66337985D01*
X75756838Y-66113068D01*
X75775998Y-65881855D01*
X75775998Y-65881844D01*
X75756838Y-65650631D01*
X75699882Y-65425714D01*
X75606684Y-65213243D01*
X75522386Y-65084215D01*
X74813337Y-65793264D01*
X74790533Y-65708156D01*
X74731290Y-65605544D01*
X74647506Y-65521760D01*
X74544894Y-65462517D01*
X74459784Y-65439711D01*
X74845379Y-65054115D01*
X74892795Y-65024516D01*
X74935703Y-65009786D01*
X75139826Y-64899320D01*
X75142147Y-64897514D01*
X75302996Y-64772320D01*
X75322984Y-64756763D01*
X75480179Y-64586003D01*
X75607124Y-64391699D01*
X75700357Y-64179150D01*
X75757334Y-63954155D01*
X75759066Y-63933254D01*
X75776500Y-63722856D01*
X75776500Y-63722843D01*
X75757335Y-63491552D01*
X75757333Y-63491541D01*
X75700357Y-63266549D01*
X75607124Y-63054001D01*
X75480183Y-62859702D01*
X75480180Y-62859699D01*
X75480179Y-62859697D01*
X75322984Y-62688937D01*
X75322979Y-62688933D01*
X75322977Y-62688931D01*
X75139834Y-62546385D01*
X75139828Y-62546381D01*
X74935704Y-62435914D01*
X74935695Y-62435911D01*
X74716184Y-62360552D01*
X74544482Y-62331900D01*
X74487249Y-62322350D01*
X74255151Y-62322350D01*
X74209364Y-62329990D01*
X74026215Y-62360552D01*
X73806704Y-62435911D01*
X73806695Y-62435914D01*
X73602571Y-62546381D01*
X73602565Y-62546385D01*
X73419422Y-62688931D01*
X73419419Y-62688934D01*
X73262216Y-62859702D01*
X73135275Y-63054001D01*
X73042042Y-63266549D01*
X72985066Y-63491541D01*
X72985064Y-63491552D01*
X72965900Y-63722843D01*
X66461055Y-63722843D01*
X66444369Y-63574750D01*
X66444368Y-63574745D01*
X66426091Y-63522512D01*
X66384789Y-63404478D01*
X66359697Y-63364545D01*
X66288815Y-63251737D01*
X66269319Y-63232241D01*
X66235834Y-63170918D01*
X66233000Y-63144560D01*
X66233000Y-58338549D01*
X66252685Y-58271510D01*
X66305489Y-58225755D01*
X66374647Y-58215811D01*
X66438203Y-58244836D01*
X66444681Y-58250868D01*
X66597858Y-58404045D01*
X66597861Y-58404047D01*
X66784266Y-58534568D01*
X66990504Y-58630739D01*
X67210308Y-58689635D01*
X67372230Y-58703801D01*
X67436998Y-58709468D01*
X67437000Y-58709468D01*
X67437002Y-58709468D01*
X67493673Y-58704509D01*
X67663692Y-58689635D01*
X67883496Y-58630739D01*
X68089734Y-58534568D01*
X68276139Y-58404047D01*
X68437047Y-58243139D01*
X68567568Y-58056734D01*
X68663739Y-57850496D01*
X68722635Y-57630692D01*
X68742468Y-57404000D01*
X68742468Y-57403997D01*
X76292034Y-57403997D01*
X76292034Y-57404002D01*
X76311858Y-57630599D01*
X76311860Y-57630610D01*
X76370730Y-57850317D01*
X76370735Y-57850331D01*
X76466863Y-58056478D01*
X76517974Y-58129472D01*
X77197000Y-57450446D01*
X77197000Y-57456661D01*
X77224259Y-57558394D01*
X77276920Y-57649606D01*
X77351394Y-57724080D01*
X77442606Y-57776741D01*
X77544339Y-57804000D01*
X77550553Y-57804000D01*
X76871526Y-58483025D01*
X76944513Y-58534132D01*
X76944521Y-58534136D01*
X77150668Y-58630264D01*
X77150682Y-58630269D01*
X77370389Y-58689139D01*
X77370400Y-58689141D01*
X77596998Y-58708966D01*
X77597002Y-58708966D01*
X77823599Y-58689141D01*
X77823610Y-58689139D01*
X78043317Y-58630269D01*
X78043331Y-58630264D01*
X78249478Y-58534136D01*
X78322471Y-58483024D01*
X77643447Y-57804000D01*
X77649661Y-57804000D01*
X77751394Y-57776741D01*
X77842606Y-57724080D01*
X77917080Y-57649606D01*
X77969741Y-57558394D01*
X77997000Y-57456661D01*
X77997000Y-57450447D01*
X78676024Y-58129471D01*
X78727136Y-58056478D01*
X78823264Y-57850331D01*
X78823269Y-57850317D01*
X78882139Y-57630610D01*
X78882141Y-57630599D01*
X78901966Y-57404002D01*
X78901966Y-57403997D01*
X78882141Y-57177400D01*
X78882139Y-57177389D01*
X78823269Y-56957682D01*
X78823264Y-56957668D01*
X78727136Y-56751521D01*
X78727132Y-56751513D01*
X78676025Y-56678526D01*
X77997000Y-57357551D01*
X77997000Y-57351339D01*
X77969741Y-57249606D01*
X77917080Y-57158394D01*
X77842606Y-57083920D01*
X77751394Y-57031259D01*
X77649661Y-57004000D01*
X77643448Y-57004000D01*
X78322472Y-56324974D01*
X78249478Y-56273863D01*
X78043331Y-56177735D01*
X78043317Y-56177730D01*
X77823610Y-56118860D01*
X77823599Y-56118858D01*
X77597002Y-56099034D01*
X77596998Y-56099034D01*
X77370400Y-56118858D01*
X77370389Y-56118860D01*
X77150682Y-56177730D01*
X77150673Y-56177734D01*
X76944516Y-56273866D01*
X76944512Y-56273868D01*
X76871526Y-56324973D01*
X76871526Y-56324974D01*
X77550553Y-57004000D01*
X77544339Y-57004000D01*
X77442606Y-57031259D01*
X77351394Y-57083920D01*
X77276920Y-57158394D01*
X77224259Y-57249606D01*
X77197000Y-57351339D01*
X77197000Y-57357552D01*
X76517974Y-56678526D01*
X76517973Y-56678526D01*
X76466868Y-56751512D01*
X76466866Y-56751516D01*
X76370734Y-56957673D01*
X76370730Y-56957682D01*
X76311860Y-57177389D01*
X76311858Y-57177400D01*
X76292034Y-57403997D01*
X68742468Y-57403997D01*
X68722635Y-57177308D01*
X68663739Y-56957504D01*
X68567568Y-56751266D01*
X68437047Y-56564861D01*
X68437045Y-56564858D01*
X68276141Y-56403954D01*
X68089734Y-56273432D01*
X68089732Y-56273431D01*
X67883497Y-56177261D01*
X67883488Y-56177258D01*
X67663697Y-56118366D01*
X67663693Y-56118365D01*
X67663692Y-56118365D01*
X67663691Y-56118364D01*
X67663686Y-56118364D01*
X67437002Y-56098532D01*
X67436998Y-56098532D01*
X67210313Y-56118364D01*
X67210302Y-56118366D01*
X66990511Y-56177258D01*
X66990502Y-56177261D01*
X66784267Y-56273431D01*
X66784265Y-56273432D01*
X66597858Y-56403954D01*
X66444681Y-56557132D01*
X66383358Y-56590617D01*
X66313666Y-56585633D01*
X66257733Y-56543761D01*
X66233316Y-56478297D01*
X66233000Y-56469451D01*
X66233000Y-54625324D01*
X66252685Y-54558285D01*
X66285875Y-54523750D01*
X66381139Y-54457047D01*
X66542047Y-54296139D01*
X66672568Y-54109734D01*
X66699618Y-54051724D01*
X66745790Y-53999285D01*
X66812983Y-53980133D01*
X66879865Y-54000348D01*
X66924382Y-54051725D01*
X66951429Y-54109728D01*
X66951432Y-54109734D01*
X67081954Y-54296141D01*
X67242858Y-54457045D01*
X67242861Y-54457047D01*
X67429266Y-54587568D01*
X67635504Y-54683739D01*
X67855308Y-54742635D01*
X68017230Y-54756801D01*
X68081998Y-54762468D01*
X68082000Y-54762468D01*
X68082002Y-54762468D01*
X68138807Y-54757498D01*
X68308692Y-54742635D01*
X68528496Y-54683739D01*
X68734734Y-54587568D01*
X68921139Y-54457047D01*
X69082047Y-54296139D01*
X69212568Y-54109734D01*
X69239618Y-54051724D01*
X69285790Y-53999285D01*
X69352983Y-53980133D01*
X69419865Y-54000348D01*
X69464382Y-54051725D01*
X69491429Y-54109728D01*
X69491432Y-54109734D01*
X69621954Y-54296141D01*
X69782858Y-54457045D01*
X69782861Y-54457047D01*
X69969266Y-54587568D01*
X70175504Y-54683739D01*
X70395308Y-54742635D01*
X70557230Y-54756801D01*
X70621998Y-54762468D01*
X70622000Y-54762468D01*
X70622002Y-54762468D01*
X70678807Y-54757498D01*
X70848692Y-54742635D01*
X71068496Y-54683739D01*
X71274734Y-54587568D01*
X71461139Y-54457047D01*
X71622047Y-54296139D01*
X71752568Y-54109734D01*
X71848739Y-53903496D01*
X71907635Y-53683692D01*
X71927468Y-53457000D01*
X71907635Y-53230308D01*
X71848739Y-53010504D01*
X71752568Y-52804266D01*
X71622047Y-52617861D01*
X71622045Y-52617858D01*
X71461141Y-52456954D01*
X71274734Y-52326432D01*
X71274732Y-52326431D01*
X71068497Y-52230261D01*
X71068488Y-52230258D01*
X70848697Y-52171366D01*
X70848693Y-52171365D01*
X70848692Y-52171365D01*
X70848691Y-52171364D01*
X70848686Y-52171364D01*
X70622002Y-52151532D01*
X70621998Y-52151532D01*
X70395313Y-52171364D01*
X70395302Y-52171366D01*
X70175511Y-52230258D01*
X70175502Y-52230261D01*
X69969267Y-52326431D01*
X69969265Y-52326432D01*
X69782858Y-52456954D01*
X69621954Y-52617858D01*
X69491432Y-52804265D01*
X69491431Y-52804267D01*
X69464382Y-52862275D01*
X69418209Y-52914714D01*
X69351016Y-52933866D01*
X69284135Y-52913650D01*
X69239618Y-52862275D01*
X69224167Y-52829141D01*
X69212568Y-52804266D01*
X69082047Y-52617861D01*
X69082045Y-52617858D01*
X68921141Y-52456954D01*
X68734734Y-52326432D01*
X68734732Y-52326431D01*
X68528497Y-52230261D01*
X68528488Y-52230258D01*
X68308697Y-52171366D01*
X68308693Y-52171365D01*
X68308692Y-52171365D01*
X68308691Y-52171364D01*
X68308686Y-52171364D01*
X68082002Y-52151532D01*
X68081998Y-52151532D01*
X67855313Y-52171364D01*
X67855302Y-52171366D01*
X67635511Y-52230258D01*
X67635502Y-52230261D01*
X67429267Y-52326431D01*
X67429265Y-52326432D01*
X67242858Y-52456954D01*
X67081954Y-52617858D01*
X66951432Y-52804265D01*
X66951431Y-52804267D01*
X66924382Y-52862275D01*
X66878209Y-52914714D01*
X66811016Y-52933866D01*
X66744135Y-52913650D01*
X66699618Y-52862275D01*
X66684167Y-52829141D01*
X66672568Y-52804266D01*
X66542047Y-52617861D01*
X66542045Y-52617858D01*
X66381141Y-52456954D01*
X66194734Y-52326432D01*
X66194732Y-52326431D01*
X65988497Y-52230261D01*
X65988488Y-52230258D01*
X65768697Y-52171366D01*
X65768693Y-52171365D01*
X65768692Y-52171365D01*
X65768691Y-52171364D01*
X65768686Y-52171364D01*
X65542002Y-52151532D01*
X65541998Y-52151532D01*
X65315313Y-52171364D01*
X65315302Y-52171366D01*
X65095511Y-52230258D01*
X65095502Y-52230261D01*
X64889267Y-52326431D01*
X64889265Y-52326432D01*
X64702858Y-52456954D01*
X64541954Y-52617858D01*
X64524725Y-52642464D01*
X64470147Y-52686088D01*
X64400648Y-52693280D01*
X64338294Y-52661757D01*
X64302882Y-52601526D01*
X64299861Y-52584591D01*
X64296091Y-52549516D01*
X64245797Y-52414671D01*
X64245793Y-52414664D01*
X64159547Y-52299455D01*
X64159544Y-52299452D01*
X64044335Y-52213206D01*
X64044328Y-52213202D01*
X63909482Y-52162908D01*
X63909483Y-52162908D01*
X63849883Y-52156501D01*
X63849881Y-52156500D01*
X63849873Y-52156500D01*
X63849864Y-52156500D01*
X62154129Y-52156500D01*
X62154123Y-52156501D01*
X62094516Y-52162908D01*
X61959671Y-52213202D01*
X61959664Y-52213206D01*
X61844455Y-52299452D01*
X61844452Y-52299455D01*
X61758206Y-52414664D01*
X61758202Y-52414671D01*
X61707908Y-52549517D01*
X61701501Y-52609116D01*
X61701500Y-52609135D01*
X58296236Y-52609135D01*
X58376739Y-52436496D01*
X58435635Y-52216692D01*
X58454883Y-51996688D01*
X58455468Y-51990001D01*
X58455468Y-51989998D01*
X58449801Y-51925230D01*
X58435635Y-51763308D01*
X58376739Y-51543504D01*
X58280568Y-51337266D01*
X58150047Y-51150861D01*
X58150045Y-51150858D01*
X57989141Y-50989954D01*
X57802734Y-50859432D01*
X57802732Y-50859431D01*
X57596497Y-50763261D01*
X57596488Y-50763258D01*
X57376697Y-50704366D01*
X57376693Y-50704365D01*
X57376692Y-50704365D01*
X57376691Y-50704364D01*
X57376686Y-50704364D01*
X57150002Y-50684532D01*
X57149998Y-50684532D01*
X56923313Y-50704364D01*
X56923302Y-50704366D01*
X56703511Y-50763258D01*
X56703502Y-50763261D01*
X56497267Y-50859431D01*
X56497265Y-50859432D01*
X56310858Y-50989954D01*
X56149954Y-51150858D01*
X56019432Y-51337265D01*
X56019431Y-51337267D01*
X55923261Y-51543502D01*
X55923258Y-51543511D01*
X55864366Y-51763302D01*
X55864364Y-51763313D01*
X55844532Y-51989998D01*
X43680500Y-51989998D01*
X43680500Y-48125186D01*
X45859500Y-48125186D01*
X45859500Y-48394813D01*
X45889686Y-48662719D01*
X45889688Y-48662731D01*
X45949684Y-48925594D01*
X45949687Y-48925602D01*
X46038734Y-49180082D01*
X46155714Y-49422994D01*
X46155716Y-49422997D01*
X46299162Y-49651289D01*
X46467266Y-49862085D01*
X46657915Y-50052734D01*
X46868711Y-50220838D01*
X47097003Y-50364284D01*
X47339921Y-50481267D01*
X47531049Y-50548145D01*
X47594397Y-50570312D01*
X47594405Y-50570315D01*
X47594408Y-50570315D01*
X47594409Y-50570316D01*
X47857268Y-50630312D01*
X48125187Y-50660499D01*
X48125188Y-50660500D01*
X48125191Y-50660500D01*
X48394812Y-50660500D01*
X48394812Y-50660499D01*
X48662732Y-50630312D01*
X48925591Y-50570316D01*
X49180079Y-50481267D01*
X49422997Y-50364284D01*
X49651289Y-50220838D01*
X49862085Y-50052734D01*
X50052734Y-49862085D01*
X50115005Y-49783999D01*
X79543341Y-49783999D01*
X79543341Y-49784000D01*
X79563936Y-50019403D01*
X79563938Y-50019413D01*
X79625094Y-50247655D01*
X79625096Y-50247659D01*
X79625097Y-50247663D01*
X79679479Y-50364285D01*
X79724965Y-50461830D01*
X79724967Y-50461834D01*
X79800925Y-50570312D01*
X79842937Y-50630312D01*
X79860501Y-50655395D01*
X79860506Y-50655402D01*
X80027597Y-50822493D01*
X80027603Y-50822498D01*
X80213158Y-50952425D01*
X80256783Y-51007002D01*
X80263977Y-51076500D01*
X80232454Y-51138855D01*
X80213158Y-51155575D01*
X80027597Y-51285505D01*
X79860505Y-51452597D01*
X79724965Y-51646169D01*
X79724964Y-51646171D01*
X79625098Y-51860335D01*
X79625094Y-51860344D01*
X79563938Y-52088586D01*
X79563937Y-52088590D01*
X79563937Y-52088592D01*
X79560976Y-52122441D01*
X79543341Y-52323999D01*
X79543341Y-52324000D01*
X79563936Y-52559403D01*
X79563938Y-52559413D01*
X79625094Y-52787655D01*
X79625096Y-52787659D01*
X79625097Y-52787663D01*
X79724965Y-53001830D01*
X79724967Y-53001834D01*
X79808106Y-53120568D01*
X79860505Y-53195401D01*
X80027599Y-53362495D01*
X80124384Y-53430265D01*
X80221165Y-53498032D01*
X80221167Y-53498033D01*
X80221170Y-53498035D01*
X80435337Y-53597903D01*
X80435343Y-53597904D01*
X80435344Y-53597905D01*
X80446593Y-53600919D01*
X80663592Y-53659063D01*
X80851918Y-53675539D01*
X80898999Y-53679659D01*
X80899000Y-53679659D01*
X80899001Y-53679659D01*
X80938234Y-53676226D01*
X81134408Y-53659063D01*
X81286200Y-53618391D01*
X81292407Y-53616728D01*
X81362257Y-53618391D01*
X81420119Y-53657554D01*
X81447623Y-53721782D01*
X81448500Y-53736503D01*
X81448500Y-72893293D01*
X81441542Y-72934248D01*
X81383631Y-73099745D01*
X81383630Y-73099750D01*
X81363435Y-73278996D01*
X81363435Y-73279003D01*
X81383630Y-73458249D01*
X81383631Y-73458254D01*
X81443211Y-73628523D01*
X81539184Y-73781262D01*
X81666738Y-73908816D01*
X81819478Y-74004789D01*
X81989745Y-74064368D01*
X81989750Y-74064369D01*
X82168996Y-74084565D01*
X82169000Y-74084565D01*
X82169004Y-74084565D01*
X82348249Y-74064369D01*
X82348252Y-74064368D01*
X82348255Y-74064368D01*
X82518522Y-74004789D01*
X82671262Y-73908816D01*
X82798816Y-73781262D01*
X82894789Y-73628522D01*
X82954368Y-73458255D01*
X82974565Y-73279000D01*
X82954368Y-73099745D01*
X82954367Y-73099743D01*
X82954366Y-73099737D01*
X82894790Y-72929479D01*
X82849506Y-72857409D01*
X82830500Y-72791438D01*
X82830500Y-53720694D01*
X82850185Y-53653655D01*
X82902989Y-53607900D01*
X82972147Y-53597956D01*
X82986593Y-53600919D01*
X83203592Y-53659063D01*
X83391918Y-53675539D01*
X83438999Y-53679659D01*
X83439000Y-53679659D01*
X83439001Y-53679659D01*
X83478234Y-53676226D01*
X83674408Y-53659063D01*
X83902663Y-53597903D01*
X84116830Y-53498035D01*
X84310401Y-53362495D01*
X84477495Y-53195401D01*
X84613035Y-53001830D01*
X84712903Y-52787663D01*
X84774063Y-52559408D01*
X84788145Y-52398448D01*
X84813597Y-52333381D01*
X84870188Y-52292402D01*
X84939950Y-52288524D01*
X84999354Y-52321576D01*
X85251681Y-52573903D01*
X85285166Y-52635226D01*
X85288000Y-52661584D01*
X85288000Y-74912743D01*
X85288000Y-75048857D01*
X85288000Y-75048859D01*
X85287999Y-75048859D01*
X85314553Y-75182351D01*
X85314556Y-75182361D01*
X85366642Y-75308109D01*
X85366644Y-75308112D01*
X85442263Y-75421285D01*
X85442269Y-75421292D01*
X86556345Y-76535367D01*
X86589830Y-76596690D01*
X86592135Y-76634489D01*
X86578263Y-76784198D01*
X86578263Y-76784200D01*
X86598765Y-77005459D01*
X86598766Y-77005461D01*
X86659574Y-77219179D01*
X86659580Y-77219194D01*
X86758622Y-77418096D01*
X86892533Y-77595424D01*
X87056744Y-77745121D01*
X87056746Y-77745123D01*
X87245666Y-77862097D01*
X87245672Y-77862100D01*
X87273625Y-77872929D01*
X87452872Y-77942370D01*
X87671296Y-77983200D01*
X87671299Y-77983200D01*
X87893501Y-77983200D01*
X87893504Y-77983200D01*
X88111928Y-77942370D01*
X88319130Y-77862099D01*
X88508055Y-77745122D01*
X88672268Y-77595422D01*
X88806178Y-77418096D01*
X88905224Y-77219184D01*
X88966034Y-77005460D01*
X88986537Y-76784200D01*
X88986537Y-76784199D01*
X94045863Y-76784199D01*
X94045863Y-76784200D01*
X94066365Y-77005459D01*
X94066366Y-77005461D01*
X94127174Y-77219179D01*
X94127180Y-77219194D01*
X94226222Y-77418096D01*
X94360133Y-77595424D01*
X94524344Y-77745121D01*
X94524346Y-77745123D01*
X94713266Y-77862097D01*
X94713272Y-77862100D01*
X94741225Y-77872929D01*
X94920472Y-77942370D01*
X95138896Y-77983200D01*
X95138899Y-77983200D01*
X95361101Y-77983200D01*
X95361104Y-77983200D01*
X95579528Y-77942370D01*
X95786730Y-77862099D01*
X95975655Y-77745122D01*
X96139868Y-77595422D01*
X96273778Y-77418096D01*
X96372824Y-77219184D01*
X96433634Y-77005460D01*
X96454137Y-76784200D01*
X96454137Y-76784199D01*
X100548263Y-76784199D01*
X100548263Y-76784200D01*
X100568765Y-77005459D01*
X100568766Y-77005461D01*
X100629574Y-77219179D01*
X100629580Y-77219194D01*
X100728622Y-77418096D01*
X100862533Y-77595424D01*
X101026744Y-77745121D01*
X101026746Y-77745123D01*
X101215666Y-77862097D01*
X101215672Y-77862100D01*
X101243625Y-77872929D01*
X101422872Y-77942370D01*
X101641296Y-77983200D01*
X101641299Y-77983200D01*
X101863501Y-77983200D01*
X101863504Y-77983200D01*
X102081928Y-77942370D01*
X102289130Y-77862099D01*
X102478055Y-77745122D01*
X102642268Y-77595422D01*
X102776178Y-77418096D01*
X102875224Y-77219184D01*
X102936034Y-77005460D01*
X102956537Y-76784200D01*
X102936034Y-76562940D01*
X102875224Y-76349216D01*
X102776178Y-76150304D01*
X102642268Y-75972978D01*
X102642266Y-75972975D01*
X102478055Y-75823278D01*
X102478053Y-75823276D01*
X102289133Y-75706302D01*
X102289127Y-75706299D01*
X102181480Y-75664597D01*
X102081928Y-75626030D01*
X101863504Y-75585200D01*
X101641296Y-75585200D01*
X101422872Y-75626030D01*
X101373095Y-75645313D01*
X101215672Y-75706299D01*
X101215666Y-75706302D01*
X101026746Y-75823276D01*
X101026744Y-75823278D01*
X100862533Y-75972975D01*
X100728622Y-76150303D01*
X100629580Y-76349205D01*
X100629574Y-76349220D01*
X100568766Y-76562938D01*
X100568765Y-76562940D01*
X100548263Y-76784199D01*
X96454137Y-76784199D01*
X96433634Y-76562940D01*
X96372824Y-76349216D01*
X96273778Y-76150304D01*
X96139868Y-75972978D01*
X96139866Y-75972975D01*
X95975655Y-75823278D01*
X95975653Y-75823276D01*
X95786733Y-75706302D01*
X95786727Y-75706299D01*
X95679080Y-75664597D01*
X95579528Y-75626030D01*
X95361104Y-75585200D01*
X95138896Y-75585200D01*
X94920472Y-75626030D01*
X94870695Y-75645313D01*
X94713272Y-75706299D01*
X94713266Y-75706302D01*
X94524346Y-75823276D01*
X94524344Y-75823278D01*
X94360133Y-75972975D01*
X94226222Y-76150303D01*
X94127180Y-76349205D01*
X94127174Y-76349220D01*
X94066366Y-76562938D01*
X94066365Y-76562940D01*
X94045863Y-76784199D01*
X88986537Y-76784199D01*
X88966034Y-76562940D01*
X88905224Y-76349216D01*
X88806178Y-76150304D01*
X88672268Y-75972978D01*
X88672266Y-75972975D01*
X88508055Y-75823278D01*
X88508053Y-75823276D01*
X88319133Y-75706302D01*
X88319127Y-75706299D01*
X88211480Y-75664597D01*
X88111928Y-75626030D01*
X87893504Y-75585200D01*
X87671296Y-75585200D01*
X87671290Y-75585200D01*
X87642295Y-75590620D01*
X87572781Y-75583587D01*
X87531833Y-75556412D01*
X86706319Y-74730897D01*
X86672834Y-74669574D01*
X86670000Y-74643216D01*
X86670000Y-63722843D01*
X86935900Y-63722843D01*
X86935900Y-63722856D01*
X86955064Y-63954147D01*
X86955066Y-63954158D01*
X87012042Y-64179150D01*
X87105275Y-64391698D01*
X87232216Y-64585997D01*
X87232219Y-64586001D01*
X87232221Y-64586003D01*
X87389416Y-64756763D01*
X87389419Y-64756765D01*
X87389422Y-64756768D01*
X87572565Y-64899314D01*
X87572571Y-64899318D01*
X87572574Y-64899320D01*
X87776697Y-65009786D01*
X87776700Y-65009787D01*
X87819601Y-65024515D01*
X87867019Y-65054115D01*
X88252615Y-65439711D01*
X88167506Y-65462517D01*
X88064894Y-65521760D01*
X87981110Y-65605544D01*
X87921867Y-65708156D01*
X87899061Y-65793265D01*
X87190011Y-65084215D01*
X87105716Y-65213240D01*
X87012517Y-65425714D01*
X86955561Y-65650631D01*
X86936402Y-65881844D01*
X86936402Y-65881855D01*
X86955561Y-66113068D01*
X87012517Y-66337985D01*
X87105715Y-66550456D01*
X87190012Y-66679483D01*
X87899061Y-65970434D01*
X87921867Y-66055544D01*
X87981110Y-66158156D01*
X88064894Y-66241940D01*
X88167506Y-66301183D01*
X88252614Y-66323987D01*
X87867018Y-66709584D01*
X87819602Y-66739184D01*
X87776698Y-66753913D01*
X87776695Y-66753914D01*
X87572571Y-66864381D01*
X87572565Y-66864385D01*
X87389422Y-67006931D01*
X87389419Y-67006934D01*
X87232216Y-67177702D01*
X87105275Y-67372001D01*
X87012042Y-67584549D01*
X86955066Y-67809541D01*
X86955064Y-67809552D01*
X86935900Y-68040843D01*
X86935900Y-68040856D01*
X86955064Y-68272147D01*
X86955066Y-68272158D01*
X87012042Y-68497150D01*
X87105275Y-68709698D01*
X87136608Y-68757657D01*
X87156796Y-68824547D01*
X87137615Y-68891732D01*
X87107111Y-68924744D01*
X87083652Y-68942305D01*
X86997406Y-69057514D01*
X86997402Y-69057521D01*
X86947108Y-69192367D01*
X86940701Y-69251966D01*
X86940701Y-69251973D01*
X86940700Y-69251985D01*
X86940700Y-71147720D01*
X86940701Y-71147726D01*
X86947108Y-71207333D01*
X86997402Y-71342178D01*
X86997406Y-71342185D01*
X87083652Y-71457394D01*
X87083655Y-71457397D01*
X87198864Y-71543643D01*
X87198871Y-71543647D01*
X87333717Y-71593941D01*
X87333716Y-71593941D01*
X87340644Y-71594685D01*
X87393327Y-71600350D01*
X89289072Y-71600349D01*
X89348683Y-71593941D01*
X89483531Y-71543646D01*
X89598746Y-71457396D01*
X89684996Y-71342181D01*
X89735291Y-71207333D01*
X89741700Y-71147723D01*
X89741699Y-69251978D01*
X89735291Y-69192367D01*
X89709666Y-69123664D01*
X89684997Y-69057521D01*
X89684993Y-69057514D01*
X89598747Y-68942305D01*
X89598746Y-68942304D01*
X89575287Y-68924742D01*
X89533417Y-68868808D01*
X89528434Y-68799116D01*
X89545793Y-68757654D01*
X89577123Y-68709701D01*
X89598925Y-68659999D01*
X89670357Y-68497150D01*
X89727334Y-68272155D01*
X89733616Y-68196344D01*
X89746500Y-68040856D01*
X89746500Y-68040843D01*
X89727335Y-67809552D01*
X89727333Y-67809541D01*
X89670357Y-67584549D01*
X89577124Y-67372001D01*
X89450183Y-67177702D01*
X89450180Y-67177699D01*
X89450179Y-67177697D01*
X89292984Y-67006937D01*
X89292979Y-67006933D01*
X89292977Y-67006931D01*
X89109834Y-66864385D01*
X89109828Y-66864381D01*
X88905704Y-66753914D01*
X88905695Y-66753910D01*
X88862798Y-66739184D01*
X88815380Y-66709584D01*
X88429785Y-66323987D01*
X88514894Y-66301183D01*
X88617506Y-66241940D01*
X88701290Y-66158156D01*
X88760533Y-66055544D01*
X88783338Y-65970435D01*
X89492386Y-66679483D01*
X89576682Y-66550461D01*
X89669882Y-66337985D01*
X89726838Y-66113068D01*
X89745998Y-65881855D01*
X89745998Y-65881844D01*
X89726838Y-65650631D01*
X89669882Y-65425714D01*
X89576684Y-65213243D01*
X89492386Y-65084215D01*
X88783337Y-65793264D01*
X88760533Y-65708156D01*
X88701290Y-65605544D01*
X88617506Y-65521760D01*
X88514894Y-65462517D01*
X88429784Y-65439711D01*
X88815379Y-65054115D01*
X88862795Y-65024516D01*
X88905703Y-65009786D01*
X89109826Y-64899320D01*
X89112147Y-64897514D01*
X89272996Y-64772320D01*
X89292984Y-64756763D01*
X89450179Y-64586003D01*
X89577124Y-64391699D01*
X89670357Y-64179150D01*
X89727334Y-63954155D01*
X89729066Y-63933254D01*
X89746500Y-63722856D01*
X89746500Y-63722843D01*
X89735977Y-63595843D01*
X99635900Y-63595843D01*
X99635900Y-63595856D01*
X99655064Y-63827147D01*
X99655066Y-63827158D01*
X99712042Y-64052150D01*
X99805275Y-64264698D01*
X99932216Y-64458997D01*
X99932219Y-64459001D01*
X99932221Y-64459003D01*
X100089416Y-64629763D01*
X100089419Y-64629765D01*
X100089422Y-64629768D01*
X100272565Y-64772314D01*
X100272571Y-64772318D01*
X100272574Y-64772320D01*
X100476697Y-64882786D01*
X100476700Y-64882787D01*
X100519601Y-64897515D01*
X100567019Y-64927115D01*
X100952615Y-65312711D01*
X100867506Y-65335517D01*
X100764894Y-65394760D01*
X100681110Y-65478544D01*
X100621867Y-65581156D01*
X100599061Y-65666265D01*
X99890011Y-64957215D01*
X99805716Y-65086240D01*
X99712517Y-65298714D01*
X99655561Y-65523631D01*
X99636402Y-65754844D01*
X99636402Y-65754855D01*
X99655561Y-65986068D01*
X99712517Y-66210985D01*
X99805715Y-66423456D01*
X99890012Y-66552483D01*
X100599061Y-65843434D01*
X100621867Y-65928544D01*
X100681110Y-66031156D01*
X100764894Y-66114940D01*
X100867506Y-66174183D01*
X100952614Y-66196987D01*
X100567018Y-66582584D01*
X100519602Y-66612184D01*
X100476698Y-66626913D01*
X100476695Y-66626914D01*
X100272571Y-66737381D01*
X100272565Y-66737385D01*
X100089422Y-66879931D01*
X100089419Y-66879934D01*
X99932216Y-67050702D01*
X99805275Y-67245001D01*
X99712042Y-67457549D01*
X99655066Y-67682541D01*
X99655064Y-67682552D01*
X99635900Y-67913843D01*
X99635900Y-67913856D01*
X99655064Y-68145147D01*
X99655066Y-68145158D01*
X99712042Y-68370150D01*
X99805275Y-68582698D01*
X99836608Y-68630657D01*
X99856796Y-68697547D01*
X99837615Y-68764732D01*
X99807111Y-68797744D01*
X99783652Y-68815305D01*
X99697406Y-68930514D01*
X99697402Y-68930521D01*
X99647108Y-69065367D01*
X99640842Y-69123655D01*
X99640701Y-69124973D01*
X99640700Y-69124985D01*
X99640700Y-71020720D01*
X99640701Y-71020726D01*
X99647108Y-71080333D01*
X99697402Y-71215178D01*
X99697406Y-71215185D01*
X99783652Y-71330394D01*
X99783655Y-71330397D01*
X99898864Y-71416643D01*
X99898871Y-71416647D01*
X100033717Y-71466941D01*
X100033716Y-71466941D01*
X100040644Y-71467685D01*
X100093327Y-71473350D01*
X101989072Y-71473349D01*
X102048683Y-71466941D01*
X102183531Y-71416646D01*
X102298746Y-71330396D01*
X102384996Y-71215181D01*
X102435291Y-71080333D01*
X102441700Y-71020723D01*
X102441699Y-69174998D01*
X107914532Y-69174998D01*
X107914532Y-69175001D01*
X107934364Y-69401686D01*
X107934366Y-69401697D01*
X107993258Y-69621488D01*
X107993261Y-69621497D01*
X108089431Y-69827732D01*
X108089432Y-69827734D01*
X108219954Y-70014141D01*
X108380858Y-70175045D01*
X108380861Y-70175047D01*
X108567266Y-70305568D01*
X108773504Y-70401739D01*
X108993308Y-70460635D01*
X109155230Y-70474801D01*
X109219998Y-70480468D01*
X109220000Y-70480468D01*
X109220002Y-70480468D01*
X109276673Y-70475509D01*
X109446692Y-70460635D01*
X109666496Y-70401739D01*
X109872734Y-70305568D01*
X110059139Y-70175047D01*
X110220047Y-70014139D01*
X110350568Y-69827734D01*
X110446739Y-69621496D01*
X110505635Y-69401692D01*
X110525468Y-69175000D01*
X110505635Y-68948308D01*
X110456446Y-68764732D01*
X110446741Y-68728511D01*
X110446738Y-68728502D01*
X110437970Y-68709699D01*
X110350568Y-68522266D01*
X110220047Y-68335861D01*
X110220045Y-68335858D01*
X110059141Y-68174954D01*
X109872734Y-68044432D01*
X109872732Y-68044431D01*
X109666497Y-67948261D01*
X109666488Y-67948258D01*
X109446697Y-67889366D01*
X109446693Y-67889365D01*
X109446692Y-67889365D01*
X109446691Y-67889364D01*
X109446686Y-67889364D01*
X109220002Y-67869532D01*
X109219998Y-67869532D01*
X108993313Y-67889364D01*
X108993302Y-67889366D01*
X108773511Y-67948258D01*
X108773502Y-67948261D01*
X108567267Y-68044431D01*
X108567265Y-68044432D01*
X108380858Y-68174954D01*
X108219954Y-68335858D01*
X108089432Y-68522265D01*
X108089431Y-68522267D01*
X107993261Y-68728502D01*
X107993258Y-68728511D01*
X107934366Y-68948302D01*
X107934364Y-68948313D01*
X107914532Y-69174998D01*
X102441699Y-69174998D01*
X102441699Y-69124978D01*
X102435291Y-69065367D01*
X102384996Y-68930519D01*
X102384995Y-68930518D01*
X102384993Y-68930514D01*
X102298747Y-68815305D01*
X102298746Y-68815304D01*
X102275287Y-68797742D01*
X102233417Y-68741808D01*
X102228434Y-68672116D01*
X102245793Y-68630654D01*
X102277123Y-68582701D01*
X102370357Y-68370150D01*
X102427333Y-68145158D01*
X102427335Y-68145147D01*
X102446500Y-67913856D01*
X102446500Y-67913843D01*
X102427335Y-67682552D01*
X102427333Y-67682541D01*
X102370357Y-67457549D01*
X102277124Y-67245001D01*
X102150183Y-67050702D01*
X102150180Y-67050699D01*
X102150179Y-67050697D01*
X101992984Y-66879937D01*
X101992979Y-66879933D01*
X101992977Y-66879931D01*
X101809834Y-66737385D01*
X101809828Y-66737381D01*
X101605704Y-66626914D01*
X101605695Y-66626910D01*
X101562798Y-66612184D01*
X101515380Y-66582584D01*
X101129785Y-66196987D01*
X101214894Y-66174183D01*
X101317506Y-66114940D01*
X101401290Y-66031156D01*
X101460533Y-65928544D01*
X101483338Y-65843435D01*
X102192386Y-66552483D01*
X102276682Y-66423461D01*
X102369882Y-66210985D01*
X102426838Y-65986068D01*
X102445998Y-65754855D01*
X102445998Y-65754844D01*
X102426838Y-65523631D01*
X102369882Y-65298714D01*
X102276684Y-65086243D01*
X102192386Y-64957215D01*
X101483337Y-65666264D01*
X101460533Y-65581156D01*
X101401290Y-65478544D01*
X101317506Y-65394760D01*
X101214894Y-65335517D01*
X101129784Y-65312711D01*
X101515379Y-64927115D01*
X101562795Y-64897516D01*
X101605703Y-64882786D01*
X101809826Y-64772320D01*
X101992984Y-64629763D01*
X102150179Y-64459003D01*
X102277124Y-64264699D01*
X102316471Y-64174997D01*
X107915034Y-64174997D01*
X107915034Y-64175002D01*
X107934858Y-64401599D01*
X107934860Y-64401610D01*
X107993730Y-64621317D01*
X107993735Y-64621331D01*
X108089863Y-64827478D01*
X108140974Y-64900472D01*
X108820000Y-64221446D01*
X108820000Y-64227661D01*
X108847259Y-64329394D01*
X108899920Y-64420606D01*
X108974394Y-64495080D01*
X109065606Y-64547741D01*
X109167339Y-64575000D01*
X109173553Y-64575000D01*
X108494526Y-65254025D01*
X108567513Y-65305132D01*
X108567521Y-65305136D01*
X108773668Y-65401264D01*
X108773682Y-65401269D01*
X108993389Y-65460139D01*
X108993400Y-65460141D01*
X109219998Y-65479966D01*
X109220002Y-65479966D01*
X109446599Y-65460141D01*
X109446610Y-65460139D01*
X109666317Y-65401269D01*
X109666331Y-65401264D01*
X109872478Y-65305136D01*
X109945471Y-65254024D01*
X109266447Y-64575000D01*
X109272661Y-64575000D01*
X109374394Y-64547741D01*
X109465606Y-64495080D01*
X109540080Y-64420606D01*
X109592741Y-64329394D01*
X109620000Y-64227661D01*
X109620000Y-64221447D01*
X110299024Y-64900471D01*
X110350136Y-64827478D01*
X110446264Y-64621331D01*
X110446269Y-64621317D01*
X110505139Y-64401610D01*
X110505141Y-64401599D01*
X110524966Y-64175002D01*
X110524966Y-64174997D01*
X110505141Y-63948400D01*
X110505139Y-63948389D01*
X110446269Y-63728682D01*
X110446264Y-63728668D01*
X110350136Y-63522521D01*
X110350132Y-63522513D01*
X110299025Y-63449526D01*
X109620000Y-64128551D01*
X109620000Y-64122339D01*
X109592741Y-64020606D01*
X109540080Y-63929394D01*
X109465606Y-63854920D01*
X109374394Y-63802259D01*
X109272661Y-63775000D01*
X109266448Y-63775000D01*
X109945472Y-63095974D01*
X109872478Y-63044863D01*
X109666331Y-62948735D01*
X109666317Y-62948730D01*
X109446610Y-62889860D01*
X109446599Y-62889858D01*
X109220002Y-62870034D01*
X109219998Y-62870034D01*
X108993400Y-62889858D01*
X108993389Y-62889860D01*
X108773682Y-62948730D01*
X108773673Y-62948734D01*
X108567516Y-63044866D01*
X108567512Y-63044868D01*
X108494526Y-63095973D01*
X108494526Y-63095974D01*
X109173553Y-63775000D01*
X109167339Y-63775000D01*
X109065606Y-63802259D01*
X108974394Y-63854920D01*
X108899920Y-63929394D01*
X108847259Y-64020606D01*
X108820000Y-64122339D01*
X108820000Y-64128552D01*
X108140974Y-63449526D01*
X108140973Y-63449526D01*
X108089868Y-63522512D01*
X108089866Y-63522516D01*
X107993734Y-63728673D01*
X107993730Y-63728682D01*
X107934860Y-63948389D01*
X107934858Y-63948400D01*
X107915034Y-64174997D01*
X102316471Y-64174997D01*
X102370357Y-64052150D01*
X102427334Y-63827155D01*
X102431656Y-63775000D01*
X102446500Y-63595856D01*
X102446500Y-63595843D01*
X102427335Y-63364552D01*
X102427333Y-63364541D01*
X102370357Y-63139549D01*
X102277124Y-62927001D01*
X102150183Y-62732702D01*
X102150180Y-62732699D01*
X102150179Y-62732697D01*
X101992984Y-62561937D01*
X101992979Y-62561933D01*
X101992977Y-62561931D01*
X101809834Y-62419385D01*
X101809828Y-62419381D01*
X101605704Y-62308914D01*
X101605695Y-62308911D01*
X101386184Y-62233552D01*
X101214482Y-62204900D01*
X101157249Y-62195350D01*
X100925151Y-62195350D01*
X100879364Y-62202990D01*
X100696215Y-62233552D01*
X100476704Y-62308911D01*
X100476695Y-62308914D01*
X100272571Y-62419381D01*
X100272565Y-62419385D01*
X100089422Y-62561931D01*
X100089419Y-62561934D01*
X99932216Y-62732702D01*
X99805275Y-62927001D01*
X99712042Y-63139549D01*
X99655066Y-63364541D01*
X99655064Y-63364552D01*
X99635900Y-63595843D01*
X89735977Y-63595843D01*
X89727335Y-63491552D01*
X89727333Y-63491541D01*
X89670357Y-63266549D01*
X89577124Y-63054001D01*
X89450183Y-62859702D01*
X89450180Y-62859699D01*
X89450179Y-62859697D01*
X89292984Y-62688937D01*
X89292979Y-62688933D01*
X89292977Y-62688931D01*
X89109834Y-62546385D01*
X89109828Y-62546381D01*
X88905704Y-62435914D01*
X88905695Y-62435911D01*
X88686184Y-62360552D01*
X88514482Y-62331900D01*
X88457249Y-62322350D01*
X88225151Y-62322350D01*
X88179364Y-62329990D01*
X87996215Y-62360552D01*
X87776704Y-62435911D01*
X87776695Y-62435914D01*
X87572571Y-62546381D01*
X87572565Y-62546385D01*
X87389422Y-62688931D01*
X87389419Y-62688934D01*
X87232216Y-62859702D01*
X87105275Y-63054001D01*
X87012042Y-63266549D01*
X86955066Y-63491541D01*
X86955064Y-63491552D01*
X86935900Y-63722843D01*
X86670000Y-63722843D01*
X86670000Y-52255939D01*
X86643445Y-52122444D01*
X86643444Y-52122441D01*
X86629424Y-52088592D01*
X86629422Y-52088586D01*
X86591359Y-51996694D01*
X86591352Y-51996681D01*
X86515735Y-51883513D01*
X86515732Y-51883509D01*
X84798812Y-50166590D01*
X84765327Y-50105267D01*
X84766718Y-50046816D01*
X84774063Y-50019408D01*
X84794659Y-49784000D01*
X84774063Y-49548592D01*
X84712903Y-49320337D01*
X84613035Y-49106171D01*
X84486595Y-48925594D01*
X84477494Y-48912597D01*
X84310402Y-48745506D01*
X84310401Y-48745505D01*
X84124405Y-48615269D01*
X84080781Y-48560692D01*
X84073588Y-48491193D01*
X84105110Y-48428839D01*
X84124405Y-48412119D01*
X84310082Y-48282105D01*
X84467001Y-48125186D01*
X106819500Y-48125186D01*
X106819500Y-48394813D01*
X106849686Y-48662719D01*
X106849688Y-48662731D01*
X106909684Y-48925594D01*
X106909687Y-48925602D01*
X106998734Y-49180082D01*
X107115714Y-49422994D01*
X107115716Y-49422997D01*
X107259162Y-49651289D01*
X107427266Y-49862085D01*
X107617915Y-50052734D01*
X107828711Y-50220838D01*
X108057003Y-50364284D01*
X108299921Y-50481267D01*
X108491049Y-50548145D01*
X108554397Y-50570312D01*
X108554405Y-50570315D01*
X108554408Y-50570315D01*
X108554409Y-50570316D01*
X108817268Y-50630312D01*
X109085187Y-50660499D01*
X109085188Y-50660500D01*
X109085191Y-50660500D01*
X109354812Y-50660500D01*
X109354812Y-50660499D01*
X109622732Y-50630312D01*
X109885591Y-50570316D01*
X110140079Y-50481267D01*
X110382997Y-50364284D01*
X110611289Y-50220838D01*
X110822085Y-50052734D01*
X111012734Y-49862085D01*
X111180838Y-49651289D01*
X111324284Y-49422997D01*
X111441267Y-49180079D01*
X111530316Y-48925591D01*
X111590312Y-48662732D01*
X111620500Y-48394809D01*
X111620500Y-48125191D01*
X111590312Y-47857268D01*
X111530316Y-47594409D01*
X111441267Y-47339921D01*
X111324284Y-47097003D01*
X111180838Y-46868711D01*
X111012734Y-46657915D01*
X110822085Y-46467266D01*
X110611289Y-46299162D01*
X110382997Y-46155716D01*
X110382994Y-46155714D01*
X110140082Y-46038734D01*
X109885602Y-45949687D01*
X109885594Y-45949684D01*
X109667513Y-45899909D01*
X109622732Y-45889688D01*
X109622728Y-45889687D01*
X109622719Y-45889686D01*
X109354813Y-45859500D01*
X109354809Y-45859500D01*
X109085191Y-45859500D01*
X109085186Y-45859500D01*
X108817280Y-45889686D01*
X108817268Y-45889688D01*
X108554405Y-45949684D01*
X108554397Y-45949687D01*
X108299917Y-46038734D01*
X108057005Y-46155714D01*
X107828712Y-46299161D01*
X107617915Y-46467265D01*
X107427265Y-46657915D01*
X107259161Y-46868712D01*
X107115714Y-47097005D01*
X106998734Y-47339917D01*
X106909687Y-47594397D01*
X106909684Y-47594405D01*
X106849688Y-47857268D01*
X106849686Y-47857280D01*
X106819500Y-48125186D01*
X84467001Y-48125186D01*
X84477105Y-48115082D01*
X84612600Y-47921578D01*
X84712429Y-47707492D01*
X84712432Y-47707486D01*
X84769636Y-47494000D01*
X83872012Y-47494000D01*
X83904925Y-47436993D01*
X83939000Y-47309826D01*
X83939000Y-47178174D01*
X83904925Y-47051007D01*
X83872012Y-46994000D01*
X84769636Y-46994000D01*
X84769635Y-46993999D01*
X84712432Y-46780513D01*
X84712429Y-46780507D01*
X84612600Y-46566422D01*
X84612599Y-46566420D01*
X84477113Y-46372926D01*
X84477108Y-46372920D01*
X84310082Y-46205894D01*
X84116578Y-46070399D01*
X83902492Y-45970570D01*
X83902486Y-45970567D01*
X83689000Y-45913364D01*
X83689000Y-46810988D01*
X83631993Y-46778075D01*
X83504826Y-46744000D01*
X83373174Y-46744000D01*
X83246007Y-46778075D01*
X83189000Y-46810988D01*
X83189000Y-45913364D01*
X83188999Y-45913364D01*
X82975513Y-45970567D01*
X82975507Y-45970570D01*
X82761422Y-46070399D01*
X82761420Y-46070400D01*
X82567926Y-46205886D01*
X82445865Y-46327947D01*
X82384542Y-46361431D01*
X82314850Y-46356447D01*
X82258917Y-46314575D01*
X82242002Y-46283598D01*
X82241964Y-46283497D01*
X82194814Y-46157080D01*
X82192797Y-46151671D01*
X82192793Y-46151664D01*
X82106547Y-46036455D01*
X82106544Y-46036452D01*
X81991335Y-45950206D01*
X81991328Y-45950202D01*
X81856482Y-45899908D01*
X81856483Y-45899908D01*
X81796883Y-45893501D01*
X81796881Y-45893500D01*
X81796873Y-45893500D01*
X81796864Y-45893500D01*
X80001129Y-45893500D01*
X80001123Y-45893501D01*
X79941516Y-45899908D01*
X79806671Y-45950202D01*
X79806664Y-45950206D01*
X79691455Y-46036452D01*
X79691452Y-46036455D01*
X79605206Y-46151664D01*
X79605202Y-46151671D01*
X79554908Y-46286517D01*
X79548501Y-46346116D01*
X79548500Y-46346135D01*
X79548500Y-48141870D01*
X79548501Y-48141876D01*
X79554908Y-48201483D01*
X79605202Y-48336328D01*
X79605206Y-48336335D01*
X79691452Y-48451544D01*
X79691455Y-48451547D01*
X79806664Y-48537793D01*
X79806671Y-48537797D01*
X79938081Y-48586810D01*
X79994015Y-48628681D01*
X80018432Y-48694145D01*
X80003580Y-48762418D01*
X79982430Y-48790673D01*
X79860503Y-48912600D01*
X79724965Y-49106169D01*
X79724964Y-49106171D01*
X79625098Y-49320335D01*
X79625094Y-49320344D01*
X79563938Y-49548586D01*
X79563936Y-49548596D01*
X79543341Y-49783999D01*
X50115005Y-49783999D01*
X50220838Y-49651289D01*
X50364284Y-49422997D01*
X50481267Y-49180079D01*
X50570316Y-48925591D01*
X50630312Y-48662732D01*
X50660500Y-48394809D01*
X50660500Y-48125191D01*
X50630312Y-47857268D01*
X50570316Y-47594409D01*
X50481267Y-47339921D01*
X50364284Y-47097003D01*
X50297047Y-46989997D01*
X55845034Y-46989997D01*
X55845034Y-46990002D01*
X55864858Y-47216599D01*
X55864860Y-47216610D01*
X55923730Y-47436317D01*
X55923735Y-47436331D01*
X56019863Y-47642478D01*
X56070974Y-47715472D01*
X56750000Y-47036446D01*
X56750000Y-47042661D01*
X56777259Y-47144394D01*
X56829920Y-47235606D01*
X56904394Y-47310080D01*
X56995606Y-47362741D01*
X57097339Y-47390000D01*
X57103553Y-47390000D01*
X56424526Y-48069025D01*
X56497513Y-48120132D01*
X56497521Y-48120136D01*
X56703668Y-48216264D01*
X56703682Y-48216269D01*
X56923389Y-48275139D01*
X56923400Y-48275141D01*
X57149998Y-48294966D01*
X57150002Y-48294966D01*
X57376599Y-48275141D01*
X57376610Y-48275139D01*
X57596317Y-48216269D01*
X57596331Y-48216264D01*
X57802478Y-48120136D01*
X57875471Y-48069024D01*
X57196447Y-47390000D01*
X57202661Y-47390000D01*
X57304394Y-47362741D01*
X57395606Y-47310080D01*
X57470080Y-47235606D01*
X57522741Y-47144394D01*
X57550000Y-47042661D01*
X57550000Y-47036447D01*
X58229024Y-47715471D01*
X58280136Y-47642478D01*
X58376264Y-47436331D01*
X58376269Y-47436317D01*
X58435139Y-47216610D01*
X58435141Y-47216599D01*
X58454966Y-46990002D01*
X58454966Y-46989997D01*
X58435141Y-46763400D01*
X58435139Y-46763389D01*
X58376269Y-46543682D01*
X58376264Y-46543668D01*
X58280136Y-46337521D01*
X58280132Y-46337513D01*
X58229025Y-46264526D01*
X57550000Y-46943551D01*
X57550000Y-46937339D01*
X57522741Y-46835606D01*
X57470080Y-46744394D01*
X57395606Y-46669920D01*
X57304394Y-46617259D01*
X57202661Y-46590000D01*
X57196448Y-46590000D01*
X57875472Y-45910974D01*
X57802478Y-45859863D01*
X57596331Y-45763735D01*
X57596317Y-45763730D01*
X57376610Y-45704860D01*
X57376599Y-45704858D01*
X57150002Y-45685034D01*
X57149998Y-45685034D01*
X56923400Y-45704858D01*
X56923389Y-45704860D01*
X56703682Y-45763730D01*
X56703673Y-45763734D01*
X56497516Y-45859866D01*
X56497512Y-45859868D01*
X56424526Y-45910973D01*
X56424526Y-45910974D01*
X57103553Y-46590000D01*
X57097339Y-46590000D01*
X56995606Y-46617259D01*
X56904394Y-46669920D01*
X56829920Y-46744394D01*
X56777259Y-46835606D01*
X56750000Y-46937339D01*
X56750000Y-46943552D01*
X56070974Y-46264526D01*
X56070973Y-46264526D01*
X56019868Y-46337512D01*
X56019866Y-46337516D01*
X55923734Y-46543673D01*
X55923730Y-46543682D01*
X55864860Y-46763389D01*
X55864858Y-46763400D01*
X55845034Y-46989997D01*
X50297047Y-46989997D01*
X50220838Y-46868711D01*
X50052734Y-46657915D01*
X49862085Y-46467266D01*
X49651289Y-46299162D01*
X49422997Y-46155716D01*
X49422994Y-46155714D01*
X49180082Y-46038734D01*
X48925602Y-45949687D01*
X48925594Y-45949684D01*
X48707513Y-45899909D01*
X48662732Y-45889688D01*
X48662728Y-45889687D01*
X48662719Y-45889686D01*
X48394813Y-45859500D01*
X48394809Y-45859500D01*
X48125191Y-45859500D01*
X48125186Y-45859500D01*
X47857280Y-45889686D01*
X47857268Y-45889688D01*
X47594405Y-45949684D01*
X47594397Y-45949687D01*
X47339917Y-46038734D01*
X47097005Y-46155714D01*
X46868712Y-46299161D01*
X46657915Y-46467265D01*
X46467265Y-46657915D01*
X46299161Y-46868712D01*
X46155714Y-47097005D01*
X46038734Y-47339917D01*
X45949687Y-47594397D01*
X45949684Y-47594405D01*
X45889688Y-47857268D01*
X45889686Y-47857280D01*
X45859500Y-48125186D01*
X43680500Y-48125186D01*
X43680500Y-45586999D01*
X61723127Y-45586999D01*
X61723128Y-45587000D01*
X62686314Y-45587000D01*
X62681920Y-45591394D01*
X62629259Y-45682606D01*
X62602000Y-45784339D01*
X62602000Y-45889661D01*
X62629259Y-45991394D01*
X62681920Y-46082606D01*
X62686314Y-46087000D01*
X61723128Y-46087000D01*
X61775730Y-46283317D01*
X61775734Y-46283326D01*
X61871865Y-46489482D01*
X62002342Y-46675820D01*
X62163179Y-46836657D01*
X62349517Y-46967134D01*
X62555673Y-47063265D01*
X62555682Y-47063269D01*
X62751999Y-47115872D01*
X62752000Y-47115871D01*
X62752000Y-46152686D01*
X62756394Y-46157080D01*
X62847606Y-46209741D01*
X62949339Y-46237000D01*
X63054661Y-46237000D01*
X63156394Y-46209741D01*
X63247606Y-46157080D01*
X63252000Y-46152686D01*
X63252000Y-47115872D01*
X63448317Y-47063269D01*
X63448326Y-47063265D01*
X63654482Y-46967134D01*
X63840820Y-46836657D01*
X64001657Y-46675820D01*
X64132132Y-46489484D01*
X64159341Y-46431134D01*
X64205513Y-46378695D01*
X64272707Y-46359542D01*
X64339588Y-46379757D01*
X64384105Y-46431132D01*
X64400955Y-46467266D01*
X64411431Y-46489732D01*
X64411432Y-46489734D01*
X64541954Y-46676141D01*
X64702858Y-46837045D01*
X64702861Y-46837047D01*
X64889266Y-46967568D01*
X65095504Y-47063739D01*
X65315308Y-47122635D01*
X65477230Y-47136801D01*
X65541998Y-47142468D01*
X65542000Y-47142468D01*
X65542002Y-47142468D01*
X65598673Y-47137509D01*
X65768692Y-47122635D01*
X65988496Y-47063739D01*
X66194734Y-46967568D01*
X66381139Y-46837047D01*
X66542047Y-46676139D01*
X66672568Y-46489734D01*
X66699618Y-46431724D01*
X66745790Y-46379285D01*
X66812983Y-46360133D01*
X66879865Y-46380348D01*
X66924382Y-46431725D01*
X66951429Y-46489728D01*
X66951432Y-46489734D01*
X67081954Y-46676141D01*
X67242858Y-46837045D01*
X67242861Y-46837047D01*
X67429266Y-46967568D01*
X67635504Y-47063739D01*
X67855308Y-47122635D01*
X68017230Y-47136801D01*
X68081998Y-47142468D01*
X68082000Y-47142468D01*
X68082002Y-47142468D01*
X68138673Y-47137509D01*
X68308692Y-47122635D01*
X68528496Y-47063739D01*
X68734734Y-46967568D01*
X68921139Y-46837047D01*
X69082047Y-46676139D01*
X69212568Y-46489734D01*
X69239618Y-46431724D01*
X69285790Y-46379285D01*
X69352983Y-46360133D01*
X69419865Y-46380348D01*
X69464382Y-46431725D01*
X69491429Y-46489728D01*
X69491432Y-46489734D01*
X69621954Y-46676141D01*
X69782858Y-46837045D01*
X69782861Y-46837047D01*
X69969266Y-46967568D01*
X70175504Y-47063739D01*
X70395308Y-47122635D01*
X70557230Y-47136801D01*
X70621998Y-47142468D01*
X70622000Y-47142468D01*
X70622002Y-47142468D01*
X70678673Y-47137509D01*
X70848692Y-47122635D01*
X71068496Y-47063739D01*
X71274734Y-46967568D01*
X71461139Y-46837047D01*
X71622047Y-46676139D01*
X71752568Y-46489734D01*
X71848739Y-46283496D01*
X71907635Y-46063692D01*
X71925467Y-45859868D01*
X71927468Y-45837001D01*
X71927468Y-45836998D01*
X71915907Y-45704858D01*
X71907635Y-45610308D01*
X71848739Y-45390504D01*
X71752568Y-45184266D01*
X71622047Y-44997861D01*
X71622045Y-44997858D01*
X71461141Y-44836954D01*
X71274734Y-44706432D01*
X71274732Y-44706431D01*
X71068497Y-44610261D01*
X71068488Y-44610258D01*
X70848697Y-44551366D01*
X70848693Y-44551365D01*
X70848692Y-44551365D01*
X70848691Y-44551364D01*
X70848686Y-44551364D01*
X70622002Y-44531532D01*
X70621998Y-44531532D01*
X70395313Y-44551364D01*
X70395302Y-44551366D01*
X70175511Y-44610258D01*
X70175502Y-44610261D01*
X69969267Y-44706431D01*
X69969265Y-44706432D01*
X69782858Y-44836954D01*
X69621954Y-44997858D01*
X69491432Y-45184265D01*
X69491431Y-45184267D01*
X69464382Y-45242275D01*
X69418209Y-45294714D01*
X69351016Y-45313866D01*
X69284135Y-45293650D01*
X69239618Y-45242275D01*
X69212686Y-45184520D01*
X69212568Y-45184266D01*
X69082047Y-44997861D01*
X69082045Y-44997858D01*
X68921141Y-44836954D01*
X68734734Y-44706432D01*
X68734732Y-44706431D01*
X68528497Y-44610261D01*
X68528488Y-44610258D01*
X68308697Y-44551366D01*
X68308693Y-44551365D01*
X68308692Y-44551365D01*
X68308691Y-44551364D01*
X68308686Y-44551364D01*
X68082002Y-44531532D01*
X68081998Y-44531532D01*
X67855313Y-44551364D01*
X67855302Y-44551366D01*
X67635511Y-44610258D01*
X67635502Y-44610261D01*
X67429267Y-44706431D01*
X67429265Y-44706432D01*
X67242858Y-44836954D01*
X67081954Y-44997858D01*
X66951432Y-45184265D01*
X66951431Y-45184267D01*
X66924382Y-45242275D01*
X66878209Y-45294714D01*
X66811016Y-45313866D01*
X66744135Y-45293650D01*
X66699618Y-45242275D01*
X66672686Y-45184520D01*
X66672568Y-45184266D01*
X66542047Y-44997861D01*
X66542045Y-44997858D01*
X66381141Y-44836954D01*
X66194734Y-44706432D01*
X66194732Y-44706431D01*
X65988497Y-44610261D01*
X65988488Y-44610258D01*
X65768697Y-44551366D01*
X65768693Y-44551365D01*
X65768692Y-44551365D01*
X65768691Y-44551364D01*
X65768686Y-44551364D01*
X65542002Y-44531532D01*
X65541998Y-44531532D01*
X65315313Y-44551364D01*
X65315302Y-44551366D01*
X65095511Y-44610258D01*
X65095502Y-44610261D01*
X64889267Y-44706431D01*
X64889265Y-44706432D01*
X64702858Y-44836954D01*
X64541954Y-44997858D01*
X64411433Y-45184264D01*
X64411432Y-45184266D01*
X64411315Y-45184518D01*
X64384106Y-45242867D01*
X64337933Y-45295306D01*
X64270739Y-45314457D01*
X64203858Y-45294241D01*
X64159342Y-45242865D01*
X64132135Y-45184520D01*
X64132134Y-45184518D01*
X64001657Y-44998179D01*
X63840820Y-44837342D01*
X63654482Y-44706865D01*
X63448328Y-44610734D01*
X63252000Y-44558127D01*
X63252000Y-45521314D01*
X63247606Y-45516920D01*
X63156394Y-45464259D01*
X63054661Y-45437000D01*
X62949339Y-45437000D01*
X62847606Y-45464259D01*
X62756394Y-45516920D01*
X62752000Y-45521314D01*
X62752000Y-44558127D01*
X62555671Y-44610734D01*
X62349517Y-44706865D01*
X62163179Y-44837342D01*
X62002342Y-44998179D01*
X61871865Y-45184517D01*
X61775734Y-45390673D01*
X61775730Y-45390682D01*
X61723127Y-45586999D01*
X43680500Y-45586999D01*
X43680500Y-43804500D01*
X43700185Y-43737461D01*
X43752989Y-43691706D01*
X43804500Y-43680500D01*
X113675500Y-43680500D01*
X113742539Y-43700185D01*
G37*
%TD.AperFunction*%
%TD*%
M02*
