M48
; DRILL file {KiCad 7.0.10-7.0.10~ubuntu22.04.1} date Mon 12 Feb 2024 03:49:43 PM EST
; FORMAT={-:-/ absolute / inch / decimal}
; #@! TF.CreationDate,2024-02-12T15:49:43-05:00
; #@! TF.GenerationSoftware,Kicad,Pcbnew,7.0.10-7.0.10~ubuntu22.04.1
; #@! TF.FileFunction,Plated,1,2,PTH
FMAT,2
INCH
; #@! TA.AperFunction,Plated,PTH,ViaDrill
T1C0.0280
; #@! TA.AperFunction,Plated,PTH,ComponentDrill
T2C0.0315
; #@! TA.AperFunction,Plated,PTH,ComponentDrill
T3C0.0591
; #@! TA.AperFunction,Plated,PTH,ComponentDrill
T4C0.1260
%
G90
G05
T1
X5.6Y-3.475
X5.6Y-4.1
T2
X4.275Y-3.75
X4.275Y-4.05
X4.275Y-4.35
X4.675Y-3.75
X4.675Y-4.05
X4.675Y-4.35
X4.875Y-4.625
X4.9504Y-3.9254
X4.9504Y-4.0254
X4.9504Y-4.1254
X4.9504Y-4.2254
X4.9508Y-4.4
X5.0492Y-4.4
X5.1508Y-3.75
X5.2492Y-3.75
X5.2504Y-3.9254
X5.2504Y-4.0254
X5.2504Y-4.1254
X5.2504Y-4.2254
X5.275Y-4.625
X5.45Y-3.85
X5.45Y-4.25
X5.7Y-4.625
X5.7504Y-3.9254
X5.7504Y-4.0254
X5.7504Y-4.1254
X5.7504Y-4.2254
X5.7508Y-4.4
X5.8492Y-4.4
X5.9508Y-3.725
X6.0492Y-3.725
X6.0504Y-3.9254
X6.0504Y-4.0254
X6.0504Y-4.1254
X6.0504Y-4.2254
X6.1Y-4.625
T3
X4.1Y-3.75
X4.1Y-4.05
X4.1Y-4.35
X5.0Y-3.1
X5.3Y-3.1
X5.6Y-3.1
X6.375Y-4.025
X6.375Y-4.425
T4
X4.15Y-3.15
X4.15Y-5.3
X6.35Y-3.15
X6.35Y-5.35
M30
