%TF.GenerationSoftware,KiCad,Pcbnew,8.0.0-8.0.0-1~ubuntu22.04.1*%
%TF.CreationDate,2024-03-18T09:13:24-04:00*%
%TF.ProjectId,me310-diff-amp,6d653331-302d-4646-9966-662d616d702e,rev?*%
%TF.SameCoordinates,Original*%
%TF.FileFunction,Soldermask,Top*%
%TF.FilePolarity,Negative*%
%FSLAX46Y46*%
G04 Gerber Fmt 4.6, Leading zero omitted, Abs format (unit mm)*
G04 Created by KiCad (PCBNEW 8.0.0-8.0.0-1~ubuntu22.04.1) date 2024-03-18 09:13:24*
%MOMM*%
%LPD*%
G01*
G04 APERTURE LIST*
%ADD10C,1.600000*%
%ADD11O,1.600000X1.600000*%
%ADD12C,3.000000*%
%ADD13C,6.400000*%
%ADD14R,1.600000X1.600000*%
G04 APERTURE END LIST*
D10*
%TO.C,R4*%
X108585000Y-102870000D03*
D11*
X118745000Y-102870000D03*
%TD*%
D10*
%TO.C,R3*%
X108585000Y-95250000D03*
D11*
X118745000Y-95250000D03*
%TD*%
D10*
%TO.C,R6*%
X154940000Y-117475000D03*
D11*
X144780000Y-117475000D03*
%TD*%
D12*
%TO.C,TP3*%
X134620000Y-78740000D03*
%TD*%
%TO.C,TP4*%
X104140000Y-95250000D03*
%TD*%
%TO.C,TP8*%
X161925000Y-112395000D03*
%TD*%
D10*
%TO.C,C4*%
X146070000Y-111760000D03*
X148570000Y-111760000D03*
%TD*%
%TO.C,R1*%
X108585000Y-110490000D03*
D11*
X118745000Y-110490000D03*
%TD*%
D13*
%TO.C,H4*%
X161290000Y-135890000D03*
%TD*%
%TO.C,H1*%
X105410000Y-80010000D03*
%TD*%
%TO.C,H3*%
X105410000Y-134620000D03*
%TD*%
D12*
%TO.C,TP5*%
X104140000Y-110490000D03*
%TD*%
D14*
%TO.C,U1*%
X125740000Y-99705000D03*
D11*
X125740000Y-102245000D03*
X125740000Y-104785000D03*
X125740000Y-107325000D03*
X133360000Y-107325000D03*
X133360000Y-104785000D03*
X133360000Y-102245000D03*
X133360000Y-99705000D03*
%TD*%
D10*
%TO.C,R2*%
X123825000Y-117475000D03*
D11*
X133985000Y-117475000D03*
%TD*%
D12*
%TO.C,TP6*%
X104140000Y-102870000D03*
%TD*%
D14*
%TO.C,U2*%
X146060000Y-99705000D03*
D11*
X146060000Y-102245000D03*
X146060000Y-104785000D03*
X146060000Y-107325000D03*
X153680000Y-107325000D03*
X153680000Y-104785000D03*
X153680000Y-102245000D03*
X153680000Y-99705000D03*
%TD*%
D12*
%TO.C,TP2*%
X142240000Y-78740000D03*
%TD*%
D13*
%TO.C,H2*%
X161290000Y-80010000D03*
%TD*%
D12*
%TO.C,TP1*%
X127000000Y-78740000D03*
%TD*%
D10*
%TO.C,C3*%
X125750000Y-111760000D03*
X128250000Y-111760000D03*
%TD*%
%TO.C,R5*%
X138430000Y-107950000D03*
D11*
X138430000Y-97790000D03*
%TD*%
D10*
%TO.C,C1*%
X133330000Y-95250000D03*
X130830000Y-95250000D03*
%TD*%
D12*
%TO.C,TP7*%
X161925000Y-102235000D03*
%TD*%
D10*
%TO.C,C2*%
X153650000Y-94615000D03*
X151150000Y-94615000D03*
%TD*%
M02*
