M48
; DRILL file {KiCad 8.0.6-8.0.6-0~ubuntu24.04.1} date 2024-10-24T14:27:12-0400
; FORMAT={-:-/ absolute / inch / decimal}
; #@! TF.CreationDate,2024-10-24T14:27:12-04:00
; #@! TF.GenerationSoftware,Kicad,Pcbnew,8.0.6-8.0.6-0~ubuntu24.04.1
; #@! TF.FileFunction,Plated,1,2,PTH
FMAT,2
INCH
; #@! TA.AperFunction,Plated,PTH,ComponentDrill
T1C0.0430
%
G90
G05
T1
X2.175Y-2.025
X2.175Y-2.275
X2.175Y-2.875
X2.175Y-3.125
X2.175Y-3.375
X2.175Y-3.625
X2.525Y-2.025
X2.525Y-2.275
X2.525Y-2.875
X2.525Y-3.125
X2.525Y-3.375
X2.525Y-3.625
X2.85Y-2.025
X2.85Y-2.275
X2.85Y-2.875
X2.85Y-3.125
X2.85Y-3.375
X2.85Y-3.625
X3.2Y-2.025
X3.2Y-2.275
X3.2Y-2.875
X3.2Y-3.125
X3.2Y-3.375
X3.2Y-3.625
X3.525Y-1.525
X3.525Y-1.775
X3.525Y-2.025
X3.525Y-2.275
X3.525Y-2.875
X3.525Y-3.125
X3.525Y-3.375
X3.525Y-3.625
X3.875Y-1.525
X3.875Y-1.775
X3.875Y-2.025
X3.875Y-2.275
X3.875Y-2.875
X3.875Y-3.125
X3.875Y-3.375
X3.875Y-3.625
X4.2Y-1.525
X4.2Y-1.775
X4.2Y-2.025
X4.2Y-2.275
X4.2Y-2.875
X4.2Y-3.125
X4.2Y-3.375
X4.2Y-3.625
X4.55Y-1.525
X4.55Y-1.775
X4.55Y-2.025
X4.55Y-2.275
X4.55Y-2.875
X4.55Y-3.125
X4.55Y-3.375
X4.55Y-3.625
X4.875Y-1.525
X4.875Y-1.775
X4.875Y-2.025
X4.875Y-2.275
X4.875Y-2.875
X4.875Y-3.125
X5.225Y-1.525
X5.225Y-1.775
X5.225Y-2.025
X5.225Y-2.275
X5.225Y-2.875
X5.225Y-3.125
X5.55Y-1.525
X5.55Y-1.775
X5.55Y-2.025
X5.55Y-2.275
X5.55Y-2.875
X5.55Y-3.125
X5.9Y-1.525
X5.9Y-1.775
X5.9Y-2.025
X5.9Y-2.275
X5.9Y-2.875
X5.9Y-3.125
M30
