%TF.GenerationSoftware,KiCad,Pcbnew,8.0.6-8.0.6-0~ubuntu24.04.1*%
%TF.CreationDate,2024-10-24T14:27:10-04:00*%
%TF.ProjectId,panel,70616e65-6c2e-46b6-9963-61645f706362,rev?*%
%TF.SameCoordinates,Original*%
%TF.FileFunction,Profile,NP*%
%FSLAX46Y46*%
G04 Gerber Fmt 4.6, Leading zero omitted, Abs format (unit mm)*
G04 Created by KiCad (PCBNEW 8.0.6-8.0.6-0~ubuntu24.04.1) date 2024-10-24 14:27:10*
%MOMM*%
%LPD*%
G01*
G04 APERTURE LIST*
%TA.AperFunction,Profile*%
%ADD10C,0.050000*%
%TD*%
G04 APERTURE END LIST*
D10*
X153035000Y-65405000D02*
X153035000Y-62230000D01*
X153035000Y-62230000D02*
X146685000Y-62230000D01*
X92710000Y-62230000D02*
X92710000Y-60960000D01*
X58420000Y-60960000D02*
X52070000Y-60960000D01*
X75565000Y-62230000D02*
X60960000Y-62230000D01*
X84455000Y-60960000D02*
X78105000Y-60960000D01*
X78105000Y-60960000D02*
X78105000Y-62230000D01*
X109855000Y-62230000D02*
X95250000Y-62230000D01*
X58420000Y-62230000D02*
X58420000Y-60960000D01*
X75565000Y-62230000D02*
X75565000Y-60960000D01*
X75565000Y-60960000D02*
X69215000Y-60960000D01*
X135890000Y-60960000D02*
X129540000Y-60960000D01*
X127000000Y-62230000D02*
X112395000Y-62230000D01*
X112395000Y-60960000D02*
X112395000Y-62230000D01*
X109855000Y-62230000D02*
X109855000Y-60960000D01*
X109855000Y-60960000D02*
X103505000Y-60960000D01*
X129540000Y-60960000D02*
X129540000Y-62230000D01*
X92710000Y-60960000D02*
X86360000Y-60960000D01*
X58420000Y-62230000D02*
X52070000Y-62230000D01*
X52070000Y-62230000D02*
X52070000Y-65405000D01*
X92710000Y-62230000D02*
X78105000Y-62230000D01*
X144145000Y-62230000D02*
X129540000Y-62230000D01*
X118745000Y-60960000D02*
X112395000Y-60960000D01*
X127000000Y-62230000D02*
X127000000Y-60960000D01*
X95250000Y-60960000D02*
X95250000Y-62230000D01*
X101600000Y-60960000D02*
X95250000Y-60960000D01*
X127000000Y-60960000D02*
X120650000Y-60960000D01*
X146685000Y-60960000D02*
X146685000Y-62230000D01*
X67310000Y-60960000D02*
X67310000Y-48260000D01*
X67310000Y-48260000D02*
X52070000Y-48260000D01*
X52070000Y-60960000D02*
X52070000Y-48260000D01*
X118745000Y-35560000D02*
X118745000Y-60960000D01*
X103505000Y-35560000D02*
X118745000Y-35560000D01*
X103505000Y-53975000D02*
X103505000Y-53975000D01*
X103505000Y-60960000D02*
X103505000Y-35560000D01*
X60960000Y-60960000D02*
X60960000Y-62230000D01*
X144145000Y-62230000D02*
X144145000Y-60960000D01*
X67310000Y-60960000D02*
X60960000Y-60960000D01*
X144145000Y-60960000D02*
X137795000Y-60960000D01*
X153035000Y-35560000D02*
X153035000Y-60960000D01*
X137795000Y-35560000D02*
X153035000Y-35560000D01*
X137795000Y-53975000D02*
X137795000Y-53975000D01*
X137795000Y-60960000D02*
X137795000Y-35560000D01*
X101600000Y-35560000D02*
X101600000Y-60960000D01*
X84455000Y-60960000D02*
X84455000Y-48260000D01*
X86360000Y-35560000D02*
X101600000Y-35560000D01*
X86360000Y-53975000D02*
X86360000Y-53975000D01*
X86360000Y-60960000D02*
X86360000Y-35560000D01*
X84455000Y-48260000D02*
X69215000Y-48260000D01*
X69215000Y-60960000D02*
X69215000Y-48260000D01*
X135890000Y-35560000D02*
X135890000Y-60960000D01*
X120650000Y-35560000D02*
X135890000Y-35560000D01*
X120650000Y-53975000D02*
X120650000Y-53975000D01*
X120650000Y-60960000D02*
X120650000Y-35560000D01*
X153035000Y-60960000D02*
X146685000Y-60960000D01*
X52070000Y-68580000D02*
X58420000Y-68580000D01*
X52070000Y-65405000D02*
X52070000Y-68580000D01*
X153035000Y-68580000D02*
X153035000Y-65405000D01*
X146685000Y-68580000D02*
X153035000Y-68580000D01*
X137795000Y-69850000D02*
X144145000Y-69850000D01*
X144145000Y-69850000D02*
X144145000Y-68580000D01*
X146685000Y-68580000D02*
X146685000Y-69850000D01*
X146685000Y-69850000D02*
X153035000Y-69850000D01*
X129540000Y-68580000D02*
X144145000Y-68580000D01*
X129540000Y-68580000D02*
X129540000Y-69850000D01*
X112395000Y-68580000D02*
X127000000Y-68580000D01*
X129540000Y-69850000D02*
X135890000Y-69850000D01*
X127000000Y-69850000D02*
X127000000Y-68580000D01*
X120650000Y-69850000D02*
X127000000Y-69850000D01*
X95250000Y-68580000D02*
X109855000Y-68580000D01*
X109855000Y-69850000D02*
X109855000Y-68580000D01*
X112395000Y-68580000D02*
X112395000Y-69850000D01*
X112395000Y-69850000D02*
X118745000Y-69850000D01*
X103505000Y-69850000D02*
X109855000Y-69850000D01*
X86360000Y-69850000D02*
X92710000Y-69850000D01*
X92710000Y-69850000D02*
X92710000Y-68580000D01*
X78105000Y-68580000D02*
X92710000Y-68580000D01*
X95250000Y-68580000D02*
X95250000Y-69850000D01*
X95250000Y-69850000D02*
X101600000Y-69850000D01*
X60960000Y-68580000D02*
X75565000Y-68580000D01*
X75565000Y-69850000D02*
X75565000Y-68580000D01*
X78105000Y-68580000D02*
X78105000Y-69850000D01*
X78105000Y-69850000D02*
X84455000Y-69850000D01*
X69215000Y-69850000D02*
X75565000Y-69850000D01*
X60960000Y-69850000D02*
X67310000Y-69850000D01*
X60960000Y-68580000D02*
X60960000Y-69850000D01*
X58420000Y-69850000D02*
X58420000Y-68580000D01*
X52070000Y-69850000D02*
X58420000Y-69850000D01*
X52070000Y-95250000D02*
X52070000Y-69850000D01*
X67310000Y-95250000D02*
X52070000Y-95250000D01*
X67310000Y-76835000D02*
X67310000Y-76835000D01*
X67310000Y-69850000D02*
X67310000Y-95250000D01*
X69215000Y-95250000D02*
X69215000Y-69850000D01*
X84455000Y-95250000D02*
X69215000Y-95250000D01*
X84455000Y-76835000D02*
X84455000Y-76835000D01*
X84455000Y-69850000D02*
X84455000Y-95250000D01*
X86360000Y-95250000D02*
X86360000Y-69850000D01*
X101600000Y-95250000D02*
X86360000Y-95250000D01*
X101600000Y-76835000D02*
X101600000Y-76835000D01*
X101600000Y-69850000D02*
X101600000Y-95250000D01*
X137795000Y-69850000D02*
X137795000Y-82550000D01*
X137795000Y-82550000D02*
X153035000Y-82550000D01*
X153035000Y-69850000D02*
X153035000Y-82550000D01*
X135890000Y-69850000D02*
X135890000Y-82550000D01*
X120650000Y-82550000D02*
X135890000Y-82550000D01*
X118745000Y-69850000D02*
X118745000Y-95250000D01*
X118745000Y-76835000D02*
X118745000Y-76835000D01*
X118745000Y-95250000D02*
X103505000Y-95250000D01*
X120650000Y-69850000D02*
X120650000Y-82550000D01*
X103505000Y-95250000D02*
X103505000Y-69850000D01*
M02*
