%TF.GenerationSoftware,KiCad,Pcbnew,8.0.6-8.0.6-0~ubuntu24.04.1*%
%TF.CreationDate,2024-10-24T14:27:10-04:00*%
%TF.ProjectId,panel,70616e65-6c2e-46b6-9963-61645f706362,rev?*%
%TF.SameCoordinates,Original*%
%TF.FileFunction,Soldermask,Top*%
%TF.FilePolarity,Negative*%
%FSLAX46Y46*%
G04 Gerber Fmt 4.6, Leading zero omitted, Abs format (unit mm)*
G04 Created by KiCad (PCBNEW 8.0.6-8.0.6-0~ubuntu24.04.1) date 2024-10-24 14:27:10*
%MOMM*%
%LPD*%
G01*
G04 APERTURE LIST*
%ADD10C,2.540000*%
%ADD11C,1.524000*%
G04 APERTURE END LIST*
D10*
%TO.C,J7*%
X106680000Y-38735000D03*
%TD*%
%TO.C,J6*%
X115570000Y-45085000D03*
%TD*%
%TO.C,J1*%
X106680000Y-57785000D03*
%TD*%
D11*
%TO.C,H1*%
X111125000Y-54610000D03*
%TD*%
D10*
%TO.C,J12*%
X64135000Y-51435000D03*
%TD*%
D11*
%TO.C,H3*%
X59690000Y-54610000D03*
%TD*%
D10*
%TO.C,J5*%
X106680000Y-45085000D03*
%TD*%
%TO.C,J4*%
X115570000Y-51435000D03*
%TD*%
%TO.C,J3*%
X106680000Y-51435000D03*
%TD*%
%TO.C,J7*%
X140970000Y-38735000D03*
%TD*%
%TO.C,J6*%
X149860000Y-45085000D03*
%TD*%
%TO.C,J1*%
X140970000Y-57785000D03*
%TD*%
D11*
%TO.C,H1*%
X145415000Y-54610000D03*
%TD*%
D10*
%TO.C,J5*%
X140970000Y-45085000D03*
%TD*%
D11*
%TO.C,H2*%
X111125000Y-41910000D03*
%TD*%
D10*
%TO.C,J8*%
X115570000Y-38735000D03*
%TD*%
%TO.C,J2*%
X115570000Y-57785000D03*
%TD*%
%TO.C,J11*%
X55245000Y-51435000D03*
%TD*%
%TO.C,J10*%
X64135000Y-57785000D03*
%TD*%
%TO.C,J9*%
X55245000Y-57785000D03*
%TD*%
%TO.C,J12*%
X81280000Y-51435000D03*
%TD*%
D11*
%TO.C,H3*%
X76835000Y-54610000D03*
%TD*%
%TO.C,H2*%
X93980000Y-41910000D03*
%TD*%
D10*
%TO.C,J1*%
X89535000Y-57785000D03*
%TD*%
D11*
%TO.C,H1*%
X93980000Y-54610000D03*
%TD*%
D10*
%TO.C,J7*%
X89535000Y-38735000D03*
%TD*%
%TO.C,J6*%
X98425000Y-45085000D03*
%TD*%
%TO.C,J11*%
X72390000Y-51435000D03*
%TD*%
%TO.C,J10*%
X81280000Y-57785000D03*
%TD*%
%TO.C,J4*%
X98425000Y-51435000D03*
%TD*%
%TO.C,J9*%
X72390000Y-57785000D03*
%TD*%
%TO.C,J8*%
X98425000Y-38735000D03*
%TD*%
%TO.C,J2*%
X98425000Y-57785000D03*
%TD*%
%TO.C,J3*%
X89535000Y-51435000D03*
%TD*%
%TO.C,J5*%
X89535000Y-45085000D03*
%TD*%
%TO.C,J4*%
X149860000Y-51435000D03*
%TD*%
%TO.C,J3*%
X140970000Y-51435000D03*
%TD*%
D11*
%TO.C,H2*%
X145415000Y-41910000D03*
%TD*%
D10*
%TO.C,J8*%
X149860000Y-38735000D03*
%TD*%
%TO.C,J2*%
X149860000Y-57785000D03*
%TD*%
D11*
%TO.C,H2*%
X128270000Y-41910000D03*
%TD*%
D10*
%TO.C,J1*%
X123825000Y-57785000D03*
%TD*%
D11*
%TO.C,H1*%
X128270000Y-54610000D03*
%TD*%
D10*
%TO.C,J7*%
X123825000Y-38735000D03*
%TD*%
%TO.C,J6*%
X132715000Y-45085000D03*
%TD*%
%TO.C,J4*%
X132715000Y-51435000D03*
%TD*%
%TO.C,J8*%
X132715000Y-38735000D03*
%TD*%
%TO.C,J2*%
X132715000Y-57785000D03*
%TD*%
%TO.C,J3*%
X123825000Y-51435000D03*
%TD*%
%TO.C,J5*%
X123825000Y-45085000D03*
%TD*%
%TO.C,J7*%
X64135000Y-92075000D03*
%TD*%
%TO.C,J6*%
X55245000Y-85725000D03*
%TD*%
%TO.C,J1*%
X64135000Y-73025000D03*
%TD*%
D11*
%TO.C,H1*%
X59690000Y-76200000D03*
%TD*%
D10*
%TO.C,J5*%
X64135000Y-85725000D03*
%TD*%
%TO.C,J4*%
X55245000Y-79375000D03*
%TD*%
%TO.C,J3*%
X64135000Y-79375000D03*
%TD*%
D11*
%TO.C,H2*%
X59690000Y-88900000D03*
%TD*%
D10*
%TO.C,J8*%
X55245000Y-92075000D03*
%TD*%
%TO.C,J2*%
X55245000Y-73025000D03*
%TD*%
D11*
%TO.C,H2*%
X76835000Y-88900000D03*
%TD*%
D10*
%TO.C,J1*%
X81280000Y-73025000D03*
%TD*%
D11*
%TO.C,H1*%
X76835000Y-76200000D03*
%TD*%
D10*
%TO.C,J7*%
X81280000Y-92075000D03*
%TD*%
%TO.C,J6*%
X72390000Y-85725000D03*
%TD*%
%TO.C,J4*%
X72390000Y-79375000D03*
%TD*%
%TO.C,J8*%
X72390000Y-92075000D03*
%TD*%
%TO.C,J2*%
X72390000Y-73025000D03*
%TD*%
%TO.C,J3*%
X81280000Y-79375000D03*
%TD*%
%TO.C,J5*%
X81280000Y-85725000D03*
%TD*%
D11*
%TO.C,H2*%
X93980000Y-88900000D03*
%TD*%
D10*
%TO.C,J1*%
X98425000Y-73025000D03*
%TD*%
D11*
%TO.C,H1*%
X93980000Y-76200000D03*
%TD*%
D10*
%TO.C,J7*%
X98425000Y-92075000D03*
%TD*%
%TO.C,J6*%
X89535000Y-85725000D03*
%TD*%
%TO.C,J4*%
X89535000Y-79375000D03*
%TD*%
%TO.C,J8*%
X89535000Y-92075000D03*
%TD*%
%TO.C,J2*%
X89535000Y-73025000D03*
%TD*%
%TO.C,J3*%
X98425000Y-79375000D03*
%TD*%
%TO.C,J5*%
X98425000Y-85725000D03*
%TD*%
%TO.C,J12*%
X140970000Y-79375000D03*
%TD*%
D11*
%TO.C,H3*%
X145415000Y-76200000D03*
%TD*%
D10*
%TO.C,J11*%
X149860000Y-79375000D03*
%TD*%
%TO.C,J10*%
X140970000Y-73025000D03*
%TD*%
%TO.C,J9*%
X149860000Y-73025000D03*
%TD*%
D11*
%TO.C,H3*%
X128270000Y-76200000D03*
%TD*%
D10*
%TO.C,J9*%
X132715000Y-73025000D03*
%TD*%
%TO.C,J6*%
X106680000Y-85725000D03*
%TD*%
%TO.C,J11*%
X132715000Y-79375000D03*
%TD*%
%TO.C,J5*%
X115570000Y-85725000D03*
%TD*%
%TO.C,J10*%
X123825000Y-73025000D03*
%TD*%
D11*
%TO.C,H1*%
X111125000Y-76200000D03*
%TD*%
%TO.C,H2*%
X111125000Y-88900000D03*
%TD*%
D10*
%TO.C,J7*%
X115570000Y-92075000D03*
%TD*%
%TO.C,J3*%
X115570000Y-79375000D03*
%TD*%
%TO.C,J2*%
X106680000Y-73025000D03*
%TD*%
%TO.C,J12*%
X123825000Y-79375000D03*
%TD*%
%TO.C,J1*%
X115570000Y-73025000D03*
%TD*%
%TO.C,J8*%
X106680000Y-92075000D03*
%TD*%
%TO.C,J4*%
X106680000Y-79375000D03*
%TD*%
M02*
